<svg width="24" height="24" viewBox="0 0 24 24" fill="none" xmlns="http://www.w3.org/2000/svg">
<path d="M12.0005 0.959961C6.59859 0.959961 2.18297 5.21809 1.93547 10.56H1.44047C0.915469 10.56 0.480469 10.995 0.480469 11.52V14.4C0.480469 14.925 0.915469 15.36 1.44047 15.36H1.92047V19.92L2.11547 20.07C2.11547 20.07 6.18422 23.04 12.0005 23.04C17.8167 23.04 21.8855 20.07 21.8855 20.07L22.0805 19.92V15.36H22.5605C23.0855 15.36 23.5205 14.925 23.5205 14.4V11.52C23.5205 10.995 23.0855 10.56 22.5605 10.56H22.0655C21.818 5.21809 17.4023 0.959961 12.0005 0.959961ZM12.0005 1.91996C17.0423 1.91996 21.1205 5.99809 21.1205 11.04V19.41C20.6236 19.7531 17.1005 22.08 12.0005 22.08C6.90047 22.08 3.37734 19.7531 2.88047 19.41V11.04C2.88047 5.99809 6.95859 1.91996 12.0005 1.91996ZM12.0005 5.27996C9.06047 5.27996 7.01297 6.01684 5.70047 7.12496C4.38797 8.23309 3.84047 9.70121 3.84047 11.04V14.01C3.84047 15.5737 4.68797 16.9256 6.12047 17.82C7.55297 18.7143 9.55922 19.2 12.0005 19.2C14.4417 19.2 16.448 18.7143 17.8805 17.82C19.1423 17.0306 19.9411 15.8812 20.1155 14.55C20.138 14.3718 20.1605 14.1956 20.1605 14.01V11.04C20.1605 9.71809 19.6111 8.25184 18.3005 7.13996C16.9898 6.02809 14.9423 5.27996 12.0005 5.27996ZM12.0005 6.23996C14.7792 6.23996 16.5717 6.94309 17.6705 7.87496C18.7692 8.80684 19.2005 9.98059 19.2005 11.04V14.01C19.2005 14.1075 19.193 14.2012 19.1855 14.295C19.1667 14.3493 19.0917 14.5443 18.8555 14.79C18.5836 15.0731 18.1486 15.36 17.3555 15.36H15.2255C15.0586 15.0731 14.7548 14.88 14.4005 14.88C13.8698 14.88 13.4405 15.3093 13.4405 15.84C13.4405 16.3706 13.8698 16.8 14.4005 16.8C14.7548 16.8 15.0586 16.6068 15.2255 16.32H17.3555C17.7417 16.32 18.0755 16.2525 18.3755 16.155C18.1036 16.4643 17.7792 16.755 17.3705 17.01C16.1517 17.7712 14.3142 18.24 12.0005 18.24C9.68672 18.24 7.84922 17.7712 6.63047 17.01C5.41172 16.2487 4.80047 15.2381 4.80047 14.01V11.04C4.80047 9.95996 5.23359 8.78621 6.33047 7.85996C7.42734 6.93371 9.21984 6.23996 12.0005 6.23996ZM1.44047 11.52H1.92047V14.4H1.44047V11.52ZM22.0805 11.52H22.5605V14.4H22.0805V11.52Z" fill="black"/>
</svg>
