<svg width="24" height="24" viewBox="0 0 24 24" fill="none" xmlns="http://www.w3.org/2000/svg">
<g clip-path="url(#clip0_914_2578)">
<path d="M12 8C11.7235 8 11.5 7.7765 11.5 7.5V5.5C11.5 5.2235 11.7235 5 12 5C12.2765 5 12.5 5.2235 12.5 5.5V7.5C12.5 7.7765 12.2765 8 12 8Z" fill="#FFB300"/>
<path d="M12 0C11.7348 0 11.4804 0.105357 11.2929 0.292893C11.1054 0.48043 11 0.734784 11 1C11 1.26522 11.1054 1.51957 11.2929 1.70711C11.4804 1.89464 11.7348 2 12 2C12.2652 2 12.5196 1.89464 12.7071 1.70711C12.8946 1.51957 13 1.26522 13 1C13 0.734784 12.8946 0.48043 12.7071 0.292893C12.5196 0.105357 12.2652 0 12 0V0ZM12 2C11.7348 2 11.4804 2.10536 11.2929 2.29289C11.1054 2.48043 11 2.73478 11 3C11 3.26522 11.1054 3.51957 11.2929 3.70711C11.4804 3.89464 11.7348 4 12 4C12.2652 4 12.5196 3.89464 12.7071 3.70711C12.8946 3.51957 13 3.26522 13 3C13 2.73478 12.8946 2.48043 12.7071 2.29289C12.5196 2.10536 12.2652 2 12 2Z" fill="#FBC02D"/>
<path d="M12 8C10.6215 8 9.5 6.8785 9.5 5.5C9.5 4.1215 10.6215 3 12 3C13.3785 3 14.5 4.1215 14.5 5.5C14.5 6.8785 13.3785 8 12 8ZM12 4C11.173 4 10.5 4.673 10.5 5.5C10.5 6.327 11.173 7 12 7C12.827 7 13.5 6.327 13.5 5.5C13.5 4.673 12.827 4 12 4Z" fill="#FFB300"/>
<path d="M12 7.5C11.0807 7.5 10.1705 7.68106 9.32122 8.03284C8.47194 8.38463 7.70026 8.90024 7.05025 9.55025C6.40024 10.2003 5.88463 10.9719 5.53284 11.8212C5.18106 12.6705 5 13.5807 5 14.5C5 15.4193 5.18106 16.3295 5.53284 17.1788C5.88463 18.0281 6.40024 18.7997 7.05025 19.4497C7.70026 20.0998 8.47194 20.6154 9.32122 20.9672C10.1705 21.3189 11.0807 21.5 12 21.5C12.9193 21.5 13.8295 21.3189 14.6788 20.9672C15.5281 20.6154 16.2997 20.0998 16.9497 19.4497C17.5998 18.7997 18.1154 18.0281 18.4672 17.1788C18.8189 16.3295 19 15.4193 19 14.5C19 13.5807 18.8189 12.6705 18.4672 11.8212C18.1154 10.9719 17.5998 10.2003 16.9497 9.55025C16.2997 8.90024 15.5281 8.38463 14.6788 8.03284C13.8295 7.68106 12.9193 7.5 12 7.5Z" fill="#FDD835"/>
<path d="M12 22C7.8645 22 4.5 18.6355 4.5 14.5C4.5 10.3645 7.8645 7 12 7C16.1355 7 19.5 10.3645 19.5 14.5C19.5 18.6355 16.1355 22 12 22ZM12 8C8.416 8 5.5 10.916 5.5 14.5C5.5 18.084 8.416 21 12 21C15.584 21 18.5 18.084 18.5 14.5C18.5 10.916 15.584 8 12 8Z" fill="#FBC02D"/>
<path d="M12.5 6H11.5C11.2235 6 11 5.7765 11 5.5C11 5.2235 11.2235 5 11.5 5H12.5C12.7765 5 13 5.2235 13 5.5C13 5.7765 12.7765 6 12.5 6Z" fill="#FFCA28"/>
<path d="M12 9C10.5413 9 9.14236 9.57946 8.11091 10.6109C7.07946 11.6424 6.5 13.0413 6.5 14.5C6.5 15.9587 7.07946 17.3576 8.11091 18.3891C9.14236 19.4205 10.5413 20 12 20C13.4587 20 14.8576 19.4205 15.8891 18.3891C16.9205 17.3576 17.5 15.9587 17.5 14.5C17.5 13.0413 16.9205 11.6424 15.8891 10.6109C14.8576 9.57946 13.4587 9 12 9Z" fill="#FFF9C4"/>
<path d="M11.4863 14.0184L14.2963 12.1104L14.3893 12.2034L12.4813 15.0134L11.4863 14.0184Z" fill="#6D4C41"/>
<path d="M11.5664 14.9654L10.1714 12.7644L10.2644 12.6714L12.4654 14.0664L11.5664 14.9654Z" fill="#6D4C41"/>
<path d="M12 9.5C11.8674 9.5 11.7402 9.55268 11.6464 9.64645C11.5527 9.74021 11.5 9.86739 11.5 10C11.5 10.1326 11.5527 10.2598 11.6464 10.3536C11.7402 10.4473 11.8674 10.5 12 10.5C12.1326 10.5 12.2598 10.4473 12.3536 10.3536C12.4473 10.2598 12.5 10.1326 12.5 10C12.5 9.86739 12.4473 9.74021 12.3536 9.64645C12.2598 9.55268 12.1326 9.5 12 9.5ZM12 18.5C11.8674 18.5 11.7402 18.5527 11.6464 18.6464C11.5527 18.7402 11.5 18.8674 11.5 19C11.5 19.1326 11.5527 19.2598 11.6464 19.3536C11.7402 19.4473 11.8674 19.5 12 19.5C12.1326 19.5 12.2598 19.4473 12.3536 19.3536C12.4473 19.2598 12.5 19.1326 12.5 19C12.5 18.8674 12.4473 18.7402 12.3536 18.6464C12.2598 18.5527 12.1326 18.5 12 18.5ZM16.5 14C16.3674 14 16.2402 14.0527 16.1464 14.1464C16.0527 14.2402 16 14.3674 16 14.5C16 14.6326 16.0527 14.7598 16.1464 14.8536C16.2402 14.9473 16.3674 15 16.5 15C16.6326 15 16.7598 14.9473 16.8536 14.8536C16.9473 14.7598 17 14.6326 17 14.5C17 14.3674 16.9473 14.2402 16.8536 14.1464C16.7598 14.0527 16.6326 14 16.5 14ZM7.5 14C7.36739 14 7.24021 14.0527 7.14645 14.1464C7.05268 14.2402 7 14.3674 7 14.5C7 14.6326 7.05268 14.7598 7.14645 14.8536C7.24021 14.9473 7.36739 15 7.5 15C7.63261 15 7.75979 14.9473 7.85355 14.8536C7.94732 14.7598 8 14.6326 8 14.5C8 14.3674 7.94732 14.2402 7.85355 14.1464C7.75979 14.0527 7.63261 14 7.5 14ZM15 11C14.8674 11 14.7402 11.0527 14.6464 11.1464C14.5527 11.2402 14.5 11.3674 14.5 11.5C14.5 11.6326 14.5527 11.7598 14.6464 11.8536C14.7402 11.9473 14.8674 12 15 12C15.1326 12 15.2598 11.9473 15.3536 11.8536C15.4473 11.7598 15.5 11.6326 15.5 11.5C15.5 11.3674 15.4473 11.2402 15.3536 11.1464C15.2598 11.0527 15.1326 11 15 11ZM9 17C8.86739 17 8.74021 17.0527 8.64645 17.1464C8.55268 17.2402 8.5 17.3674 8.5 17.5C8.5 17.6326 8.55268 17.7598 8.64645 17.8536C8.74021 17.9473 8.86739 18 9 18C9.13261 18 9.25979 17.9473 9.35355 17.8536C9.44732 17.7598 9.5 17.6326 9.5 17.5C9.5 17.3674 9.44732 17.2402 9.35355 17.1464C9.25979 17.0527 9.13261 17 9 17ZM15 17C14.8674 17 14.7402 17.0527 14.6464 17.1464C14.5527 17.2402 14.5 17.3674 14.5 17.5C14.5 17.6326 14.5527 17.7598 14.6464 17.8536C14.7402 17.9473 14.8674 18 15 18C15.1326 18 15.2598 17.9473 15.3536 17.8536C15.4473 17.7598 15.5 17.6326 15.5 17.5C15.5 17.3674 15.4473 17.2402 15.3536 17.1464C15.2598 17.0527 15.1326 17 15 17ZM9 11C8.86739 11 8.74021 11.0527 8.64645 11.1464C8.55268 11.2402 8.5 11.3674 8.5 11.5C8.5 11.6326 8.55268 11.7598 8.64645 11.8536C8.74021 11.9473 8.86739 12 9 12C9.13261 12 9.25979 11.9473 9.35355 11.8536C9.44732 11.7598 9.5 11.6326 9.5 11.5C9.5 11.3674 9.44732 11.2402 9.35355 11.1464C9.25979 11.0527 9.13261 11 9 11ZM12 13.5C11.7348 13.5 11.4804 13.6054 11.2929 13.7929C11.1054 13.9804 11 14.2348 11 14.5C11 14.7652 11.1054 15.0196 11.2929 15.2071C11.4804 15.3946 11.7348 15.5 12 15.5C12.2652 15.5 12.5196 15.3946 12.7071 15.2071C12.8946 15.0196 13 14.7652 13 14.5C13 14.2348 12.8946 13.9804 12.7071 13.7929C12.5196 13.6054 12.2652 13.5 12 13.5Z" fill="#A1887F"/>
</g>
<defs>
<clipPath id="clip0_914_2578">
<rect width="24" height="24" fill="white"/>
</clipPath>
</defs>
</svg>
