<svg width="24" height="24" viewBox="0 0 24 24" fill="none" xmlns="http://www.w3.org/2000/svg">
<g clip-path="url(#clip0_827_7283)">
<path d="M11.5996 13.2002C10.4969 13.2002 9.59961 14.0975 9.59961 15.2002V16.8002C9.59961 17.9029 10.4969 18.8002 11.5996 18.8002C12.7023 18.8002 13.5996 17.9029 13.5996 16.8002V15.2002C13.5996 14.0975 12.7023 13.2002 11.5996 13.2002ZM12.7996 16.8002C12.7996 17.4619 12.2613 18.0002 11.5996 18.0002C10.9379 18.0002 10.3996 17.4619 10.3996 16.8002V15.2002C10.3996 14.5385 10.9379 14.0002 11.5996 14.0002C12.2613 14.0002 12.7996 14.5385 12.7996 15.2002V16.8002Z" fill="#333333"/>
<path d="M21.9998 14.0002C22.2209 14.0002 22.3998 13.8211 22.3998 13.6002C22.3998 13.3793 22.2209 13.2002 21.9998 13.2002H19.1998C18.9787 13.2002 18.7998 13.3793 18.7998 13.6002V18.4002C18.7998 18.6211 18.9787 18.8002 19.1998 18.8002H21.9998C22.2209 18.8002 22.3998 18.6211 22.3998 18.4002C22.3998 18.1793 22.2209 18.0002 21.9998 18.0002H19.5998V16.4002H21.9998C22.2209 16.4002 22.3998 16.2211 22.3998 16.0002C22.3998 15.7793 22.2209 15.6002 21.9998 15.6002H19.5998V14.0002H21.9998Z" fill="#333333"/>
<path d="M8.8 18.0002H6.8V13.6002C6.8 13.3793 6.62109 13.2002 6.4 13.2002C6.17891 13.2002 6 13.3793 6 13.6002V18.4002C6 18.6211 6.17891 18.8002 6.4 18.8002H8.8C9.02109 18.8002 9.2 18.6211 9.2 18.4002C9.2 18.1793 9.02109 18.0002 8.8 18.0002Z" fill="#333333"/>
<path d="M4.49922 17.592C4.27109 17.8514 3.94297 18.0002 3.59961 18.0002C2.93789 18.0002 2.39961 17.4619 2.39961 16.8002V15.2002C2.39961 14.5385 2.93789 14.0002 3.59961 14.0002C3.91758 14.0002 4.21992 14.1256 4.47383 14.3764C4.60235 14.5564 4.85117 14.5977 5.03203 14.4697C5.21172 14.3414 5.25352 14.0918 5.12539 13.9119C5.09375 13.8674 5.05664 13.8279 5.0125 13.7832C4.63086 13.4072 4.12891 13.2002 3.59961 13.2002C2.49687 13.2002 1.59961 14.0975 1.59961 15.2002V16.8002C1.59961 17.9029 2.49687 18.8002 3.59961 18.8002C4.17305 18.8002 4.71992 18.5525 5.1 18.1205C5.24571 17.9547 5.22969 17.702 5.06367 17.5561C4.89844 17.4102 4.6457 17.4258 4.49922 17.592Z" fill="#333333"/>
<path d="M16.0004 14.0002H17.6004C17.8215 14.0002 18.0004 13.8211 18.0004 13.6002C18.0004 13.3793 17.8215 13.2002 17.6004 13.2002H16.0004C15.118 13.2002 14.4004 13.918 14.4004 14.8002C14.4004 15.6824 15.118 16.4002 16.0004 16.4002H16.4004C16.8414 16.4002 17.2004 16.759 17.2004 17.2002C17.2004 17.6414 16.8414 18.0002 16.4004 18.0002H14.8004C14.5793 18.0002 14.4004 18.1793 14.4004 18.4002C14.4004 18.6211 14.5793 18.8002 14.8004 18.8002H16.4004C17.2828 18.8002 18.0004 18.0824 18.0004 17.2002C18.0004 16.318 17.2828 15.6002 16.4004 15.6002H16.0004C15.5594 15.6002 15.2004 15.2414 15.2004 14.8002C15.2004 14.359 15.5594 14.0002 16.0004 14.0002Z" fill="#333333"/>
<path d="M22.4 8.79981H18.9656L13.3733 3.20747C13.5138 2.96948 13.6 2.69563 13.6 2.3998C13.6 1.51758 12.8824 0.799805 12 0.799805C11.1176 0.799805 10.4 1.51758 10.4 2.3998C10.4 2.69563 10.4862 2.96948 10.6267 3.20747L5.03438 8.79981H1.6C0.71758 8.79981 0 9.51758 0 10.3998V21.5998C0 22.482 0.71758 23.1998 1.6 23.1998H22.4C23.2824 23.1998 24 22.482 24 21.5998V10.3998C24 9.51758 23.2824 8.79981 22.4 8.79981ZM12 1.5998C12.441 1.5998 12.8 1.95859 12.8 2.3998C12.8 2.62009 12.7105 2.81975 12.566 2.96455C12.5657 2.96477 12.5655 2.96482 12.5652 2.96504C12.565 2.96526 12.5649 2.96558 12.5647 2.9658C12.4199 3.1103 12.2202 3.1998 12 3.1998C11.7798 3.1998 11.5801 3.1103 11.4353 2.9658C11.4351 2.96558 11.435 2.96526 11.4348 2.96504C11.4345 2.96482 11.4343 2.96477 11.434 2.96455C11.2895 2.81975 11.2 2.62009 11.2 2.3998C11.2 1.95859 11.559 1.5998 12 1.5998ZM11.1923 3.77312C11.4303 3.91365 11.7042 3.9998 12 3.9998C12.2958 3.9998 12.5697 3.91365 12.8077 3.77312L17.8344 8.79981H6.16562L11.1923 3.77312ZM23.2 21.5998C23.2 22.041 22.841 22.3998 22.4 22.3998H1.6C1.15898 22.3998 0.8 22.041 0.8 21.5998V10.3998C0.8 9.95859 1.15898 9.59981 1.6 9.59981H22.4C22.841 9.59981 23.2 9.95859 23.2 10.3998V21.5998Z" fill="#333333"/>
</g>
<defs>
<clipPath id="clip0_827_7283">
<rect width="24" height="24" fill="white"/>
</clipPath>
</defs>
</svg>
