<svg width="24" height="24" viewBox="0 0 24 24" fill="none" xmlns="http://www.w3.org/2000/svg">
<g clip-path="url(#clip0_2473_121)">
<mask id="mask0_2473_121" style="mask-type:luminance" maskUnits="userSpaceOnUse" x="0" y="0" width="24" height="24">
<path d="M24 0H0V24H24V0Z" fill="white"/>
</mask>
<g mask="url(#mask0_2473_121)">
<path d="M11.5996 13.2012C10.4969 13.2012 9.59961 14.0985 9.59961 15.2012V16.8012C9.59961 17.9039 10.4969 18.8012 11.5996 18.8012C12.7023 18.8012 13.5996 17.9039 13.5996 16.8012V15.2012C13.5996 14.0985 12.7023 13.2012 11.5996 13.2012ZM12.7996 16.8012C12.7996 17.4629 12.2613 18.0012 11.5996 18.0012C10.9379 18.0012 10.3996 17.4629 10.3996 16.8012V15.2012C10.3996 14.5395 10.9379 14.0012 11.5996 14.0012C12.2613 14.0012 12.7996 14.5395 12.7996 15.2012V16.8012Z" fill="white"/>
<path d="M21.9998 14.0012C22.2209 14.0012 22.3998 13.8221 22.3998 13.6012C22.3998 13.3803 22.2209 13.2012 21.9998 13.2012H19.1998C18.9787 13.2012 18.7998 13.3803 18.7998 13.6012V18.4012C18.7998 18.6221 18.9787 18.8012 19.1998 18.8012H21.9998C22.2209 18.8012 22.3998 18.6221 22.3998 18.4012C22.3998 18.1803 22.2209 18.0012 21.9998 18.0012H19.5998V16.4012H21.9998C22.2209 16.4012 22.3998 16.2221 22.3998 16.0012C22.3998 15.7803 22.2209 15.6012 21.9998 15.6012H19.5998V14.0012H21.9998Z" fill="white"/>
<path d="M8.8 18.0012H6.8V13.6012C6.8 13.3803 6.62109 13.2012 6.4 13.2012C6.17891 13.2012 6 13.3803 6 13.6012V18.4012C6 18.6221 6.17891 18.8012 6.4 18.8012H8.8C9.02109 18.8012 9.2 18.6221 9.2 18.4012C9.2 18.1803 9.02109 18.0012 8.8 18.0012Z" fill="white"/>
<path d="M4.49922 17.593C4.27109 17.8524 3.94297 18.0012 3.59961 18.0012C2.93789 18.0012 2.39961 17.4629 2.39961 16.8012V15.2012C2.39961 14.5395 2.93789 14.0012 3.59961 14.0012C3.91758 14.0012 4.21992 14.1266 4.47383 14.3774C4.60235 14.5574 4.85117 14.5987 5.03203 14.4707C5.21172 14.3424 5.25352 14.0928 5.12539 13.9129C5.09375 13.8684 5.05664 13.8289 5.0125 13.7842C4.63086 13.4082 4.12891 13.2012 3.59961 13.2012C2.49687 13.2012 1.59961 14.0985 1.59961 15.2012V16.8012C1.59961 17.9039 2.49687 18.8012 3.59961 18.8012C4.17305 18.8012 4.71992 18.5535 5.1 18.1215C5.24571 17.9557 5.22969 17.703 5.06367 17.5571C4.89844 17.4112 4.6457 17.4268 4.49922 17.593Z" fill="white"/>
<path d="M16.0004 14.0012H17.6004C17.8215 14.0012 18.0004 13.8221 18.0004 13.6012C18.0004 13.3803 17.8215 13.2012 17.6004 13.2012H16.0004C15.118 13.2012 14.4004 13.919 14.4004 14.8012C14.4004 15.6834 15.118 16.4012 16.0004 16.4012H16.4004C16.8414 16.4012 17.2004 16.76 17.2004 17.2012C17.2004 17.6424 16.8414 18.0012 16.4004 18.0012H14.8004C14.5793 18.0012 14.4004 18.1803 14.4004 18.4012C14.4004 18.6221 14.5793 18.8012 14.8004 18.8012H16.4004C17.2828 18.8012 18.0004 18.0834 18.0004 17.2012C18.0004 16.319 17.2828 15.6012 16.4004 15.6012H16.0004C15.5594 15.6012 15.2004 15.2424 15.2004 14.8012C15.2004 14.36 15.5594 14.0012 16.0004 14.0012Z" fill="white"/>
<path d="M22.4 8.80079H18.9656L13.3733 3.20845C13.5138 2.97046 13.6 2.69661 13.6 2.40078C13.6 1.51856 12.8824 0.800781 12 0.800781C11.1176 0.800781 10.4 1.51856 10.4 2.40078C10.4 2.69661 10.4862 2.97046 10.6267 3.20845L5.03438 8.80079H1.6C0.71758 8.80079 0 9.51856 0 10.4008V21.6008C0 22.483 0.71758 23.2008 1.6 23.2008H22.4C23.2824 23.2008 24 22.483 24 21.6008V10.4008C24 9.51856 23.2824 8.80079 22.4 8.80079ZM12 1.60078C12.441 1.60078 12.8 1.95957 12.8 2.40078C12.8 2.62107 12.7105 2.82073 12.566 2.96553C12.5663 2.96531 12.5657 2.96575 12.566 2.96553C12.5658 2.96575 12.5649 2.96656 12.5647 2.96678C12.4199 3.11128 12.2202 3.20078 12 3.20078C11.7798 3.20078 11.5801 3.11128 11.4353 2.96678C11.4355 2.967 11.4351 2.96656 11.4353 2.96678C11.435 2.96656 11.4343 2.96575 11.434 2.96553C11.2895 2.82073 11.2 2.62107 11.2 2.40078C11.2 1.95957 11.559 1.60078 12 1.60078ZM11.1923 3.7741C11.4303 3.91463 11.7042 4.00078 12 4.00078C12.2958 4.00078 12.5697 3.91463 12.8077 3.7741L17.8344 8.80079H6.16562L11.1923 3.7741ZM23.2 21.6008C23.2 22.042 22.841 22.4008 22.4 22.4008H1.6C1.15898 22.4008 0.8 22.042 0.8 21.6008V10.4008C0.8 9.95957 1.15898 9.60079 1.6 9.60079H22.4C22.841 9.60079 23.2 9.95957 23.2 10.4008V21.6008Z" fill="white"/>
</g>
</g>
<defs>
<clipPath id="clip0_2473_121">
<rect width="24" height="24" fill="white"/>
</clipPath>
</defs>
</svg>
