<svg width="24" height="24" viewBox="0 0 24 24" fill="none" xmlns="http://www.w3.org/2000/svg">
<path d="M10 17.5H14V21.5C14 21.7652 13.8946 22.0196 13.7071 22.2071C13.5196 22.3946 13.2652 22.5 13 22.5H11C10.7348 22.5 10.4804 22.3946 10.2929 22.2071C10.1054 22.0196 10 21.7652 10 21.5V17.5Z" fill="#64717C"/>
<path d="M12.5 5.5H11.5V8H12.5V5.5Z" fill="#64717C"/>
<path d="M11.5 7H12.5C12.6326 7 12.7598 7.05268 12.8536 7.14645C12.9473 7.24021 13 7.36739 13 7.5V8H11V7.5C11 7.36739 11.0527 7.24021 11.1464 7.14645C11.2402 7.05268 11.3674 7 11.5 7Z" fill="#64717C"/>
<path d="M14 2H10C8.89543 2 8 2.89543 8 4C8 5.10457 8.89543 6 10 6H14C15.1046 6 16 5.10457 16 4C16 2.89543 15.1046 2 14 2Z" fill="url(#paint0_linear_914_2624)"/>
<path d="M15.0907 18H8.90929C8.66049 18 8.42062 17.9073 8.23653 17.7399C8.05245 17.5725 7.93738 17.3425 7.91379 17.0948L7.0045 8.59481C6.9913 8.45612 7.00721 8.3162 7.05123 8.18402C7.09525 8.05184 7.16641 7.93032 7.26013 7.82725C7.35386 7.72417 7.46809 7.64182 7.5955 7.58546C7.72291 7.52911 7.86069 7.5 8 7.5H16C16.1393 7.5 16.2771 7.52911 16.4045 7.58546C16.5319 7.64182 16.6461 7.72417 16.7399 7.82725C16.8336 7.93032 16.9048 8.05184 16.9488 8.18402C16.9928 8.3162 17.0087 8.45612 16.9955 8.59481L16.0862 17.0948C16.0626 17.3425 15.9476 17.5725 15.7635 17.7399C15.5794 17.9073 15.3395 18 15.0907 18Z" fill="url(#paint1_linear_914_2624)"/>
<path d="M5.77145 8.60423L4.02197 14.3545L4.97867 14.6456L6.72815 8.8953L5.77145 8.60423Z" fill="url(#paint2_linear_914_2624)"/>
<path d="M18.2282 8.60483L17.2715 8.896L19.0216 14.6461L19.9782 14.3549L18.2282 8.60483Z" fill="url(#paint3_linear_914_2624)"/>
<path opacity="0.05" d="M13.5 10C13.6326 10 13.7598 10.0527 13.8536 10.1464C13.9473 10.2402 14 10.3674 14 10.5V12.5C14 12.6326 13.9473 12.7598 13.8536 12.8536C13.7598 12.9473 13.6326 13 13.5 13H10.5C10.3674 13 10.2402 12.9473 10.1464 12.8536C10.0527 12.7598 10 12.6326 10 12.5V10.5C10 10.3674 10.0527 10.2402 10.1464 10.1464C10.2402 10.0527 10.3674 10 10.5 10H13.5ZM13.5 9.5H10.5C10.2349 9.5003 9.9807 9.60575 9.79323 9.79323C9.60575 9.9807 9.5003 10.2349 9.5 10.5V12.5C9.5003 12.7651 9.60575 13.0193 9.79323 13.2068C9.9807 13.3942 10.2349 13.4997 10.5 13.5H13.5C13.7651 13.4997 14.0193 13.3942 14.2068 13.2068C14.3942 13.0193 14.4997 12.7651 14.5 12.5V10.5C14.4997 10.2349 14.3942 9.98069 14.2068 9.79322C14.0193 9.60575 13.7651 9.5003 13.5 9.5Z" fill="black"/>
<path opacity="0.07" d="M13.5 10C13.6326 10 13.7598 10.0527 13.8536 10.1464C13.9473 10.2402 14 10.3674 14 10.5V12.5C14 12.6326 13.9473 12.7598 13.8536 12.8536C13.7598 12.9473 13.6326 13 13.5 13H10.5C10.3674 13 10.2402 12.9473 10.1464 12.8536C10.0527 12.7598 10 12.6326 10 12.5V10.5C10 10.3674 10.0527 10.2402 10.1464 10.1464C10.2402 10.0527 10.3674 10 10.5 10H13.5ZM13.5 9.75H10.5C10.3012 9.75022 10.1105 9.82931 9.96992 9.96992C9.82931 10.1105 9.75022 10.3012 9.75 10.5V12.5C9.75022 12.6988 9.82931 12.8895 9.96992 13.0301C10.1105 13.1707 10.3012 13.2498 10.5 13.25H13.5C13.6988 13.2498 13.8895 13.1707 14.0301 13.0301C14.1707 12.8895 14.2498 12.6988 14.25 12.5V10.5C14.2498 10.3012 14.1707 10.1105 14.0301 9.96992C13.8895 9.82932 13.6988 9.75023 13.5 9.75Z" fill="black"/>
<path d="M13.5 10H10.5C10.2239 10 10 10.2239 10 10.5V12.5C10 12.7761 10.2239 13 10.5 13H13.5C13.7761 13 14 12.7761 14 12.5V10.5C14 10.2239 13.7761 10 13.5 10Z" fill="#64717C"/>
<path d="M13.5 3H10.5C9.94772 3 9.5 3.44772 9.5 4C9.5 4.55228 9.94772 5 10.5 5H13.5C14.0523 5 14.5 4.55228 14.5 4C14.5 3.44772 14.0523 3 13.5 3Z" fill="#64717C"/>
<path d="M10.5 4.5C10.7761 4.5 11 4.27614 11 4C11 3.72386 10.7761 3.5 10.5 3.5C10.2239 3.5 10 3.72386 10 4C10 4.27614 10.2239 4.5 10.5 4.5Z" fill="#50E6FF"/>
<path d="M13.5 4.5C13.7761 4.5 14 4.27614 14 4C14 3.72386 13.7761 3.5 13.5 3.5C13.2239 3.5 13 3.72386 13 4C13 4.27614 13.2239 4.5 13.5 4.5Z" fill="#50E6FF"/>
<path d="M6.25 10C6.94036 10 7.5 9.44036 7.5 8.75C7.5 8.05964 6.94036 7.5 6.25 7.5C5.55964 7.5 5 8.05964 5 8.75C5 9.44036 5.55964 10 6.25 10Z" fill="#64717C"/>
<path d="M17.75 10C18.4404 10 19 9.44036 19 8.75C19 8.05964 18.4404 7.5 17.75 7.5C17.0596 7.5 16.5 8.05964 16.5 8.75C16.5 9.44036 17.0596 10 17.75 10Z" fill="#64717C"/>
<path d="M5.5 16C5.43433 16 5.36931 15.9871 5.30864 15.962C5.24797 15.9369 5.19284 15.9 5.14641 15.8536C5.09998 15.8072 5.06315 15.752 5.03803 15.6914C5.0129 15.6307 4.99998 15.5657 5 15.5C5 15.3674 4.94732 15.2402 4.85355 15.1464C4.75979 15.0527 4.63261 15 4.5 15C4.36739 15 4.24021 15.0527 4.14645 15.1464C4.05268 15.2402 4 15.3674 4 15.5C4 15.6326 3.94732 15.7598 3.85355 15.8536C3.75979 15.9473 3.63261 16 3.5 16C3.36739 16 3.24021 15.9473 3.14645 15.8536C3.05268 15.7598 3 15.6326 3 15.5C3 15.1022 3.15804 14.7206 3.43934 14.4393C3.72064 14.158 4.10218 14 4.5 14C4.89782 14 5.27936 14.158 5.56066 14.4393C5.84196 14.7206 6 15.1022 6 15.5C6.00002 15.5657 5.9871 15.6307 5.96197 15.6914C5.93685 15.752 5.90002 15.8072 5.85359 15.8536C5.80716 15.9 5.75203 15.9369 5.69136 15.962C5.63069 15.9871 5.56567 16 5.5 16Z" fill="#64717C"/>
<path d="M20.5 16C20.4343 16 20.3693 15.9871 20.3086 15.962C20.248 15.9369 20.1928 15.9 20.1464 15.8536C20.1 15.8072 20.0631 15.752 20.038 15.6914C20.0129 15.6307 20 15.5657 20 15.5C20 15.3674 19.9473 15.2402 19.8536 15.1464C19.7598 15.0527 19.6326 15 19.5 15C19.3674 15 19.2402 15.0527 19.1464 15.1464C19.0527 15.2402 19 15.3674 19 15.5C19 15.6326 18.9473 15.7598 18.8536 15.8536C18.7598 15.9473 18.6326 16 18.5 16C18.3674 16 18.2402 15.9473 18.1464 15.8536C18.0527 15.7598 18 15.6326 18 15.5C18 15.1022 18.158 14.7206 18.4393 14.4393C18.7206 14.158 19.1022 14 19.5 14C19.8978 14 20.2794 14.158 20.5607 14.4393C20.842 14.7206 21 15.1022 21 15.5C21 15.5657 20.9871 15.6307 20.962 15.6914C20.9369 15.752 20.9 15.8072 20.8536 15.8536C20.8072 15.9 20.752 15.9369 20.6914 15.962C20.6307 15.9871 20.5657 16 20.5 16Z" fill="#64717C"/>
<defs>
<linearGradient id="paint0_linear_914_2624" x1="11.082" y1="1.4775" x2="12.918" y2="6.5225" gradientUnits="userSpaceOnUse">
<stop stop-color="#A1AAB3"/>
<stop offset="1" stop-color="#8F979E"/>
</linearGradient>
<linearGradient id="paint1_linear_914_2624" x1="212.35" y1="149.061" x2="296.651" y2="369.636" gradientUnits="userSpaceOnUse">
<stop stop-color="#A1AAB3"/>
<stop offset="1" stop-color="#8F979E"/>
</linearGradient>
<linearGradient id="paint2_linear_914_2624" x1="5.37499" y1="14.8616" x2="5.37499" y2="9.66964" gradientUnits="userSpaceOnUse">
<stop offset="0.503" stop-color="#A1AAB3"/>
<stop offset="0.658" stop-color="#9EA7AF"/>
<stop offset="0.796" stop-color="#949DA5"/>
<stop offset="0.928" stop-color="#848C92"/>
<stop offset="1" stop-color="#787F85"/>
</linearGradient>
<linearGradient id="paint3_linear_914_2624" x1="55.3748" y1="187.27" x2="55.3748" y2="124.857" gradientUnits="userSpaceOnUse">
<stop offset="0.503" stop-color="#A1AAB3"/>
<stop offset="0.658" stop-color="#9EA7AF"/>
<stop offset="0.796" stop-color="#949DA5"/>
<stop offset="0.928" stop-color="#848C92"/>
<stop offset="1" stop-color="#787F85"/>
</linearGradient>
</defs>
</svg>
