<svg width="32" height="48" viewBox="0 0 32 48" fill="none" xmlns="http://www.w3.org/2000/svg">
<g clip-path="url(#clip0_4156_32562)">
<path d="M8.00182 47.9909C12.4169 47.9909 16.0002 44.4077 16.0002 39.9925V31.9941H8.00182C3.5867 31.9941 0.00341797 35.5774 0.00341797 39.9925C0.00341797 44.4077 3.5867 47.9909 8.00182 47.9909Z" fill="#0ACF83"/>
<path d="M0.00341797 23.9945C0.00341797 19.5794 3.5867 15.9961 8.00182 15.9961H16.0002V31.9929H8.00182C3.5867 31.9929 0.00341797 28.4096 0.00341797 23.9945Z" fill="#A259FF"/>
<path d="M0.00341797 7.9984C0.00341797 3.58328 3.5867 0 8.00182 0H16.0002V15.9968H8.00182C3.5867 15.9968 0.00341797 12.4135 0.00341797 7.9984Z" fill="#F24E1E"/>
<path d="M16 0H23.9984C28.4135 0 31.9968 3.58328 31.9968 7.9984C31.9968 12.4135 28.4135 15.9968 23.9984 15.9968H16V0Z" fill="#FF7262"/>
<path d="M31.9968 23.9945C31.9968 28.4096 28.4135 31.9929 23.9984 31.9929C19.5833 31.9929 16 28.4096 16 23.9945C16 19.5794 19.5833 15.9961 23.9984 15.9961C28.4135 15.9961 31.9968 19.5794 31.9968 23.9945Z" fill="#1ABCFE"/>
</g>
<defs>
<clipPath id="clip0_4156_32562">
<rect width="32" height="47.9904" fill="white"/>
</clipPath>
</defs>
</svg>
