<svg width="48" height="48" viewBox="0 0 48 48" fill="none" xmlns="http://www.w3.org/2000/svg">
<path d="M8 36.9992L23.234 8.43518C23.555 7.83318 24.423 7.84418 24.728 8.45518L30 18.9992L8 36.9992Z" fill="#FF8F00"/>
<path d="M8 36.9912L13.546 2.79218C13.691 1.89718 14.893 1.70318 15.313 2.50718L26 22.9912L8 36.9912Z" fill="#FFA000"/>
<path d="M8.008 36.9857L8.208 36.8287L25.737 22.4877L20.793 13.0117L8.008 36.9857Z" fill="#FF6F00"/>
<path d="M8 36.9992L34.666 11.2862C35.225 10.7472 36.158 11.0652 36.272 11.8332L40 36.9992L25 45.7422C24.391 46.0842 23.648 46.0842 23.039 45.7422L8 36.9992Z" fill="#FFC400"/>
</svg>
