<svg width="30" height="30" viewBox="0 0 30 30" fill="none" xmlns="http://www.w3.org/2000/svg">
<path d="M27.75 15C27.75 22.05 22.05 27.75 15 27.75C7.95 27.75 2.25 22.05 2.25 15C2.25 7.95 7.95 2.25 15 2.25C22.05 2.25 27.75 7.95 27.75 15Z" fill="white"/>
<path d="M12.75 27.7492V23.6242C12.75 23.3992 12.9 23.2492 13.125 23.2492C13.35 23.2492 13.5 23.3992 13.5 23.6242V27.7492H15V22.8742C15 22.6492 15.15 22.4992 15.375 22.4992C15.6 22.4992 15.75 22.6492 15.75 22.8742V27.7492H17.25V23.6242C17.25 23.3992 17.4 23.2492 17.625 23.2492C17.85 23.2492 18 23.3992 18 23.6242V27.7492H19.35C19.5 27.5242 19.5 27.2992 19.5 26.9242V23.9992C19.5 22.3492 18.075 20.0992 16.275 20.0992H14.4C12.675 20.0992 11.175 22.4242 11.175 23.9992V26.9242C11.175 27.2242 11.25 27.5242 11.325 27.7492H12.75ZM27.075 16.7992C27.075 16.7992 26.1 16.4992 25.275 16.4992H25.2C24.375 16.4992 23.025 16.7242 23.025 16.7242C22.95 16.7242 22.95 16.7242 22.95 16.6492C22.95 16.5742 22.95 16.5742 23.025 16.5742C23.1 16.5742 24.525 16.3492 25.35 16.3492C26.175 16.3492 27.15 16.6492 27.225 16.6492C27.3 16.6492 27.3 16.7242 27.3 16.7992C27.15 16.7242 27.15 16.7992 27.075 16.7992ZM26.85 17.3992C26.85 17.3992 25.8 17.0992 24.9 17.0992C24.225 17.0992 22.65 17.2492 22.575 17.2492C22.5 17.2492 22.5 17.2492 22.5 17.1742C22.5 17.0992 22.5 17.0992 22.575 17.0992C22.65 17.0992 24.225 16.9492 24.9 16.9492C25.875 16.9492 26.85 17.2492 26.85 17.2492C26.925 17.2492 26.925 17.3242 26.925 17.3992C26.925 17.3242 26.925 17.3992 26.85 17.3992ZM2.85002 16.7992C2.77502 16.7992 2.77502 16.7992 2.77502 16.7242C2.77502 16.6492 2.77502 16.6492 2.85002 16.5742C3.45002 16.4242 4.65002 16.1992 5.32502 16.1992C5.92502 16.1992 7.95002 16.3492 8.02502 16.3492C8.10002 16.3492 8.10002 16.4242 8.10002 16.4242C8.10002 16.4992 8.02502 16.4992 8.02502 16.4992C8.02502 16.4992 6.00002 16.3492 5.40002 16.3492C4.57502 16.4992 3.45002 16.6492 2.85002 16.7992ZM3.15002 17.9242C3.15002 17.9242 3.07502 17.9242 3.07502 17.8492C3.07502 17.7742 3.07502 17.7742 3.07502 17.6992C3.15002 17.6992 4.12502 17.0992 5.25002 16.9492C6.22502 16.7992 8.25002 17.0242 8.40002 17.0242C8.47502 17.0242 8.47502 17.0992 8.47502 17.0992C8.47502 17.1742 8.40002 17.1742 8.40002 17.1742C8.40002 17.1742 6.30002 16.9492 5.32502 17.0992C4.20002 17.3242 3.15002 17.9242 3.15002 17.9242Z" fill="#455A64"/>
<path d="M7.65002 14.625C7.65002 11.325 11.1 8.25 15.375 8.25C19.65 8.25 23.1 11.25 23.1 14.625C23.1 18 20.625 20.25 15.375 20.25C10.125 20.25 7.65002 17.925 7.65002 14.625Z" fill="#455A64"/>
<path d="M18.4501 9.225C18.4501 9.225 19.7251 7.5 22.0501 7.5C22.9501 8.4 22.3501 11.1 22.0501 11.85L18.4501 9.225ZM12.3001 9.225C12.3001 9.225 11.0251 7.5 8.70005 7.5C7.80005 8.4 8.40005 11.1 8.70005 11.85L12.3001 9.225ZM12.0751 23.925C12.0751 23.925 10.3501 23.925 9.97505 23.925C9.07505 23.925 8.25005 23.55 7.87505 22.8C7.42505 21.975 7.05005 21.075 5.92505 20.325C5.70005 20.175 5.85005 20.025 6.22505 20.025C6.60005 20.1 7.27505 20.175 7.80005 20.85C8.32505 21.525 8.92505 22.35 9.90005 22.35C10.8751 22.35 11.9251 22.35 12.5251 21.675L12.0751 23.925Z" fill="#455A64"/>
<path d="M15 0C6.75 0 0 6.75 0 15C0 23.25 6.75 30 15 30C23.25 30 30 23.25 30 15C30 6.75 23.25 0 15 0ZM15 27C8.4 27 3 21.6 3 15C3 8.4 8.4 3 15 3C21.6 3 27 8.4 27 15C27 21.6 21.6 27 15 27Z" fill="#00BCD4"/>
</svg>
