<svg stroke="current" width="24" height="19" viewBox="0 0 24 19" fill="none" xmlns="http://www.w3.org/2000/svg">
<path d="M3.36006 0.359863C2.57069 0.359863 1.92006 1.01049 1.92006 1.79986V12.3599C1.92006 12.7199 2.05694 13.0517 2.28006 13.3049L0.195063 16.0949C0.0600635 16.2767 6.34762e-05 16.4924 6.34762e-05 16.6799C6.34762e-05 16.6836 6.34762e-05 16.6911 6.34762e-05 16.6949V17.1599C-0.00743652 17.9492 0.650689 18.5999 1.44006 18.5999H22.5601C23.3494 18.5999 24.0076 17.9492 24.0001 17.1599V16.6949C24.0001 16.6911 24.0001 16.6836 24.0001 16.6799C24.0001 16.4924 23.9419 16.2767 23.8051 16.0949L21.7201 13.3049C21.9432 13.0517 22.0801 12.7199 22.0801 12.3599V1.79986C22.0801 1.01049 21.4294 0.359863 20.6401 0.359863H3.36006ZM3.36006 1.31986H20.6401C20.9119 1.31986 21.1201 1.52799 21.1201 1.79986V12.3599C21.1201 12.6317 20.9119 12.8399 20.6401 12.8399H3.36006C3.08819 12.8399 2.88006 12.6317 2.88006 12.3599V1.79986C2.88006 1.52799 3.08819 1.31986 3.36006 1.31986ZM11.5201 2.27986V11.8799H12.4801V2.27986H11.5201ZM4.66506 2.75986C4.40069 2.79736 4.21506 3.04299 4.25256 3.30736C4.29006 3.57174 4.53569 3.75736 4.80006 3.71986H9.60006C9.77256 3.72174 9.93381 3.63174 10.0219 3.48174C10.1082 3.33174 10.1082 3.14799 10.0219 2.99799C9.93381 2.84799 9.77256 2.75799 9.60006 2.75986H4.80006C4.78506 2.75986 4.77006 2.75986 4.75506 2.75986C4.74006 2.75986 4.72506 2.75986 4.71006 2.75986C4.69506 2.75986 4.68006 2.75986 4.66506 2.75986ZM14.2651 2.75986C14.0007 2.79736 13.8151 3.04299 13.8526 3.30736C13.8901 3.57174 14.1357 3.75736 14.4001 3.71986H19.2001C19.3726 3.72174 19.5338 3.63174 19.6219 3.48174C19.7082 3.33174 19.7082 3.14799 19.6219 2.99799C19.5338 2.84799 19.3726 2.75799 19.2001 2.75986H14.4001C14.3851 2.75986 14.3701 2.75986 14.3551 2.75986C14.3401 2.75986 14.3251 2.75986 14.3101 2.75986C14.2951 2.75986 14.2801 2.75986 14.2651 2.75986ZM4.66506 4.67986C4.40069 4.71736 4.21506 4.96299 4.25256 5.22736C4.29006 5.49174 4.53569 5.67736 4.80006 5.63986H8.16006C8.33256 5.64174 8.49381 5.55174 8.58194 5.40174C8.66819 5.25174 8.66819 5.06799 8.58194 4.91799C8.49381 4.76799 8.33256 4.67799 8.16006 4.67986H4.80006C4.78506 4.67986 4.77006 4.67986 4.75506 4.67986C4.74006 4.67986 4.72506 4.67986 4.71006 4.67986C4.69506 4.67986 4.68006 4.67986 4.66506 4.67986ZM14.2651 4.67986C14.0007 4.71736 13.8151 4.96299 13.8526 5.22736C13.8901 5.49174 14.1357 5.67736 14.4001 5.63986H17.7601C17.9326 5.64174 18.0938 5.55174 18.1819 5.40174C18.2682 5.25174 18.2682 5.06799 18.1819 4.91799C18.0938 4.76799 17.9326 4.67799 17.7601 4.67986H14.4001C14.3851 4.67986 14.3701 4.67986 14.3551 4.67986C14.3401 4.67986 14.3251 4.67986 14.3101 4.67986C14.2951 4.67986 14.2801 4.67986 14.2651 4.67986ZM4.66506 6.59986C4.40069 6.63736 4.21506 6.88299 4.25256 7.14736C4.29006 7.41174 4.53569 7.59736 4.80006 7.55986H9.60006C9.77256 7.56174 9.93381 7.47174 10.0219 7.32174C10.1082 7.17174 10.1082 6.98799 10.0219 6.83799C9.93381 6.68799 9.77256 6.59799 9.60006 6.59986H4.80006C4.78506 6.59986 4.77006 6.59986 4.75506 6.59986C4.74006 6.59986 4.72506 6.59986 4.71006 6.59986C4.69506 6.59986 4.68006 6.59986 4.66506 6.59986ZM14.2651 6.59986C14.0007 6.63736 13.8151 6.88299 13.8526 7.14736C13.8901 7.41174 14.1357 7.59736 14.4001 7.55986H19.2001C19.3726 7.56174 19.5338 7.47174 19.6219 7.32174C19.7082 7.17174 19.7082 6.98799 19.6219 6.83799C19.5338 6.68799 19.3726 6.59799 19.2001 6.59986H14.4001C14.3851 6.59986 14.3701 6.59986 14.3551 6.59986C14.3401 6.59986 14.3251 6.59986 14.3101 6.59986C14.2951 6.59986 14.2801 6.59986 14.2651 6.59986ZM4.66506 8.51986C4.40069 8.55736 4.21506 8.80299 4.25256 9.06736C4.29006 9.33174 4.53569 9.51736 4.80006 9.47986H8.16006C8.33256 9.48174 8.49381 9.39174 8.58194 9.24174C8.66819 9.09174 8.66819 8.90799 8.58194 8.75799C8.49381 8.60799 8.33256 8.51799 8.16006 8.51986H4.80006C4.78506 8.51986 4.77006 8.51986 4.75506 8.51986C4.74006 8.51986 4.72506 8.51986 4.71006 8.51986C4.69506 8.51986 4.68006 8.51986 4.66506 8.51986ZM14.2651 8.51986C14.0007 8.55736 13.8151 8.80299 13.8526 9.06736C13.8901 9.33174 14.1357 9.51736 14.4001 9.47986H17.7601C17.9326 9.48174 18.0938 9.39174 18.1819 9.24174C18.2682 9.09174 18.2682 8.90799 18.1819 8.75799C18.0938 8.60799 17.9326 8.51799 17.7601 8.51986H14.4001C14.3851 8.51986 14.3701 8.51986 14.3551 8.51986C14.3401 8.51986 14.3251 8.51986 14.3101 8.51986C14.2951 8.51986 14.2801 8.51986 14.2651 8.51986ZM4.66506 10.4399C4.40069 10.4774 4.21506 10.723 4.25256 10.9874C4.29006 11.2517 4.53569 11.4374 4.80006 11.3999H9.60006C9.77256 11.4017 9.93381 11.3117 10.0219 11.1617C10.1082 11.0117 10.1082 10.828 10.0219 10.678C9.93381 10.528 9.77256 10.438 9.60006 10.4399H4.80006C4.78506 10.4399 4.77006 10.4399 4.75506 10.4399C4.74006 10.4399 4.72506 10.4399 4.71006 10.4399C4.69506 10.4399 4.68006 10.4399 4.66506 10.4399ZM14.2651 10.4399C14.0007 10.4774 13.8151 10.723 13.8526 10.9874C13.8901 11.2517 14.1357 11.4374 14.4001 11.3999H19.2001C19.3726 11.4017 19.5338 11.3117 19.6219 11.1617C19.7082 11.0117 19.7082 10.828 19.6219 10.678C19.5338 10.528 19.3726 10.438 19.2001 10.4399H14.4001C14.3851 10.4399 14.3701 10.4399 14.3551 10.4399C14.3401 10.4399 14.3251 10.4399 14.3101 10.4399C14.2951 10.4399 14.2801 10.4399 14.2651 10.4399ZM3.24006 13.7999H20.8801C20.8838 13.7999 20.8932 13.7961 20.8951 13.7999L23.0401 16.6649V17.1599C23.0419 17.428 22.8282 17.6399 22.5601 17.6399H1.44006C1.17194 17.6399 0.958189 17.428 0.960064 17.1599V16.6649L3.03006 13.9049C3.09944 13.8692 3.16881 13.8355 3.24006 13.7999ZM9.36006 15.2399C9.19694 15.2399 9.04319 15.328 8.95506 15.4649L8.16006 16.6799H15.8401L15.0451 15.4649C14.9569 15.328 14.8032 15.2399 14.6401 15.2399H9.36006Z" fill="black"/>
</svg>
