<svg fill="#000000" xmlns="http://www.w3.org/2000/svg"  viewBox="0 0 80 80" width="80px" height="80px"><path d="M 37.304688 6.0078125 C 36.393645 6.0736519 35.55625 6.6638016 35.220703 7.5585938 C 34.750669 8.8107008 34.391803 9.7768788 34.251953 10.171875 A 1.0001 1.0001 0 0 0 34.25 10.175781 C 34.201399 10.315145 34.161925 10.445094 34.123047 10.576172 L 10.076172 68.361328 A 1.0001 1.0001 0 0 0 11.380859 69.669922 L 38.488281 58.496094 C 39.241976 58.185652 40 58.693316 40 59.507812 L 40 63.855469 C 40 65.750301 41.260784 67.526271 43.189453 67.917969 C 45.696912 68.426824 48 66.461385 48 64 L 48 58.296875 L 48 55.628906 C 48 55.037667 48.347152 54.509419 48.890625 54.275391 A 1.0001 1.0001 0 0 0 48.898438 54.271484 L 48.941406 54.251953 L 48.943359 54.251953 C 49.950264 53.819688 51 54.51121 51 55.607422 L 51 59 L 51 68.369141 C 51 70.48425 52.414059 72.442196 54.541016 72.896484 C 57.38297 73.50388 60 71.28399 60 68.5 L 60 57.044922 L 60 51.941406 C 60 50.540699 60.841928 49.283606 62.136719 48.75 L 68.882812 45.96875 C 68.892555 45.966629 68.902399 45.965121 68.912109 45.962891 A 1.0001 1.0001 0 0 0 69.115234 45.919922 A 1.0003894 1.0003894 0 0 0 69.132812 45.914062 A 1.0003894 1.0003894 0 0 0 69.275391 45.853516 A 1.0003894 1.0003894 0 0 0 69.298828 45.841797 C 69.582544 45.738871 69.865325 45.6183 70.335938 45.404297 C 70.889218 45.152702 71.587308 44.825871 72.365234 44.460938 A 1.0001 1.0001 0 0 0 72.367188 44.460938 C 73.49467 43.930157 74.040349 42.585004 73.572266 41.419922 C 71.584586 36.475993 67.714181 26.998268 60.337891 19.644531 C 53.007774 12.334861 43.716951 7.9830801 38.224609 6.125 C 37.920516 6.0223577 37.608368 5.985866 37.304688 6.0078125 z M 37.429688 7.9980469 C 37.479254 7.995551 37.531269 8.0019983 37.583984 8.0195312 C 42.821643 9.7914512 51.915898 14.070217 58.925781 21.060547 C 65.93949 28.05281 69.736384 37.237985 71.716797 42.164062 C 71.796717 42.36298 71.722097 42.55317 71.515625 42.650391 C 70.739552 43.014456 70.045282 43.339579 69.507812 43.583984 C 69.013672 43.808686 68.665849 43.949157 68.591797 43.978516 A 1.0001 1.0001 0 0 0 68.289062 44.050781 C 68.262311 44.046181 68.244031 44.038528 68.222656 44.025391 C 68.172056 43.994291 68.028397 43.85892 67.894531 43.496094 A 1.0001 1.0001 0 0 0 67.894531 43.494141 C 67.653346 42.844217 67.330673 42.019363 66.917969 41.0625 A 1.0001 1.0001 0 0 0 65.972656 40.445312 A 1.0001 1.0001 0 0 0 65.082031 41.855469 C 65.479327 42.776605 65.788716 43.567426 66.019531 44.189453 C 66.106326 44.42446 66.218001 44.644712 66.34375 44.853516 L 61.373047 46.900391 C 59.333838 47.740784 58 49.736114 58 51.941406 L 58 57.044922 L 58 68.5 C 58 70.047348 56.598247 71.29252 54.958984 70.941406 A 1.0001 1.0001 0 0 0 54.957031 70.941406 C 53.816035 70.697695 53 69.594031 53 68.369141 L 53 59 L 53 55.607422 C 53 53.146391 50.410814 51.442124 48.150391 52.416016 A 1.0001 1.0001 0 0 0 48.142578 52.417969 L 48.099609 52.4375 C 48.098209 52.438084 48.097003 52.438853 48.095703 52.439453 L 48.09375 52.441406 C 46.825046 52.990765 46 54.246576 46 55.628906 L 46 58.296875 L 46 64 C 46 65.230615 44.894431 66.222176 43.587891 65.957031 C 42.670559 65.770729 42 64.862637 42 63.855469 L 42 59.507812 C 42 57.34031 39.730868 55.820926 37.726562 56.646484 L 29.933594 59.859375 L 29.958984 59.716797 L 29.347656 59.0625 L 29 59 L 28.199219 59.402344 L 28.041016 60.283203 L 28.28125 60.541016 L 12.851562 66.900391 L 26.087891 35.091797 C 27.917126 37.463919 30.780267 39 34 39 C 39.511957 39 44.064461 34.515222 44 28.988281 C 43.926484 22.841486 38.771933 18.957341 33.337891 19 A 1.0001 1.0001 0 0 0 33.335938 19 C 33.148388 19.00159 32.962026 19.012966 32.775391 19.023438 L 35.019531 13.630859 C 35.369514 13.843764 35.717534 13.981013 36.064453 14.111328 C 36.628827 14.324955 37.303481 14.592814 38.066406 14.919922 A 1.0009553 1.0009553 0 0 0 38.460938 15 A 1.0009553 1.0009553 0 0 0 38.855469 13.080078 C 38.061293 12.739571 37.356755 12.462482 36.769531 12.240234 A 1.0001 1.0001 0 0 0 36.767578 12.238281 C 36.37901 12.092351 36.102818 11.969553 36 11.898438 C 35.954703 11.867105 35.947185 11.867197 35.943359 11.867188 A 1.0001 1.0001 0 0 0 35.9375 11.830078 A 1.0001 1.0001 0 0 0 35.9375 11.828125 C 35.92488 11.755725 35.9328 11.427059 36.136719 10.839844 L 36.138672 10.835938 C 36.261269 10.489819 36.625149 9.5080391 37.09375 8.2597656 C 37.154013 8.0990744 37.280989 8.0055345 37.429688 7.9980469 z M 42.078125 14.705078 L 41.277344 15.105469 L 41.119141 15.988281 L 41.732422 16.642578 L 42.078125 16.705078 L 42.878906 16.302734 L 43.037109 15.421875 L 42.425781 14.767578 L 42.078125 14.705078 z M 45.566406 16.662109 L 44.765625 17.0625 L 44.607422 17.945312 L 45.21875 18.599609 L 45.566406 18.662109 L 46.367188 18.259766 L 46.525391 17.378906 L 45.914062 16.724609 L 45.566406 16.662109 z M 48.908203 18.857422 L 48.107422 19.259766 L 47.949219 20.140625 L 48.560547 20.794922 L 48.908203 20.857422 L 49.708984 20.457031 L 49.867188 19.574219 L 49.253906 18.919922 L 48.908203 18.857422 z M 33.353516 21 C 37.855473 20.964659 41.939516 23.954514 42 29.011719 C 42.051539 33.430778 38.432043 37 34 37 C 31.159198 37 28.677247 35.528058 27.255859 33.306641 A 1.0001 1.0001 0 0 0 26.960938 32.994141 L 28.650391 28.935547 L 28.652344 28.9375 L 29 29 L 29.800781 28.597656 L 29.958984 27.716797 L 29.404297 27.123047 L 31.908203 21.105469 A 1.0001 1.0001 0 0 0 32.125 21.091797 C 32.517928 21.032023 32.926605 21.003657 33.353516 21 z M 52.070312 21.304688 L 51.269531 21.705078 L 51.111328 22.587891 L 51.722656 23.242188 L 52.070312 23.304688 L 52.871094 22.902344 L 53.029297 22.021484 L 52.417969 21.365234 L 52.070312 21.304688 z M 33.224609 23.511719 L 32.423828 23.914062 L 32.265625 24.794922 L 32.876953 25.449219 L 33.224609 25.511719 L 34.025391 25.111328 L 34.183594 24.228516 L 33.570312 23.574219 L 33.224609 23.511719 z M 55.033203 23.988281 L 54.232422 24.388672 L 54.074219 25.271484 L 54.6875 25.925781 L 55.033203 25.988281 L 55.835938 25.585938 L 55.992188 24.705078 L 55.380859 24.050781 L 55.033203 23.988281 z M 36.873047 24.892578 L 36.072266 25.292969 L 35.914062 26.175781 L 36.525391 26.830078 L 36.873047 26.892578 L 37.673828 26.490234 L 37.832031 25.609375 L 37.21875 24.955078 L 36.873047 24.892578 z M 57.720703 26.949219 L 56.919922 27.349609 L 56.761719 28.232422 L 57.373047 28.886719 L 57.720703 28.949219 L 58.521484 28.546875 L 58.679688 27.666016 L 58.068359 27.009766 L 57.720703 26.949219 z M 38.583984 28.40625 L 37.783203 28.806641 L 37.625 29.689453 L 38.236328 30.34375 L 38.583984 30.40625 L 39.384766 30.003906 L 39.542969 29.123047 L 38.929688 28.466797 L 38.583984 28.40625 z M 60.171875 30.107422 L 59.371094 30.507812 L 59.212891 31.390625 L 59.826172 32.044922 L 60.171875 32.107422 L 60.972656 31.705078 L 61.130859 30.824219 L 60.519531 30.169922 L 60.171875 30.107422 z M 29.863281 30.804688 L 29.060547 31.207031 L 28.904297 32.087891 L 29.515625 32.742188 L 29.863281 32.804688 L 30.664062 32.404297 L 30.822266 31.521484 L 30.208984 30.867188 L 29.863281 30.804688 z M 37.095703 31.90625 L 36.294922 32.308594 L 36.136719 33.191406 L 36.75 33.845703 L 37.095703 33.90625 L 37.896484 33.505859 L 38.054688 32.623047 L 37.443359 31.96875 L 37.095703 31.90625 z M 33.271484 32.6875 L 32.470703 33.089844 L 32.3125 33.970703 L 32.923828 34.625 L 33.271484 34.6875 L 34.072266 34.287109 L 34.230469 33.404297 L 33.619141 32.75 L 33.271484 32.6875 z M 62.371094 33.447266 L 61.570312 33.847656 L 61.412109 34.730469 L 62.023438 35.384766 L 62.371094 35.447266 L 63.171875 35.044922 L 63.330078 34.164062 L 62.716797 33.509766 L 62.371094 33.447266 z M 52.048828 33.527344 C 50.997798 33.502004 49.943955 33.679099 48.957031 34.101562 C 47.843595 34.57833 46.748597 35.382684 45.921875 36.404297 C 45.095153 37.425909 44.505864 38.729555 44.777344 40.119141 C 44.918008 40.841359 45.266118 41.527794 45.789062 42.097656 C 46.193984 42.538906 46.732856 42.913343 47.371094 43.078125 C 46.978584 44.173252 46.982504 45.308855 47.570312 46.271484 C 48.419122 47.660166 49.981459 47.889875 50.898438 48.080078 C 51.678368 48.241856 52.675241 48.479732 53.732422 48.025391 C 54.912838 47.519048 55.618245 46.425334 55.935547 45.146484 C 56.89468 45.459573 57.937703 45.378996 58.798828 44.837891 C 59.923721 44.131401 60.283091 42.839589 60.322266 41.640625 C 60.361456 40.44117 60.096329 39.216862 59.640625 38.212891 C 58.785484 36.329657 57.076107 34.927069 55.125 34.162109 C 54.149011 33.779459 53.099859 33.552688 52.048828 33.527344 z M 52.011719 35.533203 C 52.809107 35.552808 53.62527 35.72184 54.394531 36.023438 C 55.933053 36.626637 57.234072 37.748521 57.820312 39.041016 C 58.13261 39.729044 58.351528 40.738424 58.324219 41.574219 C 58.296909 42.410014 58.040345 42.95383 57.736328 43.144531 A 1.0001 1.0001 0 0 0 57.734375 43.144531 C 57.381655 43.36617 56.424177 43.325177 55.873047 42.847656 A 1.0001 1.0001 0 0 0 55.775391 42.751953 C 55.250989 42.201617 55.108876 41.262022 55.570312 40.451172 A 1.000273 1.000273 0 1 0 53.832031 39.460938 C 53.012331 40.901336 53.141872 42.659554 54.117188 43.882812 C 54.018568 45.089059 53.487977 45.953885 52.943359 46.1875 C 52.562541 46.351162 52.086757 46.283324 51.304688 46.121094 C 50.390403 45.931462 49.539277 45.655245 49.277344 45.228516 C 48.982624 44.745866 49.106596 43.51983 50.058594 42.416016 C 50.940587 41.693284 51.559686 40.516526 51.675781 39.132812 A 1.0001 1.0001 0 1 0 49.683594 38.964844 C 49.559043 40.449336 48.50815 41.189559 48.023438 41.171875 C 47.797182 41.163675 47.523727 41.027528 47.263672 40.744141 C 47.003616 40.460753 46.80057 40.04611 46.740234 39.736328 C 46.623714 39.139914 46.883285 38.395247 47.476562 37.662109 C 48.069842 36.928972 48.963577 36.273686 49.744141 35.939453 C 50.435716 35.643417 51.21433 35.513598 52.011719 35.533203 z M 64.332031 36.931641 L 63.53125 37.332031 L 63.373047 38.214844 L 63.986328 38.869141 L 64.332031 38.931641 L 65.134766 38.529297 L 65.291016 37.648438 L 64.679688 36.994141 L 64.332031 36.931641 z M 34 42 C 30.698375 42 28 44.698375 28 48 C 28 51.301625 30.698375 54 34 54 C 37.301625 54 40 51.301625 40 48 C 40 44.698375 37.301625 42 34 42 z M 34 44 C 36.220375 44 38 45.779625 38 48 C 38 50.220375 36.220375 52 34 52 C 31.779625 52 30 50.220375 30 48 C 30 45.779625 31.779625 44 34 44 z M 22.068359 56.238281 L 21.267578 56.640625 L 21.109375 57.521484 L 21.720703 58.177734 L 22.068359 58.238281 L 22.869141 57.837891 L 23.027344 56.955078 L 22.416016 56.300781 L 22.068359 56.238281 z M 25.984375 56.457031 L 25.183594 56.859375 L 25.025391 57.740234 L 25.638672 58.394531 L 25.984375 58.457031 L 26.785156 58.056641 L 26.943359 57.173828 L 26.332031 56.519531 L 25.984375 56.457031 z M 18.837891 58.482422 L 18.037109 58.884766 L 17.878906 59.767578 L 18.492188 60.421875 L 18.837891 60.482422 L 19.640625 60.082031 L 19.796875 59.199219 L 19.185547 58.544922 L 18.837891 58.482422 z M 17.675781 62.222656 L 16.873047 62.625 L 16.716797 63.505859 L 17.328125 64.160156 L 17.675781 64.222656 L 18.476562 63.822266 L 18.634766 62.939453 L 18.021484 62.285156 L 17.675781 62.222656 z"/></svg>