<svg width="48" height="48" viewBox="0 0 48 48" fill="none" xmlns="http://www.w3.org/2000/svg">
<path d="M23 4C16.383 4 11 11.27 11 20.205C11 25.039 12.582 29.374 15.078 32.341C15.03 32.554 15 32.773 15 33C15 34.657 16.343 36 18 36C19.657 36 21 34.657 21 33C21 31.343 19.657 30 18 30C17.685 30 17.388 30.062 17.103 30.152C15.206 27.731 14 24.175 14 20.205C14 12.924 18.037 7 23 7C26.837 7 30.111 10.547 31.404 15.518C32.526 15.864 33.641 16.3 34.734 16.826C33.579 9.508 28.759 4 23 4Z" fill="#7E57C2"/>
<path d="M35.507 20.084C31.56 17.692 27.133 16.642 23.325 17.125C22.775 16.444 21.943 16 21 16C19.343 16 18 17.343 18 19C18 20.657 19.343 22 21 22C22.272 22 23.353 21.205 23.789 20.088C26.907 19.709 30.601 20.619 33.952 22.651C40.355 26.532 43.622 33.22 41.234 37.562C40.407 39.066 38.948 40.134 37.016 40.652C34.73 41.263 32.009 41.046 29.289 40.124C28.45 40.896 27.54 41.622 26.564 42.292C29.116 43.409 31.76 43.996 34.233 43.996C35.473 43.996 36.671 43.849 37.792 43.549C40.533 42.816 42.633 41.245 43.863 39.007C47.016 33.276 43.267 24.787 35.507 20.084Z" fill="#7E57C2"/>
<path d="M35 28.992C35 27.34 33.657 26 32 26C30.343 26 29 27.34 29 28.992C29 29.661 29.228 30.273 29.6 30.771C28.321 33.573 25.856 36.338 22.538 38.349C18.673 40.693 14.353 41.551 10.983 40.651C9.05098 40.133 7.59198 39.065 6.76498 37.561C5.06298 34.467 6.24398 30.185 9.37498 26.573C9.05198 25.429 8.81298 24.233 8.66898 22.998C3.59898 27.795 1.55998 34.321 4.13698 39.007C5.36698 41.245 7.46698 42.816 10.208 43.549C11.329 43.849 12.526 43.996 13.767 43.996C17.113 43.996 20.774 42.928 24.093 40.916C27.929 38.591 30.776 35.339 32.302 31.954C33.815 31.801 35 30.541 35 28.992Z" fill="#7E57C2"/>
</svg>
