<svg width="48" height="48" viewBox="0 0 48 48" fill="none" xmlns="http://www.w3.org/2000/svg">
<g clip-path="url(#clip0_2330_7195)">
<path d="M44 4H4V44H44V4Z" fill="#212121"/>
<path fill-rule="evenodd" clip-rule="evenodd" d="M33.3974 30.3888C33.6101 33.1213 33.61 34.4022 33.61 35.8004H27.2878C27.2878 35.4958 27.2932 35.2172 27.2987 34.9347C27.3158 34.0565 27.3337 33.1407 27.1914 31.2913C27.0033 28.5837 25.8374 27.9821 23.6935 27.9821H21.7941H13.75V23.0558H23.9944C26.7024 23.0558 28.0565 22.232 28.0565 20.0509C28.0565 18.1331 26.7024 16.9709 23.9944 16.9709H13.75V12.1504H25.1228C31.2534 12.1504 34.3 15.046 34.3 19.6714C34.3 23.131 32.1561 25.3873 29.26 25.7634C31.7048 26.2522 33.1341 27.6436 33.3974 30.3888Z" fill="white"/>
<path d="M13.75 35.7993V32.127H20.4348C21.5514 32.127 21.7939 32.9551 21.7939 33.449V35.7993H13.75Z" fill="white"/>
<path d="M13.725 35.8009V35.8259H13.75H21.7939H21.8189V35.8009V33.4506C21.8189 33.2003 21.7576 32.8639 21.5531 32.5894C21.3477 32.3136 21.0002 32.1035 20.4348 32.1035H13.75H13.725V32.1285V35.8009Z" stroke="white" stroke-opacity="0.8"/>
</g>
<defs>
<clipPath id="clip0_2330_7195">
<rect width="40" height="40" fill="white" transform="translate(4 4)"/>
</clipPath>
</defs>
</svg>
