<svg width="22" height="24" viewBox="0 0 22 24" fill="none" xmlns="http://www.w3.org/2000/svg">
<path d="M7.06995 0.959961C6.8412 1.00309 6.6762 1.20559 6.67995 1.43996V5.27996C6.67995 5.54434 6.89558 5.75996 7.15995 5.75996H10.5199V6.37496C10.2331 6.54184 10.0399 6.84559 10.0399 7.19996H6.82995C6.1662 7.19996 5.58683 7.54496 5.23995 8.05496C4.98495 7.82434 4.64745 7.67996 4.27995 7.67996C3.49058 7.67996 2.83995 8.33059 2.83995 9.11996C2.83995 9.57184 3.04995 9.98059 3.37995 10.245L1.99995 14.46C1.38495 14.625 0.919951 15.1762 0.919951 15.84C0.918076 16.0125 1.00808 16.1737 1.15808 16.2618C1.30808 16.3481 1.49183 16.3481 1.64183 16.2618C1.79183 16.1737 1.88183 16.0125 1.87995 15.84C1.87995 15.5681 2.08808 15.36 2.35995 15.36C2.63183 15.36 2.83995 15.5681 2.83995 15.84C2.83808 16.0125 2.92808 16.1737 3.07808 16.2618C3.22808 16.3481 3.41183 16.3481 3.56183 16.2618C3.71183 16.1737 3.80183 16.0125 3.79995 15.84C3.79995 15.2756 3.46808 14.7862 2.98995 14.55L4.29495 10.56C4.55745 10.5562 4.80308 10.4775 5.01495 10.35L5.59995 16.5C5.6937 17.4806 6.5187 18.24 7.50495 18.24H8.59995V21.6C8.59995 22.3893 9.25058 23.04 10.0399 23.04H12.4399C13.2293 23.04 13.8799 22.3893 13.8799 21.6V18.24H14.8999C15.9199 18.24 16.7712 17.4281 16.82 16.41L17.1049 10.41C17.2887 10.4981 17.4893 10.5581 17.705 10.56L19.0099 14.55C18.5318 14.7862 18.1999 15.2756 18.1999 15.84C18.1981 16.0125 18.2881 16.1737 18.4381 16.2618C18.5881 16.3481 18.7718 16.3481 18.9218 16.2618C19.0718 16.1737 19.1618 16.0125 19.16 15.84C19.16 15.5681 19.3681 15.36 19.6399 15.36C19.9118 15.36 20.1199 15.5681 20.1199 15.84C20.1181 16.0125 20.2081 16.1737 20.3581 16.2618C20.5081 16.3481 20.6918 16.3481 20.8418 16.2618C20.9918 16.1737 21.0818 16.0125 21.08 15.84C21.08 15.1762 20.615 14.625 20 14.46L18.6199 10.245C18.9499 9.98059 19.16 9.57184 19.16 9.11996C19.16 8.33059 18.5093 7.67996 17.7199 7.67996C17.375 7.67996 17.0543 7.80371 16.8049 8.00996C16.4562 7.52434 15.8862 7.19996 15.2449 7.19996H11.9599C11.9599 6.84559 11.7668 6.54184 11.4799 6.37496V5.75996H14.8399C15.1043 5.75996 15.3199 5.54434 15.3199 5.27996V1.43996C15.3199 1.17559 15.1043 0.959961 14.8399 0.959961H7.15995C7.14495 0.959961 7.12995 0.959961 7.11495 0.959961C7.09995 0.959961 7.08495 0.959961 7.06995 0.959961ZM7.63995 1.91996H14.3599V4.79996H7.63995V1.91996ZM9.55995 2.87996C9.29557 2.87996 9.07995 3.09559 9.07995 3.35996C9.07995 3.62434 9.29557 3.83996 9.55995 3.83996C9.82432 3.83996 10.0399 3.62434 10.0399 3.35996C10.0399 3.09559 9.82432 2.87996 9.55995 2.87996ZM12.4399 2.87996C12.1756 2.87996 11.9599 3.09559 11.9599 3.35996C11.9599 3.62434 12.1756 3.83996 12.4399 3.83996C12.7043 3.83996 12.9199 3.62434 12.9199 3.35996C12.9199 3.09559 12.7043 2.87996 12.4399 2.87996ZM6.82995 8.15996H15.2449C15.7999 8.15996 16.2312 8.60996 16.2049 9.16496L15.8599 16.365C15.8356 16.8806 15.4174 17.28 14.8999 17.28H7.50495C7.0062 17.28 6.60682 16.9068 6.55995 16.41L5.86995 9.20996C5.81558 8.63809 6.2562 8.15996 6.82995 8.15996ZM4.27995 8.63996C4.54995 8.63996 4.75995 8.84996 4.75995 9.11996C4.75995 9.38996 4.54995 9.59996 4.27995 9.59996C4.22183 9.59996 4.16558 9.58684 4.11495 9.56996C4.10558 9.56996 4.09433 9.56996 4.08495 9.56996C3.91245 9.49871 3.79995 9.32246 3.79995 9.11996C3.79995 8.84996 4.00995 8.63996 4.27995 8.63996ZM17.7199 8.63996C17.99 8.63996 18.1999 8.84996 18.1999 9.11996C18.1999 9.31121 18.1006 9.47621 17.945 9.55496C17.9149 9.56246 17.8831 9.57184 17.8549 9.58496C17.8137 9.59621 17.7668 9.59996 17.7199 9.59996C17.4499 9.59996 17.24 9.38996 17.24 9.11996C17.24 8.84996 17.4499 8.63996 17.7199 8.63996ZM9.55995 18.24H12.9199V18.72H11.9599V19.68H12.9199V20.64H11.9599V21.6H12.9199C12.9199 21.8718 12.7118 22.08 12.4399 22.08H10.0399C9.76807 22.08 9.55995 21.8718 9.55995 21.6H10.5199V20.64H9.55995V19.68H10.5199V18.72H9.55995V18.24Z" fill="black"/>
</svg>
