<svg width="20" height="20" viewBox="0 0 20 20" fill="none" xmlns="http://www.w3.org/2000/svg">
<path d="M7.91683 5.00016L7.50016 10.4168C7.50016 10.4168 5.41683 12.8335 4.12516 14.0002C3.66683 14.4168 3.3335 14.9585 3.3335 15.5835V17.0835H9.16683H10.8335H16.6668V15.6252C16.6668 15.0002 16.3335 14.4585 15.8752 14.0418C14.5835 12.7918 12.5002 10.4168 12.5002 10.4168L12.0835 5.00016H7.91683Z" fill="#9FA8DA"/>
<path d="M13.6663 17.0835H12.833C12.5413 15.3335 12.083 14.5835 12.083 14.5835C12.083 14.5835 12.083 6.12516 12.083 5.00016L12.4997 10.4168C12.4997 10.4168 12.6663 10.5835 12.9163 10.8752V14.3335C13.1663 14.7502 13.4997 15.5835 13.6663 17.0835ZM6.33301 17.0835H7.16634C7.41634 15.2918 7.91634 14.5835 7.91634 14.5835C7.91634 14.5835 7.91634 6.12516 7.91634 5.00016L7.49967 10.4168C7.49967 10.4168 7.33301 10.5835 7.08301 10.8752V14.3335C6.83301 14.7502 6.49967 15.5835 6.33301 17.0835Z" fill="#7986CB"/>
<path d="M7.91683 5C7.91683 6.04167 7.91683 14.5833 7.91683 14.5833C7.91683 14.5833 7.0835 15.8333 7.0835 18.75H12.9168C12.9168 15.9167 12.0835 14.5833 12.0835 14.5833C12.0835 14.5833 12.0835 6.125 12.0835 5C12.0835 3.875 10.9168 0.416666 10.0002 0.416666C9.0835 0.416666 7.91683 3.95833 7.91683 5Z" fill="#C5CAE9"/>
<path d="M3.33333 15.6252V17.0835H2.5V15.6252C2.5 15.0002 2.875 14.5002 3.29167 14.0418C4.79167 12.3752 7.08333 10.0002 7.08333 10.0002C7.625 7.7085 7.91667 5.00016 7.91667 5.00016C7.91667 5.50016 7.91667 7.8335 7.91667 10.0835C7.91667 10.1252 7.91667 10.1668 7.91667 10.1668L7.83333 10.4168L7.66667 10.5835C7.625 10.6252 5.375 13.0002 3.875 14.5835C3.5 15.0002 3.33333 15.2918 3.33333 15.6252ZM12.0833 10.1668L12.1667 10.4168L12.3333 10.5835C12.375 10.6252 14.625 13.0002 16.125 14.5835C16.5417 15.0002 16.7083 15.3335 16.7083 15.6252V17.0835H17.5417V15.6252C17.5417 15.0002 17.1667 14.5002 16.75 14.0418C15.2083 12.3752 12.9167 10.0002 12.9167 10.0002C12.375 7.7085 12.0833 5.00016 12.0833 5.00016C12.0833 5.54183 12.0833 7.87516 12.0833 10.0835C12.0833 10.1252 12.0833 10.1668 12.0833 10.1668Z" fill="#455A64"/>
<path d="M9.16667 19.5835H7.5V18.7502H9.16667V19.5835ZM12.5 18.7502H10.8333V19.5835H12.5V18.7502Z" fill="#546E7A"/>
<path d="M10.0002 0.41683C10.3752 0.41683 10.7502 0.958497 11.1252 1.66683H8.91683C9.25016 0.958497 9.62516 0.41683 10.0002 0.41683ZM10.0002 2.91683C9.0835 2.91683 8.50016 3.41683 8.4585 3.4585L9.00016 4.0835C9.00016 4.0835 9.37516 3.75016 9.9585 3.75016C10.5418 3.75016 10.9168 4.04183 10.9168 4.04183L11.4585 3.41683C11.5002 3.41683 10.9168 2.91683 10.0002 2.91683Z" fill="#455A64"/>
<path d="M7.9165 14.5833H9.58317V18.75H10.4165V14.5833H12.0832V13.75H7.9165V14.5833Z" fill="#9FA8DA"/>
</svg>
