<svg width="48" height="48" viewBox="0 0 48 48" fill="none" xmlns="http://www.w3.org/2000/svg">
<path d="M24 9.60352C17.6 9.60352 13.6 12.8025 12 19.2005C14.4 16.0015 17.2 14.8025 20.4 15.6015C22.226 16.0575 23.531 17.3825 24.976 18.8485C27.328 21.2355 30.051 23.9995 36 23.9995C42.4 23.9995 46.4 20.8005 48 14.4015C45.6 17.6005 42.8 18.8005 39.6 18.0015C37.775 17.5455 36.47 16.2205 35.025 14.7545C32.672 12.3665 29.948 9.60352 24 9.60352ZM12 23.9995C5.6 23.9995 1.6 27.1985 0 33.5975C2.4 30.3985 5.2 29.1985 8.4 29.9985C10.225 30.4555 11.53 31.7795 12.975 33.2445C15.328 35.6325 18.052 38.3965 24 38.3965C30.4 38.3965 34.4 35.1975 36 28.7985C33.6 31.9975 30.8 33.1975 27.6 32.3975C25.774 31.9415 24.469 30.6165 23.024 29.1515C20.672 26.7635 17.949 23.9995 12 23.9995Z" fill="#00ACC1"/>
</svg>
