<svg width="25" height="24" viewBox="0 0 25 24" fill="none" xmlns="http://www.w3.org/2000/svg">
<mask id="mask0_4753_29445" style="mask-type:luminance" maskUnits="userSpaceOnUse" x="0" y="0" width="25" height="24">
<path d="M24.3984 0H0.398438V24H24.3984V0Z" fill="white"/>
</mask>
<g mask="url(#mask0_4753_29445)">
<path d="M8.15438 17.6547L16.5407 9.26841L17.0569 14.9182C17.0812 15.1827 17.2097 15.4266 17.4139 15.5963C17.6181 15.7661 17.8814 15.8477 18.1458 15.8233C18.4102 15.799 18.6541 15.6705 18.8239 15.4663C18.9936 15.2621 19.0753 14.9988 19.0509 14.7344L18.3438 6.95617C18.3338 6.89864 18.3196 6.84191 18.3014 6.78646C18.266 6.75111 18.2448 6.72989 18.2589 6.64504C18.2099 6.53192 18.1404 6.42883 18.0539 6.34099C17.966 6.25447 17.8629 6.18495 17.7498 6.13593C17.7145 6.10057 17.6932 6.07936 17.6084 6.0935C17.5529 6.07521 17.4962 6.06103 17.4387 6.05107L9.66052 5.34397C9.51421 5.33063 9.36677 5.34969 9.22866 5.3998C9.09056 5.44991 8.9652 5.52983 8.86149 5.63388C8.69595 5.79877 8.59337 6.01643 8.57157 6.24906C8.55933 6.38002 8.57305 6.51211 8.61194 6.63777C8.65082 6.76342 8.71412 6.88016 8.79819 6.98132C8.88227 7.08247 8.98547 7.16604 9.1019 7.22725C9.21832 7.28846 9.34568 7.32609 9.47667 7.33801L15.1265 7.85419L6.74017 16.2405C6.55263 16.4281 6.44727 16.6824 6.44727 16.9476C6.44727 17.2129 6.55263 17.4672 6.74017 17.6547C6.9277 17.8423 7.18205 17.9476 7.44727 17.9476C7.71249 17.9476 7.96684 17.8423 8.15438 17.6547Z" fill="#0E1317"/>
</g>
</svg>
