<svg width="319" height="254" viewBox="0 0 319 254" fill="none" xmlns="http://www.w3.org/2000/svg">
<g clip-path="url(#clip0_4935_33014)">
<path d="M302.313 149.856V149.667C302.818 149.564 303.298 149.362 303.724 149.072C304.15 148.782 304.514 148.41 304.794 147.979C305.074 147.547 305.265 147.064 305.356 146.558C305.447 146.052 305.435 145.532 305.322 145.031C305.209 144.529 304.997 144.055 304.698 143.636C304.399 143.217 304.019 142.862 303.58 142.591C303.142 142.32 302.653 142.139 302.144 142.059C301.634 141.978 301.114 142 300.613 142.122L299.203 142.431L300.263 142.042C301.227 141.683 302.008 140.956 302.435 140.023C302.861 139.089 302.899 138.025 302.538 137.064C302.177 136.103 301.448 135.324 300.511 134.899C299.575 134.474 298.507 134.437 297.543 134.796C294.113 136.072 293.083 136.411 292.633 136.56C292.22 136.68 291.821 136.844 291.443 137.049L289.663 137.906C287.472 137.595 285.238 137.804 283.143 138.514C283.404 132.716 282.728 126.915 281.143 121.331C280.79 120.299 280.042 119.449 279.062 118.965C278.082 118.482 276.95 118.404 275.913 118.749V118.749C274.881 119.099 274.029 119.841 273.542 120.813C273.055 121.785 272.973 122.91 273.313 123.942C273.701 125.25 274.001 126.582 274.213 127.929C273.073 127.411 271.933 126.932 270.773 126.474C267.149 125.062 263.413 123.959 259.603 123.175C258.653 122.965 257.703 122.796 256.763 122.646C255.823 122.497 254.863 122.308 253.903 122.208C252.943 122.108 252.003 121.979 251.053 121.879L248.193 121.7C244.395 121.514 240.589 121.644 236.813 122.088C236.753 122.088 236.713 122.198 236.733 122.318C236.753 122.437 236.823 122.547 236.883 122.547C240.663 122.475 244.445 122.598 248.213 122.916L251.033 123.225L253.843 123.623C254.783 123.743 255.713 123.942 256.653 124.102C257.593 124.261 258.513 124.441 259.443 124.67C263.17 125.479 266.844 126.517 270.443 127.779C271.773 128.198 273.083 128.706 274.393 129.215C275.201 135.177 275.086 141.228 274.053 147.155C273.196 149.321 272.871 151.66 273.106 153.977C273.341 156.293 274.128 158.52 275.403 160.471C274.782 160.315 274.126 160.37 273.54 160.628C272.954 160.885 272.471 161.331 272.169 161.894C271.867 162.457 271.762 163.104 271.871 163.733C271.981 164.362 272.298 164.937 272.773 165.365L270.483 169.232C269.879 169.073 269.24 169.116 268.663 169.352C268.086 169.589 267.602 170.008 267.286 170.545C266.97 171.081 266.838 171.706 266.912 172.324C266.985 172.942 267.26 173.519 267.693 173.967L250.423 203.22C249.706 203.093 248.98 203.026 248.253 203.021C247.046 203.028 245.845 203.195 244.683 203.519L218.623 162.774C218.553 160.92 218.403 159.096 218.173 157.292L218.823 157.192L219.913 157.023L220.483 156.913C220.763 156.853 220.683 156.833 220.693 156.813V156.744V156.455V155.887L220.633 154.74L220.503 152.428C220.323 150.903 220.113 149.368 219.903 147.823C219.693 146.278 219.243 144.833 218.903 143.268C218.563 141.703 218.023 140.278 217.543 138.773C215.532 133.093 212.651 127.757 209.003 122.955L233.173 104.805L231.583 100.998L232.403 100.54L231.833 99.5429L231.133 99.9415L229.713 96.5627L195.803 110.317C195.283 109.948 194.753 109.59 194.223 109.251C192.188 107.946 190.07 106.774 187.883 105.742H192.003L188.003 95.885L184.473 87.1738L180.753 78.024L177.283 69.4922L173.803 60.9206L170.423 52.5881L166.523 42.9799L163.173 34.7471L160.363 27.7702C161.834 27.1769 163.053 26.092 163.81 24.7014C164.567 23.3107 164.815 21.701 164.512 20.148C164.209 18.595 163.373 17.1955 162.148 16.1893C160.923 15.1831 159.385 14.6328 157.798 14.6328C156.21 14.6328 154.673 15.1831 153.448 16.1893C152.223 17.1955 151.387 18.595 151.084 20.148C150.781 21.701 151.029 23.3107 151.786 24.7014C152.543 26.092 153.761 27.1769 155.233 27.7702L150.703 38.9233L146.213 49.8372L142.473 59.0269L138.403 69.0836L136.283 74.2864L132.473 83.6654L130.003 89.8051L126.313 98.8751L123.523 105.732H127.313C125.136 106.765 123.028 107.937 121.003 109.241C120.473 109.58 119.943 109.938 119.423 110.297L85.4728 96.5527L84.0628 99.9216L83.3228 99.503L82.7628 100.5L83.6128 100.978L82.0028 104.805L106.173 122.955C102.52 127.76 99.6423 133.104 97.6428 138.793C97.1528 140.288 96.6428 141.783 96.2728 143.288C95.9028 144.793 95.5628 146.328 95.2728 147.843C94.9828 149.358 94.8528 150.923 94.6828 152.448L94.5528 154.75L94.4928 155.896V156.475V156.754V156.833C94.4928 156.833 94.4228 156.833 94.7028 156.933L95.2728 157.043L96.3628 157.212L96.9928 157.302C96.7628 159.116 96.6128 160.95 96.5528 162.804L70.4428 203.539C69.2804 203.215 68.0798 203.048 66.8728 203.041C66.1452 203.046 65.4193 203.113 64.7028 203.24L47.4428 173.997C47.8745 173.547 48.1471 172.968 48.2191 172.35C48.2911 171.731 48.1587 171.106 47.842 170.57C47.5253 170.033 47.0415 169.614 46.4641 169.376C45.8867 169.138 45.2473 169.095 44.6428 169.252L42.3528 165.385C42.8388 164.959 43.1662 164.383 43.282 163.748C43.3977 163.114 43.295 162.459 42.9905 161.89C42.686 161.321 42.1975 160.871 41.6044 160.614C41.0112 160.356 40.3482 160.306 39.7228 160.471C41.2883 158.086 42.1223 155.298 42.1228 152.448C42.1317 150.62 41.7923 148.807 41.1228 147.106C40.1589 141.478 40.0074 135.742 40.6728 130.072C42.2065 130.082 43.7385 130.172 45.2628 130.341L47.5728 130.68L49.8828 131.118L52.1728 131.677L54.4328 132.364C57.4627 133.374 60.3893 134.669 63.1728 136.232L65.2728 137.448L67.2728 138.783L69.2728 140.208C69.9228 140.717 70.5728 141.205 71.2728 141.733C71.2728 141.733 71.4428 141.733 71.5628 141.584C71.6828 141.434 71.7228 141.355 71.6928 141.315C71.1228 140.687 70.5528 140.069 69.9628 139.461L68.0928 137.727L66.0928 136.152L64.0028 134.707C61.162 132.898 58.096 131.467 54.8828 130.451L52.4928 129.783L50.0828 129.255L47.6528 128.896L45.2228 128.716C43.7623 128.65 42.2988 128.683 40.8428 128.816C41.0506 127.168 41.3849 125.539 41.8428 123.942C42.1827 122.91 42.1003 121.785 41.6135 120.813C41.1267 119.841 40.2749 119.099 39.2428 118.749V118.749C38.2057 118.401 37.0723 118.475 36.0903 118.957C35.1083 119.439 34.3578 120.289 34.0028 121.321C33.8728 121.7 31.7128 128.298 32.0028 138.504C30.5093 138.011 28.9463 137.758 27.3728 137.756C26.7442 137.764 26.1165 137.807 25.4928 137.886C24.4928 137.408 23.9728 137.168 23.7128 137.039C23.3349 136.834 22.9359 136.67 22.5228 136.55C22.0828 136.401 21.0428 136.062 17.6128 134.786C17.1355 134.608 16.6276 134.526 16.1182 134.543C15.6089 134.561 15.108 134.678 14.6442 134.889C14.1803 135.1 13.7626 135.399 13.415 135.771C13.0673 136.142 12.7964 136.578 12.6178 137.054C12.4392 137.53 12.3564 138.036 12.3741 138.543C12.3917 139.051 12.5096 139.55 12.7208 140.013C12.9321 140.475 13.2326 140.891 13.6053 141.238C13.978 141.584 14.4155 141.854 14.8928 142.032L15.9628 142.421L14.5328 142.102C14.0351 141.991 13.5203 141.978 13.0178 142.065C12.5152 142.153 12.0348 142.337 11.6039 142.609C10.7338 143.159 10.1183 144.031 9.89282 145.032C9.66739 146.034 9.85049 147.084 10.4018 147.952C10.9532 148.819 11.8277 149.432 12.8328 149.657V149.657V149.846C11.9266 149.944 11.084 150.358 10.4536 151.014C9.82325 151.67 9.44548 152.527 9.38691 153.434C9.32834 154.34 9.59273 155.238 10.1335 155.97C10.6742 156.701 11.4566 157.219 12.3428 157.431C11.4611 158.042 10.8404 158.959 10.6028 160.003C10.4815 160.445 10.4578 160.908 10.5334 161.36C10.6089 161.812 10.782 162.242 11.0405 162.621C11.2991 163 11.637 163.319 12.031 163.555C12.425 163.791 12.8658 163.94 13.3228 163.99C14.5928 164.107 15.8505 164.33 17.0828 164.658C18.0401 164.912 19.0167 165.089 20.0028 165.186C22.2375 166.484 24.7763 167.172 27.3628 167.179V167.179L27.8528 168.006C27.6006 168.428 27.462 168.908 27.4506 169.399C27.4392 169.891 27.5554 170.376 27.7878 170.81C28.0202 171.243 28.361 171.609 28.7771 171.872C29.1933 172.135 29.6706 172.287 30.1628 172.312C30.2394 172.317 30.3162 172.317 30.3928 172.312L32.9028 176.568C32.6103 176.987 32.4353 177.476 32.3956 177.985C32.356 178.494 32.4533 179.005 32.6775 179.464C32.9016 179.923 33.2445 180.314 33.6708 180.597C34.0972 180.88 34.5915 181.044 35.1028 181.073C35.2558 181.088 35.4099 181.088 35.5628 181.073L54.2028 212.659C53.6998 214.465 53.5906 216.357 53.8825 218.208C54.1744 220.059 54.8606 221.827 55.895 223.392C56.9294 224.957 58.288 226.283 59.8795 227.281C61.4709 228.279 63.2583 228.926 65.1215 229.178C66.9847 229.43 68.8804 229.281 70.6811 228.742C72.4819 228.203 74.146 227.286 75.5615 226.052C76.977 224.819 78.1111 223.298 78.8875 221.591C79.664 219.884 80.0647 218.031 80.0628 216.157C80.0567 215.567 80.01 214.977 79.9228 214.393L97.3028 187.223C97.6592 189.343 98.1299 191.442 98.7128 193.512L95.4528 194.439C96.342 198.129 97.5636 201.732 99.1028 205.203H90.9228L98.0028 217.283H106.143C107.423 219.014 108.791 220.677 110.243 222.267C117.626 230.341 126.938 236.424 137.313 239.949L138.763 235.035C141.006 235.759 143.29 236.352 145.603 236.809L143.333 247.992H171.713L169.443 236.809C171.756 236.352 174.04 235.759 176.283 235.035L177.733 239.949C188.122 236.43 197.448 230.347 204.843 222.267C206.294 220.677 207.663 219.014 208.943 217.283H217.083L224.193 205.164H216.003C217.542 201.692 218.764 198.089 219.653 194.399L216.383 193.472C216.966 191.399 217.436 189.296 217.793 187.173L235.183 214.353C235.096 214.937 235.049 215.527 235.043 216.117C235.032 217.998 235.427 219.86 236.2 221.576C236.974 223.292 238.108 224.822 239.526 226.063C240.944 227.304 242.613 228.227 244.42 228.77C246.227 229.313 248.13 229.462 250 229.209C251.87 228.955 253.664 228.304 255.26 227.3C256.855 226.295 258.216 224.961 259.25 223.387C260.284 221.813 260.966 220.037 261.251 218.177C261.536 216.318 261.418 214.419 260.903 212.609L279.543 181.033C279.703 181.043 279.863 181.043 280.023 181.033C280.536 181.003 281.031 180.837 281.458 180.551C281.884 180.266 282.227 179.872 282.449 179.41C282.672 178.949 282.766 178.436 282.723 177.926C282.679 177.416 282.5 176.926 282.203 176.508L284.713 172.272C284.793 172.277 284.873 172.277 284.953 172.272C285.445 172.245 285.922 172.092 286.338 171.828C286.754 171.563 287.095 171.196 287.327 170.763C287.559 170.329 287.675 169.843 287.664 169.351C287.653 168.86 287.514 168.379 287.263 167.957L287.743 167.139C290.329 167.132 292.868 166.444 295.103 165.146C296.089 165.049 297.065 164.873 298.023 164.618C299.259 164.291 300.52 164.068 301.793 163.95C302.249 163.898 302.689 163.749 303.082 163.512C303.475 163.276 303.812 162.957 304.071 162.579C304.329 162.2 304.502 161.77 304.578 161.319C304.655 160.868 304.632 160.405 304.513 159.963C304.272 158.921 303.652 158.005 302.773 157.392C303.659 157.178 304.441 156.659 304.982 155.927C305.522 155.195 305.785 154.296 305.725 153.389C305.666 152.482 305.286 151.626 304.655 150.97C304.023 150.315 303.18 149.903 302.273 149.807L302.313 149.856ZM175.003 106.649C173.863 106.31 172.713 106.011 171.543 105.742H175.253L175.003 106.649ZM143.493 105.742C142.333 106.011 141.183 106.31 140.053 106.649L139.803 105.742H143.493Z" fill="white"/>
<path d="M302.313 149.856V149.667C302.818 149.564 303.298 149.362 303.724 149.072C304.15 148.782 304.514 148.41 304.794 147.979C305.074 147.547 305.265 147.064 305.356 146.558C305.447 146.052 305.435 145.532 305.322 145.031C305.209 144.529 304.997 144.055 304.698 143.636C304.399 143.217 304.019 142.862 303.58 142.591C303.142 142.32 302.653 142.139 302.144 142.059C301.634 141.978 301.114 142 300.613 142.122L299.203 142.431L300.263 142.042C301.227 141.683 302.008 140.956 302.435 140.023C302.861 139.089 302.899 138.025 302.538 137.064C302.177 136.103 301.448 135.324 300.511 134.899C299.575 134.474 298.507 134.437 297.543 134.796C294.113 136.072 293.083 136.411 292.633 136.56C292.22 136.68 291.821 136.844 291.443 137.049L289.663 137.906C287.472 137.595 285.238 137.804 283.143 138.514C283.404 132.716 282.728 126.915 281.143 121.331C280.79 120.299 280.042 119.449 279.062 118.965C278.082 118.482 276.95 118.404 275.913 118.749V118.749C274.881 119.099 274.029 119.841 273.542 120.813C273.055 121.785 272.973 122.91 273.313 123.942C273.701 125.25 274.001 126.582 274.213 127.929C273.073 127.411 271.933 126.932 270.773 126.474C267.149 125.062 263.413 123.959 259.603 123.175C258.653 122.965 257.703 122.796 256.763 122.646C255.823 122.497 254.863 122.308 253.903 122.208C252.943 122.108 252.003 121.979 251.053 121.879L248.193 121.7C244.395 121.514 240.589 121.644 236.813 122.088C236.753 122.088 236.713 122.198 236.733 122.318C236.753 122.437 236.823 122.547 236.883 122.547C240.663 122.475 244.445 122.598 248.213 122.916L251.033 123.225L253.843 123.623C254.783 123.743 255.713 123.942 256.653 124.102C257.593 124.261 258.513 124.441 259.443 124.67C263.17 125.479 266.844 126.517 270.443 127.779C271.773 128.198 273.083 128.706 274.393 129.215C275.201 135.177 275.086 141.228 274.053 147.155C273.196 149.321 272.871 151.66 273.106 153.977C273.341 156.293 274.128 158.52 275.403 160.471C274.782 160.315 274.126 160.37 273.54 160.628C272.954 160.885 272.471 161.331 272.169 161.894C271.867 162.457 271.762 163.104 271.871 163.733C271.981 164.362 272.298 164.937 272.773 165.365L270.483 169.232C269.879 169.073 269.24 169.116 268.663 169.352C268.086 169.589 267.602 170.008 267.286 170.545C266.97 171.081 266.838 171.706 266.912 172.324C266.985 172.942 267.26 173.519 267.693 173.967L250.423 203.22C249.706 203.093 248.98 203.026 248.253 203.021C247.046 203.028 245.845 203.195 244.683 203.519L218.623 162.774C218.553 160.92 218.403 159.096 218.173 157.292L218.823 157.192L219.913 157.023L220.483 156.913C220.763 156.853 220.683 156.833 220.693 156.813V156.744V156.455V155.887L220.633 154.74L220.503 152.428C220.323 150.903 220.113 149.368 219.903 147.823C219.693 146.278 219.243 144.833 218.903 143.268C218.563 141.703 218.023 140.278 217.543 138.773C215.532 133.093 212.651 127.757 209.003 122.955L233.173 104.805L231.583 100.998L232.403 100.54L231.833 99.5429L231.133 99.9415L229.713 96.5627L195.803 110.317C195.283 109.948 194.753 109.59 194.223 109.251C192.188 107.946 190.07 106.774 187.883 105.742H192.003L188.003 95.885L184.473 87.1738L180.753 78.024L177.283 69.4922L173.803 60.9206L170.423 52.5881L166.523 42.9799L163.173 34.7471L160.363 27.7702C161.834 27.1769 163.053 26.092 163.81 24.7014C164.567 23.3107 164.815 21.701 164.512 20.148C164.209 18.595 163.373 17.1955 162.148 16.1893C160.923 15.1831 159.385 14.6328 157.798 14.6328C156.21 14.6328 154.673 15.1831 153.448 16.1893C152.223 17.1955 151.387 18.595 151.084 20.148C150.781 21.701 151.029 23.3107 151.786 24.7014C152.543 26.092 153.761 27.1769 155.233 27.7702L150.703 38.9233L146.213 49.8372L142.473 59.0269L138.403 69.0836L136.283 74.2864L132.473 83.6654L130.003 89.8051L126.313 98.8751L123.523 105.732H127.313C125.136 106.765 123.028 107.937 121.003 109.241C120.473 109.58 119.943 109.938 119.423 110.297L85.4728 96.5527L84.0628 99.9216L83.3228 99.503L82.7628 100.5L83.6128 100.978L82.0028 104.805L106.173 122.955C102.52 127.76 99.6423 133.104 97.6428 138.793C97.1528 140.288 96.6428 141.783 96.2728 143.288C95.9028 144.793 95.5628 146.328 95.2728 147.843C94.9828 149.358 94.8528 150.923 94.6828 152.448L94.5528 154.75L94.4928 155.896V156.475V156.754V156.833C94.4928 156.833 94.4228 156.833 94.7028 156.933L95.2728 157.043L96.3628 157.212L96.9928 157.302C96.7628 159.116 96.6128 160.95 96.5528 162.804L70.4428 203.539C69.2804 203.215 68.0798 203.048 66.8728 203.041C66.1452 203.046 65.4193 203.113 64.7028 203.24L47.4428 173.997C47.8745 173.547 48.1471 172.968 48.2191 172.35C48.2911 171.731 48.1587 171.106 47.842 170.57C47.5253 170.033 47.0415 169.614 46.4641 169.376C45.8867 169.138 45.2473 169.095 44.6428 169.252L42.3528 165.385C42.8388 164.959 43.1662 164.383 43.282 163.748C43.3977 163.114 43.295 162.459 42.9905 161.89C42.686 161.321 42.1975 160.871 41.6044 160.614C41.0112 160.356 40.3482 160.306 39.7228 160.471C41.2883 158.086 42.1223 155.298 42.1228 152.448C42.1317 150.62 41.7923 148.807 41.1228 147.106C40.1589 141.478 40.0074 135.742 40.6728 130.072C42.2065 130.082 43.7385 130.172 45.2628 130.341L47.5728 130.68L49.8828 131.118L52.1728 131.677L54.4328 132.364C57.4627 133.374 60.3893 134.669 63.1728 136.232L65.2728 137.448L67.2728 138.783L69.2728 140.208C69.9228 140.717 70.5728 141.205 71.2728 141.733C71.2728 141.733 71.4428 141.733 71.5628 141.584C71.6828 141.434 71.7228 141.355 71.6928 141.315C71.1228 140.687 70.5528 140.069 69.9628 139.461L68.0928 137.727L66.0928 136.152L64.0028 134.707C61.162 132.898 58.096 131.467 54.8828 130.451L52.4928 129.783L50.0828 129.255L47.6528 128.896L45.2228 128.716C43.7623 128.65 42.2988 128.683 40.8428 128.816C41.0506 127.168 41.3849 125.539 41.8428 123.942C42.1827 122.91 42.1003 121.785 41.6135 120.813C41.1267 119.841 40.2749 119.099 39.2428 118.749V118.749C38.2057 118.401 37.0723 118.475 36.0903 118.957C35.1083 119.439 34.3578 120.289 34.0028 121.321C33.8728 121.7 31.7128 128.298 32.0028 138.504C30.5093 138.011 28.9463 137.758 27.3728 137.756C26.7442 137.764 26.1165 137.807 25.4928 137.886C24.4928 137.408 23.9728 137.168 23.7128 137.039C23.3349 136.834 22.9359 136.67 22.5228 136.55C22.0828 136.401 21.0428 136.062 17.6128 134.786C17.1355 134.608 16.6276 134.526 16.1182 134.543C15.6089 134.561 15.108 134.678 14.6442 134.889C14.1803 135.1 13.7626 135.399 13.415 135.771C13.0673 136.142 12.7964 136.578 12.6178 137.054C12.4392 137.53 12.3564 138.036 12.3741 138.543C12.3917 139.051 12.5096 139.55 12.7208 140.013C12.9321 140.475 13.2326 140.891 13.6053 141.238C13.978 141.584 14.4155 141.854 14.8928 142.032L15.9628 142.421L14.5328 142.102C14.0351 141.991 13.5203 141.978 13.0178 142.065C12.5152 142.153 12.0348 142.337 11.6039 142.609C10.7338 143.159 10.1183 144.031 9.89282 145.032C9.66739 146.034 9.85049 147.084 10.4018 147.952C10.9532 148.819 11.8277 149.432 12.8328 149.657V149.657V149.846C11.9266 149.944 11.084 150.358 10.4536 151.014C9.82325 151.67 9.44548 152.527 9.38691 153.434C9.32834 154.34 9.59273 155.238 10.1335 155.97C10.6742 156.701 11.4566 157.219 12.3428 157.431C11.4611 158.042 10.8404 158.959 10.6028 160.003C10.4815 160.445 10.4578 160.908 10.5334 161.36C10.6089 161.812 10.782 162.242 11.0405 162.621C11.2991 163 11.637 163.319 12.031 163.555C12.425 163.791 12.8658 163.94 13.3228 163.99C14.5928 164.107 15.8505 164.33 17.0828 164.658C18.0401 164.912 19.0167 165.089 20.0028 165.186C22.2375 166.484 24.7763 167.172 27.3628 167.179V167.179L27.8528 168.006C27.6006 168.428 27.462 168.908 27.4506 169.399C27.4392 169.891 27.5554 170.376 27.7878 170.81C28.0202 171.243 28.361 171.609 28.7771 171.872C29.1933 172.135 29.6706 172.287 30.1628 172.312C30.2394 172.317 30.3162 172.317 30.3928 172.312L32.9028 176.568C32.6103 176.987 32.4353 177.476 32.3956 177.985C32.356 178.494 32.4533 179.005 32.6775 179.464C32.9016 179.923 33.2445 180.314 33.6708 180.597C34.0972 180.88 34.5915 181.044 35.1028 181.073C35.2558 181.088 35.4099 181.088 35.5628 181.073L54.2028 212.659C53.6998 214.465 53.5906 216.357 53.8825 218.208C54.1744 220.059 54.8606 221.827 55.895 223.392C56.9294 224.957 58.288 226.283 59.8795 227.281C61.4709 228.279 63.2583 228.926 65.1215 229.178C66.9847 229.43 68.8804 229.281 70.6811 228.742C72.4819 228.203 74.146 227.286 75.5615 226.052C76.977 224.819 78.1111 223.298 78.8875 221.591C79.664 219.884 80.0647 218.031 80.0628 216.157C80.0567 215.567 80.01 214.977 79.9228 214.393L97.3028 187.223C97.6592 189.343 98.1299 191.442 98.7128 193.512L95.4528 194.439C96.342 198.129 97.5636 201.732 99.1028 205.203H90.9228L98.0028 217.283H106.143C107.423 219.014 108.791 220.677 110.243 222.267C117.626 230.341 126.938 236.424 137.313 239.949L138.763 235.035C141.006 235.759 143.29 236.352 145.603 236.809L143.333 247.992H171.713L169.443 236.809C171.756 236.352 174.04 235.759 176.283 235.035L177.733 239.949C188.122 236.43 197.448 230.347 204.843 222.267C206.294 220.677 207.663 219.014 208.943 217.283H217.083L224.193 205.164H216.003C217.542 201.692 218.764 198.089 219.653 194.399L216.383 193.472C216.966 191.399 217.436 189.296 217.793 187.173L235.183 214.353C235.096 214.937 235.049 215.527 235.043 216.117C235.032 217.998 235.427 219.86 236.2 221.576C236.974 223.292 238.108 224.822 239.526 226.063C240.944 227.304 242.613 228.227 244.42 228.77C246.227 229.313 248.13 229.462 250 229.209C251.87 228.955 253.664 228.304 255.26 227.3C256.855 226.295 258.216 224.961 259.25 223.387C260.284 221.813 260.966 220.037 261.251 218.177C261.536 216.318 261.418 214.419 260.903 212.609L279.543 181.033C279.703 181.043 279.863 181.043 280.023 181.033C280.536 181.003 281.031 180.837 281.458 180.551C281.884 180.266 282.227 179.872 282.449 179.41C282.672 178.949 282.766 178.436 282.723 177.926C282.679 177.416 282.5 176.926 282.203 176.508L284.713 172.272C284.793 172.277 284.873 172.277 284.953 172.272C285.445 172.245 285.922 172.092 286.338 171.828C286.754 171.563 287.095 171.196 287.327 170.763C287.559 170.329 287.675 169.843 287.664 169.351C287.653 168.86 287.514 168.379 287.263 167.957L287.743 167.139C290.329 167.132 292.868 166.444 295.103 165.146C296.089 165.049 297.065 164.873 298.023 164.618C299.259 164.291 300.52 164.068 301.793 163.95C302.249 163.898 302.689 163.749 303.082 163.512C303.475 163.276 303.812 162.957 304.071 162.579C304.329 162.2 304.502 161.77 304.578 161.319C304.655 160.868 304.632 160.405 304.513 159.963C304.272 158.921 303.652 158.005 302.773 157.392C303.659 157.178 304.441 156.659 304.982 155.927C305.522 155.195 305.785 154.296 305.725 153.389C305.666 152.482 305.286 151.626 304.655 150.97C304.023 150.315 303.18 149.903 302.273 149.807L302.313 149.856ZM175.003 106.649C173.863 106.31 172.713 106.011 171.543 105.742H175.253L175.003 106.649ZM143.493 105.742C142.333 106.011 141.183 106.31 140.053 106.649L139.803 105.742H143.493Z" stroke="white" stroke-width="12" stroke-miterlimit="10"/>
<path d="M244.324 90.6199C244.35 90.6464 244.381 90.6675 244.415 90.6819C244.449 90.6963 244.486 90.7037 244.524 90.7037C244.561 90.7037 244.598 90.6963 244.632 90.6819C244.666 90.6675 244.697 90.6464 244.724 90.6199C247.572 87.5466 251.158 85.2452 255.144 83.932C259.124 82.5728 263.394 82.2806 267.523 83.0848C268.71 83.3261 269.866 83.6936 270.974 84.1812C270.794 84.2709 270.604 84.3506 270.424 84.4503C268.422 85.5482 266.775 87.19 265.674 89.1847C265.084 90.2659 264.742 91.4642 264.674 92.6931C264.62 94.0214 264.935 95.3387 265.583 96.5005C266.257 97.6597 267.218 98.6274 268.373 99.3112C269.46 99.9481 270.677 100.33 271.933 100.427C273.159 100.539 274.389 100.289 275.474 99.7099C276.539 99.1151 277.415 98.2345 278.004 97.1683C279.181 94.9295 279.422 92.3174 278.674 89.9023C277.996 87.7432 276.665 85.8458 274.863 84.4702C275.56 84.2577 276.268 84.0847 276.984 83.952C281.167 83.2418 285.469 83.9028 289.243 85.8357C293.267 87.9116 296.609 91.0939 298.873 95.0054C298.909 95.0675 298.967 95.1141 299.035 95.1362C299.104 95.1583 299.178 95.1543 299.243 95.125C299.276 95.1065 299.305 95.0816 299.328 95.0518C299.35 95.0221 299.367 94.9881 299.376 94.9518C299.386 94.9155 299.387 94.8778 299.382 94.8407C299.376 94.8037 299.363 94.7682 299.343 94.7363C297.167 90.543 293.805 87.0777 289.674 84.7693C285.716 82.5866 281.148 81.7602 276.674 82.417C275.587 82.5752 274.517 82.8253 273.474 83.1646L273.093 83.3041C271.42 82.3807 269.606 81.7375 267.724 81.4004C263.326 80.6827 258.816 81.1401 254.653 82.726C250.582 84.2562 246.999 86.8524 244.283 90.2412C244.243 90.2984 244.225 90.3684 244.232 90.438C244.239 90.5077 244.272 90.5723 244.324 90.6199V90.6199ZM273.324 85.4769C274.182 86.0722 274.944 86.7949 275.583 87.6198C276.214 88.4228 276.683 89.3401 276.963 90.3209C277.238 91.2924 277.337 92.305 277.254 93.311C277.165 94.2755 276.879 95.2117 276.414 96.0619C275.994 96.8662 275.344 97.528 274.547 97.9629C273.749 98.3978 272.839 98.5861 271.933 98.5038C270.972 98.4405 270.038 98.1575 269.204 97.6766C268.379 97.1901 267.692 96.5046 267.204 95.6832C266.73 94.8417 266.498 93.8865 266.534 92.9223C266.58 91.9587 266.835 91.0166 267.284 90.1614C268.235 88.424 269.646 86.9797 271.363 85.9852C271.865 85.6997 272.382 85.4434 272.914 85.2178C273.004 85.2975 273.163 85.3773 273.303 85.4769H273.324Z" fill="white"/>
<path d="M244.324 90.6199C244.35 90.6464 244.381 90.6675 244.415 90.6819C244.449 90.6963 244.486 90.7037 244.524 90.7037C244.561 90.7037 244.598 90.6963 244.632 90.6819C244.666 90.6675 244.697 90.6464 244.724 90.6199C247.572 87.5466 251.158 85.2452 255.144 83.932C259.124 82.5728 263.394 82.2806 267.523 83.0848C268.71 83.3261 269.866 83.6936 270.974 84.1812C270.794 84.2709 270.604 84.3506 270.424 84.4503C268.422 85.5482 266.775 87.19 265.674 89.1847C265.084 90.2659 264.742 91.4642 264.674 92.6931C264.62 94.0214 264.935 95.3387 265.583 96.5005C266.257 97.6597 267.218 98.6274 268.373 99.3112C269.46 99.9481 270.677 100.33 271.933 100.427C273.159 100.539 274.389 100.289 275.474 99.7099C276.539 99.1151 277.415 98.2345 278.004 97.1683C279.181 94.9295 279.422 92.3174 278.674 89.9023C277.996 87.7432 276.665 85.8458 274.863 84.4702C275.56 84.2577 276.268 84.0847 276.984 83.952C281.167 83.2418 285.469 83.9028 289.243 85.8357C293.267 87.9116 296.609 91.0939 298.873 95.0054C298.909 95.0675 298.967 95.1141 299.035 95.1362C299.104 95.1583 299.178 95.1543 299.243 95.125C299.276 95.1065 299.305 95.0816 299.328 95.0518C299.35 95.0221 299.367 94.9881 299.376 94.9518C299.386 94.9155 299.387 94.8778 299.382 94.8407C299.376 94.8037 299.363 94.7682 299.343 94.7363C297.167 90.543 293.805 87.0777 289.674 84.7693C285.716 82.5866 281.148 81.7602 276.674 82.417C275.587 82.5752 274.517 82.8253 273.474 83.1646L273.093 83.3041C271.42 82.3807 269.606 81.7375 267.724 81.4004C263.326 80.6827 258.816 81.1401 254.653 82.726C250.582 84.2562 246.999 86.8524 244.283 90.2412C244.243 90.2984 244.225 90.3684 244.232 90.438C244.239 90.5077 244.272 90.5723 244.324 90.6199V90.6199ZM273.324 85.4769C274.182 86.0722 274.944 86.7949 275.583 87.6198C276.214 88.4228 276.683 89.3401 276.963 90.3209C277.238 91.2924 277.337 92.305 277.254 93.311C277.165 94.2755 276.879 95.2117 276.414 96.0619C275.994 96.8662 275.344 97.528 274.547 97.9629C273.749 98.3978 272.839 98.5861 271.933 98.5038C270.972 98.4405 270.038 98.1575 269.204 97.6766C268.379 97.1901 267.692 96.5046 267.204 95.6832C266.73 94.8417 266.498 93.8865 266.534 92.9223C266.58 91.9587 266.835 91.0166 267.284 90.1614C268.235 88.424 269.646 86.9797 271.363 85.9852C271.865 85.6997 272.382 85.4434 272.914 85.2178C273.004 85.2975 273.163 85.3773 273.303 85.4769H273.324Z" stroke="white" stroke-width="12" stroke-miterlimit="10"/>
<path d="M196.341 37.7341C198.474 37.6055 200.576 37.1656 202.581 36.4284C204.612 35.6915 206.46 34.5291 208.001 33.0197C209.444 31.5469 210.502 29.7431 211.081 27.7671C212.738 26.7028 214.222 25.3919 215.481 23.8799C216.853 22.276 218.056 20.5359 219.071 18.6871C220.138 16.7869 220.796 14.6855 221.001 12.5175C221.202 10.2889 220.713 8.05252 219.601 6.10869C219.588 6.06982 219.567 6.03448 219.538 6.00557C219.509 5.97667 219.473 5.95501 219.434 5.94238C219.395 5.92974 219.354 5.92648 219.313 5.93287C219.273 5.93925 219.234 5.9551 219.201 5.97912C219.14 6.01299 219.093 6.0687 219.071 6.13518C219.049 6.20165 219.052 6.27403 219.081 6.33794C220.003 8.18803 220.351 10.27 220.081 12.3182C219.809 14.3309 219.129 16.2674 218.081 18.0093C217.039 19.7589 215.83 21.4044 214.471 22.9231C213.579 23.9148 212.591 24.8163 211.521 25.6142C211.566 25.0303 211.566 24.4439 211.521 23.86C211.46 22.6725 211.189 21.5051 210.721 20.4114C210.263 19.3165 209.624 18.3058 208.831 17.4213C208.046 16.5159 207.091 15.7711 206.021 15.2285C204.947 14.6779 203.759 14.3844 202.551 14.3714C201.379 14.3872 200.226 14.6594 199.171 15.1687C198.12 15.6878 197.203 16.4416 196.491 17.3714C195.762 18.3429 195.325 19.5009 195.231 20.7104C195.149 21.9318 195.373 23.1543 195.881 24.2686C196.39 25.3677 197.11 26.3565 198.001 27.179C198.862 28.0083 199.883 28.6558 201.001 29.0827C202.084 29.4842 203.226 29.6999 204.381 29.7206C205.847 29.7434 207.303 29.4862 208.671 28.9631C208.186 29.9991 207.538 30.9513 206.751 31.7838C205.401 33.1944 203.765 34.3021 201.951 35.033C200.092 35.7885 198.131 36.2655 196.131 36.4484C191.975 36.8637 187.779 36.2863 183.891 34.7639C183.826 34.7416 183.755 34.7459 183.693 34.7758C183.631 34.8057 183.584 34.8587 183.561 34.9234C183.544 34.9559 183.534 34.9915 183.532 35.028C183.529 35.0645 183.534 35.1012 183.547 35.1357C183.559 35.1702 183.578 35.2019 183.603 35.2288C183.628 35.2557 183.658 35.2773 183.691 35.2922C187.64 37.1386 191.987 37.9778 196.341 37.7341ZM204.341 28.0362C202.414 27.9897 200.572 27.2334 199.171 25.9132C198.478 25.2851 197.931 24.5137 197.568 23.6529C197.205 22.7921 197.036 21.8627 197.071 20.9297C197.172 20.0487 197.502 19.2092 198.028 18.4942C198.554 17.7793 199.258 17.2136 200.071 16.8532C200.884 16.4678 201.771 16.2637 202.671 16.2551C203.583 16.273 204.479 16.498 205.291 16.913C207.003 17.8238 208.343 19.3004 209.081 21.0892C209.834 22.8871 209.988 24.8785 209.521 26.7704C209.521 26.7704 209.521 26.8401 209.521 26.88C207.926 27.6929 206.151 28.0906 204.361 28.0362H204.341Z" fill="white"/>
<path d="M196.341 37.7341C198.474 37.6055 200.576 37.1656 202.581 36.4284C204.612 35.6915 206.46 34.5291 208.001 33.0197C209.444 31.5469 210.502 29.7431 211.081 27.7671C212.738 26.7028 214.222 25.3919 215.481 23.8799C216.853 22.276 218.056 20.5359 219.071 18.6871C220.138 16.7869 220.796 14.6855 221.001 12.5175C221.202 10.2889 220.713 8.05252 219.601 6.10869C219.588 6.06982 219.567 6.03448 219.538 6.00557C219.509 5.97667 219.473 5.95501 219.434 5.94238C219.395 5.92974 219.354 5.92648 219.313 5.93287C219.273 5.93925 219.234 5.9551 219.201 5.97912C219.14 6.01299 219.093 6.0687 219.071 6.13518C219.049 6.20165 219.052 6.27403 219.081 6.33794C220.003 8.18803 220.351 10.27 220.081 12.3182C219.809 14.3309 219.129 16.2674 218.081 18.0093C217.039 19.7589 215.83 21.4044 214.471 22.9231C213.579 23.9148 212.591 24.8163 211.521 25.6142C211.566 25.0303 211.566 24.4439 211.521 23.86C211.46 22.6725 211.189 21.5051 210.721 20.4114C210.263 19.3165 209.624 18.3058 208.831 17.4213C208.046 16.5159 207.091 15.7711 206.021 15.2285C204.947 14.6779 203.759 14.3844 202.551 14.3714C201.379 14.3872 200.226 14.6594 199.171 15.1687C198.12 15.6878 197.203 16.4416 196.491 17.3714C195.762 18.3429 195.325 19.5009 195.231 20.7104C195.149 21.9318 195.373 23.1543 195.881 24.2686C196.39 25.3677 197.11 26.3565 198.001 27.179C198.862 28.0083 199.883 28.6558 201.001 29.0827C202.084 29.4842 203.226 29.6999 204.381 29.7206C205.847 29.7434 207.303 29.4862 208.671 28.9631C208.186 29.9991 207.538 30.9513 206.751 31.7838C205.401 33.1944 203.765 34.3021 201.951 35.033C200.092 35.7885 198.131 36.2655 196.131 36.4484C191.975 36.8637 187.779 36.2863 183.891 34.7639C183.826 34.7416 183.755 34.7459 183.693 34.7758C183.631 34.8057 183.584 34.8587 183.561 34.9234C183.544 34.9559 183.534 34.9915 183.532 35.028C183.529 35.0645 183.534 35.1012 183.547 35.1357C183.559 35.1702 183.578 35.2019 183.603 35.2288C183.628 35.2557 183.658 35.2773 183.691 35.2922C187.64 37.1386 191.987 37.9778 196.341 37.7341ZM204.341 28.0362C202.414 27.9897 200.572 27.2334 199.171 25.9132C198.478 25.2851 197.931 24.5137 197.568 23.6529C197.205 22.7921 197.036 21.8627 197.071 20.9297C197.172 20.0487 197.502 19.2092 198.028 18.4942C198.554 17.7793 199.258 17.2136 200.071 16.8532C200.884 16.4678 201.771 16.2637 202.671 16.2551C203.583 16.273 204.479 16.498 205.291 16.913C207.003 17.8238 208.343 19.3004 209.081 21.0892C209.834 22.8871 209.988 24.8785 209.521 26.7704C209.521 26.7704 209.521 26.8401 209.521 26.88C207.926 27.6929 206.151 28.0906 204.361 28.0362H204.341Z" stroke="white" stroke-width="12" stroke-miterlimit="10"/>
<path d="M206.9 61.4158C206.84 61.4158 206.82 61.5354 206.9 61.645C206.98 61.7546 207.01 61.8443 207.07 61.8344C210.55 61.0171 213.99 60.13 217.38 59.1034C219.08 58.6051 220.76 58.1067 222.38 57.4688C224 56.8309 225.69 56.2229 227.31 55.5352C230.565 54.1655 233.685 52.4972 236.63 50.5517C238.08 49.555 239.49 48.4885 240.84 47.3523C242.195 46.2131 243.477 44.9915 244.68 43.6944C244.68 43.6944 244.68 43.5548 244.62 43.4651C244.56 43.3754 244.44 43.3256 244.39 43.3655C243.03 44.4718 241.67 45.5482 240.25 46.5649C238.83 47.5815 237.41 48.5583 235.93 49.4454C232.967 51.2545 229.883 52.8596 226.7 54.2495C225.11 54.9472 223.5 55.6149 221.86 56.2429C220.22 56.8708 218.58 57.4688 216.92 58.0569L206.9 61.4158Z" fill="white"/>
<path d="M206.9 61.4158C206.84 61.4158 206.82 61.5354 206.9 61.645C206.98 61.7546 207.01 61.8443 207.07 61.8344C210.55 61.0171 213.99 60.13 217.38 59.1034C219.08 58.6051 220.76 58.1067 222.38 57.4688C224 56.8309 225.69 56.2229 227.31 55.5352C230.565 54.1655 233.685 52.4972 236.63 50.5517C238.08 49.555 239.49 48.4885 240.84 47.3523C242.195 46.2131 243.477 44.9915 244.68 43.6944C244.68 43.6944 244.68 43.5548 244.62 43.4651C244.56 43.3754 244.44 43.3256 244.39 43.3655C243.03 44.4718 241.67 45.5482 240.25 46.5649C238.83 47.5815 237.41 48.5583 235.93 49.4454C232.967 51.2545 229.883 52.8596 226.7 54.2495C225.11 54.9472 223.5 55.6149 221.86 56.2429C220.22 56.8708 218.58 57.4688 216.92 58.0569L206.9 61.4158Z" stroke="white" stroke-width="12" stroke-miterlimit="10"/>
<path d="M245.621 148.898C246.521 149.078 247.401 149.267 248.291 149.476C250.061 149.905 251.831 150.353 253.591 150.862C254.471 151.101 255.351 151.36 256.231 151.639C257.111 151.888 257.991 152.177 258.891 152.426C258.891 152.426 258.961 152.367 259.001 152.257C259.041 152.147 259.001 152.038 259.001 152.018C258.171 151.539 257.321 151.121 256.461 150.712C255.601 150.303 254.721 149.965 253.841 149.626C252.085 148.977 250.284 148.458 248.451 148.071C247.541 147.881 246.631 147.712 245.711 147.563C244.791 147.413 243.881 147.313 242.971 147.244C241.149 147.076 239.317 147.053 237.491 147.174C237.491 147.174 237.441 147.264 237.441 147.383C237.441 147.503 237.441 147.602 237.511 147.602C239.331 147.852 241.141 148.091 242.931 148.4L245.621 148.898Z" fill="white"/>
<path d="M245.621 148.898C246.521 149.078 247.401 149.267 248.291 149.476C250.061 149.905 251.831 150.353 253.591 150.862C254.471 151.101 255.351 151.36 256.231 151.639C257.111 151.888 257.991 152.177 258.891 152.426C258.891 152.426 258.961 152.367 259.001 152.257C259.041 152.147 259.001 152.038 259.001 152.018C258.171 151.539 257.321 151.121 256.461 150.712C255.601 150.303 254.721 149.965 253.841 149.626C252.085 148.977 250.284 148.458 248.451 148.071C247.541 147.881 246.631 147.712 245.711 147.563C244.791 147.413 243.881 147.313 242.971 147.244C241.149 147.076 239.317 147.053 237.491 147.174C237.491 147.174 237.441 147.264 237.441 147.383C237.441 147.503 237.441 147.602 237.511 147.602C239.331 147.852 241.141 148.091 242.931 148.4L245.621 148.898Z" stroke="white" stroke-width="12" stroke-miterlimit="10"/>
<path d="M257.23 62.5029C259.024 62.3236 260.796 61.9663 262.52 61.4364L263.81 61.0278L265.07 60.5593L266.3 60.031L267.52 59.453C269.129 58.6596 270.656 57.7116 272.08 56.6223L273.13 55.7751L274.13 54.8881L275.08 53.8914C275.387 53.5658 275.687 53.2335 275.98 52.8946C275.98 52.8946 275.98 52.785 275.88 52.6953C275.78 52.6056 275.72 52.5458 275.7 52.5558L273.53 54.0708L272.45 54.8083L271.34 55.516C269.88 56.4529 268.34 57.32 266.84 58.1373L265.68 58.7254L264.49 59.2736L263.3 59.8018L262.09 60.3101C260.47 60.958 258.81 61.5261 257.09 62.0544C257.09 62.0544 257.09 62.154 257.09 62.2736C257.09 62.3932 257.2 62.5029 257.23 62.5029Z" fill="white"/>
<path d="M257.23 62.5029C259.024 62.3236 260.796 61.9663 262.52 61.4364L263.81 61.0278L265.07 60.5593L266.3 60.031L267.52 59.453C269.129 58.6596 270.656 57.7116 272.08 56.6223L273.13 55.7751L274.13 54.8881L275.08 53.8914C275.387 53.5658 275.687 53.2335 275.98 52.8946C275.98 52.8946 275.98 52.785 275.88 52.6953C275.78 52.6056 275.72 52.5458 275.7 52.5558L273.53 54.0708L272.45 54.8083L271.34 55.516C269.88 56.4529 268.34 57.32 266.84 58.1373L265.68 58.7254L264.49 59.2736L263.3 59.8018L262.09 60.3101C260.47 60.958 258.81 61.5261 257.09 62.0544C257.09 62.0544 257.09 62.154 257.09 62.2736C257.09 62.3932 257.2 62.5029 257.23 62.5029Z" stroke="white" stroke-width="12" stroke-miterlimit="10"/>
<path d="M309.53 118.538L308.53 117.811C308.19 117.581 307.85 117.372 307.53 117.153L306.47 116.585L305.38 116.066C303.94 115.428 302.414 115.002 300.85 114.801L299.7 114.711H298.56L297.43 114.811C297.06 114.811 296.69 114.93 296.32 115.01C296.32 115.01 296.32 115.11 296.32 115.219C296.32 115.329 296.32 115.449 296.4 115.449C296.77 115.449 297.14 115.528 297.51 115.558L298.61 115.708L299.7 115.877L300.77 116.116C302.215 116.443 303.63 116.89 305 117.452L306 117.89L307 118.399L308 118.947L309 119.535C310.316 120.383 311.563 121.333 312.73 122.376C312.73 122.376 312.82 122.376 312.9 122.256C312.98 122.136 313.02 122.097 313.01 122.067C312.018 120.737 310.847 119.549 309.53 118.538V118.538Z" fill="white"/>
<path d="M309.53 118.538L308.53 117.811C308.19 117.581 307.85 117.372 307.53 117.153L306.47 116.585L305.38 116.066C303.94 115.428 302.414 115.002 300.85 114.801L299.7 114.711H298.56L297.43 114.811C297.06 114.811 296.69 114.93 296.32 115.01C296.32 115.01 296.32 115.11 296.32 115.219C296.32 115.329 296.32 115.449 296.4 115.449C296.77 115.449 297.14 115.528 297.51 115.558L298.61 115.708L299.7 115.877L300.77 116.116C302.215 116.443 303.63 116.89 305 117.452L306 117.89L307 118.399L308 118.947L309 119.535C310.316 120.383 311.563 121.333 312.73 122.376C312.73 122.376 312.82 122.376 312.9 122.256C312.98 122.136 313.02 122.097 313.01 122.067C312.018 120.737 310.847 119.549 309.53 118.538V118.538Z" stroke="white" stroke-width="12" stroke-miterlimit="10"/>
<path d="M15.8017 106.138C16.5577 108.902 18.1163 111.381 20.2817 113.265C21.3795 114.237 22.6122 115.046 23.9417 115.667C25.2725 116.287 26.7063 116.659 28.1717 116.763C29.5894 116.884 31.0168 116.708 32.3617 116.245C33.022 116 33.6447 115.665 34.2117 115.248C34.7723 114.829 35.2561 114.316 35.6417 113.733C36.4092 112.532 36.7212 111.097 36.5217 109.687C36.3265 108.26 35.8066 106.896 35.0017 105.7C33.4399 103.316 31.2917 101.37 28.7617 100.048C26.3436 98.7527 23.7178 97.8859 21.0017 97.4869C20.5317 97.4171 20.0017 97.3773 19.5817 97.3274C20.482 96.1435 21.655 95.1931 23.0017 94.5566C25.1689 93.5901 27.5451 93.1822 29.9117 93.3705C32.44 93.5417 34.9365 94.0306 37.3417 94.8257C42.3796 96.4361 47.1839 98.6979 51.6317 101.553C56.206 104.452 60.4189 107.881 64.1817 111.77C64.2433 111.829 64.3258 111.863 64.4117 111.863C64.4976 111.863 64.5801 111.829 64.6417 111.77C64.6702 111.743 64.6928 111.71 64.7083 111.674C64.7238 111.638 64.7317 111.599 64.7317 111.56C64.7317 111.521 64.7238 111.482 64.7083 111.446C64.6928 111.411 64.6702 111.378 64.6417 111.351C61.0336 107.183 56.8992 103.498 52.3417 100.387C47.8265 97.336 42.9321 94.8835 37.7817 93.0914C35.2171 92.2013 32.5488 91.6419 29.8417 91.4269C27.163 91.1793 24.4651 91.6149 22.0017 92.6927C19.904 93.6517 18.1569 95.2364 17.0017 97.2277C13.1223 97.257 9.3352 98.4102 6.10174 100.547C6.06781 100.568 6.03898 100.597 6.01718 100.631C5.99539 100.665 5.98117 100.703 5.97547 100.742C5.96978 100.782 5.97275 100.823 5.98418 100.861C5.99562 100.9 6.01525 100.935 6.04174 100.965C6.0915 101.031 6.16295 101.077 6.24347 101.095C6.32399 101.114 6.40838 101.103 6.48174 101.065C9.49806 99.3067 12.9274 98.3748 16.4217 98.364C15.3347 100.81 15.1161 103.552 15.8017 106.138V106.138ZM20.9117 98.673C23.4413 99.1356 25.8729 100.025 28.1017 101.304C29.2159 101.929 30.2529 102.682 31.1917 103.547C32.109 104.396 32.9062 105.365 33.5617 106.427C34.8717 108.49 35.2117 110.962 34.0117 112.637C33.7236 113.06 33.3612 113.428 32.9417 113.723C32.5001 114.024 32.0189 114.262 31.5117 114.431C30.4158 114.785 29.2591 114.914 28.1117 114.81C26.9142 114.723 25.7438 114.412 24.6617 113.893C23.5514 113.377 22.5209 112.706 21.6017 111.899C19.7783 110.291 18.4705 108.184 17.8417 105.839C17.2111 103.337 17.5691 100.69 18.8417 98.4437C19.5417 98.5035 20.2317 98.5833 20.9117 98.673Z" fill="white"/>
<path d="M15.8017 106.138C16.5577 108.902 18.1163 111.381 20.2817 113.265C21.3795 114.237 22.6122 115.046 23.9417 115.667C25.2725 116.287 26.7063 116.659 28.1717 116.763C29.5894 116.884 31.0168 116.708 32.3617 116.245C33.022 116 33.6447 115.665 34.2117 115.248C34.7723 114.829 35.2561 114.316 35.6417 113.733C36.4092 112.532 36.7212 111.097 36.5217 109.687C36.3265 108.26 35.8066 106.896 35.0017 105.7C33.4399 103.316 31.2917 101.37 28.7617 100.048C26.3436 98.7527 23.7178 97.8859 21.0017 97.4869C20.5317 97.4171 20.0017 97.3773 19.5817 97.3274C20.482 96.1435 21.655 95.1931 23.0017 94.5566C25.1689 93.5901 27.5451 93.1822 29.9117 93.3705C32.44 93.5417 34.9365 94.0306 37.3417 94.8257C42.3796 96.4361 47.1839 98.6979 51.6317 101.553C56.206 104.452 60.4189 107.881 64.1817 111.77C64.2433 111.829 64.3258 111.863 64.4117 111.863C64.4976 111.863 64.5801 111.829 64.6417 111.77C64.6702 111.743 64.6928 111.71 64.7083 111.674C64.7238 111.638 64.7317 111.599 64.7317 111.56C64.7317 111.521 64.7238 111.482 64.7083 111.446C64.6928 111.411 64.6702 111.378 64.6417 111.351C61.0336 107.183 56.8992 103.498 52.3417 100.387C47.8265 97.336 42.9321 94.8835 37.7817 93.0914C35.2171 92.2013 32.5488 91.6419 29.8417 91.4269C27.163 91.1793 24.4651 91.6149 22.0017 92.6927C19.904 93.6517 18.1569 95.2364 17.0017 97.2277C13.1223 97.257 9.3352 98.4102 6.10174 100.547C6.06781 100.568 6.03898 100.597 6.01718 100.631C5.99539 100.665 5.98117 100.703 5.97547 100.742C5.96978 100.782 5.97275 100.823 5.98418 100.861C5.99562 100.9 6.01525 100.935 6.04174 100.965C6.0915 101.031 6.16295 101.077 6.24347 101.095C6.32399 101.114 6.40838 101.103 6.48174 101.065C9.49806 99.3067 12.9274 98.3748 16.4217 98.364C15.3347 100.81 15.1161 103.552 15.8017 106.138ZM20.9117 98.673C23.4413 99.1356 25.8729 100.025 28.1017 101.304C29.2159 101.929 30.2529 102.682 31.1917 103.547C32.109 104.396 32.9062 105.365 33.5617 106.427C34.8717 108.49 35.2117 110.962 34.0117 112.637C33.7236 113.06 33.3612 113.428 32.9417 113.723C32.5001 114.024 32.0189 114.262 31.5117 114.431C30.4158 114.785 29.2591 114.914 28.1117 114.81C26.9142 114.723 25.7438 114.412 24.6617 113.893C23.5514 113.377 22.5209 112.706 21.6017 111.899C19.7783 110.291 18.4705 108.184 17.8417 105.839C17.2111 103.337 17.5691 100.69 18.8417 98.4437C19.5417 98.5035 20.2317 98.5833 20.9117 98.673Z" stroke="white" stroke-width="12" stroke-miterlimit="10"/>
<path d="M102.673 25.6155C103 26.4691 103.388 27.2984 103.833 28.0973C104.253 28.8947 104.743 29.6721 105.243 30.4296C107.357 33.4389 109.999 36.0423 113.043 38.1142C116.024 40.1243 119.375 41.5267 122.903 42.2406C123.023 42.2406 123.133 42.1508 123.143 41.9814C123.153 41.812 123.083 41.6625 122.973 41.6326C119.651 40.6506 116.532 39.0844 113.763 37.0079C110.995 34.9629 108.623 32.4333 106.763 29.5425C106.313 28.8249 105.883 28.1073 105.503 27.3598C105.118 26.6326 104.784 25.88 104.503 25.1072C103.969 23.7198 103.691 22.2476 103.683 20.7616C104.597 22.3052 105.9 23.5835 107.463 24.4693C108.304 24.967 109.244 25.274 110.217 25.3688C111.19 25.4635 112.172 25.3436 113.093 25.0175C113.979 24.6516 114.73 24.0215 115.243 23.2135C115.757 22.4074 116.06 21.4854 116.123 20.5323C116.199 19.5111 116.031 18.4864 115.633 17.5422C115.215 16.589 114.606 15.731 113.843 15.0206C112.364 13.6539 110.409 12.914 108.393 12.9574C107.466 13.0026 106.557 13.2312 105.719 13.6299C104.881 14.0286 104.131 14.5894 103.513 15.2797C103.388 15.4122 103.271 15.552 103.163 15.6983C103.163 15.5688 103.103 15.4292 103.083 15.2996C102.828 13.7531 102.908 12.1699 103.318 10.6568C103.729 9.14382 104.46 7.73611 105.463 6.52866C105.533 6.44892 105.463 6.27948 105.353 6.14991C105.243 6.02034 105.063 5.98047 105.003 5.98047C103.813 7.18706 102.911 8.64468 102.362 10.2456C101.813 11.8466 101.633 13.5499 101.833 15.2299C101.908 15.9341 102.042 16.6309 102.233 17.313C101.866 18.2406 101.67 19.2264 101.653 20.2234C101.635 22.07 101.982 23.9022 102.673 25.6155V25.6155ZM108.673 14.9707C110.118 14.9378 111.518 15.471 112.573 16.4558C113.107 16.9147 113.53 17.4888 113.809 18.1347C114.088 18.7805 114.216 19.4811 114.183 20.1835C114.166 20.837 113.971 21.4737 113.619 22.0251C113.267 22.5765 112.77 23.0218 112.183 23.3131C111.518 23.5603 110.808 23.6615 110.1 23.6099C109.393 23.5583 108.705 23.3551 108.083 23.0141C106.678 22.2529 105.507 21.1266 104.693 19.7549C104.446 19.358 104.225 18.9451 104.033 18.519C104.25 17.847 104.608 17.2287 105.083 16.705C105.537 16.1869 106.09 15.7648 106.71 15.4635C107.33 15.1622 108.004 14.9878 108.693 14.9508L108.673 14.9707Z" fill="white"/>
<path d="M102.673 25.6155C103 26.4691 103.388 27.2984 103.833 28.0973C104.253 28.8947 104.743 29.6721 105.243 30.4296C107.357 33.4389 109.999 36.0423 113.043 38.1142C116.024 40.1243 119.375 41.5267 122.903 42.2406C123.023 42.2406 123.133 42.1508 123.143 41.9814C123.153 41.812 123.083 41.6625 122.973 41.6326C119.651 40.6506 116.532 39.0844 113.763 37.0079C110.995 34.9629 108.623 32.4333 106.763 29.5425C106.313 28.8249 105.883 28.1073 105.503 27.3598C105.118 26.6326 104.784 25.88 104.503 25.1072C103.969 23.7198 103.691 22.2476 103.683 20.7616C104.597 22.3052 105.9 23.5835 107.463 24.4693C108.304 24.967 109.244 25.274 110.217 25.3688C111.19 25.4635 112.172 25.3436 113.093 25.0175C113.979 24.6516 114.73 24.0215 115.243 23.2135C115.757 22.4074 116.06 21.4854 116.123 20.5323C116.199 19.5111 116.031 18.4864 115.633 17.5422C115.215 16.589 114.606 15.731 113.843 15.0206C112.364 13.6539 110.409 12.914 108.393 12.9574C107.466 13.0026 106.557 13.2312 105.719 13.6299C104.881 14.0286 104.131 14.5894 103.513 15.2797C103.388 15.4122 103.271 15.552 103.163 15.6983C103.163 15.5688 103.103 15.4292 103.083 15.2996C102.828 13.7531 102.908 12.1699 103.318 10.6568C103.729 9.14382 104.46 7.73611 105.463 6.52866C105.533 6.44892 105.463 6.27948 105.353 6.14991C105.243 6.02034 105.063 5.98047 105.003 5.98047C103.813 7.18706 102.911 8.64468 102.362 10.2456C101.813 11.8466 101.633 13.5499 101.833 15.2299C101.908 15.9341 102.042 16.6309 102.233 17.313C101.866 18.2406 101.67 19.2264 101.653 20.2234C101.635 22.07 101.982 23.9022 102.673 25.6155V25.6155ZM108.673 14.9707C110.118 14.9378 111.518 15.471 112.573 16.4558C113.107 16.9147 113.53 17.4888 113.809 18.1347C114.088 18.7805 114.216 19.4811 114.183 20.1835C114.166 20.837 113.971 21.4737 113.619 22.0251C113.267 22.5765 112.77 23.0218 112.183 23.3131C111.518 23.5603 110.808 23.6615 110.1 23.6099C109.393 23.5583 108.705 23.3551 108.083 23.0141C106.678 22.2529 105.507 21.1266 104.693 19.7549C104.446 19.358 104.225 18.9451 104.033 18.519C104.25 17.847 104.608 17.2287 105.083 16.705C105.537 16.1869 106.09 15.7648 106.71 15.4635C107.33 15.1622 108.004 14.9878 108.693 14.9508L108.673 14.9707Z" stroke="white" stroke-width="12" stroke-miterlimit="10"/>
<path d="M83.4517 64.8346C84.4517 66.2798 85.5517 67.7549 86.7017 69.1503C88.9871 71.9884 91.4806 74.6536 94.1617 77.1239C94.8217 77.7618 95.5117 78.3598 96.1617 78.9579C96.8117 79.5559 97.5817 80.134 98.3017 80.732C99.0217 81.33 99.7417 81.8782 100.462 82.4363L102.702 84.051C105.7 86.1493 108.841 88.0376 112.102 89.7023C112.162 89.7023 112.242 89.7023 112.282 89.5727C112.322 89.4432 112.282 89.3834 112.282 89.3535C109.182 87.3999 106.182 85.3334 103.282 83.154L101.142 81.4795L99.0617 79.7552C98.3517 79.1871 97.6917 78.5691 97.0617 77.9811C96.4317 77.393 95.7117 76.785 95.0617 76.1571C92.4535 73.7043 89.9736 71.1194 87.6317 68.4127C86.4317 67.0971 85.3217 65.7017 84.2017 64.3163L82.5717 62.2132C82.0217 61.5155 81.5717 60.778 80.9917 60.0703C80.9917 60.0703 80.8517 60.0703 80.7517 60.0703C80.6517 60.0703 80.6217 60.2098 80.6517 60.2597C81.1017 61.0271 81.5217 61.8046 82.0217 62.5521L83.4517 64.8346Z" fill="white"/>
<path d="M83.4517 64.8346C84.4517 66.2798 85.5517 67.7549 86.7017 69.1503C88.9871 71.9884 91.4806 74.6536 94.1617 77.1239C94.8217 77.7618 95.5117 78.3598 96.1617 78.9579C96.8117 79.5559 97.5817 80.134 98.3017 80.732C99.0217 81.33 99.7417 81.8782 100.462 82.4363L102.702 84.051C105.7 86.1493 108.841 88.0376 112.102 89.7023C112.162 89.7023 112.242 89.7023 112.282 89.5727C112.322 89.4432 112.282 89.3834 112.282 89.3535C109.182 87.3999 106.182 85.3334 103.282 83.154L101.142 81.4795L99.0617 79.7552C98.3517 79.1871 97.6917 78.5691 97.0617 77.9811C96.4317 77.393 95.7117 76.785 95.0617 76.1571C92.4535 73.7043 89.9736 71.1194 87.6317 68.4127C86.4317 67.0971 85.3217 65.7017 84.2017 64.3163L82.5717 62.2132C82.0217 61.5155 81.5717 60.778 80.9917 60.0703C80.9917 60.0703 80.8517 60.0703 80.7517 60.0703C80.6517 60.0703 80.6217 60.2098 80.6517 60.2597C81.1017 61.0271 81.5217 61.8046 82.0217 62.5521L83.4517 64.8346Z" stroke="white" stroke-width="12" stroke-miterlimit="10"/>
<path d="M117 70.0091L116.26 68.8629C116.04 68.4742 115.81 68.0854 115.58 67.6967L114.95 66.5007C114.168 64.9049 113.5 63.2563 112.95 61.567L112.53 60.3012C112.42 59.8726 112.3 59.444 112.18 59.0154L111.85 57.7197C111.76 57.2812 111.67 56.8526 111.56 56.4041C111.56 56.4041 111.44 56.3542 111.31 56.3443C111.18 56.3343 111.09 56.3443 111.09 56.3443C111.09 56.7928 111.09 57.2513 111.09 57.6998L111.18 59.0653C111.24 59.5138 111.31 59.9723 111.38 60.4208L111.65 61.7863C112.096 63.6127 112.768 65.3771 113.65 67.0389L114.35 68.2848L115.11 69.5008L115.95 70.6669C116.25 71.0457 116.56 71.4144 116.86 71.7832C118.066 73.2746 119.457 74.6075 121 75.7501C121 75.7501 121.11 75.7501 121.19 75.6205C121.245 75.5633 121.28 75.4899 121.29 75.4112C120.016 74.0703 118.83 72.6487 117.74 71.1553L117 70.0091Z" fill="white"/>
<path d="M117 70.0091L116.26 68.8629C116.04 68.4742 115.81 68.0854 115.58 67.6967L114.95 66.5007C114.168 64.9049 113.5 63.2563 112.95 61.567L112.53 60.3012C112.42 59.8726 112.3 59.444 112.18 59.0154L111.85 57.7197C111.76 57.2812 111.67 56.8526 111.56 56.4041C111.56 56.4041 111.44 56.3542 111.31 56.3443C111.18 56.3343 111.09 56.3443 111.09 56.3443C111.09 56.7928 111.09 57.2513 111.09 57.6998L111.18 59.0653C111.24 59.5138 111.31 59.9723 111.38 60.4208L111.65 61.7863C112.096 63.6127 112.768 65.3771 113.65 67.0389L114.35 68.2848L115.11 69.5008L115.95 70.6669C116.25 71.0457 116.56 71.4144 116.86 71.7832C118.066 73.2746 119.457 74.6075 121 75.7501C121 75.7501 121.11 75.7501 121.19 75.6205C121.245 75.5633 121.28 75.4899 121.29 75.4112C120.016 74.0703 118.83 72.6487 117.74 71.1553L117 70.0091Z" stroke="white" stroke-width="12" stroke-miterlimit="10"/>
<path d="M59.651 71.9612C60.501 72.5891 61.331 73.227 62.151 73.8848C63.811 75.1606 65.441 76.4862 67.041 77.8716L68.241 78.8683L69.421 79.9249L71.751 82.0777C73.281 83.5529 74.751 85.0678 76.271 86.6127C76.271 86.6127 76.401 86.6127 76.501 86.523C76.601 86.4333 76.651 86.3835 76.631 86.3536C75.4167 84.5725 74.0802 82.8774 72.631 81.2804C71.911 80.473 71.161 79.6956 70.391 78.9381L69.211 77.8218L68.001 76.7454C66.3923 75.3043 64.6885 73.9723 62.901 72.7586C62.001 72.1805 61.091 71.6123 60.181 71.0741C59.271 70.5359 58.311 70.0774 57.341 69.6289C57.341 69.6289 57.241 69.6887 57.181 69.7983C57.121 69.908 57.101 70.0077 57.131 70.0276C58.001 70.7652 58.811 71.3233 59.651 71.9612Z" fill="white"/>
<path d="M59.651 71.9612C60.501 72.5891 61.331 73.227 62.151 73.8848C63.811 75.1606 65.441 76.4862 67.041 77.8716L68.241 78.8683L69.421 79.9249L71.751 82.0777C73.281 83.5529 74.751 85.0678 76.271 86.6127C76.271 86.6127 76.401 86.6127 76.501 86.523C76.601 86.4333 76.651 86.3835 76.631 86.3536C75.4167 84.5725 74.0802 82.8774 72.631 81.2804C71.911 80.473 71.161 79.6956 70.391 78.9381L69.211 77.8218L68.001 76.7454C66.3923 75.3043 64.6885 73.9723 62.901 72.7586C62.001 72.1805 61.091 71.6123 60.181 71.0741C59.271 70.5359 58.311 70.0774 57.341 69.6289C57.341 69.6289 57.241 69.6887 57.181 69.7983C57.121 69.908 57.101 70.0077 57.131 70.0276C58.001 70.7652 58.811 71.3233 59.651 71.9612Z" stroke="white" stroke-width="12" stroke-miterlimit="10"/>
<path d="M69.623 162.773L68.503 161.776L67.333 160.779L66.123 159.852C64.4907 158.68 62.7415 157.678 60.903 156.862L59.523 156.314L58.123 155.826L56.703 155.447C56.223 155.337 55.703 155.248 55.273 155.168C55.273 155.168 55.193 155.258 55.173 155.377C55.153 155.497 55.173 155.597 55.173 155.607C55.613 155.816 56.063 156.005 56.503 156.185L57.813 156.783L59.113 157.411L60.383 158.078C62.0722 158.981 63.7083 159.979 65.283 161.068L66.453 161.916L67.5929 162.803L68.713 163.73L69.813 164.726C71.2511 166.047 72.6165 167.445 73.903 168.913C73.903 168.913 74.033 168.913 74.143 168.843C74.253 168.773 74.303 168.713 74.293 168.693C73.271 166.968 72.053 165.366 70.663 163.919C70.333 163.461 70.003 163.132 69.623 162.773Z" fill="white"/>
<path d="M69.623 162.773L68.503 161.776L67.333 160.779L66.123 159.852C64.4907 158.68 62.7415 157.678 60.903 156.862L59.523 156.314L58.123 155.826L56.703 155.447C56.223 155.337 55.703 155.248 55.273 155.168C55.273 155.168 55.193 155.258 55.173 155.377C55.153 155.497 55.173 155.597 55.173 155.607C55.613 155.816 56.063 156.005 56.503 156.185L57.813 156.783L59.113 157.411L60.383 158.078C62.0722 158.981 63.7083 159.979 65.283 161.068L66.453 161.916L67.5929 162.803L68.713 163.73L69.813 164.726C71.2511 166.047 72.6165 167.445 73.903 168.913C73.903 168.913 74.033 168.913 74.143 168.843C74.253 168.773 74.303 168.713 74.293 168.693C73.271 166.968 72.053 165.366 70.663 163.919C70.333 163.461 70.003 163.132 69.623 162.773Z" stroke="white" stroke-width="12" stroke-miterlimit="10"/>
<path d="M171.751 247.84H143.371L146.411 232.84H168.701L171.751 247.84Z" fill="url(#paint0_linear_4935_33014)"/>
<path d="M114.242 217.142H98.0419L90.9219 205.012H110.702L114.242 217.142Z" fill="url(#paint1_linear_4935_33014)"/>
<path d="M200.871 217.142H217.081L224.191 205.012H204.411L200.871 217.142Z" fill="url(#paint2_linear_4935_33014)"/>
<path d="M113.932 128.595L82.0117 104.624L85.4717 96.3711L125.222 112.488L113.932 128.595Z" fill="url(#paint3_linear_4935_33014)"/>
<path d="M83.3268 99.3103L82.7617 100.309L115.867 118.924L116.432 117.925L83.3268 99.3103Z" fill="white"/>
<path d="M201.21 128.595L233.12 104.624L229.66 96.3711L189.91 112.488L201.21 128.595Z" fill="url(#paint4_linear_4935_33014)"/>
<path d="M231.782 99.3516L198.652 117.92L199.222 118.917L232.352 100.358L231.782 99.3516Z" fill="white"/>
<path d="M157.56 233.807C142.433 233.815 127.922 227.835 117.218 217.181C106.514 206.527 100.494 192.072 100.48 176.995V164.776C100.679 149.819 106.78 135.541 117.462 125.035C128.144 114.528 142.548 108.637 157.555 108.637C172.563 108.637 186.967 114.528 197.649 125.035C208.331 135.541 214.432 149.819 214.63 164.776V176.975C214.633 184.443 213.158 191.839 210.291 198.739C207.423 205.638 203.219 211.907 197.918 217.185C192.617 222.464 186.324 226.649 179.4 229.501C172.475 232.353 165.053 233.816 157.56 233.807Z" fill="#231F20"/>
<path d="M157.561 237.833C141.365 237.822 125.834 231.409 114.376 220C102.918 208.59 96.4679 193.117 96.4414 176.974V164.764C96.647 148.744 103.176 133.449 114.615 122.193C126.054 110.937 141.482 104.625 157.556 104.625C173.631 104.625 189.059 110.937 200.497 122.193C211.936 133.449 218.466 148.744 218.671 164.764V176.974C218.648 193.116 212.2 208.589 200.743 219.999C189.287 231.408 173.757 237.822 157.561 237.833V237.833ZM157.561 111.959C143.511 111.977 130.041 117.549 120.105 127.452C110.17 137.354 104.58 150.78 104.561 164.784V176.994C104.58 190.998 110.17 204.424 120.105 214.327C130.041 224.229 143.511 229.801 157.561 229.819V229.819C171.611 229.798 185.08 224.226 195.015 214.324C204.95 204.422 210.54 190.998 210.561 176.994V164.764C210.535 150.764 204.942 137.345 195.008 127.447C185.073 117.55 171.608 111.98 157.561 111.959V111.959Z" fill="#231F20"/>
<path d="M137.351 239.799C126.977 236.274 117.665 230.192 110.281 222.117C103.056 214.228 97.9505 204.645 95.4414 194.259L106.561 191.09C109.377 199.135 114.194 206.336 120.561 212.021C126.719 217.523 134.168 221.389 142.221 223.263L137.351 239.799Z" fill="#231F20"/>
<path d="M172.902 223.262C180.976 221.387 188.444 217.51 194.612 211.989C200.977 206.302 205.793 199.101 208.612 191.059L219.722 194.228C217.213 204.613 212.108 214.197 204.882 222.086C197.499 230.16 188.187 236.243 177.812 239.768L172.902 223.262Z" fill="#231F20"/>
<path d="M99.7508 157.541L96.3108 157.032L95.2208 156.863L94.6508 156.753C94.3708 156.693 94.4508 156.673 94.4408 156.654V156.574V156.295V155.717L94.5008 154.57L94.6308 152.268C94.8008 150.743 95.0108 149.208 95.2208 147.663C95.4308 146.118 95.8908 144.673 96.2208 143.108C96.5508 141.544 97.1008 140.118 97.5908 138.613C101.879 126.441 110.117 116.042 121.001 109.061C126.427 105.532 132.462 103.035 138.801 101.695L143.431 118.3C139.029 119.932 134.793 121.977 130.781 124.41C126.766 126.878 123.057 129.808 119.731 133.141C116.332 136.551 113.376 140.371 110.931 144.514C110.371 145.59 109.731 146.647 109.161 147.733C108.591 148.819 108.111 149.966 107.611 151.102L106.241 154.59L105.691 156.394L105.411 157.301L105.261 157.76L105.191 157.979V158.039C105.191 158.039 105.191 158.089 104.951 158.039H104.371L103.271 157.929L99.7508 157.541Z" fill="#231F20"/>
<path d="M215.382 157.539L211.912 157.918L210.812 158.028H210.232C209.942 158.028 210.012 158.028 210.002 158.028V157.978L209.932 157.749L209.792 157.29L209.512 156.383L208.952 154.579L207.582 151.091C207.082 149.954 206.582 148.838 206.032 147.732C205.482 146.625 204.822 145.579 204.262 144.502C201.819 140.364 198.866 136.547 195.472 133.14C192.145 129.803 188.433 126.872 184.412 124.409C180.402 121.969 176.166 119.92 171.762 118.289L176.372 101.664C182.709 103.006 188.744 105.503 194.172 109.03C205.018 116.031 213.221 126.427 217.492 138.582C217.972 140.077 218.442 141.572 218.852 143.077C219.262 144.582 219.562 146.067 219.852 147.632C220.142 149.197 220.272 150.712 220.452 152.237L220.582 154.549L220.642 155.695V156.263V156.622C220.642 156.622 220.712 156.622 220.432 156.722L219.862 156.832L218.772 157.001L215.382 157.539Z" fill="#231F20"/>
<path d="M157.562 215.028C146.748 215.033 136.375 210.759 128.72 203.145C121.066 195.532 116.758 185.2 116.742 174.422V167.445C116.91 156.764 121.285 146.576 128.923 139.082C136.561 131.587 146.849 127.387 157.567 127.387C168.285 127.387 178.574 131.587 186.212 139.082C193.849 146.576 198.224 156.764 198.392 167.445V174.422C198.374 185.201 194.063 195.532 186.407 203.146C178.752 210.76 168.377 215.033 157.562 215.028V215.028Z" fill="url(#paint5_linear_4935_33014)"/>
<path d="M153.881 142.45H161.251C165.083 142.306 168.905 142.935 172.489 144.298C176.072 145.661 179.342 147.731 182.104 150.383C184.866 153.034 187.064 156.214 188.564 159.732C190.065 163.25 190.839 167.033 190.839 170.856C190.839 174.678 190.065 178.462 188.564 181.979C187.064 185.497 184.866 188.677 182.104 191.329C179.342 193.981 176.072 196.05 172.489 197.413C168.905 198.776 165.083 199.405 161.251 199.262H153.881C150.048 199.405 146.226 198.776 142.643 197.413C139.06 196.05 135.79 193.981 133.027 191.329C130.265 188.677 128.068 185.497 126.567 181.979C125.066 178.462 124.293 174.678 124.293 170.856C124.293 167.033 125.066 163.25 126.567 159.732C128.068 156.214 130.265 153.034 133.027 150.383C135.79 147.731 139.06 145.661 142.643 144.298C146.226 142.935 150.048 142.306 153.881 142.45V142.45Z" fill="white"/>
<path d="M287.78 167.009C290.701 167.007 293.555 166.142 295.983 164.523C298.411 162.904 300.302 160.605 301.419 157.914C302.535 155.224 302.826 152.265 302.255 149.41C301.684 146.555 300.276 143.932 298.21 141.875C296.144 139.817 293.513 138.416 290.648 137.849C287.783 137.281 284.814 137.573 282.115 138.688C279.417 139.802 277.111 141.689 275.488 144.11C273.866 146.531 273 149.377 273 152.288C273.003 156.193 274.561 159.937 277.332 162.698C280.104 165.458 283.862 167.009 287.78 167.009V167.009Z" fill="#231F20"/>
<path d="M286.723 151.37C286.299 150.876 286.007 150.284 285.872 149.648C285.738 149.012 285.766 148.353 285.955 147.731C286.143 147.108 286.485 146.543 286.949 146.087C287.414 145.631 287.986 145.299 288.613 145.121C290.823 144.503 292.173 144.124 292.993 143.855C293.375 143.599 293.797 143.41 294.243 143.297C294.512 143.223 294.786 143.169 295.063 143.137C295.733 142.998 297.273 142.679 300.623 141.931C301.124 141.809 301.645 141.788 302.154 141.868C302.664 141.949 303.152 142.13 303.591 142.4C304.029 142.671 304.409 143.026 304.708 143.445C305.007 143.864 305.219 144.338 305.332 144.84C305.445 145.342 305.457 145.861 305.366 146.367C305.276 146.873 305.085 147.356 304.804 147.788C304.524 148.22 304.161 148.591 303.734 148.881C303.308 149.171 302.829 149.374 302.323 149.477L297.183 150.603H297.013C296.634 150.775 296.243 150.922 295.843 151.041C294.913 151.34 293.333 151.799 290.723 152.536C290.014 152.74 289.262 152.739 288.553 152.532C287.845 152.326 287.21 151.923 286.723 151.37ZM296.203 150.762C295.983 150.762 295.763 150.762 295.563 150.812C295.776 150.832 295.99 150.832 296.203 150.812V150.762Z" fill="#58595B"/>
<path d="M288.512 157.66C288.092 157.17 287.796 156.585 287.652 155.956C287.545 155.458 287.538 154.943 287.631 154.443C287.724 153.942 287.916 153.464 288.194 153.037C288.473 152.61 288.834 152.242 289.256 151.955C289.677 151.667 290.152 151.465 290.652 151.361C294.317 150.563 298.027 149.99 301.762 149.647C302.282 149.609 302.804 149.677 303.297 149.845C303.79 150.013 304.244 150.279 304.632 150.626C305.02 150.973 305.334 151.394 305.555 151.865C305.776 152.335 305.899 152.845 305.918 153.364C305.937 153.883 305.851 154.401 305.664 154.886C305.478 155.371 305.196 155.814 304.834 156.188C304.472 156.562 304.039 156.86 303.559 157.063C303.079 157.266 302.564 157.371 302.042 157.371C298.767 157.713 295.512 158.228 292.292 158.916C291.607 159.068 290.894 159.031 290.228 158.81C289.562 158.589 288.969 158.191 288.512 157.66V157.66Z" fill="#58595B"/>
<path d="M288.203 163.518C287.584 162.8 287.231 161.892 287.203 160.947C287.171 160.488 287.242 160.027 287.41 159.599C287.578 159.171 287.839 158.785 288.175 158.469C288.51 158.154 288.912 157.916 289.351 157.774C289.79 157.632 290.255 157.589 290.713 157.647C292.343 157.9 294.008 157.795 295.593 157.338C297.124 156.951 298.681 156.678 300.253 156.521C301.252 156.47 302.238 156.775 303.033 157.381C303.828 157.987 304.381 158.855 304.593 159.83C304.712 160.272 304.735 160.735 304.658 161.186C304.582 161.638 304.409 162.067 304.151 162.446C303.892 162.824 303.555 163.143 303.162 163.379C302.769 163.616 302.329 163.765 301.873 163.817C300.6 163.935 299.339 164.158 298.103 164.485C295.768 165.116 293.329 165.272 290.933 164.943C289.874 164.833 288.897 164.323 288.203 163.518V163.518Z" fill="#58595B"/>
<path d="M285.362 145.032C284.983 144.574 284.716 144.035 284.579 143.458C284.443 142.88 284.442 142.279 284.577 141.7C284.711 141.122 284.977 140.583 285.354 140.123C285.732 139.664 286.21 139.298 286.752 139.052C289.982 137.577 291.012 137.059 291.452 136.849C291.83 136.645 292.229 136.481 292.642 136.361C293.092 136.211 294.122 135.873 297.552 134.597C298.029 134.419 298.537 134.336 299.047 134.354C299.556 134.372 300.057 134.489 300.521 134.7C300.985 134.91 301.402 135.21 301.75 135.581C302.098 135.952 302.368 136.389 302.547 136.864C302.726 137.34 302.809 137.846 302.791 138.354C302.773 138.862 302.655 139.361 302.444 139.823C302.233 140.286 301.932 140.702 301.56 141.048C301.187 141.395 300.749 141.665 300.272 141.843C296.702 143.168 295.572 143.537 295.082 143.697L294.912 143.776C294.442 144.006 293.322 144.564 289.982 146.079C289.204 146.436 288.329 146.527 287.494 146.337C286.658 146.148 285.909 145.689 285.362 145.032V145.032Z" fill="#58595B"/>
<path d="M278.871 154.489C278.166 154.731 277.408 154.773 276.681 154.609C276.15 154.496 275.647 154.28 275.2 153.974C274.753 153.668 274.371 153.277 274.076 152.823C273.781 152.37 273.578 151.863 273.479 151.331C273.381 150.799 273.388 150.254 273.501 149.725C276.741 134.615 273.301 123.92 273.261 123.81C272.921 122.778 273.004 121.654 273.49 120.681C273.977 119.709 274.829 118.968 275.861 118.618V118.618C276.898 118.27 278.031 118.346 279.012 118.83C279.992 119.314 280.74 120.166 281.091 121.199C281.261 121.717 285.311 134.007 281.571 151.449C281.425 152.146 281.099 152.793 280.625 153.326C280.152 153.859 279.547 154.26 278.871 154.489Z" fill="#231F20"/>
<path d="M244.902 212.409L276.252 159.305L288.192 166.292L252.342 227.011L244.902 212.409Z" fill="#231F20"/>
<path d="M246.083 228.296C244.563 227.802 243.262 226.798 242.403 225.455L202.723 163.46L214.403 156.055L248.813 209.877L246.083 228.296Z" fill="#231F20"/>
<path d="M285.001 172.142C284.411 172.181 283.823 172.035 283.321 171.724L273.221 165.534C272.607 165.121 272.176 164.487 272.019 163.765C271.861 163.044 271.989 162.289 272.376 161.659C272.762 161.029 273.377 160.571 274.093 160.382C274.809 160.192 275.571 160.284 276.221 160.64L286.321 166.83C286.844 167.15 287.251 167.628 287.482 168.195C287.713 168.762 287.756 169.388 287.606 169.981C287.455 170.574 287.118 171.104 286.644 171.492C286.17 171.881 285.584 172.109 284.971 172.142H285.001Z" fill="url(#paint6_linear_4935_33014)"/>
<path d="M280.054 180.902C279.46 180.94 278.87 180.794 278.364 180.484L268.264 174.284C267.65 173.871 267.219 173.237 267.062 172.515C266.904 171.794 267.032 171.039 267.419 170.409C267.805 169.779 268.42 169.321 269.136 169.132C269.852 168.942 270.614 169.034 271.264 169.39L281.364 175.59C281.886 175.909 282.293 176.387 282.524 176.953C282.756 177.519 282.8 178.144 282.651 178.736C282.501 179.329 282.166 179.859 281.693 180.248C281.221 180.638 280.636 180.867 280.024 180.902H280.054Z" fill="url(#paint7_linear_4935_33014)"/>
<path d="M248.25 229.093C250.852 229.089 253.395 228.316 255.556 226.872C257.718 225.429 259.401 223.379 260.394 220.982C261.387 218.585 261.645 215.948 261.135 213.405C260.625 210.862 259.37 208.527 257.529 206.694C255.687 204.862 253.343 203.614 250.79 203.11C248.238 202.605 245.593 202.866 243.19 203.86C240.786 204.853 238.732 206.534 237.287 208.691C235.842 210.847 235.07 213.383 235.07 215.976C235.072 217.7 235.414 219.406 236.077 220.999C236.74 222.591 237.711 224.037 238.935 225.255C240.159 226.473 241.611 227.439 243.21 228.097C244.808 228.756 246.521 229.094 248.25 229.093V229.093Z" fill="url(#paint8_linear_4935_33014)"/>
<path d="M27.3425 166.997C35.5053 166.997 42.1225 160.41 42.1225 152.286C42.1225 144.161 35.5053 137.574 27.3425 137.574C19.1797 137.574 12.5625 144.161 12.5625 152.286C12.5625 160.41 19.1797 166.997 27.3425 166.997Z" fill="#231F20"/>
<path d="M24.3998 152.566C21.7898 151.828 20.2098 151.36 19.2798 151.071C18.8803 150.951 18.4894 150.805 18.1098 150.632H17.9398C16.9998 150.443 15.4098 150.094 12.7998 149.516C12.3021 149.405 11.8312 149.197 11.4141 148.904C10.997 148.612 10.6418 148.24 10.3688 147.811C9.81745 146.943 9.63435 145.893 9.85979 144.891C10.0852 143.889 10.7007 143.018 11.5709 142.468C12.4411 141.919 13.4946 141.736 14.4998 141.961C17.8498 142.709 19.3898 143.037 20.0598 143.177C20.3337 143.208 20.6047 143.261 20.8698 143.336C21.3206 143.444 21.7478 143.633 22.1298 143.895C22.9498 144.144 24.2998 144.543 26.5098 145.16C27.0003 145.299 27.4587 145.532 27.8588 145.846C28.2589 146.161 28.593 146.551 28.8418 146.994C29.0907 147.438 29.2495 147.926 29.3092 148.43C29.3689 148.935 29.3283 149.446 29.1898 149.935C29.0512 150.424 28.8174 150.88 28.5017 151.279C28.186 151.678 27.7946 152.011 27.3498 152.259C26.905 152.507 26.4156 152.665 25.9094 152.725C25.4032 152.784 24.8903 152.744 24.3998 152.606V152.566ZM18.9198 150.782C19.1326 150.802 19.3469 150.802 19.5598 150.782L18.9198 150.732V150.782Z" fill="#58595B"/>
<path d="M26.6303 157.66C27.0678 157.15 27.3651 156.536 27.4932 155.878C27.6213 155.219 27.5758 154.539 27.3612 153.903C27.1466 153.268 26.7702 152.698 26.2687 152.251C25.7673 151.803 25.158 151.493 24.5003 151.351C20.8382 150.56 17.1314 149.991 13.4003 149.647C12.8809 149.609 12.3593 149.677 11.8666 149.845C11.3739 150.013 10.9201 150.278 10.5324 150.624C10.1446 150.971 9.83077 151.391 9.60958 151.861C9.3884 152.331 9.26437 152.841 9.2449 153.359C9.22543 153.878 9.31091 154.395 9.49624 154.88C9.68158 155.365 9.96298 155.808 10.3237 156.183C10.6844 156.557 11.117 156.855 11.5957 157.059C12.0745 157.263 12.5896 157.37 13.1103 157.371C16.3857 157.712 19.6404 158.228 22.8603 158.916C23.544 159.063 24.2546 159.024 24.9179 158.803C25.5812 158.582 26.1726 158.187 26.6303 157.66V157.66Z" fill="#58595B"/>
<path d="M26.9324 163.518C27.551 162.801 27.904 161.893 27.9324 160.947C27.9642 160.488 27.8936 160.028 27.7255 159.6C27.5574 159.171 27.2961 158.785 26.9604 158.47C26.6246 158.154 26.2229 157.917 25.784 157.775C25.3451 157.633 24.8801 157.589 24.4224 157.648C22.7926 157.901 21.1269 157.796 19.5424 157.339C18.0116 156.951 16.4539 156.678 14.8824 156.522C13.8823 156.468 12.896 156.772 12.1006 157.379C11.3051 157.985 10.7527 158.855 10.5424 159.831C10.4211 160.273 10.3974 160.736 10.4729 161.188C10.5485 161.64 10.7215 162.07 10.9801 162.449C11.2386 162.828 11.5765 163.147 11.9706 163.383C12.3646 163.619 12.8053 163.767 13.2624 163.817C14.5323 163.934 15.7901 164.158 17.0224 164.485C19.3609 165.115 21.8024 165.271 24.2024 164.944C25.2616 164.834 26.2384 164.324 26.9324 163.518V163.518Z" fill="#58595B"/>
<path d="M29.7809 145.03C29.9866 144.769 30.1611 144.485 30.3009 144.183C30.514 143.722 30.6336 143.223 30.6529 142.716C30.6722 142.208 30.5908 141.702 30.4133 141.226C30.2359 140.75 29.9659 140.314 29.6188 139.942C29.2718 139.57 28.8545 139.271 28.3909 139.06C25.1609 137.585 24.1209 137.067 23.6809 136.857C23.303 136.652 22.904 136.489 22.4909 136.369C22.0509 136.219 21.0109 135.88 17.5809 134.605C17.1036 134.427 16.5957 134.344 16.0864 134.362C15.577 134.379 15.0761 134.497 14.6123 134.707C14.1484 134.918 13.7308 135.217 13.3831 135.589C13.0354 135.96 12.7645 136.396 12.5859 136.872C12.4073 137.348 12.3245 137.854 12.3422 138.362C12.3599 138.869 12.4777 139.369 12.6889 139.831C12.9002 140.293 13.2007 140.71 13.5734 141.056C13.9461 141.403 14.3836 141.673 14.8609 141.851C18.4309 143.176 19.5709 143.545 20.0509 143.705L20.2209 143.784C20.7009 144.014 21.8109 144.572 25.1609 146.087C25.9402 146.443 26.8156 146.532 27.651 146.341C28.4865 146.15 29.2352 145.689 29.7809 145.03V145.03Z" fill="#58595B"/>
<path d="M36.2409 154.489C36.9461 154.728 37.7037 154.77 38.4309 154.608C38.9624 154.497 39.4666 154.282 39.9147 153.976C40.3628 153.671 40.746 153.28 41.0423 152.826C41.3386 152.372 41.5422 151.865 41.6415 151.333C41.7408 150.801 41.7338 150.254 41.6209 149.725C38.3809 134.615 41.8209 123.92 41.8609 123.81C42.2008 122.778 42.1184 121.654 41.6316 120.681C41.1448 119.709 40.293 118.967 39.2609 118.617C38.2279 118.257 37.0937 118.321 36.1074 118.794C35.1212 119.266 34.3636 120.11 34.0009 121.139C33.8309 121.657 29.7809 133.947 33.5109 151.389C33.6541 152.099 33.9816 152.758 34.4606 153.302C34.9397 153.846 35.5536 154.255 36.2409 154.489V154.489Z" fill="#231F20"/>
<path d="M70.2236 212.409L38.8736 159.305L26.9336 166.292L62.7836 227.011L70.2236 212.409Z" fill="#231F20"/>
<path d="M69.0025 228.296C70.522 227.797 71.8243 226.794 72.6925 225.455L112.403 163.46L100.723 156.055L66.3125 209.877L69.0025 228.296Z" fill="#231F20"/>
<path d="M30.1501 172.143C30.7402 172.181 31.3277 172.035 31.8301 171.724L41.9301 165.524C42.2812 165.343 42.591 165.092 42.8403 164.786C43.0896 164.48 43.273 164.126 43.3791 163.746C43.4852 163.366 43.5117 162.969 43.4569 162.579C43.4022 162.188 43.2674 161.813 43.0609 161.477C42.8544 161.141 42.5806 160.851 42.2567 160.625C41.9328 160.399 41.5656 160.241 41.1781 160.163C40.7906 160.084 40.391 160.086 40.0042 160.169C39.6175 160.251 39.2518 160.411 38.9301 160.641L28.8301 166.83C28.3069 167.15 27.9001 167.629 27.669 168.196C27.4378 168.762 27.3945 169.388 27.5452 169.981C27.6959 170.574 28.0329 171.104 28.5069 171.493C28.9809 171.882 29.5671 172.109 30.1801 172.143H30.1501Z" fill="url(#paint9_linear_4935_33014)"/>
<path d="M35.0915 180.902C35.6815 180.94 36.2686 180.793 36.7715 180.484L46.8715 174.284C47.4855 173.871 47.9159 173.237 48.0733 172.515C48.2307 171.794 48.1029 171.039 47.7166 170.409C47.3302 169.779 46.715 169.321 45.9989 169.132C45.2828 168.942 44.5208 169.034 43.8715 169.39L33.7715 175.59C33.2483 175.91 32.8415 176.388 32.6104 176.955C32.3792 177.522 32.3359 178.148 32.4866 178.741C32.6373 179.334 32.9743 179.863 33.4483 180.252C33.9223 180.641 34.5085 180.869 35.1215 180.902H35.0915Z" fill="url(#paint10_linear_4935_33014)"/>
<path d="M66.8731 229.093C69.4755 229.091 72.0189 228.32 74.1817 226.877C76.3445 225.435 78.0297 223.386 79.0243 220.989C80.0188 218.592 80.2779 215.955 79.769 213.411C79.2601 210.867 78.006 208.531 76.1651 206.698C74.3243 204.864 71.9794 203.616 69.4268 203.111C66.8743 202.605 64.2288 202.866 61.8247 203.859C59.4206 204.852 57.3659 206.533 55.9203 208.69C54.4747 210.847 53.7031 213.382 53.7031 215.976C53.7058 219.456 55.0945 222.792 57.5641 225.251C60.0336 227.711 63.382 229.093 66.8731 229.093V229.093Z" fill="url(#paint11_linear_4935_33014)"/>
<path d="M171.753 174.751C170.692 174.751 169.675 174.331 168.924 173.583C168.174 172.835 167.753 171.821 167.753 170.764C167.67 168.137 166.565 165.646 164.671 163.817C162.778 161.988 160.245 160.965 157.608 160.965C154.971 160.965 152.438 161.988 150.544 163.817C148.651 165.646 147.546 168.137 147.463 170.764C147.463 171.832 147.037 172.856 146.28 173.611C145.522 174.366 144.494 174.791 143.423 174.791C142.351 174.791 141.324 174.366 140.566 173.611C139.808 172.856 139.383 171.832 139.383 170.764C139.494 166.02 141.463 161.508 144.869 158.192C148.275 154.876 152.847 153.02 157.608 153.02C162.369 153.02 166.941 154.876 170.347 158.192C173.752 161.508 175.721 166.02 175.833 170.764C175.833 171.294 175.727 171.819 175.521 172.308C175.315 172.797 175.013 173.24 174.633 173.612C174.253 173.983 173.803 174.275 173.308 174.47C172.814 174.666 172.285 174.761 171.753 174.751Z" fill="#231F20"/>
<path d="M244.281 90.0534C246.996 86.6646 250.579 84.0684 254.651 82.5382C258.811 80.9574 263.317 80.5035 267.711 81.2226C270.031 81.6177 272.242 82.4938 274.201 83.7941C276.346 85.2102 277.932 87.3235 278.691 89.7743C279.439 92.1894 279.198 94.8015 278.021 97.0403C277.436 98.1089 276.563 98.9928 275.501 99.5918C274.417 100.171 273.186 100.421 271.961 100.309C270.704 100.212 269.487 99.8301 268.401 99.1931C267.245 98.5094 266.284 97.5417 265.611 96.3824C264.963 95.2203 264.648 93.9033 264.701 92.575C264.769 91.3462 265.111 90.1479 265.701 89.0666C266.802 87.0716 268.449 85.4297 270.451 84.3323C271.406 83.8045 272.411 83.3706 273.451 83.0366C274.493 82.6926 275.564 82.4424 276.651 82.289C281.125 81.6322 285.693 82.4586 289.651 84.6413C293.782 86.9497 297.144 90.415 299.321 94.6083C299.358 94.6734 299.368 94.7503 299.349 94.8228C299.331 94.8953 299.285 94.9577 299.221 94.997C299.155 95.0263 299.081 95.0303 299.012 95.0082C298.944 94.9861 298.886 94.9395 298.851 94.8774C296.586 90.9659 293.244 87.7836 289.221 85.7077C285.463 83.7664 281.177 83.0881 277.001 83.7741C274.999 84.1054 273.071 84.7799 271.301 85.7675C269.584 86.7597 268.176 88.2049 267.231 89.9437C266.774 90.7959 266.514 91.7393 266.471 92.7046C266.435 93.6688 266.667 94.624 267.141 95.4655C267.629 96.2869 268.316 96.9724 269.141 97.4589C269.975 97.9398 270.909 98.2228 271.871 98.2861C272.776 98.3684 273.686 98.1801 274.484 97.7452C275.282 97.3103 275.931 96.6485 276.351 95.8442C276.816 94.994 277.102 94.0578 277.191 93.0933C277.279 92.0873 277.18 91.0738 276.901 90.1032C276.62 89.1224 276.152 88.205 275.521 87.4021C274.881 86.5772 274.119 85.8545 273.261 85.2592C271.519 84.0775 269.551 83.2665 267.481 82.8771C263.351 82.0729 259.081 82.3651 255.101 83.7243C251.115 85.0375 247.529 87.3388 244.681 90.4122C244.625 90.4588 244.554 90.4837 244.482 90.4823C244.409 90.4809 244.339 90.4533 244.286 90.4046C244.232 90.3559 244.198 90.2894 244.189 90.2175C244.181 90.1456 244.199 90.0731 244.241 90.0135L244.281 90.0534Z" fill="#FD64B0"/>
<path d="M183.922 34.5862C187.81 36.1085 192.006 36.6859 196.162 36.2706C198.166 36.0945 200.134 35.6278 202.002 34.8852C203.816 34.1542 205.452 33.0465 206.802 31.6359C208.13 30.2371 209.074 28.5207 209.542 26.6524C210.015 24.761 209.861 22.7678 209.102 20.9712C208.361 19.1847 207.022 17.7092 205.312 16.795C204.501 16.3801 203.605 16.1551 202.692 16.1372C201.792 16.1458 200.905 16.3499 200.092 16.7352C199.279 17.0948 198.574 17.6603 198.048 18.3754C197.522 19.0905 197.192 19.9305 197.092 20.8117C197.058 21.7456 197.229 22.6757 197.593 23.5366C197.958 24.3976 198.507 25.1685 199.202 25.7953C200.6 27.1127 202.439 27.8658 204.362 27.9083C206.303 27.9688 208.223 27.4964 209.912 26.5428C211.632 25.5603 213.173 24.2968 214.472 22.8051C215.83 21.3038 217.039 19.6749 218.082 17.9412C219.131 16.2035 219.812 14.27 220.082 12.26C220.353 10.2118 220.005 8.12971 219.082 6.2798C219.054 6.2159 219.05 6.14352 219.072 6.07704C219.094 6.01056 219.141 5.95486 219.202 5.92098C219.232 5.903 219.265 5.89104 219.299 5.88581C219.333 5.88059 219.368 5.8822 219.401 5.89055C219.435 5.8989 219.466 5.91383 219.494 5.93445C219.522 5.95508 219.545 5.981 219.562 6.01069C220.674 7.95452 221.163 10.1909 220.962 12.4195C220.774 14.5856 220.13 16.6878 219.072 18.5891C218.057 20.4379 216.854 22.178 215.482 23.7819C214.133 25.425 212.514 26.8272 210.692 27.9282C208.796 29.0586 206.622 29.645 204.412 29.6226C203.243 29.5798 202.089 29.337 201.002 28.905C199.884 28.478 198.864 27.8305 198.002 27.0013C197.121 26.1753 196.414 25.1825 195.922 24.0809C195.406 22.9689 195.179 21.7452 195.262 20.5227C195.354 19.3127 195.791 18.1541 196.522 17.1837C197.231 16.2392 198.152 15.4744 199.212 14.9511C200.267 14.4418 201.421 14.1696 202.592 14.1538C203.8 14.1668 204.988 14.4603 206.062 15.0109C207.131 15.5561 208.085 16.3004 208.872 17.2037C209.668 18.0866 210.307 19.0977 210.762 20.1938C211.23 21.2875 211.501 22.4549 211.562 23.6424C211.619 24.7951 211.508 25.95 211.232 27.071C210.698 29.2647 209.583 31.275 208.002 32.8918C206.459 34.3981 204.611 35.56 202.582 36.3005C200.578 37.0376 198.475 37.4776 196.342 37.6062C191.998 37.8449 187.662 37.0058 183.722 35.1643C183.689 35.1494 183.659 35.1278 183.634 35.1009C183.609 35.074 183.59 35.0423 183.578 35.0078C183.566 34.9733 183.561 34.9366 183.563 34.9001C183.566 34.8636 183.576 34.828 183.592 34.7955C183.598 34.759 183.611 34.7241 183.632 34.6932C183.652 34.6623 183.679 34.6361 183.71 34.6163C183.741 34.5965 183.776 34.5835 183.813 34.5783C183.849 34.5731 183.887 34.5758 183.922 34.5862V34.5862Z" fill="#10B4FD"/>
<path d="M281.183 131.954C280.293 131.565 279.413 131.127 278.513 130.758L275.833 129.632C274.033 128.934 272.243 128.206 270.413 127.638C266.814 126.376 263.14 125.338 259.413 124.529C258.483 124.299 257.553 124.13 256.623 123.96C255.693 123.791 254.753 123.592 253.813 123.482L251.003 123.083L248.183 122.774C244.415 122.457 240.633 122.334 236.853 122.406C236.793 122.406 236.723 122.296 236.703 122.176C236.683 122.057 236.703 121.957 236.783 121.947C240.558 121.503 244.365 121.373 248.163 121.558L251.023 121.738L253.873 122.067C254.873 122.166 255.783 122.356 256.733 122.505C257.683 122.655 258.623 122.824 259.573 123.033C263.383 123.817 267.119 124.921 270.743 126.333C272.573 127.02 274.363 127.858 276.143 128.675L278.783 130.04C279.663 130.499 280.513 131.037 281.363 131.545C281.423 131.545 281.433 131.695 281.363 131.814C281.293 131.934 281.243 131.974 281.183 131.954Z" fill="#FDD323"/>
<path d="M244.692 43.4877C243.489 44.7849 242.207 46.0065 240.852 47.1456C239.504 48.282 238.099 49.3498 236.642 50.345C233.697 52.2905 230.577 53.9589 227.322 55.3286C225.702 56.0163 224.052 56.6641 222.392 57.2522C220.732 57.8403 219.042 58.3984 217.392 58.8968C214.002 59.8935 210.562 60.8104 207.092 61.6178C207.032 61.6178 206.952 61.558 206.912 61.4384C206.872 61.3188 206.912 61.229 206.912 61.2091L216.912 57.8004C218.572 57.209 220.219 56.6077 221.852 55.9964C223.486 55.385 225.099 54.7206 226.692 54.0029C229.877 52.6205 232.961 51.0185 235.922 49.2088C237.402 48.3217 238.852 47.3549 240.242 46.3283C241.632 45.3017 243.022 44.2352 244.382 43.1289C244.382 43.1289 244.532 43.1289 244.612 43.2286C244.692 43.3282 244.732 43.4479 244.692 43.4877Z" fill="#BC44AB"/>
<path d="M258.893 152.247C257.993 151.998 257.123 151.709 256.233 151.459C255.343 151.21 254.473 150.921 253.593 150.682C251.833 150.174 250.063 149.685 248.293 149.296C247.403 149.087 246.523 148.898 245.623 148.718L242.943 148.22C241.153 147.911 239.343 147.672 237.523 147.423C237.523 147.423 237.463 147.323 237.453 147.203C237.443 147.084 237.453 146.994 237.503 146.994C239.328 146.873 241.161 146.896 242.983 147.064C243.893 147.134 244.813 147.233 245.723 147.383C246.633 147.532 247.553 147.702 248.463 147.891C250.294 148.279 252.095 148.795 253.853 149.436C254.733 149.785 255.613 150.144 256.473 150.532C257.333 150.921 258.183 151.36 259.013 151.838C259.013 151.838 259.013 151.968 259.013 152.077C259.013 152.187 258.913 152.257 258.893 152.247Z" fill="#10B4FD"/>
<path d="M276.003 52.7342C275.713 53.0831 275.413 53.4219 275.113 53.7309L274.113 54.7276L273.113 55.6247L272.063 56.4719C270.639 57.5611 269.112 58.5092 267.503 59.3025L266.303 59.8008L265.073 60.3391L263.813 60.8075L262.523 61.2162C260.798 61.7413 259.027 62.0985 257.233 62.2826C257.233 62.2826 257.153 62.1929 257.123 62.0733C257.093 61.9537 257.123 61.864 257.123 61.8541C258.823 61.3258 260.483 60.7577 262.123 60.1098L263.333 59.6015L264.523 59.0733L265.713 58.5251L266.873 57.937C268.403 57.1197 269.873 56.2526 271.373 55.3157L272.483 54.608L273.563 53.8705L275.733 52.3555C275.733 52.3555 275.843 52.3555 275.913 52.495C275.983 52.6345 276.003 52.7143 276.003 52.7342Z" fill="#FDD323"/>
<path d="M296.302 114.811C296.672 114.731 297.042 114.661 297.412 114.611L298.542 114.512H299.682L300.832 114.601C302.396 114.803 303.921 115.229 305.362 115.867L306.452 116.386L307.512 116.954C307.862 117.173 308.202 117.382 308.512 117.611L309.512 118.339C310.824 119.345 311.992 120.525 312.982 121.847C312.982 121.847 312.982 121.957 312.872 122.037C312.762 122.117 312.722 122.166 312.702 122.156C311.535 121.114 310.288 120.164 308.972 119.316L307.972 118.728L306.972 118.18L305.972 117.671L304.972 117.223C303.6 116.669 302.185 116.225 300.742 115.897L299.672 115.658L298.582 115.488L297.482 115.339C297.112 115.339 296.742 115.279 296.372 115.229C296.372 115.229 296.312 115.13 296.292 115C296.272 114.871 296.282 114.811 296.302 114.811Z" fill="#10B4FD"/>
<path d="M64.643 111.222C61.0348 107.053 56.9005 103.368 52.343 100.258C47.8299 97.1928 42.9354 94.7268 37.783 92.9223C35.2184 92.0321 32.5501 91.4727 29.843 91.2578C27.1617 91.0195 24.4636 91.4654 22.003 92.5535C19.5743 93.7271 17.6317 95.7074 16.5093 98.154C15.3869 100.601 15.1548 103.36 15.853 105.959C16.609 108.723 18.1676 111.202 20.333 113.086C21.4286 114.058 22.6618 114.864 23.993 115.478C25.304 116.11 26.7212 116.496 28.173 116.614C29.5906 116.735 31.018 116.558 32.363 116.096C33.0232 115.851 33.6459 115.515 34.213 115.099C34.7702 114.692 35.2537 114.193 35.643 113.624C36.4104 112.422 36.7225 110.987 36.523 109.577C36.3278 108.15 35.8079 106.786 35.003 105.59C33.4439 103.204 31.295 101.258 28.763 99.9391C26.3494 98.619 23.7234 97.7286 21.003 97.3078C15.8367 96.4336 10.5295 97.5257 6.13299 100.368C6.09906 100.389 6.07023 100.418 6.04843 100.452C6.02664 100.485 6.01242 100.524 6.00672 100.563C6.00103 100.603 6.004 100.643 6.01543 100.682C6.02687 100.72 6.0465 100.756 6.07299 100.786C6.12275 100.852 6.1942 100.898 6.27472 100.916C6.35524 100.934 6.43963 100.924 6.51299 100.886C10.8696 98.3918 15.9855 97.5561 20.913 98.5337C23.4425 98.9963 25.8741 99.8862 28.103 101.165C29.2171 101.79 30.2542 102.543 31.193 103.408C32.1125 104.254 32.9101 105.224 33.563 106.288C34.873 108.351 35.213 110.823 34.013 112.498C33.7287 112.935 33.366 113.317 32.943 113.624C32.5014 113.924 32.0202 114.163 31.513 114.331C30.4171 114.686 29.2604 114.815 28.113 114.71C26.9154 114.623 25.745 114.312 24.663 113.793C23.5526 113.278 22.5221 112.607 21.603 111.8C19.7645 110.168 18.4555 108.027 17.843 105.65C17.2779 103.466 17.482 101.155 18.4213 99.1036C19.3605 97.0517 20.9778 95.3834 23.003 94.3774C25.1681 93.4043 27.546 92.9961 29.913 93.1914C32.4457 93.3792 34.9451 93.8815 37.353 94.6864C42.3894 96.305 47.193 98.57 51.643 101.424C56.2167 104.319 60.4295 107.745 64.193 111.63C64.2478 111.697 64.3267 111.74 64.4128 111.749C64.4988 111.758 64.5851 111.734 64.653 111.68C64.6877 111.652 64.7155 111.617 64.7343 111.577C64.7531 111.537 64.7624 111.493 64.7614 111.449C64.7604 111.404 64.7492 111.361 64.7287 111.321C64.7082 111.282 64.6789 111.248 64.643 111.222V111.222Z" fill="#10B4FD"/>
<path d="M123.004 41.4531C119.679 40.4717 116.56 38.9018 113.794 36.8184C111.027 34.7763 108.655 32.2502 106.794 29.3631C106.354 28.6454 105.924 27.9278 105.544 27.1803C105.159 26.4532 104.825 25.7005 104.544 24.9277C103.977 23.4728 103.696 21.9233 103.714 20.3628C103.723 18.9559 104.229 17.5971 105.144 16.5255C105.594 16.0158 106.142 15.6 106.754 15.3024C107.367 15.0047 108.033 14.831 108.714 14.7913C110.159 14.7583 111.559 15.2915 112.614 16.2763C113.147 16.7337 113.57 17.3061 113.849 17.9502C114.127 18.5943 114.256 19.2932 114.224 19.9941C114.207 20.6488 114.012 21.2867 113.659 21.8396C113.307 22.3925 112.811 22.8398 112.224 23.1337C111.559 23.3808 110.848 23.482 110.141 23.4304C109.433 23.3788 108.745 23.1756 108.124 22.8347C106.719 22.0734 105.547 20.9471 104.734 19.5754C104.31 18.886 103.951 18.1586 103.664 17.4026C103.398 16.6449 103.204 15.8641 103.084 15.0703C102.828 13.5238 102.909 11.9406 103.319 10.4275C103.73 8.91451 104.461 7.5068 105.464 6.29934C105.534 6.21961 105.464 6.05017 105.354 5.9206C105.244 5.79102 105.064 5.76112 104.994 5.84086C103.804 7.04745 102.901 8.50507 102.353 10.106C101.804 11.707 101.623 13.4103 101.824 15.0903C101.911 15.9838 102.092 16.8657 102.364 17.7216C102.648 18.597 103.02 19.4418 103.474 20.2432C104.41 21.932 105.793 23.3319 107.474 24.2898C108.314 24.7868 109.254 25.0935 110.227 25.1883C111.2 25.283 112.182 25.1634 113.104 24.838C113.99 24.4721 114.741 23.842 115.254 23.034C115.768 22.2279 116.07 21.3059 116.134 20.3529C116.209 19.3316 116.041 18.307 115.644 17.3628C115.022 15.9647 114.003 14.7788 112.713 13.9515C111.423 13.1243 109.918 12.692 108.384 12.7081C107.457 12.7521 106.548 12.9791 105.711 13.3761C104.873 13.7731 104.123 14.332 103.504 15.0205C102.296 16.4251 101.633 18.2141 101.634 20.0638C101.614 21.8958 101.954 23.7138 102.634 25.4161C102.971 26.2752 103.372 27.1081 103.834 27.9079C104.263 28.7123 104.733 29.4941 105.244 30.2501C107.355 33.2617 109.998 35.8655 113.044 37.9347C116.025 39.9448 119.376 41.3472 122.904 42.0611C123.024 42.0611 123.134 41.9714 123.144 41.8019C123.157 41.7365 123.151 41.6685 123.127 41.6064C123.102 41.5443 123.059 41.491 123.004 41.4531V41.4531Z" fill="#FDD323"/>
<path d="M71.6717 141.154C71.1017 140.526 70.5317 139.908 69.9417 139.29L68.0717 137.546L66.0717 135.971L64.0017 134.556C61.1609 132.747 58.0949 131.316 54.8817 130.3L52.4717 129.572L50.0617 129.044L47.6317 128.685L45.2017 128.576C42.0221 128.411 38.8363 128.748 35.7617 129.572C35.7617 129.572 35.7617 129.732 35.7617 129.901C35.7617 130.071 35.8817 130.19 35.9317 130.18C39.025 129.873 42.142 129.89 45.2317 130.23L47.5417 130.559L49.8517 131.008L52.1417 131.566L54.4017 132.254C57.4316 133.263 60.3582 134.558 63.1417 136.121L65.2417 137.337L67.2417 138.672L69.2417 140.098C69.8917 140.606 70.5417 141.094 71.2417 141.623C71.2417 141.623 71.4117 141.623 71.5317 141.473C71.6517 141.324 71.7017 141.194 71.6717 141.154Z" fill="#FD64B0"/>
<path d="M80.6127 60.1226C81.0627 60.89 81.4927 61.6675 81.9827 62.415L83.4527 64.6576C84.4527 66.1028 85.5527 67.5779 86.7027 68.9733C88.988 71.8114 91.4815 74.4766 94.1627 76.9469C94.8227 77.5848 95.5127 78.1828 96.1627 78.7809C96.8127 79.3789 97.5427 79.9869 98.2627 80.555L100.423 82.2594L102.663 83.874C105.659 85.9929 108.8 87.9012 112.063 89.5851C112.123 89.5851 112.203 89.5851 112.243 89.4556C112.283 89.326 112.243 89.2662 112.243 89.2363C109.143 87.2827 106.143 85.2162 103.243 83.0368L101.103 81.3623L99.0227 79.6281C98.3127 79.0699 97.6527 78.4519 97.0227 77.8639C96.3927 77.2758 95.6727 76.6678 95.0227 76.03C92.4121 73.583 89.932 71.0013 87.5927 68.2955C86.3927 66.9799 85.2827 65.5845 84.1627 64.1991L82.5327 62.096C81.9827 61.3983 81.5327 60.6608 80.9527 59.9531C80.9527 59.9531 80.8127 59.9531 80.7127 59.9531C80.6127 59.9531 80.5827 60.0727 80.6127 60.1226Z" fill="#BC44AB"/>
<path d="M111.062 56.2133C111.062 56.6618 111.062 57.1103 111.062 57.5688L111.153 58.9243C111.213 59.3828 111.283 59.8413 111.353 60.2898L111.623 61.6553C112.071 63.4812 112.742 65.2454 113.623 66.9079L114.323 68.1538L115.083 69.3697L115.923 70.5359C116.223 70.9146 116.533 71.2834 116.833 71.6522C118.052 73.1244 119.453 74.4372 121.003 75.5593C121.003 75.5593 121.113 75.5593 121.193 75.4297C121.273 75.3001 121.313 75.2503 121.283 75.2204C120.012 73.8756 118.829 72.4507 117.743 70.9545L117.003 69.8282L116.283 68.682L115.592 67.5159L114.963 66.3198C114.178 64.7079 113.51 63.0425 112.963 61.3363L112.543 60.0705C112.433 59.6419 112.313 59.2133 112.193 58.7848L111.863 57.489C111.773 57.0505 111.683 56.6119 111.573 56.1734C111.573 56.1734 111.453 56.1734 111.323 56.1136C111.275 56.1116 111.227 56.1194 111.182 56.1365C111.137 56.1537 111.097 56.1798 111.062 56.2133V56.2133Z" fill="#10B4FD"/>
<path d="M57.1211 69.8878C57.9611 70.5356 58.8111 71.1436 59.6511 71.7815C60.4911 72.4194 61.3311 73.0473 62.1511 73.6952C63.8111 74.9842 65.4411 76.3132 67.0411 77.682L68.2411 78.6787L69.4211 79.7352L71.7511 81.8881C73.2811 83.3632 74.7511 84.8782 76.2711 86.4231C76.2711 86.4231 76.4011 86.4231 76.5011 86.3334C76.6011 86.2437 76.6511 86.1839 76.6311 86.1639C75.4169 84.3829 74.0803 82.6878 72.6311 81.0907C71.9111 80.2834 71.1611 79.496 70.3911 78.7485L69.2111 77.6322L68.0011 76.5657C66.3945 75.1222 64.6905 73.7901 62.9011 72.5789C62.0011 71.9908 61.0911 71.4327 60.1811 70.8944C59.2711 70.3562 58.3111 69.8977 57.3411 69.4492C57.3411 69.4492 57.2411 69.509 57.1811 69.6187C57.1211 69.7283 57.0911 69.8579 57.1211 69.8878Z" fill="#FDD323"/>
<path d="M55.1906 155.406C55.6306 155.615 56.0806 155.795 56.5206 155.984L57.8306 156.582L59.1306 157.21L60.4006 157.878C62.0899 158.781 63.7259 159.779 65.3006 160.868L66.4706 161.715L67.6106 162.602L68.7306 163.529L69.8306 164.526C71.2688 165.847 72.6341 167.244 73.9206 168.712C73.9206 168.712 74.0506 168.712 74.1606 168.642C74.2706 168.573 74.3206 168.513 74.3106 168.483C73.286 166.763 72.0681 165.164 70.6806 163.719C70.3306 163.35 69.9706 162.991 69.6206 162.632L68.5006 161.635L67.3306 160.639L66.1206 159.712C64.4884 158.539 62.7391 157.537 60.9006 156.722L59.5206 156.174L58.1206 155.685L56.7006 155.306C56.2206 155.197 55.7006 155.107 55.2706 155.027C55.2706 155.027 55.1906 155.117 55.1706 155.237C55.1506 155.356 55.1606 155.396 55.1906 155.406Z" fill="#FD64B0"/>
<path d="M191.962 105.552H123.512L126.302 98.6944L129.982 89.6244L132.472 83.4847L136.282 74.0958L138.402 68.903L142.482 58.8462L146.222 49.6566L150.642 38.7826L157.732 21.3203L163.112 34.5565L166.462 42.7893L170.372 52.3975L173.752 60.73L177.232 69.3016L180.702 77.8235L184.422 86.9832L187.952 95.6944L191.962 105.552Z" fill="#FDD323"/>
<path d="M194.642 107.992H120.102" stroke="#10B4FD" stroke-width="11.37" stroke-miterlimit="10" stroke-linecap="round"/>
<path d="M166.451 42.7875L146.211 49.6548L150.631 38.7807L163.101 34.5547L166.451 42.7875Z" fill="#FD9F0C"/>
<path d="M173.75 60.7309L138.41 68.9039L142.49 58.8471L170.37 52.3984L173.75 60.7309Z" fill="#FD9F0C"/>
<path d="M180.703 77.8226L132.473 83.4839L136.283 74.0949L177.233 69.3008L180.703 77.8226Z" fill="#FD9F0C"/>
<path d="M187.951 95.6956L126.301 98.6956L129.981 89.6256L184.421 86.9844L187.951 95.6956Z" fill="#FD9F0C"/>
<path d="M157.732 28.1267C159.083 28.1267 160.404 27.7274 161.527 26.9794C162.65 26.2314 163.526 25.1682 164.042 23.9243C164.559 22.6804 164.695 21.3117 164.431 19.9911C164.168 18.6706 163.517 17.4576 162.562 16.5056C161.607 15.5535 160.39 14.9052 159.065 14.6425C157.74 14.3799 156.367 14.5147 155.119 15.0299C153.871 15.5452 152.804 16.4177 152.053 17.5372C151.303 18.6567 150.902 19.9728 150.902 21.3192C150.902 23.1247 151.622 24.8562 152.903 26.1328C154.184 27.4095 155.921 28.1267 157.732 28.1267Z" fill="#10B4FD"/>
</g>
<defs>
<linearGradient id="paint0_linear_4935_33014" x1="143.844" y1="240.34" x2="171.758" y2="240.539" gradientUnits="userSpaceOnUse">
<stop stop-color="#83F3D3"/>
<stop offset="1" stop-color="#569C8B"/>
</linearGradient>
<linearGradient id="paint1_linear_4935_33014" x1="91.3105" y1="211.077" x2="114.247" y2="211.243" gradientUnits="userSpaceOnUse">
<stop stop-color="#83F3D3"/>
<stop offset="1" stop-color="#569C8B"/>
</linearGradient>
<linearGradient id="paint2_linear_4935_33014" x1="201.26" y1="211.077" x2="224.196" y2="211.243" gradientUnits="userSpaceOnUse">
<stop stop-color="#83F3D3"/>
<stop offset="1" stop-color="#569C8B"/>
</linearGradient>
<linearGradient id="paint3_linear_4935_33014" x1="82.7319" y1="112.483" x2="125.233" y2="112.697" gradientUnits="userSpaceOnUse">
<stop stop-color="#83F3D3"/>
<stop offset="1" stop-color="#569C8B"/>
</linearGradient>
<linearGradient id="paint4_linear_4935_33014" x1="190.63" y1="112.483" x2="233.131" y2="112.697" gradientUnits="userSpaceOnUse">
<stop stop-color="#83F3D3"/>
<stop offset="1" stop-color="#569C8B"/>
</linearGradient>
<linearGradient id="paint5_linear_4935_33014" x1="118.103" y1="171.207" x2="198.414" y2="171.489" gradientUnits="userSpaceOnUse">
<stop stop-color="#83F3D3"/>
<stop offset="1" stop-color="#569C8B"/>
</linearGradient>
<linearGradient id="paint6_linear_4935_33014" x1="272.215" y1="166.217" x2="287.698" y2="166.294" gradientUnits="userSpaceOnUse">
<stop stop-color="#83F3D3"/>
<stop offset="1" stop-color="#569C8B"/>
</linearGradient>
<linearGradient id="paint7_linear_4935_33014" x1="267.258" y1="174.972" x2="282.742" y2="175.049" gradientUnits="userSpaceOnUse">
<stop stop-color="#83F3D3"/>
<stop offset="1" stop-color="#569C8B"/>
</linearGradient>
<linearGradient id="paint8_linear_4935_33014" x1="235.509" y1="215.976" x2="261.397" y2="216.074" gradientUnits="userSpaceOnUse">
<stop stop-color="#83F3D3"/>
<stop offset="1" stop-color="#569C8B"/>
</linearGradient>
<linearGradient id="paint9_linear_4935_33014" x1="27.7242" y1="166.127" x2="43.4888" y2="166.206" gradientUnits="userSpaceOnUse">
<stop stop-color="#83F3D3"/>
<stop offset="1" stop-color="#569C8B"/>
</linearGradient>
<linearGradient id="paint10_linear_4935_33014" x1="32.6608" y1="174.972" x2="48.1431" y2="175.049" gradientUnits="userSpaceOnUse">
<stop stop-color="#83F3D3"/>
<stop offset="1" stop-color="#569C8B"/>
</linearGradient>
<linearGradient id="paint11_linear_4935_33014" x1="54.1418" y1="215.976" x2="80.0302" y2="216.074" gradientUnits="userSpaceOnUse">
<stop stop-color="#83F3D3"/>
<stop offset="1" stop-color="#569C8B"/>
</linearGradient>
<clipPath id="clip0_4935_33014">
<rect width="319" height="254" fill="white"/>
</clipPath>
</defs>
</svg>
