<svg width="929" height="779" viewBox="0 0 929 779" fill="none" xmlns="http://www.w3.org/2000/svg">
<circle cx="418.018" cy="694.018" r="11.0176" fill="white"/>
<mask id="path-2-outside-1_4773_29397" maskUnits="userSpaceOnUse" x="20" y="613" width="894" height="162" fill="black">
<rect fill="white" x="20" y="613" width="894" height="162"/>
<path d="M98.2 638.88C100.04 638.88 101.4 638.96 102.28 639.12C103.24 639.2 104.28 639.56 105.4 640.2C106.6 640.84 107.44 641.92 107.92 643.44C108.4 644.96 108.64 647 108.64 649.56C108.64 652.12 108.4 654.16 107.92 655.68C107.44 657.2 106.6 658.28 105.4 658.92C104.2 659.48 103.12 659.84 102.16 660C101.28 660.08 99.88 660.12 97.96 660.12H61.24V672.24H84.88C86.8 672.24 88.2 672.32 89.08 672.48C90.04 672.56 91.12 672.92 92.32 673.56C94.4 674.76 95.44 677.92 95.44 683.04C95.44 688.64 93.92 691.96 90.88 693C89.6 693.4 87.56 693.6 84.76 693.6H61.24V716.28C61.24 718.2 61.16 719.6 61 720.48C60.92 721.36 60.56 722.4 59.92 723.6C58.8 725.76 55.68 726.84 50.56 726.84C44.96 726.84 41.68 725.32 40.72 722.28C40.24 721 40 718.96 40 716.16V649.44C40 645.36 40.76 642.6 42.28 641.16C43.8 639.64 46.68 638.88 50.92 638.88H98.2Z"/>
<path d="M114.062 674.16C114.062 672.32 114.103 670.96 114.183 670.08C114.343 669.12 114.702 668.04 115.262 666.84C116.382 664.76 119.502 663.72 124.622 663.72C128.462 663.72 131.183 664.4 132.783 665.76C134.143 666.88 134.863 668.6 134.943 670.92C135.023 671.72 135.062 672.88 135.062 674.4V716.4C135.062 718.24 134.983 719.64 134.823 720.6C134.743 721.48 134.383 722.52 133.743 723.72C132.703 725.8 129.623 726.84 124.503 726.84C119.463 726.84 116.382 725.76 115.262 723.6C114.702 722.4 114.343 721.36 114.183 720.48C114.103 719.6 114.062 718.2 114.062 716.28V674.16ZM133.743 651.96C133.183 653.08 132.142 653.88 130.622 654.36C129.102 654.84 127.063 655.08 124.503 655.08C122.023 655.08 120.023 654.84 118.503 654.36C116.983 653.88 115.902 653.04 115.262 651.84C114.702 650.64 114.343 649.6 114.183 648.72C114.103 647.76 114.062 646.36 114.062 644.52C114.062 642.68 114.103 641.32 114.183 640.44C114.343 639.48 114.702 638.44 115.262 637.32C116.382 635.16 119.502 634.08 124.622 634.08C129.662 634.08 132.703 635.16 133.743 637.32C134.383 638.52 134.743 639.6 134.823 640.56C134.983 641.44 135.062 642.8 135.062 644.64C135.062 646.48 134.983 647.88 134.823 648.84C134.743 649.72 134.383 650.76 133.743 651.96Z"/>
<path d="M188.448 695.16L201.768 708.6C204.648 711.48 206.088 713.96 206.088 716.04C206.088 718.04 204.648 720.48 201.768 723.36C198.888 726.16 196.448 727.56 194.448 727.56C192.448 727.56 190.008 726.12 187.128 723.24L173.928 709.92L160.608 723.24C157.728 726.12 155.288 727.56 153.288 727.56C151.368 727.56 148.928 726.16 145.968 723.36C143.088 720.48 141.648 718.04 141.648 716.04C141.648 713.96 143.088 711.48 145.968 708.6L159.288 695.16L145.968 681.72C143.088 678.84 141.648 676.4 141.648 674.4C141.648 672.32 143.088 669.84 145.968 666.96C148.928 664.08 151.368 662.64 153.288 662.64C155.288 662.64 157.728 664.08 160.608 666.96L173.928 680.4L187.128 666.96C190.008 664.08 192.448 662.64 194.448 662.64C196.448 662.64 198.888 664.08 201.768 666.96C204.648 669.84 206.088 672.32 206.088 674.4C206.088 676.4 204.648 678.84 201.768 681.72L188.448 695.16Z"/>
<path d="M249.454 684.84L241.654 684.36V700.92C241.654 703.08 241.974 704.64 242.614 705.6C243.334 706.56 244.614 707.04 246.454 707.04C248.374 707.04 249.814 707.12 250.774 707.28C251.814 707.36 252.894 707.72 254.014 708.36C255.854 709.4 256.774 712.08 256.774 716.4C256.774 721.44 255.654 724.52 253.414 725.64C252.214 726.2 251.134 726.56 250.174 726.72C249.294 726.8 247.974 726.84 246.214 726.84C237.894 726.84 231.574 724.96 227.254 721.2C222.934 717.44 220.774 711.08 220.774 702.12V684.36C219.254 684.6 217.614 684.72 215.854 684.72C214.094 684.72 212.614 684.04 211.414 682.68C210.294 681.32 209.734 679 209.734 675.72C209.734 672.44 209.934 670.08 210.334 668.64C210.734 667.12 211.294 666.04 212.014 665.4C213.294 664.36 214.894 663.84 216.814 663.84L220.774 664.32V651.96C220.774 650.12 220.814 648.76 220.894 647.88C221.054 647 221.454 646.04 222.094 645C223.134 643 226.214 642 231.334 642C236.774 642 240.014 643.48 241.054 646.44C241.454 647.72 241.654 649.76 241.654 652.56V664.32C245.174 664 247.814 663.84 249.574 663.84C251.414 663.84 252.774 663.92 253.654 664.08C254.614 664.16 255.694 664.52 256.894 665.16C258.974 666.2 260.014 669.28 260.014 674.4C260.014 679.44 258.934 682.52 256.774 683.64C255.574 684.2 254.494 684.56 253.534 684.72C252.654 684.8 251.294 684.84 249.454 684.84Z"/>
<path d="M325.257 687.72C325.257 692.6 324.017 696.24 321.537 698.64C319.137 700.96 316.457 702.12 313.497 702.12H285.057C285.057 704.36 286.377 706.24 289.017 707.76C291.657 709.28 294.297 710.04 296.937 710.04C301.577 710.04 305.217 709.56 307.857 708.6L309.177 708.12C311.097 707.24 312.697 706.8 313.977 706.8C316.537 706.8 318.737 708.6 320.577 712.2C321.617 714.36 322.137 716.2 322.137 717.72C322.137 724.84 313.617 728.4 296.577 728.4C290.657 728.4 285.377 727.4 280.737 725.4C276.177 723.32 272.617 720.6 270.057 717.24C265.017 710.76 262.497 703.52 262.497 695.52C262.497 685.44 265.737 677.4 272.217 671.4C278.777 665.32 286.937 662.28 296.697 662.28C307.817 662.28 315.977 666.2 321.177 674.04C323.897 678.2 325.257 682.76 325.257 687.72ZM299.937 691.2C302.977 691.2 304.497 689.92 304.497 687.36C304.497 685.52 303.777 684.04 302.337 682.92C300.977 681.8 298.977 681.24 296.337 681.24C293.777 681.24 291.217 682.32 288.657 684.48C286.097 686.56 284.817 688.8 284.817 691.2H299.937Z"/>
<path d="M376.046 664.32C377.566 664.8 378.806 665.64 379.766 666.84C380.806 667.96 381.326 669.8 381.326 672.36C381.326 674.92 380.566 677.72 379.046 680.76C377.526 683.8 375.326 685.32 372.446 685.32C371.006 685.32 369.606 685 368.246 684.36C366.966 683.72 365.246 683.4 363.086 683.4C360.926 683.4 358.886 684.16 356.966 685.68C355.126 687.2 354.206 689.04 354.206 691.2V716.4C354.206 718.24 354.126 719.64 353.966 720.6C353.886 721.48 353.526 722.52 352.886 723.72C351.686 725.8 348.566 726.84 343.526 726.84C339.686 726.84 336.926 726.16 335.246 724.8C333.966 723.68 333.246 721.96 333.086 719.64C333.086 718.84 333.086 717.68 333.086 716.16V674.04C333.086 672.2 333.126 670.84 333.206 669.96C333.366 669 333.726 667.96 334.286 666.84C335.406 664.68 338.526 663.6 343.646 663.6C348.446 663.6 351.446 664.52 352.646 666.36C353.526 667.64 353.966 668.96 353.966 670.32C354.366 669.76 354.926 669.08 355.646 668.28C356.446 667.48 358.086 666.4 360.566 665.04C363.046 663.68 365.206 663 367.046 663C368.966 663 370.566 663.12 371.846 663.36C373.126 663.52 374.526 663.84 376.046 664.32Z"/>
<path d="M424.377 718.92C421.337 722.92 416.497 724.92 409.857 724.92C403.217 724.92 396.977 721.88 391.137 715.8C385.377 709.64 382.497 702.48 382.497 694.32C382.497 686.16 385.417 679 391.257 672.84C397.097 666.68 403.497 663.6 410.457 663.6C413.177 663.6 415.657 664.12 417.897 665.16C420.137 666.12 421.657 667.04 422.457 667.92C423.337 668.72 424.017 669.48 424.497 670.2C424.737 667.96 425.537 666.28 426.897 665.16C428.337 663.96 430.617 663.36 433.737 663.36C436.857 663.36 439.137 663.6 440.577 664.08C442.017 664.56 443.017 665.4 443.577 666.6C444.217 667.72 444.577 668.72 444.657 669.6C444.817 670.48 444.897 671.84 444.897 673.68V723.36C444.897 732.56 441.697 739.96 435.297 745.56C428.897 751.24 421.697 754.08 413.697 754.08C407.617 754.08 401.817 752.6 396.297 749.64C390.777 746.68 388.017 744 388.017 741.6C388.017 738.48 389.217 735.72 391.617 733.32C393.137 731.64 394.297 730.48 395.097 729.84C395.977 729.2 396.977 728.88 398.097 728.88C399.217 728.88 400.377 729.36 401.577 730.32C405.417 733.28 409.577 734.76 414.057 734.76C417.097 734.76 419.577 733.56 421.497 731.16C423.417 728.76 424.377 725.88 424.377 722.52V718.92ZM403.017 694.44C403.017 697 404.017 699.32 406.017 701.4C408.097 703.48 410.577 704.52 413.457 704.52C416.417 704.52 418.857 703.48 420.777 701.4C422.697 699.24 423.657 696.92 423.657 694.44C423.657 691.88 422.737 689.52 420.897 687.36C419.057 685.12 416.577 684 413.457 684C410.337 684 407.817 685.08 405.897 687.24C403.977 689.4 403.017 691.8 403.017 694.44Z"/>
<path d="M515.452 687.72C515.452 692.6 514.212 696.24 511.732 698.64C509.332 700.96 506.652 702.12 503.692 702.12H475.252C475.252 704.36 476.572 706.24 479.212 707.76C481.852 709.28 484.492 710.04 487.132 710.04C491.772 710.04 495.412 709.56 498.052 708.6L499.372 708.12C501.292 707.24 502.892 706.8 504.172 706.8C506.732 706.8 508.932 708.6 510.772 712.2C511.812 714.36 512.332 716.2 512.332 717.72C512.332 724.84 503.812 728.4 486.772 728.4C480.852 728.4 475.572 727.4 470.932 725.4C466.372 723.32 462.812 720.6 460.252 717.24C455.212 710.76 452.692 703.52 452.692 695.52C452.692 685.44 455.932 677.4 462.412 671.4C468.972 665.32 477.132 662.28 486.892 662.28C498.012 662.28 506.172 666.2 511.372 674.04C514.092 678.2 515.452 682.76 515.452 687.72ZM490.132 691.2C493.172 691.2 494.692 689.92 494.692 687.36C494.692 685.52 493.972 684.04 492.532 682.92C491.172 681.8 489.172 681.24 486.532 681.24C483.972 681.24 481.412 682.32 478.852 684.48C476.292 686.56 475.012 688.8 475.012 691.2H490.132Z"/>
<path d="M584.241 687.72C584.241 692.6 583.001 696.24 580.521 698.64C578.121 700.96 575.441 702.12 572.481 702.12H544.041C544.041 704.36 545.361 706.24 548.001 707.76C550.641 709.28 553.281 710.04 555.921 710.04C560.561 710.04 564.201 709.56 566.841 708.6L568.161 708.12C570.081 707.24 571.681 706.8 572.961 706.8C575.521 706.8 577.721 708.6 579.561 712.2C580.601 714.36 581.121 716.2 581.121 717.72C581.121 724.84 572.601 728.4 555.561 728.4C549.641 728.4 544.361 727.4 539.721 725.4C535.161 723.32 531.601 720.6 529.041 717.24C524.001 710.76 521.481 703.52 521.481 695.52C521.481 685.44 524.721 677.4 531.201 671.4C537.761 665.32 545.921 662.28 555.681 662.28C566.801 662.28 574.961 666.2 580.161 674.04C582.881 678.2 584.241 682.76 584.241 687.72ZM558.921 691.2C561.961 691.2 563.481 689.92 563.481 687.36C563.481 685.52 562.761 684.04 561.321 682.92C559.961 681.8 557.961 681.24 555.321 681.24C552.761 681.24 550.201 682.32 547.641 684.48C545.081 686.56 543.801 688.8 543.801 691.2H558.921Z"/>
<path d="M629.27 695.16L645.23 708.36C647.23 710.04 648.47 711.32 648.95 712.2C649.51 713.08 649.79 713.92 649.79 714.72C649.79 716.64 648.55 719.24 646.07 722.52C643.35 725.88 640.95 727.56 638.87 727.56C637.11 727.56 634.67 726.4 631.55 724.08L630.35 723.24C628.51 721.72 625.67 719.08 621.83 715.32C617.99 711.48 615.07 708.76 613.07 707.16V716.4C613.07 718.24 612.99 719.64 612.83 720.6C612.75 721.48 612.39 722.52 611.75 723.72C610.71 725.8 607.63 726.84 602.51 726.84C597.47 726.84 594.39 725.76 593.27 723.6C592.71 722.4 592.35 721.36 592.19 720.48C592.11 719.52 592.07 718.12 592.07 716.28V644.4C592.07 642.56 592.11 641.2 592.19 640.32C592.35 639.36 592.71 638.28 593.27 637.08C594.39 634.92 597.51 633.84 602.63 633.84C606.47 633.84 609.19 634.52 610.79 635.88C612.15 637 612.87 638.76 612.95 641.16C613.03 641.88 613.07 643 613.07 644.52V682.56C614.51 681.36 616.67 679.32 619.55 676.44C622.51 673.56 624.71 671.52 626.15 670.32L627.59 669.36C630.39 667.2 632.79 666.12 634.79 666.12C636.79 666.12 639.07 667.76 641.63 671.04C644.27 674.24 645.59 676.76 645.59 678.6C645.59 680.44 644.11 682.6 641.15 685.08L629.27 695.16Z"/>
<path d="M688.438 693.84C685.318 692.32 683.758 689.56 683.758 685.56C683.758 681.56 685.358 678.76 688.558 677.16C715.998 660.92 731.758 651.56 735.838 649.08C739.918 646.6 742.358 645.24 743.158 645C744.038 644.6 745.078 644.4 746.278 644.4C748.438 644.4 750.678 646.36 752.998 650.28C754.518 652.76 755.278 654.64 755.278 655.92C755.278 657.12 754.998 658.16 754.438 659.04C753.718 660.32 752.078 661.8 749.518 663.48C725.678 677.56 713.278 684.92 712.318 685.56L749.518 707.64C751.038 708.52 752.118 709.24 752.758 709.8C754.518 711.24 755.398 712.8 755.398 714.48C755.398 716.08 754.678 718.04 753.238 720.36C751.878 722.6 750.638 724.2 749.518 725.16C748.398 726.12 747.238 726.6 746.038 726.6C744.438 726.6 742.358 725.84 739.798 724.32L688.438 693.84Z"/>
<path d="M778.312 727.8C777.672 729.16 777.152 730.16 776.752 730.8C776.432 731.44 775.832 732.04 774.952 732.6C774.152 733.24 773.072 733.56 771.712 733.56C770.352 733.56 768.352 732.96 765.712 731.76C763.072 730.56 761.272 729.48 760.312 728.52C759.432 727.64 758.992 726.64 758.992 725.52C758.992 724.4 759.472 722.4 760.432 719.52L799.072 638.76C800.592 635.72 801.952 633.96 803.152 633.48C803.792 633.16 804.712 633 805.912 633C807.192 633 809.232 633.64 812.032 634.92C816.352 637 818.512 639.28 818.512 641.76C818.512 642.8 817.952 644.8 816.832 647.76L778.312 727.8Z"/>
<path d="M888.876 677.16C892.076 678.76 893.676 681.56 893.676 685.56C893.676 689.56 892.116 692.32 888.996 693.84L837.756 724.32C833.676 726.96 830.396 727.24 827.916 725.16C826.796 724.2 825.636 722.76 824.436 720.84C822.836 718.2 822.036 716.28 822.036 715.08C822.036 713.88 822.276 712.84 822.756 711.96C823.636 710.6 825.356 709.16 827.916 707.64L865.236 685.56L828.036 663.48C826.596 662.6 825.516 661.88 824.796 661.32C823.036 659.8 822.156 658.16 822.156 656.4C822.156 654.8 822.836 652.88 824.196 650.64C826.676 646.48 828.996 644.4 831.156 644.4C833.076 644.4 835.236 645.16 837.636 646.68L888.876 677.16Z"/>
</mask>
<path d="M98.2 638.88C100.04 638.88 101.4 638.96 102.28 639.12C103.24 639.2 104.28 639.56 105.4 640.2C106.6 640.84 107.44 641.92 107.92 643.44C108.4 644.96 108.64 647 108.64 649.56C108.64 652.12 108.4 654.16 107.92 655.68C107.44 657.2 106.6 658.28 105.4 658.92C104.2 659.48 103.12 659.84 102.16 660C101.28 660.08 99.88 660.12 97.96 660.12H61.24V672.24H84.88C86.8 672.24 88.2 672.32 89.08 672.48C90.04 672.56 91.12 672.92 92.32 673.56C94.4 674.76 95.44 677.92 95.44 683.04C95.44 688.64 93.92 691.96 90.88 693C89.6 693.4 87.56 693.6 84.76 693.6H61.24V716.28C61.24 718.2 61.16 719.6 61 720.48C60.92 721.36 60.56 722.4 59.92 723.6C58.8 725.76 55.68 726.84 50.56 726.84C44.96 726.84 41.68 725.32 40.72 722.28C40.24 721 40 718.96 40 716.16V649.44C40 645.36 40.76 642.6 42.28 641.16C43.8 639.64 46.68 638.88 50.92 638.88H98.2Z" fill="#15191E"/>
<path d="M114.062 674.16C114.062 672.32 114.103 670.96 114.183 670.08C114.343 669.12 114.702 668.04 115.262 666.84C116.382 664.76 119.502 663.72 124.622 663.72C128.462 663.72 131.183 664.4 132.783 665.76C134.143 666.88 134.863 668.6 134.943 670.92C135.023 671.72 135.062 672.88 135.062 674.4V716.4C135.062 718.24 134.983 719.64 134.823 720.6C134.743 721.48 134.383 722.52 133.743 723.72C132.703 725.8 129.623 726.84 124.503 726.84C119.463 726.84 116.382 725.76 115.262 723.6C114.702 722.4 114.343 721.36 114.183 720.48C114.103 719.6 114.062 718.2 114.062 716.28V674.16ZM133.743 651.96C133.183 653.08 132.142 653.88 130.622 654.36C129.102 654.84 127.063 655.08 124.503 655.08C122.023 655.08 120.023 654.84 118.503 654.36C116.983 653.88 115.902 653.04 115.262 651.84C114.702 650.64 114.343 649.6 114.183 648.72C114.103 647.76 114.062 646.36 114.062 644.52C114.062 642.68 114.103 641.32 114.183 640.44C114.343 639.48 114.702 638.44 115.262 637.32C116.382 635.16 119.502 634.08 124.622 634.08C129.662 634.08 132.703 635.16 133.743 637.32C134.383 638.52 134.743 639.6 134.823 640.56C134.983 641.44 135.062 642.8 135.062 644.64C135.062 646.48 134.983 647.88 134.823 648.84C134.743 649.72 134.383 650.76 133.743 651.96Z" fill="#15191E"/>
<path d="M188.448 695.16L201.768 708.6C204.648 711.48 206.088 713.96 206.088 716.04C206.088 718.04 204.648 720.48 201.768 723.36C198.888 726.16 196.448 727.56 194.448 727.56C192.448 727.56 190.008 726.12 187.128 723.24L173.928 709.92L160.608 723.24C157.728 726.12 155.288 727.56 153.288 727.56C151.368 727.56 148.928 726.16 145.968 723.36C143.088 720.48 141.648 718.04 141.648 716.04C141.648 713.96 143.088 711.48 145.968 708.6L159.288 695.16L145.968 681.72C143.088 678.84 141.648 676.4 141.648 674.4C141.648 672.32 143.088 669.84 145.968 666.96C148.928 664.08 151.368 662.64 153.288 662.64C155.288 662.64 157.728 664.08 160.608 666.96L173.928 680.4L187.128 666.96C190.008 664.08 192.448 662.64 194.448 662.64C196.448 662.64 198.888 664.08 201.768 666.96C204.648 669.84 206.088 672.32 206.088 674.4C206.088 676.4 204.648 678.84 201.768 681.72L188.448 695.16Z" fill="#15191E"/>
<path d="M249.454 684.84L241.654 684.36V700.92C241.654 703.08 241.974 704.64 242.614 705.6C243.334 706.56 244.614 707.04 246.454 707.04C248.374 707.04 249.814 707.12 250.774 707.28C251.814 707.36 252.894 707.72 254.014 708.36C255.854 709.4 256.774 712.08 256.774 716.4C256.774 721.44 255.654 724.52 253.414 725.64C252.214 726.2 251.134 726.56 250.174 726.72C249.294 726.8 247.974 726.84 246.214 726.84C237.894 726.84 231.574 724.96 227.254 721.2C222.934 717.44 220.774 711.08 220.774 702.12V684.36C219.254 684.6 217.614 684.72 215.854 684.72C214.094 684.72 212.614 684.04 211.414 682.68C210.294 681.32 209.734 679 209.734 675.72C209.734 672.44 209.934 670.08 210.334 668.64C210.734 667.12 211.294 666.04 212.014 665.4C213.294 664.36 214.894 663.84 216.814 663.84L220.774 664.32V651.96C220.774 650.12 220.814 648.76 220.894 647.88C221.054 647 221.454 646.04 222.094 645C223.134 643 226.214 642 231.334 642C236.774 642 240.014 643.48 241.054 646.44C241.454 647.72 241.654 649.76 241.654 652.56V664.32C245.174 664 247.814 663.84 249.574 663.84C251.414 663.84 252.774 663.92 253.654 664.08C254.614 664.16 255.694 664.52 256.894 665.16C258.974 666.2 260.014 669.28 260.014 674.4C260.014 679.44 258.934 682.52 256.774 683.64C255.574 684.2 254.494 684.56 253.534 684.72C252.654 684.8 251.294 684.84 249.454 684.84Z" fill="#15191E"/>
<path d="M325.257 687.72C325.257 692.6 324.017 696.24 321.537 698.64C319.137 700.96 316.457 702.12 313.497 702.12H285.057C285.057 704.36 286.377 706.24 289.017 707.76C291.657 709.28 294.297 710.04 296.937 710.04C301.577 710.04 305.217 709.56 307.857 708.6L309.177 708.12C311.097 707.24 312.697 706.8 313.977 706.8C316.537 706.8 318.737 708.6 320.577 712.2C321.617 714.36 322.137 716.2 322.137 717.72C322.137 724.84 313.617 728.4 296.577 728.4C290.657 728.4 285.377 727.4 280.737 725.4C276.177 723.32 272.617 720.6 270.057 717.24C265.017 710.76 262.497 703.52 262.497 695.52C262.497 685.44 265.737 677.4 272.217 671.4C278.777 665.32 286.937 662.28 296.697 662.28C307.817 662.28 315.977 666.2 321.177 674.04C323.897 678.2 325.257 682.76 325.257 687.72ZM299.937 691.2C302.977 691.2 304.497 689.92 304.497 687.36C304.497 685.52 303.777 684.04 302.337 682.92C300.977 681.8 298.977 681.24 296.337 681.24C293.777 681.24 291.217 682.32 288.657 684.48C286.097 686.56 284.817 688.8 284.817 691.2H299.937Z" fill="#15191E"/>
<path d="M376.046 664.32C377.566 664.8 378.806 665.64 379.766 666.84C380.806 667.96 381.326 669.8 381.326 672.36C381.326 674.92 380.566 677.72 379.046 680.76C377.526 683.8 375.326 685.32 372.446 685.32C371.006 685.32 369.606 685 368.246 684.36C366.966 683.72 365.246 683.4 363.086 683.4C360.926 683.4 358.886 684.16 356.966 685.68C355.126 687.2 354.206 689.04 354.206 691.2V716.4C354.206 718.24 354.126 719.64 353.966 720.6C353.886 721.48 353.526 722.52 352.886 723.72C351.686 725.8 348.566 726.84 343.526 726.84C339.686 726.84 336.926 726.16 335.246 724.8C333.966 723.68 333.246 721.96 333.086 719.64C333.086 718.84 333.086 717.68 333.086 716.16V674.04C333.086 672.2 333.126 670.84 333.206 669.96C333.366 669 333.726 667.96 334.286 666.84C335.406 664.68 338.526 663.6 343.646 663.6C348.446 663.6 351.446 664.52 352.646 666.36C353.526 667.64 353.966 668.96 353.966 670.32C354.366 669.76 354.926 669.08 355.646 668.28C356.446 667.48 358.086 666.4 360.566 665.04C363.046 663.68 365.206 663 367.046 663C368.966 663 370.566 663.12 371.846 663.36C373.126 663.52 374.526 663.84 376.046 664.32Z" fill="#15191E"/>
<path d="M424.377 718.92C421.337 722.92 416.497 724.92 409.857 724.92C403.217 724.92 396.977 721.88 391.137 715.8C385.377 709.64 382.497 702.48 382.497 694.32C382.497 686.16 385.417 679 391.257 672.84C397.097 666.68 403.497 663.6 410.457 663.6C413.177 663.6 415.657 664.12 417.897 665.16C420.137 666.12 421.657 667.04 422.457 667.92C423.337 668.72 424.017 669.48 424.497 670.2C424.737 667.96 425.537 666.28 426.897 665.16C428.337 663.96 430.617 663.36 433.737 663.36C436.857 663.36 439.137 663.6 440.577 664.08C442.017 664.56 443.017 665.4 443.577 666.6C444.217 667.72 444.577 668.72 444.657 669.6C444.817 670.48 444.897 671.84 444.897 673.68V723.36C444.897 732.56 441.697 739.96 435.297 745.56C428.897 751.24 421.697 754.08 413.697 754.08C407.617 754.08 401.817 752.6 396.297 749.64C390.777 746.68 388.017 744 388.017 741.6C388.017 738.48 389.217 735.72 391.617 733.32C393.137 731.64 394.297 730.48 395.097 729.84C395.977 729.2 396.977 728.88 398.097 728.88C399.217 728.88 400.377 729.36 401.577 730.32C405.417 733.28 409.577 734.76 414.057 734.76C417.097 734.76 419.577 733.56 421.497 731.16C423.417 728.76 424.377 725.88 424.377 722.52V718.92ZM403.017 694.44C403.017 697 404.017 699.32 406.017 701.4C408.097 703.48 410.577 704.52 413.457 704.52C416.417 704.52 418.857 703.48 420.777 701.4C422.697 699.24 423.657 696.92 423.657 694.44C423.657 691.88 422.737 689.52 420.897 687.36C419.057 685.12 416.577 684 413.457 684C410.337 684 407.817 685.08 405.897 687.24C403.977 689.4 403.017 691.8 403.017 694.44Z" fill="url(#paint0_linear_4773_29397)"/>
<path d="M515.452 687.72C515.452 692.6 514.212 696.24 511.732 698.64C509.332 700.96 506.652 702.12 503.692 702.12H475.252C475.252 704.36 476.572 706.24 479.212 707.76C481.852 709.28 484.492 710.04 487.132 710.04C491.772 710.04 495.412 709.56 498.052 708.6L499.372 708.12C501.292 707.24 502.892 706.8 504.172 706.8C506.732 706.8 508.932 708.6 510.772 712.2C511.812 714.36 512.332 716.2 512.332 717.72C512.332 724.84 503.812 728.4 486.772 728.4C480.852 728.4 475.572 727.4 470.932 725.4C466.372 723.32 462.812 720.6 460.252 717.24C455.212 710.76 452.692 703.52 452.692 695.52C452.692 685.44 455.932 677.4 462.412 671.4C468.972 665.32 477.132 662.28 486.892 662.28C498.012 662.28 506.172 666.2 511.372 674.04C514.092 678.2 515.452 682.76 515.452 687.72ZM490.132 691.2C493.172 691.2 494.692 689.92 494.692 687.36C494.692 685.52 493.972 684.04 492.532 682.92C491.172 681.8 489.172 681.24 486.532 681.24C483.972 681.24 481.412 682.32 478.852 684.48C476.292 686.56 475.012 688.8 475.012 691.2H490.132Z" fill="url(#paint1_linear_4773_29397)"/>
<path d="M584.241 687.72C584.241 692.6 583.001 696.24 580.521 698.64C578.121 700.96 575.441 702.12 572.481 702.12H544.041C544.041 704.36 545.361 706.24 548.001 707.76C550.641 709.28 553.281 710.04 555.921 710.04C560.561 710.04 564.201 709.56 566.841 708.6L568.161 708.12C570.081 707.24 571.681 706.8 572.961 706.8C575.521 706.8 577.721 708.6 579.561 712.2C580.601 714.36 581.121 716.2 581.121 717.72C581.121 724.84 572.601 728.4 555.561 728.4C549.641 728.4 544.361 727.4 539.721 725.4C535.161 723.32 531.601 720.6 529.041 717.24C524.001 710.76 521.481 703.52 521.481 695.52C521.481 685.44 524.721 677.4 531.201 671.4C537.761 665.32 545.921 662.28 555.681 662.28C566.801 662.28 574.961 666.2 580.161 674.04C582.881 678.2 584.241 682.76 584.241 687.72ZM558.921 691.2C561.961 691.2 563.481 689.92 563.481 687.36C563.481 685.52 562.761 684.04 561.321 682.92C559.961 681.8 557.961 681.24 555.321 681.24C552.761 681.24 550.201 682.32 547.641 684.48C545.081 686.56 543.801 688.8 543.801 691.2H558.921Z" fill="url(#paint2_linear_4773_29397)"/>
<path d="M629.27 695.16L645.23 708.36C647.23 710.04 648.47 711.32 648.95 712.2C649.51 713.08 649.79 713.92 649.79 714.72C649.79 716.64 648.55 719.24 646.07 722.52C643.35 725.88 640.95 727.56 638.87 727.56C637.11 727.56 634.67 726.4 631.55 724.08L630.35 723.24C628.51 721.72 625.67 719.08 621.83 715.32C617.99 711.48 615.07 708.76 613.07 707.16V716.4C613.07 718.24 612.99 719.64 612.83 720.6C612.75 721.48 612.39 722.52 611.75 723.72C610.71 725.8 607.63 726.84 602.51 726.84C597.47 726.84 594.39 725.76 593.27 723.6C592.71 722.4 592.35 721.36 592.19 720.48C592.11 719.52 592.07 718.12 592.07 716.28V644.4C592.07 642.56 592.11 641.2 592.19 640.32C592.35 639.36 592.71 638.28 593.27 637.08C594.39 634.92 597.51 633.84 602.63 633.84C606.47 633.84 609.19 634.52 610.79 635.88C612.15 637 612.87 638.76 612.95 641.16C613.03 641.88 613.07 643 613.07 644.52V682.56C614.51 681.36 616.67 679.32 619.55 676.44C622.51 673.56 624.71 671.52 626.15 670.32L627.59 669.36C630.39 667.2 632.79 666.12 634.79 666.12C636.79 666.12 639.07 667.76 641.63 671.04C644.27 674.24 645.59 676.76 645.59 678.6C645.59 680.44 644.11 682.6 641.15 685.08L629.27 695.16Z" fill="url(#paint3_linear_4773_29397)"/>
<path d="M688.438 693.84C685.318 692.32 683.758 689.56 683.758 685.56C683.758 681.56 685.358 678.76 688.558 677.16C715.998 660.92 731.758 651.56 735.838 649.08C739.918 646.6 742.358 645.24 743.158 645C744.038 644.6 745.078 644.4 746.278 644.4C748.438 644.4 750.678 646.36 752.998 650.28C754.518 652.76 755.278 654.64 755.278 655.92C755.278 657.12 754.998 658.16 754.438 659.04C753.718 660.32 752.078 661.8 749.518 663.48C725.678 677.56 713.278 684.92 712.318 685.56L749.518 707.64C751.038 708.52 752.118 709.24 752.758 709.8C754.518 711.24 755.398 712.8 755.398 714.48C755.398 716.08 754.678 718.04 753.238 720.36C751.878 722.6 750.638 724.2 749.518 725.16C748.398 726.12 747.238 726.6 746.038 726.6C744.438 726.6 742.358 725.84 739.798 724.32L688.438 693.84Z" fill="url(#paint4_linear_4773_29397)"/>
<path d="M778.312 727.8C777.672 729.16 777.152 730.16 776.752 730.8C776.432 731.44 775.832 732.04 774.952 732.6C774.152 733.24 773.072 733.56 771.712 733.56C770.352 733.56 768.352 732.96 765.712 731.76C763.072 730.56 761.272 729.48 760.312 728.52C759.432 727.64 758.992 726.64 758.992 725.52C758.992 724.4 759.472 722.4 760.432 719.52L799.072 638.76C800.592 635.72 801.952 633.96 803.152 633.48C803.792 633.16 804.712 633 805.912 633C807.192 633 809.232 633.64 812.032 634.92C816.352 637 818.512 639.28 818.512 641.76C818.512 642.8 817.952 644.8 816.832 647.76L778.312 727.8Z" fill="url(#paint5_linear_4773_29397)"/>
<path d="M888.876 677.16C892.076 678.76 893.676 681.56 893.676 685.56C893.676 689.56 892.116 692.32 888.996 693.84L837.756 724.32C833.676 726.96 830.396 727.24 827.916 725.16C826.796 724.2 825.636 722.76 824.436 720.84C822.836 718.2 822.036 716.28 822.036 715.08C822.036 713.88 822.276 712.84 822.756 711.96C823.636 710.6 825.356 709.16 827.916 707.64L865.236 685.56L828.036 663.48C826.596 662.6 825.516 661.88 824.796 661.32C823.036 659.8 822.156 658.16 822.156 656.4C822.156 654.8 822.836 652.88 824.196 650.64C826.676 646.48 828.996 644.4 831.156 644.4C833.076 644.4 835.236 645.16 837.636 646.68L888.876 677.16Z" fill="url(#paint6_linear_4773_29397)"/>
<path d="M98.2 638.88C100.04 638.88 101.4 638.96 102.28 639.12C103.24 639.2 104.28 639.56 105.4 640.2C106.6 640.84 107.44 641.92 107.92 643.44C108.4 644.96 108.64 647 108.64 649.56C108.64 652.12 108.4 654.16 107.92 655.68C107.44 657.2 106.6 658.28 105.4 658.92C104.2 659.48 103.12 659.84 102.16 660C101.28 660.08 99.88 660.12 97.96 660.12H61.24V672.24H84.88C86.8 672.24 88.2 672.32 89.08 672.48C90.04 672.56 91.12 672.92 92.32 673.56C94.4 674.76 95.44 677.92 95.44 683.04C95.44 688.64 93.92 691.96 90.88 693C89.6 693.4 87.56 693.6 84.76 693.6H61.24V716.28C61.24 718.2 61.16 719.6 61 720.48C60.92 721.36 60.56 722.4 59.92 723.6C58.8 725.76 55.68 726.84 50.56 726.84C44.96 726.84 41.68 725.32 40.72 722.28C40.24 721 40 718.96 40 716.16V649.44C40 645.36 40.76 642.6 42.28 641.16C43.8 639.64 46.68 638.88 50.92 638.88H98.2Z" stroke="white" stroke-width="40" mask="url(#path-2-outside-1_4773_29397)"/>
<path d="M114.062 674.16C114.062 672.32 114.103 670.96 114.183 670.08C114.343 669.12 114.702 668.04 115.262 666.84C116.382 664.76 119.502 663.72 124.622 663.72C128.462 663.72 131.183 664.4 132.783 665.76C134.143 666.88 134.863 668.6 134.943 670.92C135.023 671.72 135.062 672.88 135.062 674.4V716.4C135.062 718.24 134.983 719.64 134.823 720.6C134.743 721.48 134.383 722.52 133.743 723.72C132.703 725.8 129.623 726.84 124.503 726.84C119.463 726.84 116.382 725.76 115.262 723.6C114.702 722.4 114.343 721.36 114.183 720.48C114.103 719.6 114.062 718.2 114.062 716.28V674.16ZM133.743 651.96C133.183 653.08 132.142 653.88 130.622 654.36C129.102 654.84 127.063 655.08 124.503 655.08C122.023 655.08 120.023 654.84 118.503 654.36C116.983 653.88 115.902 653.04 115.262 651.84C114.702 650.64 114.343 649.6 114.183 648.72C114.103 647.76 114.062 646.36 114.062 644.52C114.062 642.68 114.103 641.32 114.183 640.44C114.343 639.48 114.702 638.44 115.262 637.32C116.382 635.16 119.502 634.08 124.622 634.08C129.662 634.08 132.703 635.16 133.743 637.32C134.383 638.52 134.743 639.6 134.823 640.56C134.983 641.44 135.062 642.8 135.062 644.64C135.062 646.48 134.983 647.88 134.823 648.84C134.743 649.72 134.383 650.76 133.743 651.96Z" stroke="white" stroke-width="40" mask="url(#path-2-outside-1_4773_29397)"/>
<path d="M188.448 695.16L201.768 708.6C204.648 711.48 206.088 713.96 206.088 716.04C206.088 718.04 204.648 720.48 201.768 723.36C198.888 726.16 196.448 727.56 194.448 727.56C192.448 727.56 190.008 726.12 187.128 723.24L173.928 709.92L160.608 723.24C157.728 726.12 155.288 727.56 153.288 727.56C151.368 727.56 148.928 726.16 145.968 723.36C143.088 720.48 141.648 718.04 141.648 716.04C141.648 713.96 143.088 711.48 145.968 708.6L159.288 695.16L145.968 681.72C143.088 678.84 141.648 676.4 141.648 674.4C141.648 672.32 143.088 669.84 145.968 666.96C148.928 664.08 151.368 662.64 153.288 662.64C155.288 662.64 157.728 664.08 160.608 666.96L173.928 680.4L187.128 666.96C190.008 664.08 192.448 662.64 194.448 662.64C196.448 662.64 198.888 664.08 201.768 666.96C204.648 669.84 206.088 672.32 206.088 674.4C206.088 676.4 204.648 678.84 201.768 681.72L188.448 695.16Z" stroke="white" stroke-width="40" mask="url(#path-2-outside-1_4773_29397)"/>
<path d="M249.454 684.84L241.654 684.36V700.92C241.654 703.08 241.974 704.64 242.614 705.6C243.334 706.56 244.614 707.04 246.454 707.04C248.374 707.04 249.814 707.12 250.774 707.28C251.814 707.36 252.894 707.72 254.014 708.36C255.854 709.4 256.774 712.08 256.774 716.4C256.774 721.44 255.654 724.52 253.414 725.64C252.214 726.2 251.134 726.56 250.174 726.72C249.294 726.8 247.974 726.84 246.214 726.84C237.894 726.84 231.574 724.96 227.254 721.2C222.934 717.44 220.774 711.08 220.774 702.12V684.36C219.254 684.6 217.614 684.72 215.854 684.72C214.094 684.72 212.614 684.04 211.414 682.68C210.294 681.32 209.734 679 209.734 675.72C209.734 672.44 209.934 670.08 210.334 668.64C210.734 667.12 211.294 666.04 212.014 665.4C213.294 664.36 214.894 663.84 216.814 663.84L220.774 664.32V651.96C220.774 650.12 220.814 648.76 220.894 647.88C221.054 647 221.454 646.04 222.094 645C223.134 643 226.214 642 231.334 642C236.774 642 240.014 643.48 241.054 646.44C241.454 647.72 241.654 649.76 241.654 652.56V664.32C245.174 664 247.814 663.84 249.574 663.84C251.414 663.84 252.774 663.92 253.654 664.08C254.614 664.16 255.694 664.52 256.894 665.16C258.974 666.2 260.014 669.28 260.014 674.4C260.014 679.44 258.934 682.52 256.774 683.64C255.574 684.2 254.494 684.56 253.534 684.72C252.654 684.8 251.294 684.84 249.454 684.84Z" stroke="white" stroke-width="40" mask="url(#path-2-outside-1_4773_29397)"/>
<path d="M325.257 687.72C325.257 692.6 324.017 696.24 321.537 698.64C319.137 700.96 316.457 702.12 313.497 702.12H285.057C285.057 704.36 286.377 706.24 289.017 707.76C291.657 709.28 294.297 710.04 296.937 710.04C301.577 710.04 305.217 709.56 307.857 708.6L309.177 708.12C311.097 707.24 312.697 706.8 313.977 706.8C316.537 706.8 318.737 708.6 320.577 712.2C321.617 714.36 322.137 716.2 322.137 717.72C322.137 724.84 313.617 728.4 296.577 728.4C290.657 728.4 285.377 727.4 280.737 725.4C276.177 723.32 272.617 720.6 270.057 717.24C265.017 710.76 262.497 703.52 262.497 695.52C262.497 685.44 265.737 677.4 272.217 671.4C278.777 665.32 286.937 662.28 296.697 662.28C307.817 662.28 315.977 666.2 321.177 674.04C323.897 678.2 325.257 682.76 325.257 687.72ZM299.937 691.2C302.977 691.2 304.497 689.92 304.497 687.36C304.497 685.52 303.777 684.04 302.337 682.92C300.977 681.8 298.977 681.24 296.337 681.24C293.777 681.24 291.217 682.32 288.657 684.48C286.097 686.56 284.817 688.8 284.817 691.2H299.937Z" stroke="white" stroke-width="40" mask="url(#path-2-outside-1_4773_29397)"/>
<path d="M376.046 664.32C377.566 664.8 378.806 665.64 379.766 666.84C380.806 667.96 381.326 669.8 381.326 672.36C381.326 674.92 380.566 677.72 379.046 680.76C377.526 683.8 375.326 685.32 372.446 685.32C371.006 685.32 369.606 685 368.246 684.36C366.966 683.72 365.246 683.4 363.086 683.4C360.926 683.4 358.886 684.16 356.966 685.68C355.126 687.2 354.206 689.04 354.206 691.2V716.4C354.206 718.24 354.126 719.64 353.966 720.6C353.886 721.48 353.526 722.52 352.886 723.72C351.686 725.8 348.566 726.84 343.526 726.84C339.686 726.84 336.926 726.16 335.246 724.8C333.966 723.68 333.246 721.96 333.086 719.64C333.086 718.84 333.086 717.68 333.086 716.16V674.04C333.086 672.2 333.126 670.84 333.206 669.96C333.366 669 333.726 667.96 334.286 666.84C335.406 664.68 338.526 663.6 343.646 663.6C348.446 663.6 351.446 664.52 352.646 666.36C353.526 667.64 353.966 668.96 353.966 670.32C354.366 669.76 354.926 669.08 355.646 668.28C356.446 667.48 358.086 666.4 360.566 665.04C363.046 663.68 365.206 663 367.046 663C368.966 663 370.566 663.12 371.846 663.36C373.126 663.52 374.526 663.84 376.046 664.32Z" stroke="white" stroke-width="40" mask="url(#path-2-outside-1_4773_29397)"/>
<path d="M424.377 718.92C421.337 722.92 416.497 724.92 409.857 724.92C403.217 724.92 396.977 721.88 391.137 715.8C385.377 709.64 382.497 702.48 382.497 694.32C382.497 686.16 385.417 679 391.257 672.84C397.097 666.68 403.497 663.6 410.457 663.6C413.177 663.6 415.657 664.12 417.897 665.16C420.137 666.12 421.657 667.04 422.457 667.92C423.337 668.72 424.017 669.48 424.497 670.2C424.737 667.96 425.537 666.28 426.897 665.16C428.337 663.96 430.617 663.36 433.737 663.36C436.857 663.36 439.137 663.6 440.577 664.08C442.017 664.56 443.017 665.4 443.577 666.6C444.217 667.72 444.577 668.72 444.657 669.6C444.817 670.48 444.897 671.84 444.897 673.68V723.36C444.897 732.56 441.697 739.96 435.297 745.56C428.897 751.24 421.697 754.08 413.697 754.08C407.617 754.08 401.817 752.6 396.297 749.64C390.777 746.68 388.017 744 388.017 741.6C388.017 738.48 389.217 735.72 391.617 733.32C393.137 731.64 394.297 730.48 395.097 729.84C395.977 729.2 396.977 728.88 398.097 728.88C399.217 728.88 400.377 729.36 401.577 730.32C405.417 733.28 409.577 734.76 414.057 734.76C417.097 734.76 419.577 733.56 421.497 731.16C423.417 728.76 424.377 725.88 424.377 722.52V718.92ZM403.017 694.44C403.017 697 404.017 699.32 406.017 701.4C408.097 703.48 410.577 704.52 413.457 704.52C416.417 704.52 418.857 703.48 420.777 701.4C422.697 699.24 423.657 696.92 423.657 694.44C423.657 691.88 422.737 689.52 420.897 687.36C419.057 685.12 416.577 684 413.457 684C410.337 684 407.817 685.08 405.897 687.24C403.977 689.4 403.017 691.8 403.017 694.44Z" stroke="white" stroke-width="40" mask="url(#path-2-outside-1_4773_29397)"/>
<path d="M515.452 687.72C515.452 692.6 514.212 696.24 511.732 698.64C509.332 700.96 506.652 702.12 503.692 702.12H475.252C475.252 704.36 476.572 706.24 479.212 707.76C481.852 709.28 484.492 710.04 487.132 710.04C491.772 710.04 495.412 709.56 498.052 708.6L499.372 708.12C501.292 707.24 502.892 706.8 504.172 706.8C506.732 706.8 508.932 708.6 510.772 712.2C511.812 714.36 512.332 716.2 512.332 717.72C512.332 724.84 503.812 728.4 486.772 728.4C480.852 728.4 475.572 727.4 470.932 725.4C466.372 723.32 462.812 720.6 460.252 717.24C455.212 710.76 452.692 703.52 452.692 695.52C452.692 685.44 455.932 677.4 462.412 671.4C468.972 665.32 477.132 662.28 486.892 662.28C498.012 662.28 506.172 666.2 511.372 674.04C514.092 678.2 515.452 682.76 515.452 687.72ZM490.132 691.2C493.172 691.2 494.692 689.92 494.692 687.36C494.692 685.52 493.972 684.04 492.532 682.92C491.172 681.8 489.172 681.24 486.532 681.24C483.972 681.24 481.412 682.32 478.852 684.48C476.292 686.56 475.012 688.8 475.012 691.2H490.132Z" stroke="white" stroke-width="40" mask="url(#path-2-outside-1_4773_29397)"/>
<path d="M584.241 687.72C584.241 692.6 583.001 696.24 580.521 698.64C578.121 700.96 575.441 702.12 572.481 702.12H544.041C544.041 704.36 545.361 706.24 548.001 707.76C550.641 709.28 553.281 710.04 555.921 710.04C560.561 710.04 564.201 709.56 566.841 708.6L568.161 708.12C570.081 707.24 571.681 706.8 572.961 706.8C575.521 706.8 577.721 708.6 579.561 712.2C580.601 714.36 581.121 716.2 581.121 717.72C581.121 724.84 572.601 728.4 555.561 728.4C549.641 728.4 544.361 727.4 539.721 725.4C535.161 723.32 531.601 720.6 529.041 717.24C524.001 710.76 521.481 703.52 521.481 695.52C521.481 685.44 524.721 677.4 531.201 671.4C537.761 665.32 545.921 662.28 555.681 662.28C566.801 662.28 574.961 666.2 580.161 674.04C582.881 678.2 584.241 682.76 584.241 687.72ZM558.921 691.2C561.961 691.2 563.481 689.92 563.481 687.36C563.481 685.52 562.761 684.04 561.321 682.92C559.961 681.8 557.961 681.24 555.321 681.24C552.761 681.24 550.201 682.32 547.641 684.48C545.081 686.56 543.801 688.8 543.801 691.2H558.921Z" stroke="white" stroke-width="40" mask="url(#path-2-outside-1_4773_29397)"/>
<path d="M629.27 695.16L645.23 708.36C647.23 710.04 648.47 711.32 648.95 712.2C649.51 713.08 649.79 713.92 649.79 714.72C649.79 716.64 648.55 719.24 646.07 722.52C643.35 725.88 640.95 727.56 638.87 727.56C637.11 727.56 634.67 726.4 631.55 724.08L630.35 723.24C628.51 721.72 625.67 719.08 621.83 715.32C617.99 711.48 615.07 708.76 613.07 707.16V716.4C613.07 718.24 612.99 719.64 612.83 720.6C612.75 721.48 612.39 722.52 611.75 723.72C610.71 725.8 607.63 726.84 602.51 726.84C597.47 726.84 594.39 725.76 593.27 723.6C592.71 722.4 592.35 721.36 592.19 720.48C592.11 719.52 592.07 718.12 592.07 716.28V644.4C592.07 642.56 592.11 641.2 592.19 640.32C592.35 639.36 592.71 638.28 593.27 637.08C594.39 634.92 597.51 633.84 602.63 633.84C606.47 633.84 609.19 634.52 610.79 635.88C612.15 637 612.87 638.76 612.95 641.16C613.03 641.88 613.07 643 613.07 644.52V682.56C614.51 681.36 616.67 679.32 619.55 676.44C622.51 673.56 624.71 671.52 626.15 670.32L627.59 669.36C630.39 667.2 632.79 666.12 634.79 666.12C636.79 666.12 639.07 667.76 641.63 671.04C644.27 674.24 645.59 676.76 645.59 678.6C645.59 680.44 644.11 682.6 641.15 685.08L629.27 695.16Z" stroke="white" stroke-width="40" mask="url(#path-2-outside-1_4773_29397)"/>
<path d="M688.438 693.84C685.318 692.32 683.758 689.56 683.758 685.56C683.758 681.56 685.358 678.76 688.558 677.16C715.998 660.92 731.758 651.56 735.838 649.08C739.918 646.6 742.358 645.24 743.158 645C744.038 644.6 745.078 644.4 746.278 644.4C748.438 644.4 750.678 646.36 752.998 650.28C754.518 652.76 755.278 654.64 755.278 655.92C755.278 657.12 754.998 658.16 754.438 659.04C753.718 660.32 752.078 661.8 749.518 663.48C725.678 677.56 713.278 684.92 712.318 685.56L749.518 707.64C751.038 708.52 752.118 709.24 752.758 709.8C754.518 711.24 755.398 712.8 755.398 714.48C755.398 716.08 754.678 718.04 753.238 720.36C751.878 722.6 750.638 724.2 749.518 725.16C748.398 726.12 747.238 726.6 746.038 726.6C744.438 726.6 742.358 725.84 739.798 724.32L688.438 693.84Z" stroke="white" stroke-width="40" mask="url(#path-2-outside-1_4773_29397)"/>
<path d="M778.312 727.8C777.672 729.16 777.152 730.16 776.752 730.8C776.432 731.44 775.832 732.04 774.952 732.6C774.152 733.24 773.072 733.56 771.712 733.56C770.352 733.56 768.352 732.96 765.712 731.76C763.072 730.56 761.272 729.48 760.312 728.52C759.432 727.64 758.992 726.64 758.992 725.52C758.992 724.4 759.472 722.4 760.432 719.52L799.072 638.76C800.592 635.72 801.952 633.96 803.152 633.48C803.792 633.16 804.712 633 805.912 633C807.192 633 809.232 633.64 812.032 634.92C816.352 637 818.512 639.28 818.512 641.76C818.512 642.8 817.952 644.8 816.832 647.76L778.312 727.8Z" stroke="white" stroke-width="40" mask="url(#path-2-outside-1_4773_29397)"/>
<path d="M888.876 677.16C892.076 678.76 893.676 681.56 893.676 685.56C893.676 689.56 892.116 692.32 888.996 693.84L837.756 724.32C833.676 726.96 830.396 727.24 827.916 725.16C826.796 724.2 825.636 722.76 824.436 720.84C822.836 718.2 822.036 716.28 822.036 715.08C822.036 713.88 822.276 712.84 822.756 711.96C823.636 710.6 825.356 709.16 827.916 707.64L865.236 685.56L828.036 663.48C826.596 662.6 825.516 661.88 824.796 661.32C823.036 659.8 822.156 658.16 822.156 656.4C822.156 654.8 822.836 652.88 824.196 650.64C826.676 646.48 828.996 644.4 831.156 644.4C833.076 644.4 835.236 645.16 837.636 646.68L888.876 677.16Z" stroke="white" stroke-width="40" mask="url(#path-2-outside-1_4773_29397)"/>
<ellipse cx="413.395" cy="694.844" rx="10.5" ry="10" fill="white"/>
<path d="M902.99 219.26C901.91 218.591 900.7 218.155 899.44 217.983C898.179 217.81 896.895 217.904 895.674 218.258C896.705 216.248 896.948 213.929 896.358 211.751C895.768 209.572 894.385 207.688 892.477 206.463C890.57 205.238 888.272 204.759 886.029 205.118C883.786 205.477 881.757 206.649 880.333 208.407C879.445 209.498 877.88 211.77 875.998 214.656L875.697 214.506C879.272 202.775 882.073 190.825 884.082 178.732C886.25 165.735 889.267 152.891 893.114 140.283C893.482 139.142 893.62 137.941 893.52 136.747C893.42 135.554 893.085 134.391 892.533 133.327C891.98 132.262 891.223 131.316 890.302 130.542C889.382 129.768 888.317 129.182 887.168 128.816C886.019 128.451 884.81 128.314 883.608 128.414C882.406 128.513 881.235 128.846 880.163 129.394C879.091 129.943 878.138 130.695 877.359 131.609C876.58 132.523 875.989 133.581 875.622 134.721C871.521 148.052 868.308 161.635 866.002 175.384C864.813 181.707 863.654 187.881 862.223 194.055C862.976 185.624 863.488 176.819 863.985 168.133C864.647 156.592 865.279 145.709 866.408 135.977C866.688 133.575 865.995 131.16 864.482 129.265C862.968 127.37 860.759 126.149 858.339 125.871C855.92 125.594 853.488 126.282 851.58 127.785C849.672 129.288 848.442 131.482 848.163 133.884C846.974 144.125 846.296 155.8 845.649 167.087C845.107 176.385 844.55 185.848 843.722 194.683L834.554 195.775C832.545 196.021 830.673 196.917 829.229 198.324C827.784 199.732 826.846 201.573 826.56 203.563L822.616 231.205C822.394 232.73 822.567 234.286 823.117 235.727C823.667 237.168 824.578 238.446 825.762 239.442C825.393 241.474 825.207 243.535 825.205 245.601C825.2 249.459 825.851 253.29 827.132 256.932C825.679 256.998 824.277 257.479 823.094 258.319C821.911 259.159 820.998 260.322 820.466 261.666C819.935 263.01 819.806 264.478 820.097 265.893C820.387 267.308 821.085 268.609 822.104 269.639L815.601 279.371C814.04 278.863 812.355 278.874 810.802 279.405C809.249 279.936 807.913 280.957 806.999 282.312C806.085 283.667 805.642 285.282 805.738 286.911C805.834 288.539 806.464 290.091 807.532 291.331L744.079 385.153C743.552 385.153 743.01 385.063 742.468 385.063C739.659 385.062 736.866 385.491 734.188 386.334L627.184 299.179V292.676C627.181 285.999 626.759 279.329 625.919 272.704L627.575 272.465L630.435 272.016L631.941 271.732C632.663 271.568 632.467 271.538 632.483 271.478V271.284V270.536L632.407 269.041L632.257 266.052L631.911 260.072C631.444 256.08 630.902 252.074 630.405 248.112C629.908 244.151 628.674 240.189 627.771 236.153C626.867 232.117 625.467 228.319 624.188 224.403C618.941 209.547 611.399 195.592 601.832 183.038L665.06 135.618L660.86 125.632L662.967 124.451L661.462 121.835L659.655 122.837L655.967 114.076L567.148 149.955C565.793 149.013 564.423 148.086 563.038 147.189C548.807 137.978 532.986 131.455 516.37 127.949L512.893 140.387C498.758 136.198 484.106 133.979 469.356 133.795V41.7365C471.349 41.1936 473.076 39.9513 474.216 38.24C475.357 36.5287 475.833 34.4646 475.557 32.4309C475.282 30.3972 474.272 28.5319 472.716 27.1811C471.161 25.8304 469.165 25.0859 467.098 25.0859C465.032 25.0859 463.035 25.8304 461.48 27.1811C459.924 28.5319 458.915 30.3972 458.639 32.4309C458.363 34.4646 458.839 36.5287 459.98 38.24C461.12 39.9513 462.847 41.1936 464.84 41.7365V133.795C450.095 133.992 435.449 136.216 421.319 140.402L417.841 127.979C401.222 131.477 385.4 138 371.173 147.219C369.773 148.116 368.403 149.043 367.048 149.985L278.229 114.106L274.586 122.792L272.674 121.716L271.169 124.332L273.397 125.572L269.136 135.618L332.364 183.038C322.803 195.595 315.261 209.549 310.008 224.403C308.744 228.319 307.509 232.221 306.426 236.153C305.342 240.085 304.589 244.106 303.806 248.112C303.023 252.119 302.692 256.14 302.225 260.072L301.894 266.052L301.729 269.041L301.653 270.536V271.284V271.463C301.653 271.538 301.473 271.568 302.21 271.732L303.716 272.016L306.576 272.465L308.217 272.704C307.377 279.329 306.954 285.999 306.952 292.676V299.075L199.948 386.244C197.27 385.401 194.477 384.973 191.668 384.974C191.111 384.974 190.584 384.974 190.042 385.063L126.634 291.301C127.702 290.061 128.332 288.509 128.428 286.881C128.524 285.252 128.081 283.638 127.167 282.283C126.253 280.928 124.917 279.907 123.364 279.376C121.811 278.845 120.126 278.833 118.565 279.342L112.002 269.624C113.026 268.595 113.727 267.293 114.021 265.875C114.314 264.458 114.187 262.986 113.655 261.639C113.122 260.292 112.208 259.128 111.022 258.287C109.836 257.446 108.429 256.965 106.974 256.903C108.255 253.26 108.906 249.429 108.9 245.571C108.894 243.505 108.703 241.444 108.328 239.412C109.517 238.422 110.431 237.147 110.984 235.708C111.537 234.269 111.711 232.714 111.49 231.19L107.531 203.533C107.25 201.545 106.315 199.705 104.872 198.299C103.429 196.893 101.559 196.001 99.5519 195.76L90.3839 194.653C89.5409 185.818 88.9989 176.355 88.457 167.042C87.7946 155.755 87.1172 144.08 85.9429 133.854C85.5777 131.522 84.3175 129.421 82.4265 127.991C80.5356 126.561 78.1606 125.914 75.7995 126.184C73.4384 126.455 71.2745 127.623 69.7612 129.443C68.248 131.263 67.503 133.594 67.6823 135.947C68.8114 145.664 69.4436 156.562 70.1211 168.088C70.6179 176.774 71.1297 185.564 71.8824 194.011C70.4523 187.837 69.2931 181.662 68.1038 175.354C65.7995 161.605 62.586 148.021 58.4842 134.692C58.1165 133.551 57.5262 132.493 56.7469 131.579C55.9676 130.665 55.0147 129.913 53.9425 129.364C52.8703 128.816 51.6999 128.483 50.498 128.384C49.2961 128.285 48.0863 128.421 46.9377 128.787C45.7891 129.152 44.7242 129.738 43.8038 130.512C42.8833 131.286 42.1254 132.232 41.5732 133.297C41.021 134.361 40.6854 135.524 40.5856 136.717C40.4858 137.911 40.6237 139.112 40.9914 140.253C44.8385 152.861 47.8557 165.705 50.0238 178.702C52.0216 190.805 54.8125 202.765 58.3789 214.506L58.0778 214.656C56.196 211.77 54.6304 209.498 53.7422 208.407C52.3187 206.649 50.2894 205.477 48.0464 205.118C45.8035 204.759 43.5062 205.238 41.5984 206.463C39.6907 207.688 38.3081 209.572 37.7177 211.751C37.1273 213.929 37.3711 216.248 38.4021 218.258C36.6238 217.759 34.735 217.804 32.9828 218.387C31.2305 218.97 29.6963 220.065 28.5806 221.528C27.465 222.991 26.8199 224.755 26.7297 226.588C26.6395 228.421 27.1083 230.238 28.0749 231.803C29.8595 234.615 31.4343 237.552 32.7869 240.593C34.5064 244.731 36.824 248.599 39.6666 252.074C41.1778 259.996 45.4199 267.148 51.6643 272.301C57.9087 277.454 65.7654 280.287 73.8846 280.313C73.5917 281.421 73.559 282.58 73.789 283.703C74.0189 284.825 74.5055 285.879 75.211 286.785C75.9166 287.691 76.8223 288.424 77.8582 288.927C78.8942 289.43 80.0327 289.69 81.1858 289.686H81.788L89.014 300.375C88.2991 301.511 87.9047 302.817 87.8719 304.156C87.8392 305.495 88.1693 306.818 88.8279 307.987C89.4864 309.155 90.4492 310.127 91.6154 310.8C92.7816 311.473 94.1084 311.822 95.4571 311.811C95.8606 311.806 96.2632 311.771 96.6615 311.707L164.149 411.509C164.149 411.853 164.149 412.196 164.149 412.555C164.165 419.367 166.735 425.929 171.359 430.961C175.982 435.993 182.327 439.135 189.157 439.774C195.987 440.412 202.811 438.501 208.299 434.414C213.787 430.328 217.545 424.357 218.841 417.668L308.277 344.7C309.236 352.377 310.771 359.973 312.869 367.423L304.363 369.845C305.437 374.28 306.696 378.665 308.142 383H278.967L297.604 414.678H322.564C328.446 424.678 335.369 434.038 343.218 442.603C362.563 463.683 386.958 479.567 414.138 488.782L417.916 475.985C423.798 477.87 429.785 479.417 435.846 480.62L429.914 509.786H504.237L498.29 480.62C504.347 479.419 510.328 477.871 516.205 475.985L519.983 488.782C547.167 479.575 571.563 463.689 590.903 442.603C598.752 434.034 605.68 424.675 611.572 414.678H636.532L655.169 383H625.994C627.5 378.665 628.704 374.285 629.758 369.845L621.267 367.423C623.375 359.972 624.929 352.377 625.919 344.7L715.386 417.548C716.646 424.267 720.391 430.275 725.884 434.392C731.378 438.509 738.223 440.438 745.075 439.799C751.928 439.161 758.292 436.001 762.918 430.94C767.544 425.88 770.098 419.285 770.077 412.451C770.077 412.092 770.077 411.748 770.077 411.404L837.565 311.602C837.963 311.667 838.366 311.702 838.769 311.707C840.118 311.718 841.445 311.368 842.611 310.695C843.777 310.023 844.74 309.051 845.398 307.882C846.057 306.713 846.387 305.39 846.354 304.051C846.322 302.712 845.927 301.406 845.212 300.271L852.438 289.582H853.04C854.187 289.583 855.319 289.323 856.349 288.824C857.379 288.324 858.281 287.597 858.985 286.699C859.69 285.8 860.178 284.754 860.413 283.639C860.648 282.525 860.624 281.372 860.342 280.268C868.469 280.247 876.335 277.414 882.588 272.258C888.841 267.102 893.09 259.944 894.605 252.014C897.45 248.546 899.768 244.683 901.484 240.548C902.803 237.511 904.343 234.573 906.091 231.758C907.348 229.692 907.727 227.215 907.146 224.871C906.564 222.528 905.07 220.509 902.99 219.26Z" fill="url(#paint7_linear_4773_29397)" stroke="white" stroke-width="32" stroke-miterlimit="10"/>
<path d="M468.583 33.4922H464.066V144.207H468.583V33.4922Z" fill="#231F20"/>
<path d="M466.344 41.9526C468.032 41.9526 469.683 41.4554 471.086 40.5241C472.49 39.5927 473.584 38.2689 474.23 36.72C474.876 35.1712 475.045 33.4669 474.716 31.8226C474.387 30.1784 473.574 28.6681 472.38 27.4826C471.186 26.2972 469.665 25.4899 468.01 25.1629C466.354 24.8358 464.638 25.0037 463.078 25.6452C461.518 26.2868 460.185 27.3732 459.247 28.7671C458.309 30.161 457.809 31.7998 457.809 33.4763C457.809 34.5894 458.029 35.6916 458.458 36.72C458.887 37.7484 459.516 38.6828 460.309 39.4699C461.909 41.0595 464.08 41.9526 466.344 41.9526Z" fill="#231F20"/>
<path d="M503.471 509.62H429.148L437.127 470.438H495.507L503.471 509.62Z" fill="url(#paint8_linear_4773_29397)"/>
<path d="M339.292 414.538H296.839L278.172 382.875H329.988L339.292 414.538Z" fill="url(#paint9_linear_4773_29397)"/>
<path d="M593.293 414.538H635.746L654.383 382.875H602.581L593.293 414.538Z" fill="url(#paint10_linear_4773_29397)"/>
<path d="M351.997 198.18L268.387 135.542L277.419 114L381.579 156.097L351.997 198.18Z" fill="url(#paint11_linear_4773_29397)"/>
<path d="M271.9 121.578L270.395 124.194L357.151 172.75L358.657 170.134L271.9 121.578Z" fill="white"/>
<path d="M580.609 198.18L664.204 135.542L655.172 114L551.027 156.097L580.609 198.18Z" fill="url(#paint12_linear_4773_29397)"/>
<path d="M660.627 121.719L573.84 170.214L575.345 172.831L662.132 124.335L660.627 121.719Z" fill="white"/>
<path d="M466.35 472.992C426.7 472.992 388.673 457.35 360.636 429.508C332.599 401.666 316.848 363.905 316.848 324.53V292.673C316.848 253.298 332.599 215.536 360.636 187.694C388.673 159.852 426.7 144.211 466.35 144.211C506.001 144.211 544.027 159.852 572.064 187.694C600.101 215.536 615.852 253.298 615.852 292.673V324.545C615.848 363.917 600.096 401.675 572.059 429.514C544.022 457.353 505.998 472.992 466.35 472.992Z" fill="#231F20"/>
<path d="M466.334 483.487C423.883 483.452 383.181 466.693 353.16 436.889C323.139 407.085 306.251 366.671 306.203 324.516V292.659C306.203 250.497 323.069 210.062 353.091 180.249C383.113 150.436 423.831 133.688 466.289 133.688C508.746 133.688 549.464 150.436 579.486 180.249C609.508 210.062 626.374 250.497 626.374 292.659V324.531C626.322 366.668 609.445 407.065 579.444 436.863C549.443 466.661 508.766 483.428 466.334 483.487ZM466.334 154.691C429.493 154.723 394.17 169.268 368.117 195.134C342.064 221 327.409 256.075 327.369 292.659V324.531C327.413 361.111 342.07 396.18 368.123 422.041C394.176 447.901 429.497 462.441 466.334 462.469C503.165 462.429 538.477 447.882 564.521 422.019C590.564 396.157 605.213 361.091 605.253 324.516V292.659C605.217 256.081 590.57 221.011 564.526 195.146C538.482 169.28 503.168 154.731 466.334 154.691Z" fill="#231F20"/>
<path d="M413.396 488.627C386.212 479.42 361.816 463.534 342.476 442.448C323.551 421.839 310.184 396.809 303.621 369.69L332.721 361.438C340.081 382.401 352.66 401.176 369.287 416.018C385.435 430.437 404.996 440.563 426.147 445.453L413.396 488.627Z" fill="#231F20"/>
<path d="M506.473 445.408C527.625 440.522 547.186 430.395 563.332 415.973C579.957 401.148 592.536 382.387 599.898 361.438L629.013 369.734C622.438 396.849 609.073 421.876 590.158 442.493C570.813 463.572 546.418 479.457 519.239 488.671L506.473 445.408Z" fill="#231F20"/>
<path d="M314.856 273.761L305.823 272.446L302.963 271.982L301.458 271.698C300.72 271.549 300.931 271.519 300.901 271.444V271.265V270.517L300.976 269.022L301.126 266.032L301.473 260.053C301.924 256.061 302.481 252.055 302.978 248.093C303.475 244.132 304.709 240.17 305.613 236.134C306.516 232.097 307.916 228.285 309.18 224.384C320.361 192.645 341.845 165.495 370.255 147.2C384.485 137.984 400.306 131.457 416.923 127.945L429.041 171.298C417.512 175.555 406.422 180.901 395.922 187.264C385.398 193.699 375.68 201.351 366.973 210.062C358.071 218.969 350.328 228.948 343.925 239.766C342.42 242.577 340.794 245.328 339.304 248.183C337.813 251.038 336.549 253.998 335.239 256.973L331.656 266.092L330.151 270.786L329.428 273.163L329.052 274.344L328.871 274.942V275.092C328.871 275.092 329.007 275.211 328.254 275.167L326.749 275.047L323.933 274.733L314.856 273.761Z" fill="#231F20"/>
<path d="M617.759 273.745L608.726 274.732L605.836 275.016L604.33 275.135C603.578 275.135 603.758 275.135 603.713 275.061V274.911L603.532 274.313L603.156 273.132L602.433 270.755L600.928 266.061L597.345 256.942C596.035 253.952 594.605 251.052 593.281 248.152C591.956 245.252 590.104 242.546 588.659 239.735C582.256 228.917 574.513 218.938 565.611 210.031C556.904 201.32 547.187 193.667 536.662 187.233C526.163 180.87 515.072 175.524 503.543 171.267L515.662 127.914C532.278 131.425 548.099 137.953 562.329 147.169C590.739 165.464 612.223 192.614 623.404 224.352C624.668 228.269 625.888 232.171 626.972 236.103C628.056 240.034 628.823 244.041 629.606 248.062C630.389 252.083 630.72 256.09 631.112 260.021L631.458 266.001L631.608 268.991L631.699 270.486V271.233V271.413C631.699 271.413 631.879 271.518 631.142 271.682L629.636 271.966L626.776 272.415L617.759 273.745Z" fill="#231F20"/>
<path d="M466.337 423.971C437.99 423.971 410.803 412.788 390.759 392.883C370.714 372.978 359.453 345.981 359.453 317.83V299.443C359.453 271.279 370.72 244.268 390.774 224.353C410.829 204.438 438.029 193.25 466.39 193.25C494.751 193.25 521.951 204.438 542.006 224.353C562.06 244.268 573.327 271.279 573.327 299.443V317.771C573.335 331.723 570.573 345.54 565.198 358.431C559.824 371.323 551.942 383.035 542.005 392.899C532.068 402.763 520.27 410.584 507.286 415.916C494.303 421.247 480.387 423.985 466.337 423.971Z" fill="url(#paint13_linear_4773_29397)"/>
<path d="M456.636 234.367H475.95C495.595 234.644 514.342 242.588 528.136 256.482C541.93 270.375 549.663 289.102 549.663 308.613C549.663 328.124 541.93 346.85 528.136 360.744C514.342 374.638 495.595 382.582 475.95 382.859H456.636C446.728 382.998 436.891 381.181 427.697 377.513C418.502 373.844 410.134 368.397 403.078 361.489C396.022 354.581 390.419 346.349 386.595 337.272C382.77 328.194 380.801 318.453 380.801 308.613C380.801 298.773 382.77 289.031 386.595 279.954C390.419 270.877 396.022 262.645 403.078 255.737C410.134 248.828 418.502 243.382 427.697 239.713C436.891 236.045 446.728 234.227 456.636 234.367Z" fill="white"/>
<path d="M503.477 323.823C500.682 323.823 498.002 322.721 496.026 320.758C494.05 318.796 492.939 316.134 492.939 313.359C492.774 306.468 489.901 299.914 484.935 295.098C479.969 290.282 473.303 287.586 466.361 287.586C459.42 287.586 452.754 290.282 447.787 295.098C442.821 299.914 439.948 306.468 439.783 313.359C439.783 316.146 438.668 318.819 436.684 320.79C434.699 322.761 432.007 323.868 429.2 323.868C426.393 323.868 423.702 322.761 421.717 320.79C419.732 318.819 418.617 316.146 418.617 313.359C418.839 300.93 423.967 289.085 432.897 280.374C441.826 271.662 453.844 266.781 466.361 266.781C478.879 266.781 490.896 271.662 499.826 280.374C508.755 289.085 513.883 300.93 514.105 313.359C514.105 314.74 513.83 316.109 513.295 317.384C512.76 318.66 511.975 319.817 510.987 320.79C509.999 321.763 508.827 322.532 507.538 323.053C506.249 323.573 504.869 323.835 503.477 323.823Z" fill="#231F20"/>
<path d="M189.354 435.506C188.468 435.506 187.583 435.446 186.705 435.326C184.204 434.962 181.807 434.081 179.67 432.739C177.533 431.398 175.704 429.626 174.3 427.538L71.0742 274.74L101.182 254.648L193.329 390.942L327.461 281.692L350.433 309.602L200.871 431.424C197.626 434.073 193.554 435.516 189.354 435.506Z" fill="#231F20"/>
<path d="M190.915 439.772C196.376 439.775 201.715 438.169 206.257 435.158C210.8 432.148 214.341 427.867 216.433 422.857C218.525 417.848 219.074 412.334 218.01 407.015C216.947 401.696 214.318 396.809 210.458 392.973C206.597 389.137 201.677 386.525 196.321 385.465C190.965 384.406 185.413 384.948 180.367 387.023C175.322 389.098 171.009 392.612 167.974 397.121C164.94 401.63 163.32 406.931 163.32 412.355C163.318 415.954 164.031 419.519 165.416 422.846C166.802 426.172 168.835 429.194 171.397 431.741C173.96 434.287 177.002 436.306 180.351 437.684C183.7 439.062 187.29 439.772 190.915 439.772Z" fill="url(#paint14_linear_4773_29397)"/>
<path d="M73.1783 280.231C80.0883 280.228 86.8422 278.19 92.5862 274.376C98.3301 270.562 102.806 265.142 105.448 258.801C108.091 252.461 108.781 245.485 107.431 238.755C106.081 232.025 102.752 225.844 97.8647 220.993C92.9775 216.142 86.7517 212.839 79.9743 211.502C73.1969 210.164 66.1723 210.852 59.7886 213.479C53.4049 216.105 47.9488 220.552 44.1102 226.258C40.2715 231.964 38.2227 238.672 38.2227 245.533C38.2227 250.091 39.1269 254.604 40.8838 258.815C42.6407 263.026 45.2157 266.851 48.4618 270.073C51.708 273.296 55.5616 275.851 59.8025 277.594C64.0434 279.337 68.5886 280.233 73.1783 280.231Z" fill="#231F20"/>
<path d="M73.1071 237.681C71.3556 237.68 69.6408 237.183 68.1637 236.248C66.6866 235.314 65.5084 233.98 64.7672 232.404C55.7347 213.224 52.6185 196.421 49.2765 178.587C47.1123 165.588 44.095 152.744 40.244 140.137C39.555 137.848 39.7982 135.382 40.9212 133.269C42.0443 131.156 43.9575 129.565 46.2494 128.838C48.5413 128.112 51.0289 128.307 53.1771 129.383C55.3253 130.459 56.9626 132.329 57.7369 134.591C61.8448 147.92 65.0633 161.503 67.3715 175.253C70.4877 191.862 73.3932 207.558 81.4471 224.661C82.0957 226.05 82.3822 227.578 82.2803 229.106C82.1784 230.634 81.6913 232.112 80.8639 233.404C80.0364 234.696 78.8952 235.761 77.545 236.501C76.1949 237.24 74.6792 237.631 73.1372 237.637L73.1071 237.681Z" fill="#58595B"/>
<path d="M59.0496 244.208C57.394 244.211 55.7683 243.77 54.345 242.931C52.9217 242.091 51.7538 240.884 50.9655 239.439C47.2357 232.649 43.1349 226.066 38.6813 219.72C37.9281 218.784 37.368 217.709 37.033 216.558C36.698 215.407 36.5947 214.201 36.7289 213.01C36.8631 211.819 37.2322 210.666 37.8152 209.616C38.3981 208.567 39.1835 207.642 40.1265 206.894C41.0695 206.146 42.1517 205.59 43.3111 205.257C44.4706 204.924 45.6847 204.822 46.8841 204.955C48.0835 205.088 49.2447 205.455 50.3014 206.034C51.3582 206.613 52.2898 207.393 53.043 208.329C58.1795 215.516 62.8748 223.005 67.1035 230.753C67.8538 232.141 68.23 233.698 68.1954 235.273C68.1608 236.848 67.7166 238.387 66.9061 239.741C66.0955 241.095 64.9461 242.218 63.5695 243C62.1929 243.783 60.6358 244.199 59.0496 244.208Z" fill="#58595B"/>
<path d="M48.9673 258.804C47.6944 258.806 46.4356 258.541 45.2733 258.025C44.1111 257.51 43.0716 256.757 42.223 255.815C37.8486 251.401 34.3683 246.194 31.9712 240.477C30.6589 237.436 29.119 234.498 27.3646 231.686C26.732 230.666 26.3079 229.533 26.1164 228.35C25.925 227.168 25.97 225.959 26.2489 224.794C26.5277 223.628 27.035 222.529 27.7418 221.558C28.4485 220.588 29.3409 219.765 30.3679 219.136C31.3949 218.508 32.5365 218.087 33.7274 217.897C34.9184 217.707 36.1353 217.751 37.3089 218.028C39.679 218.588 41.7282 220.059 43.0058 222.119C45.1782 225.61 47.095 229.252 48.7415 233.017C50.314 236.945 52.687 240.507 55.7115 243.481C56.9233 244.784 57.7265 246.408 58.0229 248.157C58.3193 249.905 58.096 251.701 57.3804 253.326C56.6647 254.95 55.4878 256.332 53.9936 257.302C52.4994 258.273 50.7527 258.79 48.9673 258.79V258.804Z" fill="#58595B"/>
<path d="M84.6618 231.001C82.6332 230.998 80.6623 230.33 79.0559 229.1C77.4496 227.869 76.2978 226.146 75.7798 224.199C71.7152 208.816 70.5109 188.081 69.3517 168.034C68.6893 156.493 68.0571 145.61 66.913 135.878C66.7336 133.524 67.4787 131.193 68.9919 129.373C70.5051 127.553 72.6691 126.386 75.0302 126.115C77.3913 125.844 79.7662 126.492 81.6572 127.922C83.5482 129.352 84.8083 131.453 85.1736 133.785C86.3629 144.025 87.0403 155.701 87.6876 166.988C88.8016 186.138 89.9458 205.946 93.5587 219.549C93.8647 220.71 93.9372 221.919 93.772 223.107C93.6068 224.295 93.2072 225.439 92.5961 226.473C91.9851 227.508 91.1745 228.413 90.2108 229.136C89.2471 229.859 88.1492 230.386 86.9801 230.687C86.2243 230.891 85.445 230.996 84.6618 231.001Z" fill="#58595B"/>
<path d="M101.601 241.527C99.4001 241.513 97.2774 240.714 95.6195 239.277C93.9617 237.839 92.879 235.858 92.5687 233.694L89.5579 212.959L79.6523 211.778C78.4543 211.635 77.2964 211.258 76.2448 210.671C75.1932 210.083 74.2685 209.295 73.5234 208.353C72.7783 207.41 72.2275 206.331 71.9023 205.177C71.5772 204.023 71.4841 202.817 71.6285 201.627C71.7728 200.438 72.1516 199.288 72.7434 198.243C73.3352 197.199 74.1284 196.281 75.0775 195.541C76.0267 194.801 77.1133 194.254 78.2754 193.931C79.4375 193.608 80.6522 193.516 81.8502 193.659L98.771 195.692C100.778 195.938 102.648 196.831 104.092 198.236C105.537 199.641 106.476 201.479 106.765 203.466L110.709 231.122C110.881 232.308 110.816 233.517 110.517 234.677C110.218 235.838 109.691 236.929 108.967 237.888C108.242 238.846 107.334 239.653 106.295 240.262C105.256 240.871 104.106 241.271 102.911 241.437C102.477 241.497 102.039 241.527 101.601 241.527Z" fill="#231F20"/>
<path d="M80.433 289.515C78.8152 289.538 77.2329 289.043 75.9206 288.103C74.6084 287.163 73.6361 285.828 73.1478 284.297C72.6595 282.765 72.6813 281.117 73.2099 279.599C73.7384 278.08 74.7457 276.771 76.0823 275.866L101.509 258.136C102.321 257.57 103.238 257.168 104.207 256.953C105.176 256.739 106.178 256.716 107.156 256.886C108.134 257.056 109.068 257.416 109.906 257.944C110.744 258.473 111.469 259.16 112.039 259.967C112.609 260.774 113.014 261.685 113.23 262.647C113.446 263.609 113.469 264.604 113.298 265.575C113.127 266.546 112.764 267.474 112.232 268.306C111.7 269.138 111.007 269.858 110.195 270.424L84.7685 288.154C83.4965 289.036 81.9839 289.51 80.433 289.515Z" fill="url(#paint15_linear_4773_29397)"/>
<path d="M94.6908 311.613C93.073 311.636 91.4907 311.141 90.1784 310.201C88.8662 309.261 87.8939 307.926 87.4056 306.395C86.9173 304.863 86.9391 303.215 87.4677 301.697C87.9963 300.178 89.0035 298.869 90.3401 297.964L115.782 280.249C117.423 279.107 119.453 278.659 121.426 279.004C123.4 279.349 125.155 280.458 126.304 282.088C127.454 283.717 127.905 285.734 127.558 287.693C127.211 289.653 126.094 291.395 124.453 292.537L99.0263 310.252C97.7569 311.139 96.2426 311.614 94.6908 311.613Z" fill="url(#paint16_linear_4773_29397)"/>
<path d="M743.193 435.501C738.998 435.507 734.932 434.065 731.692 431.419L582.129 309.597L605.132 281.746L739.264 390.996L831.425 254.703L861.533 274.795L758.262 427.533C756.855 429.619 755.023 431.39 752.883 432.729C750.744 434.068 748.345 434.946 745.842 435.306C744.965 435.438 744.08 435.503 743.193 435.501Z" fill="#231F20"/>
<path d="M741.676 439.772C747.137 439.775 752.477 438.169 757.019 435.158C761.561 432.148 765.103 427.867 767.195 422.857C769.287 417.848 769.835 412.334 768.772 407.015C767.708 401.696 765.08 396.809 761.219 392.973C757.359 389.137 752.439 386.525 747.083 385.465C741.727 384.406 736.175 384.948 731.129 387.023C726.083 389.098 721.771 392.612 718.736 397.121C715.702 401.63 714.082 406.931 714.082 412.355C714.08 415.954 714.792 419.519 716.178 422.846C717.564 426.172 719.596 429.194 722.159 431.741C724.721 434.287 727.764 436.306 731.113 437.684C734.462 439.062 738.051 439.772 741.676 439.772Z" fill="url(#paint17_linear_4773_29397)"/>
<path d="M859.429 280.231C866.339 280.231 873.095 278.196 878.841 274.383C884.587 270.571 889.065 265.152 891.71 258.812C894.354 252.471 895.046 245.495 893.698 238.764C892.35 232.034 889.022 225.851 884.136 220.999C879.249 216.146 873.023 212.841 866.245 211.503C859.468 210.164 852.442 210.851 846.058 213.477C839.673 216.103 834.216 220.551 830.377 226.257C826.537 231.962 824.488 238.671 824.488 245.533C824.488 254.736 828.169 263.561 834.722 270.068C841.275 276.575 850.162 280.231 859.429 280.231Z" fill="#231F20"/>
<path d="M859.482 237.676C857.94 237.669 856.425 237.277 855.075 236.538C853.725 235.798 852.584 234.734 851.755 233.443C850.927 232.152 850.438 230.675 850.334 229.147C850.229 227.62 850.512 226.091 851.157 224.7C859.181 207.598 862.132 191.901 865.248 175.367C867.551 161.618 870.764 148.034 874.868 134.705C875.178 133.506 875.732 132.382 876.495 131.402C877.257 130.422 878.213 129.607 879.303 129.006C880.393 128.405 881.595 128.03 882.836 127.906C884.077 127.781 885.33 127.909 886.519 128.281C887.709 128.653 888.809 129.261 889.754 130.07C890.699 130.878 891.468 131.869 892.015 132.982C892.561 134.095 892.874 135.307 892.933 136.544C892.993 137.781 892.798 139.017 892.36 140.176C888.522 152.782 885.505 165.62 883.328 178.611C880.001 196.401 876.84 213.204 867.837 232.429C867.095 234.005 865.914 235.336 864.433 236.266C862.952 237.196 861.234 237.685 859.482 237.676Z" fill="#58595B"/>
<path d="M873.556 244.194C871.969 244.19 870.409 243.777 869.03 242.995C867.651 242.214 866.499 241.09 865.688 239.735C864.876 238.38 864.433 236.838 864.4 235.262C864.368 233.685 864.748 232.127 865.503 230.74C869.726 222.988 874.421 215.5 879.563 208.316C880.293 207.317 881.22 206.476 882.287 205.844C883.354 205.211 884.539 204.8 885.77 204.636C887.002 204.472 888.254 204.557 889.452 204.887C890.649 205.218 891.766 205.786 892.736 206.557C893.706 207.329 894.508 208.288 895.093 209.376C895.679 210.465 896.036 211.66 896.143 212.889C896.25 214.119 896.104 215.357 895.715 216.529C895.326 217.701 894.702 218.782 893.88 219.707C889.439 226.058 885.343 232.64 881.61 239.426C880.822 240.865 879.658 242.067 878.241 242.906C876.824 243.745 875.206 244.19 873.556 244.194Z" fill="#58595B"/>
<path d="M883.624 258.79C881.839 258.79 880.092 258.273 878.598 257.302C877.104 256.332 875.927 254.95 875.211 253.326C874.496 251.701 874.272 249.905 874.569 248.157C874.865 246.408 875.669 244.784 876.88 243.481C879.905 240.507 882.278 236.945 883.85 233.017C885.497 229.252 887.414 225.61 889.586 222.119C890.864 220.059 892.913 218.588 895.283 218.028C897.653 217.469 900.15 217.868 902.224 219.136C904.298 220.405 905.78 222.44 906.343 224.794C906.906 227.147 906.505 229.627 905.227 231.686C903.473 234.498 901.933 237.436 900.621 240.477C898.223 246.194 894.743 251.401 890.369 255.815C889.519 256.754 888.479 257.505 887.316 258.017C886.154 258.53 884.896 258.793 883.624 258.79Z" fill="#58595B"/>
<path d="M847.934 231.001C847.147 230.996 846.363 230.896 845.6 230.702C843.244 230.084 841.23 228.562 840.002 226.471C838.774 224.38 838.433 221.891 839.052 219.549C842.65 205.946 843.794 186.138 844.908 166.988C845.555 155.701 846.248 144.025 847.422 133.785C847.787 131.453 849.047 129.352 850.938 127.922C852.829 126.492 855.204 125.844 857.565 126.115C859.926 126.386 862.09 127.553 863.604 129.373C865.117 131.193 865.862 133.524 865.683 135.878C864.554 145.595 863.921 156.493 863.244 168.049C862.085 188.096 860.88 208.816 856.816 224.199C856.3 226.148 855.149 227.872 853.542 229.103C851.935 230.333 849.963 231.001 847.934 231.001Z" fill="#58595B"/>
<path d="M830.992 241.528C830.559 241.528 830.127 241.498 829.698 241.438C828.502 241.271 827.352 240.872 826.312 240.263C825.272 239.654 824.363 238.848 823.637 237.89C822.912 236.931 822.383 235.841 822.082 234.68C821.782 233.519 821.714 232.31 821.885 231.123L825.844 203.467C826.127 201.48 827.062 199.641 828.505 198.236C829.947 196.83 831.817 195.937 833.822 195.693L850.743 193.66C851.941 193.516 853.156 193.607 854.319 193.929C855.481 194.251 856.568 194.797 857.518 195.537C858.468 196.276 859.262 197.194 859.855 198.237C860.447 199.281 860.827 200.431 860.973 201.621C861.118 202.81 861.026 204.017 860.702 205.171C860.377 206.326 859.827 207.405 859.083 208.348C858.339 209.292 857.414 210.08 856.363 210.669C855.312 211.257 854.154 211.634 852.956 211.779L843.036 212.96L840.025 233.68C839.718 235.846 838.637 237.831 836.978 239.272C835.32 240.713 833.196 241.513 830.992 241.528Z" fill="#231F20"/>
<path d="M852.189 289.515C850.638 289.51 849.126 289.036 847.854 288.154L822.427 270.424C821.615 269.858 820.922 269.138 820.39 268.306C819.858 267.474 819.496 266.546 819.324 265.575C819.153 264.604 819.176 263.609 819.392 262.647C819.608 261.685 820.013 260.774 820.583 259.967C821.153 259.16 821.878 258.473 822.716 257.944C823.554 257.416 824.488 257.056 825.466 256.886C826.444 256.716 827.446 256.739 828.415 256.953C829.384 257.168 830.301 257.57 831.113 258.136L856.54 275.866C857.876 276.771 858.884 278.08 859.412 279.599C859.941 281.117 859.963 282.765 859.474 284.297C858.986 285.828 858.014 287.163 856.702 288.103C855.389 289.043 853.807 289.538 852.189 289.515Z" fill="url(#paint18_linear_4773_29397)"/>
<path d="M837.903 311.613C836.356 311.618 834.845 311.142 833.583 310.252L808.141 292.537C807.329 291.972 806.636 291.253 806.104 290.422C805.571 289.591 805.208 288.664 805.036 287.693C804.864 286.723 804.886 285.729 805.102 284.767C805.317 283.805 805.72 282.895 806.29 282.088C806.859 281.281 807.583 280.593 808.42 280.064C809.257 279.535 810.191 279.175 811.168 279.004C812.145 278.833 813.146 278.855 814.115 279.069C815.083 279.283 816 279.684 816.813 280.249L842.254 297.964C843.591 298.869 844.598 300.178 845.127 301.697C845.655 303.215 845.677 304.863 845.189 306.395C844.7 307.926 843.728 309.261 842.416 310.201C841.103 311.141 839.521 311.636 837.903 311.613Z" fill="url(#paint19_linear_4773_29397)"/>
<defs>
<linearGradient id="paint0_linear_4773_29397" x1="54.2279" y1="693.54" x2="893.326" y2="715.823" gradientUnits="userSpaceOnUse">
<stop stop-color="#83F3D3"/>
<stop offset="1" stop-color="#569C8B"/>
</linearGradient>
<linearGradient id="paint1_linear_4773_29397" x1="54.2279" y1="693.54" x2="893.326" y2="715.823" gradientUnits="userSpaceOnUse">
<stop stop-color="#83F3D3"/>
<stop offset="1" stop-color="#569C8B"/>
</linearGradient>
<linearGradient id="paint2_linear_4773_29397" x1="54.2279" y1="693.54" x2="893.326" y2="715.823" gradientUnits="userSpaceOnUse">
<stop stop-color="#83F3D3"/>
<stop offset="1" stop-color="#569C8B"/>
</linearGradient>
<linearGradient id="paint3_linear_4773_29397" x1="54.2279" y1="693.54" x2="893.326" y2="715.823" gradientUnits="userSpaceOnUse">
<stop stop-color="#83F3D3"/>
<stop offset="1" stop-color="#569C8B"/>
</linearGradient>
<linearGradient id="paint4_linear_4773_29397" x1="54.2279" y1="693.54" x2="893.326" y2="715.823" gradientUnits="userSpaceOnUse">
<stop stop-color="#83F3D3"/>
<stop offset="1" stop-color="#569C8B"/>
</linearGradient>
<linearGradient id="paint5_linear_4773_29397" x1="54.2279" y1="693.54" x2="893.326" y2="715.823" gradientUnits="userSpaceOnUse">
<stop stop-color="#83F3D3"/>
<stop offset="1" stop-color="#569C8B"/>
</linearGradient>
<linearGradient id="paint6_linear_4773_29397" x1="54.2279" y1="693.54" x2="893.326" y2="715.823" gradientUnits="userSpaceOnUse">
<stop stop-color="#83F3D3"/>
<stop offset="1" stop-color="#569C8B"/>
</linearGradient>
<linearGradient id="paint7_linear_4773_29397" x1="41.397" y1="267.436" x2="907.62" y2="273.364" gradientUnits="userSpaceOnUse">
<stop stop-color="#83F3D3"/>
<stop offset="1" stop-color="#569C8B"/>
</linearGradient>
<linearGradient id="paint8_linear_4773_29397" x1="430.387" y1="490.029" x2="503.488" y2="490.551" gradientUnits="userSpaceOnUse">
<stop stop-color="#83F3D3"/>
<stop offset="1" stop-color="#569C8B"/>
</linearGradient>
<linearGradient id="paint9_linear_4773_29397" x1="279.191" y1="398.706" x2="339.306" y2="399.143" gradientUnits="userSpaceOnUse">
<stop stop-color="#83F3D3"/>
<stop offset="1" stop-color="#569C8B"/>
</linearGradient>
<linearGradient id="paint10_linear_4773_29397" x1="594.311" y1="398.706" x2="654.397" y2="399.143" gradientUnits="userSpaceOnUse">
<stop stop-color="#83F3D3"/>
<stop offset="1" stop-color="#569C8B"/>
</linearGradient>
<linearGradient id="paint11_linear_4773_29397" x1="270.273" y1="156.09" x2="381.608" y2="156.654" gradientUnits="userSpaceOnUse">
<stop stop-color="#83F3D3"/>
<stop offset="1" stop-color="#569C8B"/>
</linearGradient>
<linearGradient id="paint12_linear_4773_29397" x1="552.914" y1="156.09" x2="664.233" y2="156.654" gradientUnits="userSpaceOnUse">
<stop stop-color="#83F3D3"/>
<stop offset="1" stop-color="#569C8B"/>
</linearGradient>
<linearGradient id="paint13_linear_4773_29397" x1="363.018" y1="308.61" x2="573.385" y2="309.345" gradientUnits="userSpaceOnUse">
<stop stop-color="#83F3D3"/>
<stop offset="1" stop-color="#569C8B"/>
</linearGradient>
<linearGradient id="paint14_linear_4773_29397" x1="164.241" y1="412.355" x2="218.554" y2="412.561" gradientUnits="userSpaceOnUse">
<stop stop-color="#83F3D3"/>
<stop offset="1" stop-color="#569C8B"/>
</linearGradient>
<linearGradient id="paint15_linear_4773_29397" x1="73.4738" y1="273.144" x2="113.422" y2="273.331" gradientUnits="userSpaceOnUse">
<stop stop-color="#83F3D3"/>
<stop offset="1" stop-color="#569C8B"/>
</linearGradient>
<linearGradient id="paint16_linear_4773_29397" x1="87.7316" y1="295.252" x2="127.683" y2="295.439" gradientUnits="userSpaceOnUse">
<stop stop-color="#83F3D3"/>
<stop offset="1" stop-color="#569C8B"/>
</linearGradient>
<linearGradient id="paint17_linear_4773_29397" x1="715.002" y1="412.355" x2="769.315" y2="412.561" gradientUnits="userSpaceOnUse">
<stop stop-color="#83F3D3"/>
<stop offset="1" stop-color="#569C8B"/>
</linearGradient>
<linearGradient id="paint18_linear_4773_29397" x1="819.888" y1="273.144" x2="859.836" y2="273.331" gradientUnits="userSpaceOnUse">
<stop stop-color="#83F3D3"/>
<stop offset="1" stop-color="#569C8B"/>
</linearGradient>
<linearGradient id="paint19_linear_4773_29397" x1="805.599" y1="295.252" x2="845.55" y2="295.439" gradientUnits="userSpaceOnUse">
<stop stop-color="#83F3D3"/>
<stop offset="1" stop-color="#569C8B"/>
</linearGradient>
</defs>
</svg>
