<svg width="122" height="122" viewBox="0 0 122 122" fill="none" xmlns="http://www.w3.org/2000/svg">
<path d="M29.0971 86.1268C34.5901 84.9928 39.8873 83.4512 45.3817 81.0627C47.0986 80.2377 49.1097 79.3968 50.7779 78.4704C53.1818 77.1902 55.2425 75.8238 57.5489 74.34C60.4926 72.2991 62.4793 70.3121 64.7629 67.9903C70.4483 61.2697 63.4637 60.2268 61.695 64.0817C59.926 67.9369 59.807 69.7449 54.3134 73.261C52.6944 74.2896 51.2716 75.0983 49.6522 76.1274C43.765 79.5825 37.9771 81.3599 32.2878 82.7135C30.9144 82.9968 29.4921 83.1788 28.1189 83.4623C22.7247 84.1724 18.4096 83.9886 14.6835 83.1451C7.03545 81.6782 3.87511 78.52 3.41503 72.257C-2.67629 84.0864 9.87127 90.0967 29.0971 86.1268Z" fill="white" fill-opacity="0.75"/>
<path d="M26.6048 76.5428C29.3997 76.7052 32.1457 76.7648 35.7748 76.1502C40.1888 75.284 44.6526 73.8919 49.117 71.2456C50.7098 70.3338 51.9322 69.4288 53.2699 68.3653C54.6076 67.3014 52.199 66.163 47.3103 69.2168C46.1756 69.8361 45.0113 70.3997 43.8217 70.9056C38.0332 73.3101 32.7373 73.5972 29.0112 72.754C24.158 71.4492 22.8369 68.0711 23.8213 63.8361C24.3627 61.8207 25.4921 59.7732 26.5731 57.6239C30.6492 50.399 40.9043 43.4662 49.3448 36.5273C27.8584 46.4736 13.573 63.8689 19.0082 72.0418C20.9217 74.3796 24.0056 76.2389 26.6048 76.5428Z" fill="white" fill-opacity="0.75"/>
<path d="M35.7438 57.2318C34.2706 59.8203 33.5329 62.0557 34.1196 63.9054C34.4617 65.2458 35.2452 66.2489 36.7648 66.898C37.8436 67.2577 41.6036 68.3931 45.6903 66.728C48.0379 65.7712 48.8721 63.5798 46.9233 63.8821C40.3785 64.5783 37.6622 61.351 41.0405 56.3173C41.728 55.2348 42.219 54.3718 42.9554 53.3912C44.87 51.0922 47.4222 48.8631 50.5131 46.5004C55.8619 42.5516 62.0923 39.1823 68.5192 36.2207C70.285 35.4976 72.0507 34.7746 74.0621 33.9338C84.2163 29.9339 92.9949 28.7261 101.468 27.6451C104.148 27.2238 104.893 26.8619 103.369 26.4631C87.1638 24.1291 56.9471 35.3846 41.1435 50.8764C38.886 53.0889 37.1192 55.0664 35.7438 57.2318ZM71.6731 72.9503C73.1452 71.6158 74.4213 70.5016 75.5993 69.1832C77.3664 67.2054 78.3975 65.5815 79.5762 63.636C80.411 62.2316 80.6626 60.7814 80.8055 59.9106C80.9483 59.0398 81.1894 53.9521 73.3529 54.788C71.2358 54.8647 67.0214 56.435 65.8114 56.8782C64.6014 57.3212 63.9442 58.8975 65.9665 58.8527C73.2038 57.5877 77.3813 58.5735 75.0162 63.5695C74.4753 64.9579 73.6403 66.362 72.5602 67.8843C71.2835 69.6259 69.3695 71.2981 67.2594 73.1894C65.591 74.7428 63.5788 76.2112 61.5181 77.5776C59.8987 78.6059 58.3285 79.7364 56.4155 80.7813C52.8912 82.8499 49.2553 84.7222 45.5244 86.3895C44.0038 86.9943 42.7772 87.5835 41.2569 88.1889C29.9252 92.8802 20.6077 93.5943 10.5039 95.8147C22.8096 98.8064 47.7763 90.4488 64.214 78.7905C66.9132 76.867 69.3662 75.0617 71.6731 72.9503Z" fill="white" fill-opacity="0.75"/>
<path d="M81.9048 37.0595C79.9919 37.4767 78.4224 37.9802 76.5585 38.4994C73.4193 39.5057 70.1329 40.8339 66.895 42.264C60.7628 45.2096 54.9241 48.7669 51.1446 52.8395C47.7258 56.689 48.4882 59.7382 49.5867 60.8313C50.7981 61.9133 53.2939 60.5559 53.0125 58.1286C52.939 54.6096 57.9787 49.3058 65.5186 45.6838C67.2358 44.8591 68.6583 44.0504 70.4244 43.327C76.2128 40.9225 92.3844 37.3406 101.761 40.6875C111.138 44.0344 110.162 49.8887 108.809 54.731C119.219 39.9498 105.006 31.7303 81.9048 37.0595Z" fill="white" fill-opacity="0.75"/>
<path d="M95.523 51.5871C95.0337 49.9409 94.1035 48.6325 92.3882 47.5757C90.0848 45.9235 86.9475 45.0481 81.9949 45.4212C77.0905 45.8959 71.5972 47.0302 66.1029 50.0461C63.2709 51.5347 59.6719 54.3041 58.694 55.1985C57.7161 56.0929 60.387 56.6183 63.2169 54.3711C69.1027 50.6295 76.5965 47.9702 81.7468 48.6753C82.7274 48.8312 83.659 48.8852 84.6396 49.0413C86.0613 49.487 87.4827 49.9325 88.4628 50.7157C89.6389 51.9062 90.5202 53.1129 90.7152 54.7748C91.0053 59.1497 88.3527 64.3111 83.2477 70.0237C76.9647 77.0547 67.1521 83.0224 58.418 89.3499C79.8547 80.5569 96.64 63.9663 95.9137 53.6567C95.8647 52.9274 95.5713 52.3161 95.523 51.5871Z" fill="white" fill-opacity="0.75"/>
<path d="M9.78827 33.7797C12.4187 33.7797 14.5512 31.6473 14.5512 29.0168C14.5512 26.3863 12.4187 24.2539 9.78827 24.2539C7.1578 24.2539 5.02539 26.3863 5.02539 29.0168C5.02539 31.6473 7.1578 33.7797 9.78827 33.7797Z" fill="#83F3D3"/>
<path d="M32.1027 110.791C34.7332 110.791 36.8656 108.659 36.8656 106.029C36.8656 103.398 34.7332 101.266 32.1027 101.266C29.4723 101.266 27.3398 103.398 27.3398 106.029C27.3398 108.659 29.4723 110.791 32.1027 110.791Z" fill="#83F3D3"/>
<path d="M8.97213 51.7255C9.79056 51.7255 10.454 51.062 10.454 50.2436C10.454 49.4252 9.79056 48.7617 8.97213 48.7617C8.1537 48.7617 7.49023 49.4252 7.49023 50.2436C7.49023 51.062 8.1537 51.7255 8.97213 51.7255Z" fill="#83F3D3"/>
<path d="M19.5854 17.1669C20.4038 17.1669 21.0673 16.5034 21.0673 15.685C21.0673 14.8666 20.4038 14.2031 19.5854 14.2031C18.767 14.2031 18.1035 14.8666 18.1035 15.685C18.1035 16.5034 18.767 17.1669 19.5854 17.1669Z" fill="#83F3D3"/>
<path d="M93.6027 97.9867C94.421 97.9867 95.0843 97.3233 95.0843 96.5051C95.0843 95.6868 94.421 95.0234 93.6027 95.0234C92.7844 95.0234 92.1211 95.6868 92.1211 96.5051C92.1211 97.3233 92.7844 97.9867 93.6027 97.9867Z" fill="#83F3D3"/>
<path d="M64.7573 25.331C65.5757 25.331 66.2392 24.6675 66.2392 23.8491C66.2392 23.0307 65.5757 22.3672 64.7573 22.3672C63.9389 22.3672 63.2754 23.0307 63.2754 23.8491C63.2754 24.6675 63.9389 25.331 64.7573 25.331Z" fill="#83F3D3"/>
<path d="M77.8187 17.1804C79.397 17.1804 80.6765 15.9009 80.6765 14.3226C80.6765 12.7443 79.397 11.4648 77.8187 11.4648C76.2404 11.4648 74.9609 12.7443 74.9609 14.3226C74.9609 15.9009 76.2404 17.1804 77.8187 17.1804Z" fill="#83F3D3"/>
<path d="M117.278 60.9929C118.856 60.9929 120.135 59.7134 120.135 58.1351C120.135 56.5568 118.856 55.2773 117.278 55.2773C115.699 55.2773 114.42 56.5568 114.42 58.1351C114.42 59.7134 115.699 60.9929 117.278 60.9929Z" fill="#83F3D3"/>
<path d="M99.5885 72.4231C101.167 72.4231 102.447 71.1435 102.447 69.5651C102.447 67.9866 101.167 66.707 99.5885 66.707C98.0101 66.707 96.7305 67.9866 96.7305 69.5651C96.7305 71.1435 98.0101 72.4231 99.5885 72.4231Z" fill="#83F3D3"/>
<path d="M48.43 110.79C50.0084 110.79 51.2878 109.51 51.2878 107.932C51.2878 106.354 50.0084 105.074 48.43 105.074C46.8517 105.074 45.5723 106.354 45.5723 107.932C45.5723 109.51 46.8517 110.79 48.43 110.79Z" fill="#83F3D3"/>
<path d="M69.2026 96.5497C70.0793 96.5497 70.7899 95.839 70.7899 94.9624C70.7899 94.0857 70.0793 93.375 69.2026 93.375C68.3259 93.375 67.6152 94.0857 67.6152 94.9624C67.6152 95.839 68.3259 96.5497 69.2026 96.5497Z" fill="#83F3D3"/>
</svg>
