<svg width="1440" height="835" viewBox="0 0 1440 835" fill="none" xmlns="http://www.w3.org/2000/svg">
<path d="M0 0H1440V782.546C881.591 854.178 564.673 850.771 0 782.546V0Z" fill="url(#paint0_linear_4669_32852)"/>
<g clip-path="url(#clip0_4669_32852)">
<path d="M106.181 276.979C109.601 277.929 112.071 280.589 113.021 283.819C113.211 284.199 113.591 284.199 113.781 283.819C114.731 280.399 117.391 277.929 120.621 276.979C121.001 276.789 121.001 276.409 120.621 276.219C117.391 275.269 114.731 272.609 113.781 269.379C113.591 268.999 113.211 268.999 113.021 269.379C112.071 272.609 109.411 275.269 106.181 276.219C105.611 276.409 105.611 276.789 106.181 276.979ZM139.621 287.429C134.491 286.099 130.501 282.109 129.171 276.979C128.981 276.409 128.221 276.409 128.031 276.979C126.701 282.109 122.711 286.099 117.581 287.429C117.011 287.619 117.011 288.379 117.581 288.569C122.521 289.899 126.511 293.889 128.031 299.019C128.221 299.589 128.981 299.589 129.171 299.019C130.501 294.079 134.491 290.089 139.621 288.569C140.191 288.379 140.191 287.619 139.621 287.429ZM116.821 299.019C113.401 298.069 110.931 295.409 109.981 292.179C109.791 291.799 109.411 291.799 109.221 292.179C108.271 295.599 105.611 298.069 102.381 299.019C102.001 299.209 102.001 299.589 102.381 299.779C105.801 300.729 108.271 303.389 109.221 306.619C109.411 306.999 109.791 306.999 109.981 306.619C110.931 303.199 113.591 300.729 116.821 299.779C117.391 299.589 117.391 299.209 116.821 299.019Z" fill="#2A4241"/>
</g>
<path d="M293.425 648.843C296.827 649.787 299.283 652.433 300.228 655.646C300.417 656.024 300.795 656.024 300.984 655.646C301.929 652.244 304.575 649.787 307.787 648.843C308.165 648.654 308.165 648.276 307.787 648.087C304.575 647.142 301.929 644.496 300.984 641.283C300.795 640.906 300.417 640.906 300.228 641.283C299.283 644.496 296.638 647.142 293.425 648.087C292.858 648.276 292.858 648.654 293.425 648.843Z" fill="#2A4241"/>
<path d="M1120.26 636.728C1122.31 637.297 1123.79 638.892 1124.36 640.829C1124.47 641.057 1124.7 641.057 1124.81 640.829C1125.38 638.778 1126.98 637.297 1128.91 636.728C1129.14 636.614 1129.14 636.386 1128.91 636.272C1126.98 635.703 1125.38 634.108 1124.81 632.171C1124.7 631.943 1124.47 631.943 1124.36 632.171C1123.79 634.108 1122.19 635.703 1120.26 636.272C1119.91 636.386 1119.91 636.614 1120.26 636.728Z" fill="#2A4241"/>
<path d="M61.2563 517.728C63.307 518.297 64.788 519.892 65.3576 521.829C65.4715 522.057 65.6994 522.057 65.8133 521.829C66.3829 519.778 67.9778 518.297 69.9146 517.728C70.1424 517.614 70.1424 517.386 69.9146 517.272C67.9778 516.703 66.3829 515.108 65.8133 513.171C65.6994 512.943 65.4715 512.943 65.3576 513.171C64.788 515.108 63.193 516.703 61.2563 517.272C60.9146 517.386 60.9146 517.614 61.2563 517.728Z" fill="#2A4241"/>
<path d="M1322.26 744.728C1324.31 745.297 1325.79 746.892 1326.36 748.829C1326.47 749.057 1326.7 749.057 1326.81 748.829C1327.38 746.778 1328.98 745.297 1330.91 744.728C1331.14 744.614 1331.14 744.386 1330.91 744.272C1328.98 743.703 1327.38 742.108 1326.81 740.171C1326.7 739.943 1326.47 739.943 1326.36 740.171C1325.79 742.108 1324.19 743.703 1322.26 744.272C1321.91 744.386 1321.91 744.614 1322.26 744.728Z" fill="#2A4241"/>
<path d="M814.425 520.843C817.827 521.787 820.283 524.433 821.228 527.646C821.417 528.024 821.795 528.024 821.984 527.646C822.929 524.244 825.575 521.787 828.787 520.843C829.165 520.654 829.165 520.276 828.787 520.087C825.575 519.142 822.929 516.496 821.984 513.283C821.795 512.906 821.417 512.906 821.228 513.283C820.283 516.496 817.638 519.142 814.425 520.087C813.858 520.276 813.858 520.654 814.425 520.843Z" fill="#2A4241"/>
<path d="M1141.43 716.843C1144.83 717.787 1147.28 720.433 1148.23 723.646C1148.42 724.024 1148.8 724.024 1148.98 723.646C1149.93 720.244 1152.57 717.787 1155.79 716.843C1156.17 716.654 1156.17 716.276 1155.79 716.087C1152.57 715.142 1149.93 712.496 1148.98 709.283C1148.8 708.906 1148.42 708.906 1148.23 709.283C1147.28 712.496 1144.64 715.142 1141.43 716.087C1140.86 716.276 1140.86 716.654 1141.43 716.843Z" fill="#2A4241"/>
<path d="M707.425 732.843C710.827 733.787 713.283 736.433 714.228 739.646C714.417 740.024 714.795 740.024 714.984 739.646C715.929 736.244 718.575 733.787 721.787 732.843C722.165 732.654 722.165 732.276 721.787 732.087C718.575 731.142 715.929 728.496 714.984 725.283C714.795 724.906 714.417 724.906 714.228 725.283C713.283 728.496 710.638 731.142 707.425 732.087C706.858 732.276 706.858 732.654 707.425 732.843Z" fill="#2A4241"/>
<path d="M87.4252 90.8426C90.8268 91.7874 93.2835 94.4331 94.2284 97.6457C94.4174 98.0237 94.7953 98.0237 94.9843 97.6457C95.9292 94.2442 98.5749 91.7874 101.787 90.8426C102.165 90.6536 102.165 90.2756 101.787 90.0867C98.5749 89.1418 95.9292 86.4961 94.9843 83.2835C94.7953 82.9055 94.4174 82.9055 94.2284 83.2835C93.2835 86.4961 90.6378 89.1418 87.4252 90.0867C86.8583 90.2756 86.8583 90.6536 87.4252 90.8426Z" fill="#2A4241"/>
<path d="M266.425 183.843C269.827 184.787 272.283 187.433 273.228 190.646C273.417 191.024 273.795 191.024 273.984 190.646C274.929 187.244 277.575 184.787 280.787 183.843C281.165 183.654 281.165 183.276 280.787 183.087C277.575 182.142 274.929 179.496 273.984 176.283C273.795 175.906 273.417 175.906 273.228 176.283C272.283 179.496 269.638 182.142 266.425 183.087C265.858 183.276 265.858 183.654 266.425 183.843Z" fill="#2A4241"/>
<path d="M1373.43 381.843C1376.83 382.787 1379.28 385.433 1380.23 388.646C1380.42 389.024 1380.8 389.024 1380.98 388.646C1381.93 385.244 1384.57 382.787 1387.79 381.843C1388.17 381.654 1388.17 381.276 1387.79 381.087C1384.57 380.142 1381.93 377.496 1380.98 374.283C1380.8 373.906 1380.42 373.906 1380.23 374.283C1379.28 377.496 1376.64 380.142 1373.43 381.087C1372.86 381.276 1372.86 381.654 1373.43 381.843Z" fill="#2A4241"/>
<path d="M1104.43 183.843C1107.83 184.787 1110.28 187.433 1111.23 190.646C1111.42 191.024 1111.8 191.024 1111.98 190.646C1112.93 187.244 1115.57 184.787 1118.79 183.843C1119.17 183.654 1119.17 183.276 1118.79 183.087C1115.57 182.142 1112.93 179.496 1111.98 176.283C1111.8 175.906 1111.42 175.906 1111.23 176.283C1110.28 179.496 1107.64 182.142 1104.43 183.087C1103.86 183.276 1103.86 183.654 1104.43 183.843Z" fill="#2A4241"/>
<path d="M980.347 256.819C975.244 255.496 971.276 251.528 969.953 246.425C969.764 245.858 969.008 245.858 968.819 246.425C967.496 251.528 963.528 255.496 958.425 256.819C957.858 257.008 957.858 257.764 958.425 257.953C963.339 259.276 967.307 263.244 968.819 268.347C969.008 268.914 969.764 268.914 969.953 268.347C971.276 263.433 975.244 259.465 980.347 257.953C980.914 257.764 980.914 257.008 980.347 256.819Z" fill="#2A4241"/>
<path d="M584.347 125.819C579.244 124.496 575.276 120.528 573.953 115.425C573.764 114.858 573.008 114.858 572.819 115.425C571.496 120.528 567.528 124.496 562.425 125.819C561.858 126.008 561.858 126.764 562.425 126.953C567.339 128.276 571.307 132.244 572.819 137.347C573.008 137.914 573.764 137.914 573.953 137.347C575.276 132.433 579.244 128.465 584.347 126.953C584.914 126.764 584.914 126.008 584.347 125.819Z" fill="#2A4241"/>
<path d="M202.347 755.819C197.244 754.496 193.276 750.528 191.953 745.425C191.764 744.858 191.008 744.858 190.819 745.425C189.496 750.528 185.528 754.496 180.425 755.819C179.858 756.008 179.858 756.764 180.425 756.953C185.339 758.276 189.307 762.244 190.819 767.347C191.008 767.914 191.764 767.914 191.953 767.347C193.276 762.433 197.244 758.465 202.347 756.953C202.914 756.764 202.914 756.008 202.347 755.819Z" fill="#2A4241"/>
<defs>
<linearGradient id="paint0_linear_4669_32852" x1="720" y1="0" x2="720" y2="864.336" gradientUnits="userSpaceOnUse">
<stop stop-color="#141A21"/>
<stop offset="1" stop-color="#213636"/>
</linearGradient>
<clipPath id="clip0_4669_32852">
<rect width="38" height="38" fill="white" transform="translate(102 269)"/>
</clipPath>
</defs>
</svg>
