<svg width="1463" height="472" viewBox="0 0 1463 472" fill="none" xmlns="http://www.w3.org/2000/svg">
<path d="M0 0H1463V442.349C895.672 482.841 573.692 480.915 0 442.349V0Z" fill="url(#paint0_linear_4719_32952)"/>
<g clip-path="url(#clip0_4719_32952)">
<path d="M106.179 276.979C109.599 277.929 112.069 280.589 113.019 283.819C113.209 284.199 113.589 284.199 113.779 283.819C114.729 280.399 117.389 277.929 120.619 276.979C120.999 276.789 120.999 276.409 120.619 276.219C117.389 275.269 114.729 272.609 113.779 269.379C113.589 268.999 113.209 268.999 113.019 269.379C112.069 272.609 109.409 275.269 106.179 276.219C105.609 276.409 105.609 276.789 106.179 276.979ZM139.619 287.429C134.489 286.099 130.499 282.109 129.169 276.979C128.979 276.409 128.219 276.409 128.029 276.979C126.699 282.109 122.709 286.099 117.579 287.429C117.009 287.619 117.009 288.379 117.579 288.569C122.519 289.899 126.509 293.889 128.029 299.019C128.219 299.589 128.979 299.589 129.169 299.019C130.499 294.079 134.489 290.089 139.619 288.569C140.189 288.379 140.189 287.619 139.619 287.429ZM116.819 299.019C113.399 298.069 110.929 295.409 109.979 292.179C109.789 291.799 109.409 291.799 109.219 292.179C108.269 295.599 105.609 298.069 102.379 299.019C101.999 299.209 101.999 299.589 102.379 299.779C105.799 300.729 108.269 303.389 109.219 306.619C109.409 306.999 109.789 306.999 109.979 306.619C110.929 303.199 113.589 300.729 116.819 299.779C117.389 299.589 117.389 299.209 116.819 299.019Z" fill="#2A4241"/>
</g>
<path d="M480.975 295.843C484.431 296.787 486.927 299.433 487.887 302.646C488.079 303.024 488.463 303.024 488.655 302.646C489.615 299.244 492.302 296.787 495.566 295.843C495.95 295.654 495.95 295.276 495.566 295.087C492.302 294.142 489.615 291.496 488.655 288.283C488.463 287.906 488.079 287.906 487.887 288.283C486.927 291.496 484.239 294.142 480.975 295.087C480.399 295.276 480.399 295.654 480.975 295.843Z" fill="#2A4241"/>
<path d="M209.546 419.728C211.629 420.297 213.134 421.892 213.712 423.829C213.828 424.057 214.059 424.057 214.175 423.829C214.754 421.778 216.374 420.297 218.342 419.728C218.573 419.614 218.573 419.386 218.342 419.272C216.374 418.703 214.754 417.108 214.175 415.171C214.059 414.943 213.828 414.943 213.712 415.171C213.134 417.108 211.513 418.703 209.546 419.272C209.198 419.386 209.198 419.614 209.546 419.728Z" fill="#2A4241"/>
<path d="M874.143 152.843C877.599 153.787 880.095 156.433 881.055 159.646C881.247 160.024 881.631 160.024 881.823 159.646C882.783 156.244 885.47 153.787 888.734 152.843C889.118 152.654 889.118 152.276 888.734 152.087C885.47 151.142 882.783 148.496 881.823 145.283C881.631 144.906 881.247 144.906 881.055 145.283C880.095 148.496 877.407 151.142 874.143 152.087C873.567 152.276 873.567 152.654 874.143 152.843Z" fill="#2A4241"/>
<path d="M1147.44 407.843C1150.89 408.787 1153.39 411.433 1154.35 414.646C1154.54 415.024 1154.92 415.024 1155.12 414.646C1156.08 411.244 1158.76 408.787 1162.03 407.843C1162.41 407.654 1162.41 407.276 1162.03 407.087C1158.76 406.142 1156.08 403.496 1155.12 400.283C1154.92 399.906 1154.54 399.906 1154.35 400.283C1153.39 403.496 1150.7 406.142 1147.44 407.087C1146.86 407.276 1146.86 407.654 1147.44 407.843Z" fill="#2A4241"/>
<path d="M88.8187 90.8426C92.2745 91.7874 94.7704 94.4331 95.7304 97.6457C95.9224 98.0237 96.3063 98.0237 96.4983 97.6457C97.4583 94.2442 100.146 91.7874 103.41 90.8426C103.794 90.6536 103.794 90.2756 103.41 90.0867C100.146 89.1418 97.4583 86.4961 96.4983 83.2835C96.3063 82.9055 95.9224 82.9055 95.7304 83.2835C94.7704 86.4961 92.0825 89.1418 88.8187 90.0867C88.2427 90.2756 88.2427 90.6536 88.8187 90.8426Z" fill="#2A4241"/>
<path d="M270.674 183.843C274.13 184.787 276.626 187.433 277.586 190.646C277.778 191.024 278.162 191.024 278.354 190.646C279.314 187.244 282.002 184.787 285.265 183.843C285.649 183.654 285.649 183.276 285.265 183.087C282.002 182.142 279.314 179.496 278.354 176.283C278.162 175.906 277.778 175.906 277.586 176.283C276.626 179.496 273.938 182.142 270.674 183.087C270.098 183.276 270.098 183.654 270.674 183.843Z" fill="#2A4241"/>
<path d="M1395.33 381.843C1398.78 382.787 1401.28 385.433 1402.24 388.646C1402.43 389.024 1402.81 389.024 1403.01 388.646C1403.97 385.244 1406.65 382.787 1409.92 381.843C1410.3 381.654 1410.3 381.276 1409.92 381.087C1406.65 380.142 1403.97 377.496 1403.01 374.283C1402.81 373.906 1402.43 373.906 1402.24 374.283C1401.28 377.496 1398.59 380.142 1395.33 381.087C1394.75 381.276 1394.75 381.654 1395.33 381.843Z" fill="#2A4241"/>
<path d="M1122.04 183.843C1125.49 184.787 1127.99 187.433 1128.95 190.646C1129.14 191.024 1129.53 191.024 1129.72 190.646C1130.68 187.244 1133.36 184.787 1136.63 183.843C1137.01 183.654 1137.01 183.276 1136.63 183.087C1133.36 182.142 1130.68 179.496 1129.72 176.283C1129.53 175.906 1129.14 175.906 1128.95 176.283C1127.99 179.496 1125.3 182.142 1122.04 183.087C1121.46 183.276 1121.46 183.654 1122.04 183.843Z" fill="#2A4241"/>
<path d="M995.98 256.819C990.797 255.496 986.765 251.528 985.421 246.425C985.229 245.858 984.461 245.858 984.269 246.425C982.925 251.528 978.893 255.496 973.709 256.819C973.133 257.008 973.133 257.764 973.709 257.953C978.701 259.276 982.733 263.244 984.269 268.347C984.461 268.914 985.229 268.914 985.421 268.347C986.765 263.433 990.797 259.465 995.98 257.953C996.556 257.764 996.556 257.008 995.98 256.819Z" fill="#2A4241"/>
<path d="M593.664 125.819C588.48 124.496 584.448 120.528 583.104 115.425C582.912 114.858 582.144 114.858 581.952 115.425C580.608 120.528 576.577 124.496 571.393 125.819C570.817 126.008 570.817 126.764 571.393 126.953C576.385 128.276 580.416 132.244 581.952 137.347C582.144 137.914 582.912 137.914 583.104 137.347C584.448 132.433 588.48 128.465 593.664 126.953C594.24 126.764 594.24 126.008 593.664 125.819Z" fill="#2A4241"/>
<path d="M388.445 402.819C383.261 401.496 379.23 397.528 377.886 392.425C377.694 391.858 376.926 391.858 376.734 392.425C375.39 397.528 371.358 401.496 366.174 402.819C365.598 403.008 365.598 403.764 366.174 403.953C371.166 405.276 375.198 409.244 376.734 414.347C376.926 414.914 377.694 414.914 377.886 414.347C379.23 409.433 383.261 405.465 388.445 403.953C389.021 403.764 389.021 403.008 388.445 402.819Z" fill="#2A4241"/>
<path d="M1151.9 447.431C1150.25 447.285 1148.76 446.908 1147.47 446.365C1144.37 445.069 1142.24 442.79 1140.96 440.009C1139.73 437.312 1139.31 434.155 1139.61 430.998C1139.81 428.782 1140.36 426.565 1141.22 424.537C1141.4 424.077 1141.61 423.617 1141.84 423.178C1142.07 422.739 1142.3 422.321 1142.55 421.882C1142.89 421.318 1143.26 420.753 1143.66 420.23C1145.96 422.258 1148.83 423.513 1152.02 423.513C1155.22 423.513 1158.07 422.258 1160.39 420.23C1162.67 423.241 1164.09 427.13 1164.44 430.998C1164.63 433.109 1164.53 435.2 1164.05 437.166C1163.57 439.173 1162.73 441.033 1161.52 442.601C1159.49 445.215 1156.41 447.034 1152.15 447.431H1151.92H1151.9Z" fill="#A8E9DC"/>
<path d="M1144.36 461.626V444.168C1144.36 442.767 1145.51 441.617 1146.91 441.617C1148.31 441.617 1149.46 442.767 1149.46 444.168V461.626H1144.36ZM1154.58 461.626V444.168C1154.58 442.767 1155.73 441.617 1157.13 441.617C1158.53 441.617 1159.68 442.767 1159.68 444.168V461.626H1154.58Z" fill="#A8E9DC"/>
<path fill-rule="evenodd" clip-rule="evenodd" d="M1140.17 427.484C1140.63 426.543 1141.78 426.146 1142.72 426.627C1143.67 427.087 1144.06 428.237 1143.58 429.178C1142.68 431.017 1141.64 432.857 1140.36 434.488C1138.96 436.307 1137.02 438.126 1134.63 438.398C1133.65 438.502 1132.65 438.44 1131.71 438.105C1130.77 437.75 1129.95 437.143 1129.36 436.328C1128.74 435.471 1128.95 434.279 1129.78 433.652C1130.64 433.025 1131.83 433.234 1132.46 434.07C1132.61 434.279 1132.79 434.425 1133.04 434.509C1133.4 434.634 1133.84 434.655 1134.22 434.593C1135.41 434.446 1136.66 433.025 1137.35 432.126C1138.46 430.704 1139.36 429.073 1140.15 427.463L1140.17 427.484ZM1160.43 429.157C1159.97 428.216 1160.35 427.066 1161.29 426.606C1162.23 426.146 1163.38 426.522 1163.84 427.463C1164.64 429.073 1165.53 430.704 1166.64 432.126C1167.33 433.004 1168.59 434.446 1169.78 434.593C1170.16 434.634 1170.59 434.634 1170.95 434.509C1171.18 434.425 1171.39 434.279 1171.54 434.07C1172.16 433.213 1173.35 433.025 1174.21 433.652C1175.07 434.279 1175.26 435.471 1174.63 436.328C1174.04 437.143 1173.23 437.75 1172.29 438.105C1171.35 438.46 1170.34 438.523 1169.36 438.398C1166.98 438.126 1165.03 436.307 1163.63 434.488C1162.38 432.857 1161.33 431.017 1160.41 429.178L1160.43 429.157Z" fill="#A8E9DC"/>
<path d="M1163.17 378.44C1163.25 378.482 1163.32 378.523 1163.38 378.565C1164.22 379.088 1164.78 379.882 1165.01 380.76C1165.24 381.639 1165.16 382.621 1164.7 383.478C1164.66 383.562 1164.61 383.646 1164.55 383.729C1164.03 384.545 1163.23 385.088 1162.38 385.339C1161.46 385.59 1160.45 385.486 1159.55 384.963C1158.66 384.44 1158.07 383.625 1157.82 382.705C1157.59 381.827 1157.67 380.844 1158.13 379.987C1158.17 379.903 1158.22 379.84 1158.26 379.778C1158.78 378.941 1159.58 378.377 1160.45 378.147C1161.33 377.917 1162.31 378.001 1163.17 378.461V378.44Z" fill="#A8E9DC"/>
<path fill-rule="evenodd" clip-rule="evenodd" d="M1158.15 383.537C1158.68 382.638 1159.85 382.303 1160.75 382.826C1161.67 383.349 1161.98 384.52 1161.46 385.419L1159.7 388.471C1158.7 387.677 1157.59 387.049 1156.4 386.569L1158.18 383.495L1158.15 383.537ZM1142.56 385.44C1142.03 384.52 1142.35 383.37 1143.27 382.847C1144.19 382.324 1145.34 382.638 1145.86 383.558L1147.64 386.631C1146.45 387.091 1145.34 387.739 1144.33 388.534L1142.56 385.461V385.44Z" fill="#A8E9DC"/>
<path d="M1140.63 378.563C1140.7 378.521 1140.78 378.479 1140.84 378.437C1141.7 377.977 1142.68 377.894 1143.56 378.124C1144.44 378.354 1145.25 378.918 1145.76 379.754C1145.8 379.817 1145.84 379.901 1145.88 379.963C1146.34 380.821 1146.42 381.803 1146.19 382.681C1145.94 383.601 1145.36 384.417 1144.46 384.939C1143.56 385.462 1142.56 385.567 1141.64 385.316C1140.76 385.086 1139.99 384.542 1139.46 383.706C1139.4 383.622 1139.36 383.539 1139.32 383.455C1138.86 382.598 1138.77 381.615 1139 380.737C1139.23 379.859 1139.8 379.043 1140.63 378.542V378.563Z" fill="#A8E9DC"/>
<path fill-rule="evenodd" clip-rule="evenodd" d="M1152.01 388.328C1148.56 388.328 1145.49 390.21 1143.27 393.262C1141.14 396.189 1139.84 400.224 1139.84 404.657C1139.84 409.089 1141.16 413.124 1143.27 416.051C1145.49 419.104 1148.56 420.986 1152.01 420.986C1155.46 420.986 1158.54 419.104 1160.75 416.051C1162.88 413.124 1164.18 409.089 1164.18 404.657C1164.18 400.224 1162.86 396.189 1160.75 393.262C1158.54 390.21 1155.46 388.328 1152.01 388.328ZM1158.03 402.671C1158.68 402.503 1159.35 402.859 1159.56 403.507C1159.56 403.528 1161.69 409.737 1155 411.556H1154.96C1154.29 411.744 1153.58 411.326 1153.41 410.657C1151.7 404.281 1157.41 402.817 1158.03 402.671ZM1145.97 402.671C1146.6 402.817 1152.3 404.301 1150.59 410.657C1150.4 411.326 1149.71 411.744 1149.04 411.556H1149C1142.31 409.737 1144.44 403.528 1144.44 403.507C1144.65 402.859 1145.32 402.503 1145.97 402.671Z" fill="#A8E9DC"/>
<path d="M198.725 276.501C197.881 276.516 197.03 276.519 196.179 276.51C193.766 276.487 191.347 276.372 189.073 276.216C184.249 275.887 180.067 275.364 177.931 275.067C176.966 274.935 176.419 274.849 176.419 274.849C176.419 274.849 174.109 271.669 174.109 271.326C174.109 270.979 174.842 264.272 178.962 265.688C182.454 266.89 191.394 270.062 197.166 271.246C198.211 271.461 199.154 271.611 199.939 271.669C202.367 269.815 205.699 269.447 205.546 270.253C205.392 271.055 204.083 272.437 204.083 272.437C204.083 272.437 207.935 275.273 208.281 277.88C208.629 280.487 204.506 279.337 198.725 276.501Z" fill="#D1DEDB"/>
<path d="M198.728 276.501C197.883 276.516 197.032 276.519 196.181 276.51C196.208 275.434 196.403 273.668 197.168 271.246C198.214 271.461 199.156 271.611 199.942 271.669C199.942 271.669 198.612 274.891 198.728 276.501ZM189.075 276.216C184.252 275.887 180.069 275.364 177.934 275.067C178.58 273.089 181.327 271.981 184.284 272.566C186.727 273.048 188.59 274.544 189.075 276.216Z" fill="#65B0A1"/>
<g style="mix-blend-mode:soft-light" opacity="0.44">
<path d="M207.462 279.27C206.003 279.643 202.769 278.485 198.725 276.501C197.881 276.516 197.03 276.519 196.179 276.51C193.766 276.487 191.347 276.372 189.073 276.216C184.249 275.887 180.067 275.364 177.931 275.067C176.966 274.935 176.419 274.849 176.419 274.849C176.419 274.849 174.109 271.669 174.109 271.326C174.109 270.979 174.842 264.272 178.962 265.688C180.15 266.097 181.969 266.735 184.078 267.446C183.992 268.557 183.703 269.935 182.894 270.993C192.774 273.971 199.047 274.312 199.047 274.312C199.047 274.312 199.446 272.56 199.939 271.669C201.372 270.576 203.118 270 204.278 269.877C203.407 270.347 202.654 270.838 202.367 271.246C201.7 272.198 203.386 272.375 204.11 272.41C204.092 272.428 204.083 272.437 204.083 272.437C204.083 272.437 204.447 272.704 204.961 273.151C204.574 273.239 204.213 273.459 203.927 273.88C203.032 275.205 205.185 278.221 207.462 279.27Z" fill="black"/>
</g>
<path d="M126.303 249.89L125.624 248.913C125.624 248.913 125.913 247.619 124.728 247.202C123.543 246.785 117.417 248.093 115.597 248.546C113.777 248.999 113.011 250.149 113.661 251.5C114.311 252.852 117.822 252.478 118.487 252.55C119.151 252.622 120.524 254.447 120.524 254.447M120.943 264.638C120.943 264.638 119.758 264.338 118.862 263.792C117.966 263.245 117.186 261.434 115.742 262.469C114.297 263.504 111.321 271.699 111.552 274.459C111.783 277.219 115.366 274.286 116.059 273.337C116.753 272.389 117.504 272.906 118.775 273.165" fill="#D1DEDB"/>
<g style="mix-blend-mode:soft-light" opacity="0.44">
<path d="M126.302 249.888L120.525 254.443C120.525 254.443 119.151 252.618 118.487 252.548C117.822 252.474 114.313 252.847 113.66 251.498C113.574 251.323 113.51 251.137 113.471 250.946C115.111 251.354 117.468 251.351 120.48 249.852C122.075 249.059 122.894 248.118 123.224 247.151C123.913 247.099 124.453 247.102 124.728 247.198C125.912 247.616 125.623 248.909 125.623 248.909L126.302 249.888ZM120.944 264.636L118.776 273.162C117.506 272.904 116.753 272.386 116.059 273.336C115.368 274.282 111.785 277.215 111.551 274.455C111.495 273.774 111.634 272.76 111.897 271.608C113.888 270.693 116.629 269.033 117.592 266.529C117.985 265.506 118.227 264.421 118.363 263.372C118.512 263.531 118.679 263.671 118.862 263.79C119.76 264.336 120.944 264.636 120.944 264.636Z" fill="black"/>
</g>
<path d="M154.278 275.602C152.402 275.596 150.689 275.602 148.988 275.734C148.226 275.987 146.09 277.259 143.556 278.294C141.869 278.99 140.005 279.578 138.248 279.693C136.52 279.805 134.488 279.522 132.054 278.888C128.705 278.021 124.593 276.489 119.471 274.42C118.86 274.17 118.231 273.915 117.59 273.653C117.711 272.066 118.062 270.35 118.473 268.789C118.939 267.017 119.503 265.271 120.163 263.56C120.163 263.56 120.7 263.766 121.577 264.078C123.757 264.845 128.043 266.267 131.46 266.84L131.239 266.752C128.137 265.388 122.443 257.876 120.493 255.213C120.062 254.628 119.814 254.276 119.814 254.276C119.814 254.276 120.951 252.671 123.208 251.202C124.264 250.51 125.406 249.958 126.605 249.559C126.915 249.864 127.24 250.199 127.588 250.555C129.594 252.606 132.4 255.407 138.337 258.129C142.265 256.921 146.772 256.316 146.772 256.316C146.772 256.316 147.8 255.975 149.844 255.487C150.08 255.431 150.329 255.372 150.591 255.313C150.193 259.305 149.797 269.024 154.278 275.602Z" fill="#D1DEDB"/>
<path d="M164.946 274.847C164.329 274.28 163.782 273.636 163.281 272.961C162.791 272.279 162.342 271.568 161.938 270.833C161.54 270.094 161.171 269.34 160.85 268.567C160.528 267.794 160.232 267.01 160.008 266.203C160.18 266.585 160.344 266.968 160.525 267.344C160.696 267.724 160.873 268.1 161.057 268.474C161.424 269.221 161.798 269.963 162.197 270.692C162.594 271.422 163.024 272.132 163.468 272.834C163.701 273.177 163.926 273.528 164.181 273.856C164.414 274.203 164.692 274.512 164.946 274.847Z" fill="#9FADAA"/>
<path d="M192.72 289.302C188.827 289.073 186.42 287.597 183.821 284.088C182.929 283.9 181.975 283.644 180.979 283.333C179.118 282.751 177.128 281.975 175.187 281.105C171.12 279.28 167.274 277.023 165.322 275.209C165.189 275.089 165.065 274.965 164.95 274.848C162.185 275.394 159.931 275.553 158.661 275.58C157.763 275.6 156.91 275.603 156.091 275.603C155.468 275.603 154.866 275.6 154.281 275.6C149.8 269.023 150.196 259.303 150.595 255.312C151.064 255.203 151.576 255.09 152.13 254.974C154.925 254.389 158.809 253.707 163.768 253.152C175.036 251.888 176.191 253.152 176.191 253.152C176.191 253.152 187.903 258.518 183.587 265.114C181.215 267.621 178.548 269.534 175.852 270.992C177.323 273.922 180.194 276.517 183.623 278.513C184.394 278.965 185.194 279.386 186.012 279.771C186.281 279.897 186.553 280.021 186.825 280.141C189.252 280.908 190.023 279.95 192.682 280.561C195.34 281.176 193.721 282.172 192.218 283.321C193.913 286.924 196.61 289.531 192.72 289.302Z" fill="#D1DEDB"/>
<path d="M172.953 262.277L173.608 264.483C173.834 265.214 174.056 265.945 174.297 266.671C174.53 267.399 174.78 268.121 175.036 268.842C175.29 269.563 175.569 270.276 175.851 270.992C175.646 270.664 175.483 270.316 175.301 269.976C175.139 269.627 174.974 269.279 174.824 268.924C174.516 268.218 174.257 267.492 174.016 266.762C173.781 266.029 173.564 265.29 173.389 264.541C173.205 263.795 173.059 263.039 172.953 262.277Z" fill="#9FADAA"/>
<path d="M186.009 279.772C185.46 280.604 184.399 282.326 183.818 284.09C182.925 283.902 181.971 283.646 180.976 283.334C181.587 281.965 182.657 279.734 183.62 278.514C184.391 278.967 185.191 279.387 186.009 279.772ZM156.088 275.605C155.465 275.605 154.862 275.602 154.278 275.602C149.797 269.024 150.193 259.305 150.591 255.313C151.061 255.205 151.573 255.092 152.127 254.975C151.971 258.761 151.903 269.838 156.088 275.605ZM143.556 278.294C141.869 278.99 140.005 279.578 138.248 279.693C136.52 279.805 134.488 279.522 132.054 278.888C133.238 276.977 135.463 275.69 138.012 275.69C140.286 275.69 142.303 276.716 143.556 278.294ZM127.588 250.555C124.242 251.607 121.633 254.017 120.493 255.213C120.062 254.628 119.814 254.276 119.814 254.276C119.814 254.276 122.097 251.055 126.605 249.559C126.915 249.864 127.24 250.199 127.588 250.555ZM121.577 264.078C120.833 266.208 119.436 270.696 119.471 274.42C118.86 274.17 118.231 273.915 117.59 273.653C117.935 269.139 120.163 263.56 120.163 263.56C120.163 263.56 120.7 263.766 121.577 264.078Z" fill="#65B0A1"/>
<g style="mix-blend-mode:soft-light" opacity="0.44">
<path d="M154.278 275.601C152.402 275.595 150.689 275.601 148.988 275.733C148.226 275.986 146.09 277.259 143.556 278.293C141.869 278.99 140.005 279.578 138.248 279.692C136.52 279.804 134.488 279.522 132.054 278.887C128.705 278.02 124.593 276.489 119.471 274.419C118.86 274.17 118.231 273.914 117.59 273.652C117.711 272.065 118.062 270.349 118.473 268.788C121.731 270.026 128.64 272.533 132.054 272.935C136.618 273.47 139.048 273.012 148.063 268.488C147.715 263.724 148.819 258.836 149.844 255.486C150.08 255.43 150.329 255.371 150.591 255.312C150.193 259.304 149.797 269.023 154.278 275.601Z" fill="black"/>
</g>
<g style="mix-blend-mode:soft-light" opacity="0.44">
<path d="M146.795 258.826C146.795 258.826 143.443 262.321 140.129 264.337C134.505 266.964 131.463 266.838 131.463 266.838L131.241 266.75C128.14 265.386 122.445 257.874 120.496 255.211C120.065 254.626 119.816 254.273 119.816 254.273C119.816 254.273 120.954 252.669 123.21 251.199C125.638 254.259 130.91 260.66 133.657 262.153C137.299 264.134 146.795 258.826 146.795 258.826Z" fill="black"/>
</g>
<path d="M175.322 280.898C175.281 280.971 175.235 281.04 175.186 281.107C171.118 279.282 167.273 277.025 165.32 275.211C165.327 275.196 165.335 275.181 165.344 275.167C166.46 273.242 169.6 272.963 172.356 274.547C175.112 276.128 176.438 278.973 175.322 280.898Z" fill="#65B0A1"/>
<g style="mix-blend-mode:soft-light" opacity="0.44">
<path d="M194.209 289.167C193.89 289.293 193.408 289.343 192.72 289.302C188.827 289.073 186.42 287.597 183.821 284.088C182.929 283.9 181.975 283.644 180.979 283.333C179.118 282.751 177.128 281.975 175.187 281.105C171.12 279.28 167.274 277.023 165.322 275.209C165.189 275.089 165.065 274.965 164.95 274.848C161.048 270.38 155.964 261.837 154.059 265.49C152.151 269.146 154.281 275.6 154.281 275.6C149.8 269.023 150.196 259.303 150.595 255.312C151.064 255.203 151.576 255.09 152.13 254.974C154.925 254.389 158.809 253.707 163.768 253.152C175.036 251.888 176.191 253.152 176.191 253.152C176.191 253.152 187.903 258.518 183.587 265.114C182.658 266.095 181.661 267.01 180.604 267.853C179.532 267.556 178.259 267.053 177.175 266.204C174.936 264.455 174.859 268.502 176.679 270.527C176.404 270.689 176.129 270.842 175.852 270.992C175.878 271.045 175.905 271.095 175.931 271.147C175.701 271.362 174.741 271.879 171.563 273.105C178.04 279.374 185.265 283.283 187.344 283.342C188.815 283.38 192.165 281.984 194.002 281.164C194.442 281.746 193.299 282.495 192.218 283.321C192.218 283.321 189.657 285.067 189.483 285.928C189.35 286.589 191.893 288.529 194.209 289.167Z" fill="black"/>
</g>
<path d="M171.558 253.447C171.552 254.197 171.493 255.205 171.336 256.545C163.128 261.03 148.481 259.619 148.481 259.619C148.481 259.619 145.878 258.873 143.74 256.054C142.981 251.992 143.595 247.789 143.722 247.031C143.731 246.952 143.74 246.911 143.74 246.911C149.742 244.315 157.726 242.828 165.76 243.604C169.543 246.423 171.404 251.507 171.404 251.507V251.51C171.419 251.557 171.576 252.054 171.558 253.447Z" fill="#B1B2B2"/>
<path d="M171.403 251.507V251.51C163.112 255.672 149.055 254.32 149.055 254.32C149.055 254.32 144.462 251.199 143.738 246.911C149.74 244.315 157.724 242.828 165.758 243.604C169.542 246.423 171.403 251.507 171.403 251.507Z" fill="#939393"/>
<g style="mix-blend-mode:soft-light" opacity="0.44">
<path d="M165.251 248.155C165.071 246.974 162.947 246.31 160.507 246.674C159.532 246.818 158.652 247.106 157.961 247.476C156.921 248.032 156.304 248.767 156.41 249.478C156.59 250.659 158.714 251.324 161.154 250.959C163.151 250.659 164.743 249.766 165.153 248.802C165.247 248.6 165.281 248.376 165.251 248.155Z" fill="black"/>
</g>
<path d="M165.833 248.06C165.422 249.024 163.83 249.917 161.834 250.217C159.394 250.582 157.27 249.917 157.09 248.736C156.984 248.025 157.601 247.29 158.641 246.734C159.332 246.364 160.212 246.076 161.187 245.932C163.626 245.567 165.75 246.232 165.93 247.413C165.961 247.634 165.927 247.858 165.833 248.06Z" fill="#84F4DD"/>
<path d="M165.832 248.06C165.141 248.433 164.26 248.721 163.286 248.868C160.846 249.232 158.722 248.568 158.542 247.387C158.512 247.164 158.546 246.938 158.64 246.734C159.331 246.364 160.211 246.076 161.186 245.932C163.625 245.567 165.749 246.232 165.929 247.413C165.96 247.634 165.926 247.858 165.832 248.06Z" fill="#65B0A1"/>
<path d="M181.406 244.493C181.345 244.541 181.275 244.576 181.2 244.596C181.125 244.616 181.047 244.622 180.97 244.612C180.893 244.602 180.819 244.577 180.752 244.539C180.685 244.5 180.626 244.449 180.579 244.387C179.799 243.394 179.132 242.897 178.467 242.832C177.241 242.706 175.741 243.999 173.458 245.951C172.988 246.354 172.483 246.786 171.939 247.238C170.108 248.769 168.315 249.266 166.765 249.266C165.09 249.266 163.693 248.69 162.824 248.211C162.437 247.658 162.544 247.129 162.733 246.771C163.436 247.294 167.131 249.725 171.18 246.339C171.718 245.889 172.22 245.46 172.69 245.057C175.2 242.909 176.86 241.489 178.585 241.663C179.592 241.763 180.523 242.4 181.512 243.667C181.607 243.791 181.65 243.947 181.63 244.102C181.61 244.256 181.529 244.397 181.406 244.493Z" fill="#565656"/>
<g style="mix-blend-mode:soft-light" opacity="0.44">
<path d="M171.558 253.447C171.552 254.197 171.493 255.205 171.336 256.545C163.128 261.03 148.481 259.619 148.481 259.619C148.481 259.619 145.878 258.873 143.74 256.054C142.981 251.992 143.595 247.79 143.722 247.031C143.743 247.067 143.764 247.105 143.787 247.143C145.096 249.415 147.89 252.88 153.274 254.52C157.551 255.822 163.462 255.969 171.558 253.447Z" fill="black"/>
</g>
<path d="M208.072 260.351C208.006 260.592 207.938 260.83 207.867 261.07C207.24 263.178 205.923 265.017 204.124 266.294C202.325 267.572 200.149 268.214 197.942 268.118C191.951 267.849 186.198 266.981 180.736 265.388C176.312 264.095 173.271 259.977 173.544 255.395C173.753 251.787 174.422 248.219 175.534 244.778C176.703 241.164 179.83 238.475 183.616 237.977C190.812 237.036 197.537 238.359 203.887 241.51C205.284 242.202 206.5 243.208 207.439 244.448C208.378 245.689 209.013 247.13 209.295 248.658C209.413 249.289 209.468 249.93 209.46 250.572C209.423 253.877 208.956 257.164 208.072 260.351Z" fill="#D1DEDB"/>
<g style="mix-blend-mode:soft-light" opacity="0.44">
<path d="M207.804 261.275C206.452 265.492 202.401 268.316 197.941 268.118C191.95 267.849 186.198 266.98 180.736 265.387C176.312 264.094 173.273 259.977 173.544 255.395C173.754 251.786 174.423 248.218 175.536 244.777C176.703 241.163 179.832 238.475 183.619 237.977C187.112 237.521 190.495 237.597 193.775 238.156C186.947 239.577 180.767 242.698 181.854 249.432C183.299 258.365 196.916 261.172 207.804 261.275Z" fill="black"/>
</g>
<path d="M208.071 260.352C208.005 260.593 207.937 260.831 207.866 261.071C207.442 262.482 206.706 263.782 205.714 264.875C204.721 265.969 203.497 266.828 202.128 267.391C201.06 267.161 200.004 266.905 198.962 266.624C195.411 265.658 192.896 262.819 193.016 259.74C193.043 258.98 193.106 258.228 193.207 257.482C193.423 255.829 193.813 254.203 194.371 252.632C195.222 250.221 197.656 248.477 200.663 248.223C201.436 248.159 202.205 248.122 202.964 248.113C205.087 248.083 207.208 248.266 209.294 248.659C209.411 249.29 209.467 249.931 209.459 250.573C209.421 253.878 208.955 257.165 208.071 260.352Z" fill="black"/>
<path opacity="0.13" d="M208.071 260.352C204.303 257.648 202.176 252.976 202.964 248.113C205.087 248.083 207.208 248.266 209.294 248.659C209.411 249.29 209.467 249.931 209.459 250.573C209.421 253.878 208.955 257.165 208.071 260.352ZM203.993 266.38C203.41 266.784 202.785 267.123 202.128 267.391C201.06 267.161 200.004 266.905 198.962 266.624C195.411 265.658 192.896 262.819 193.016 259.74C193.043 258.98 193.106 258.228 193.207 257.482C193.463 257.51 193.724 257.546 193.983 257.59C198.887 258.422 202.645 261.948 203.993 266.38Z" fill="white"/>
<path d="M186.679 253.452C186.025 257.27 183.139 259.964 180.234 259.471C179.183 259.292 178.273 258.721 177.573 257.884C176.333 256.408 175.743 254.102 176.16 251.666C176.76 248.169 179.229 245.616 181.872 245.59C182.117 245.586 182.362 245.605 182.603 245.647C185.509 246.14 187.334 249.634 186.679 253.452Z" fill="#D1DEDB"/>
<g style="mix-blend-mode:soft-light" opacity="0.44">
<path d="M186.679 253.452C186.025 257.27 183.139 259.964 180.234 259.471C179.183 259.292 178.273 258.721 177.573 257.884C176.333 256.408 175.743 254.102 176.16 251.666C176.76 248.169 179.229 245.616 181.872 245.59C182.117 245.586 182.362 245.605 182.603 245.647C185.509 246.14 187.334 249.634 186.679 253.452Z" fill="black"/>
</g>
<g style="mix-blend-mode:soft-light" opacity="0.44">
<path d="M186.679 253.452C186.025 257.27 183.139 259.964 180.234 259.471C179.183 259.292 178.273 258.721 177.573 257.884C176.333 256.408 175.743 254.102 176.16 251.666C176.76 248.169 179.229 245.616 181.872 245.59C182.117 245.586 182.362 245.605 182.603 245.647C185.509 246.14 187.334 249.634 186.679 253.452Z" fill="black"/>
</g>
<path d="M183.285 251.807C182.685 255.304 180.216 257.857 177.573 257.883C176.333 256.407 175.743 254.101 176.16 251.666C176.76 248.169 179.229 245.615 181.872 245.59C183.112 247.066 183.702 249.372 183.285 251.807Z" fill="#D1DEDB"/>
<g style="mix-blend-mode:soft-light" opacity="0.44">
<path d="M183.285 251.807C182.685 255.304 180.216 257.857 177.573 257.883C176.333 256.407 175.743 254.101 176.16 251.666C176.76 248.169 179.229 245.615 181.872 245.59C183.112 247.066 183.702 249.372 183.285 251.807Z" fill="black"/>
</g>
<g style="mix-blend-mode:soft-light" opacity="0.44">
<path d="M183.285 251.807C182.685 255.304 180.216 257.857 177.573 257.883C176.333 256.407 175.743 254.101 176.16 251.666C176.76 248.169 179.229 245.615 181.872 245.59C183.112 247.066 183.702 249.372 183.285 251.807Z" fill="black"/>
</g>
<g style="mix-blend-mode:soft-light" opacity="0.44">
<path d="M183.285 251.807C182.685 255.304 180.216 257.857 177.573 257.883C176.333 256.407 175.743 254.101 176.16 251.666C176.76 248.169 179.229 245.615 181.872 245.59C183.112 247.066 183.702 249.372 183.285 251.807Z" fill="black"/>
</g>
<defs>
<linearGradient id="paint0_linear_4719_32952" x1="731.5" y1="0" x2="731.5" y2="488.583" gradientUnits="userSpaceOnUse">
<stop stop-color="#141A21"/>
<stop offset="1" stop-color="#213636"/>
</linearGradient>
<clipPath id="clip0_4719_32952">
<rect width="38" height="38" fill="white" transform="translate(102 269)"/>
</clipPath>
</defs>
</svg>
