<svg width="1463" height="472" viewBox="0 0 1463 472" fill="none" xmlns="http://www.w3.org/2000/svg">
<path d="M0 0H1463V442.349C895.672 482.841 573.692 480.915 0 442.349V0Z" fill="url(#paint0_linear_4726_38188)"/>
<g clip-path="url(#clip0_4726_38188)">
<path d="M106.181 276.979C109.601 277.929 112.071 280.589 113.021 283.819C113.211 284.199 113.591 284.199 113.781 283.819C114.731 280.399 117.391 277.929 120.621 276.979C121.001 276.789 121.001 276.409 120.621 276.219C117.391 275.269 114.731 272.609 113.781 269.379C113.591 268.999 113.211 268.999 113.021 269.379C112.071 272.609 109.411 275.269 106.181 276.219C105.611 276.409 105.611 276.789 106.181 276.979ZM139.621 287.429C134.491 286.099 130.501 282.109 129.171 276.979C128.981 276.409 128.221 276.409 128.031 276.979C126.701 282.109 122.711 286.099 117.581 287.429C117.011 287.619 117.011 288.379 117.581 288.569C122.521 289.899 126.511 293.889 128.031 299.019C128.221 299.589 128.981 299.589 129.171 299.019C130.501 294.079 134.491 290.089 139.621 288.569C140.191 288.379 140.191 287.619 139.621 287.429ZM116.821 299.019C113.401 298.069 110.931 295.409 109.981 292.179C109.791 291.799 109.411 291.799 109.221 292.179C108.271 295.599 105.611 298.069 102.381 299.019C102.001 299.209 102.001 299.589 102.381 299.779C105.801 300.729 108.271 303.389 109.221 306.619C109.411 306.999 109.791 306.999 109.981 306.619C110.931 303.199 113.591 300.729 116.821 299.779C117.391 299.589 117.391 299.209 116.821 299.019Z" fill="#2A4241"/>
</g>
<path d="M480.975 295.843C484.431 296.787 486.927 299.433 487.887 302.646C488.079 303.024 488.463 303.024 488.655 302.646C489.615 299.244 492.302 296.787 495.566 295.843C495.95 295.654 495.95 295.276 495.566 295.087C492.302 294.142 489.615 291.496 488.655 288.283C488.463 287.906 488.079 287.906 487.887 288.283C486.927 291.496 484.239 294.142 480.975 295.087C480.399 295.276 480.399 295.654 480.975 295.843Z" fill="#2A4241"/>
<path d="M209.546 419.728C211.629 420.297 213.134 421.892 213.712 423.829C213.828 424.057 214.059 424.057 214.175 423.829C214.754 421.778 216.374 420.297 218.342 419.728C218.573 419.614 218.573 419.386 218.342 419.272C216.374 418.703 214.754 417.108 214.175 415.171C214.059 414.943 213.828 414.943 213.712 415.171C213.134 417.108 211.513 418.703 209.546 419.272C209.198 419.386 209.198 419.614 209.546 419.728Z" fill="#2A4241"/>
<path d="M874.145 152.843C877.601 153.787 880.097 156.433 881.057 159.646C881.249 160.024 881.633 160.024 881.825 159.646C882.784 156.244 885.472 153.787 888.736 152.843C889.12 152.654 889.12 152.276 888.736 152.087C885.472 151.142 882.784 148.496 881.825 145.283C881.633 144.906 881.249 144.906 881.057 145.283C880.097 148.496 877.409 151.142 874.145 152.087C873.569 152.276 873.569 152.654 874.145 152.843Z" fill="#2A4241"/>
<path d="M1147.44 407.843C1150.89 408.787 1153.39 411.433 1154.35 414.646C1154.54 415.024 1154.92 415.024 1155.12 414.646C1156.08 411.244 1158.76 408.787 1162.03 407.843C1162.41 407.654 1162.41 407.276 1162.03 407.087C1158.76 406.142 1156.08 403.496 1155.12 400.283C1154.92 399.906 1154.54 399.906 1154.35 400.283C1153.39 403.496 1150.7 406.142 1147.44 407.087C1146.86 407.276 1146.86 407.654 1147.44 407.843Z" fill="#2A4241"/>
<path d="M88.8187 90.8426C92.2745 91.7874 94.7704 94.4331 95.7304 97.6457C95.9224 98.0237 96.3063 98.0237 96.4983 97.6457C97.4583 94.2442 100.146 91.7874 103.41 90.8426C103.794 90.6536 103.794 90.2756 103.41 90.0867C100.146 89.1418 97.4583 86.4961 96.4983 83.2835C96.3063 82.9055 95.9224 82.9055 95.7304 83.2835C94.7704 86.4961 92.0825 89.1418 88.8187 90.0867C88.2427 90.2756 88.2427 90.6536 88.8187 90.8426Z" fill="#2A4241"/>
<path d="M270.674 183.843C274.13 184.787 276.626 187.433 277.586 190.646C277.778 191.024 278.162 191.024 278.354 190.646C279.314 187.244 282.002 184.787 285.265 183.843C285.649 183.654 285.649 183.276 285.265 183.087C282.002 182.142 279.314 179.496 278.354 176.283C278.162 175.906 277.778 175.906 277.586 176.283C276.626 179.496 273.938 182.142 270.674 183.087C270.098 183.276 270.098 183.654 270.674 183.843Z" fill="#2A4241"/>
<path d="M1395.33 381.843C1398.78 382.787 1401.28 385.433 1402.24 388.646C1402.43 389.024 1402.81 389.024 1403.01 388.646C1403.97 385.244 1406.65 382.787 1409.92 381.843C1410.3 381.654 1410.3 381.276 1409.92 381.087C1406.65 380.142 1403.97 377.496 1403.01 374.283C1402.81 373.906 1402.43 373.906 1402.24 374.283C1401.28 377.496 1398.59 380.142 1395.33 381.087C1394.75 381.276 1394.75 381.654 1395.33 381.843Z" fill="#2A4241"/>
<path d="M1122.04 183.843C1125.49 184.787 1127.99 187.433 1128.95 190.646C1129.14 191.024 1129.53 191.024 1129.72 190.646C1130.68 187.244 1133.36 184.787 1136.63 183.843C1137.01 183.654 1137.01 183.276 1136.63 183.087C1133.36 182.142 1130.68 179.496 1129.72 176.283C1129.53 175.906 1129.14 175.906 1128.95 176.283C1127.99 179.496 1125.3 182.142 1122.04 183.087C1121.46 183.276 1121.46 183.654 1122.04 183.843Z" fill="#2A4241"/>
<path d="M995.98 256.819C990.797 255.496 986.765 251.528 985.421 246.425C985.229 245.858 984.461 245.858 984.269 246.425C982.925 251.528 978.893 255.496 973.709 256.819C973.133 257.008 973.133 257.764 973.709 257.953C978.701 259.276 982.733 263.244 984.269 268.347C984.461 268.914 985.229 268.914 985.421 268.347C986.765 263.433 990.797 259.465 995.98 257.953C996.556 257.764 996.556 257.008 995.98 256.819Z" fill="#2A4241"/>
<path d="M593.664 125.819C588.48 124.496 584.448 120.528 583.104 115.425C582.912 114.858 582.144 114.858 581.952 115.425C580.608 120.528 576.577 124.496 571.393 125.819C570.817 126.008 570.817 126.764 571.393 126.953C576.385 128.276 580.416 132.244 581.952 137.347C582.144 137.914 582.912 137.914 583.104 137.347C584.448 132.433 588.48 128.465 593.664 126.953C594.24 126.764 594.24 126.008 593.664 125.819Z" fill="#2A4241"/>
<path d="M388.443 402.819C383.259 401.496 379.228 397.528 377.884 392.425C377.692 391.858 376.924 391.858 376.732 392.425C375.388 397.528 371.356 401.496 366.172 402.819C365.596 403.008 365.596 403.764 366.172 403.953C371.164 405.276 375.196 409.244 376.732 414.347C376.924 414.914 377.692 414.914 377.884 414.347C379.228 409.433 383.259 405.465 388.443 403.953C389.019 403.764 389.019 403.008 388.443 402.819Z" fill="#2A4241"/>
<path d="M1157.25 413.602C1157.25 413.602 1159.38 415.729 1157.84 422.268C1156.29 428.807 1159.45 432.475 1159.45 432.475L1156.34 433.143C1155.27 431.773 1154.52 430.193 1154.11 428.508C1153.71 426.823 1153.67 425.071 1153.99 423.369C1155.1 417.51 1152.17 416.156 1152.17 416.156L1157.25 413.602Z" fill="#43FFD8"/>
<path opacity="0.08" d="M1173.36 467.617C1181.24 467.617 1187.62 463.931 1187.62 459.385C1187.62 454.838 1181.24 451.152 1173.36 451.152C1165.49 451.152 1159.1 454.838 1159.1 459.385C1159.1 463.931 1165.49 467.617 1173.36 467.617Z" fill="black"/>
<path d="M1171.82 460.398L1173.58 449.266L1167.13 446.805C1167.13 446.805 1169.97 452.664 1168.58 455.98C1167.18 459.297 1171.82 460.398 1171.82 460.398Z" fill="#14846D"/>
<path d="M1166.58 454.68C1165.19 454.68 1163.86 455.232 1162.88 456.214C1161.9 457.196 1161.35 458.529 1161.35 459.918V460.398C1161.35 461.066 1161.86 461.734 1162.88 462.25C1164.05 462.754 1165.31 463.014 1166.58 463.014C1167.86 463.014 1169.12 462.754 1170.29 462.25C1171.31 461.734 1171.82 461.078 1171.82 460.398V459.918C1171.82 458.529 1171.27 457.196 1170.29 456.214C1169.31 455.232 1167.97 454.68 1166.58 454.68Z" fill="#20A489"/>
<path d="M1166 459.771C1165.76 459.771 1165.53 459.868 1165.35 460.041C1165.18 460.213 1165.08 460.447 1165.08 460.691V462.906C1165.69 462.995 1166.31 463.029 1166.92 463.006V460.662C1166.92 460.423 1166.82 460.197 1166.64 460.03C1166.47 459.864 1166.24 459.771 1166 459.771ZM1162.27 458.787C1162.05 458.787 1161.85 458.859 1161.68 458.993C1161.52 459.126 1161.41 459.312 1161.36 459.52C1161.36 459.648 1161.36 459.783 1161.36 459.918V460.398C1161.36 461.066 1161.87 461.734 1162.89 462.25L1163.2 462.391V459.695C1163.2 459.574 1163.18 459.454 1163.13 459.343C1163.08 459.231 1163.01 459.131 1162.92 459.046C1162.84 458.962 1162.73 458.895 1162.62 458.851C1162.51 458.806 1162.39 458.785 1162.27 458.787ZM1186.14 455.547L1179.77 446.09L1173.42 448.674C1173.42 448.674 1179.48 451.053 1180.71 454.422C1181.93 457.791 1186.14 455.547 1186.14 455.547Z" fill="#14846D"/>
<path d="M1178.38 454.791C1177.87 455.253 1177.46 455.81 1177.16 456.432C1176.87 457.054 1176.7 457.728 1176.66 458.415C1176.63 459.103 1176.73 459.79 1176.96 460.438C1177.2 461.085 1177.55 461.681 1178.02 462.191L1178.33 462.542C1178.78 463.041 1179.62 463.193 1180.72 462.888C1181.92 462.483 1183.03 461.834 1183.98 460.983C1184.93 460.131 1185.69 459.095 1186.22 457.937C1186.64 456.871 1186.56 456.027 1186.11 455.535L1185.79 455.177C1185.33 454.664 1184.77 454.247 1184.15 453.949C1183.53 453.652 1182.85 453.481 1182.17 453.445C1181.48 453.409 1180.79 453.509 1180.14 453.74C1179.49 453.971 1178.89 454.328 1178.38 454.791Z" fill="#20A489"/>
<path d="M1181.37 458.95C1181.28 459.031 1181.21 459.129 1181.16 459.238C1181.1 459.347 1181.07 459.466 1181.07 459.587C1181.06 459.708 1181.08 459.829 1181.12 459.943C1181.16 460.057 1181.23 460.162 1181.31 460.251L1182.79 461.892C1183.3 461.545 1183.78 461.153 1184.23 460.72L1182.7 459.015C1182.62 458.921 1182.52 458.845 1182.41 458.791C1182.3 458.737 1182.18 458.706 1182.05 458.7C1181.93 458.694 1181.8 458.713 1181.69 458.756C1181.57 458.799 1181.46 458.865 1181.37 458.95ZM1177.94 460.732C1177.78 460.875 1177.67 461.071 1177.64 461.285C1177.6 461.499 1177.65 461.717 1177.76 461.903C1177.84 462.009 1177.92 462.108 1178.02 462.214L1178.33 462.566C1178.78 463.064 1179.62 463.216 1180.72 462.911L1181.04 462.806L1179.24 460.819C1179.16 460.728 1179.06 460.653 1178.96 460.599C1178.85 460.545 1178.73 460.513 1178.61 460.505C1178.49 460.497 1178.37 460.513 1178.25 460.552C1178.14 460.591 1178.03 460.652 1177.94 460.732Z" fill="#14846D"/>
<path d="M1173.36 452.105C1184.32 452.105 1193.2 445.833 1193.2 438.096C1193.2 430.358 1184.32 424.086 1173.36 424.086C1162.41 424.086 1153.53 430.358 1153.53 438.096C1153.53 445.833 1162.41 452.105 1173.36 452.105Z" fill="#009576"/>
<path d="M1192.27 436.75C1192.27 439.17 1190.43 441.59 1186.73 443.436C1179.35 447.127 1167.4 447.127 1159.99 443.436C1156.29 441.59 1154.45 439.187 1154.45 436.75C1154.45 434.312 1158.18 424.094 1173.36 424.094C1188.54 424.094 1192.27 434.324 1192.27 436.75Z" fill="#17A98B"/>
<path d="M1183.45 427.42C1189.03 430.209 1189.03 434.727 1183.45 437.516C1177.87 440.305 1168.84 440.305 1163.27 437.516C1157.69 434.727 1157.69 430.209 1163.27 427.42C1168.84 424.631 1177.88 424.631 1183.45 427.42Z" fill="#23C1A1"/>
<path d="M1159.2 432.068C1159.2 432.068 1161.65 423.004 1173.23 423.004C1184.81 423.004 1187.64 432.027 1187.64 432.027L1159.2 432.068Z" fill="#23C1A1"/>
<path d="M1163.58 430.661C1164.55 429.425 1165.49 432.331 1168.09 433.245C1166.07 434.856 1162.2 432.46 1163.58 430.661Z" fill="#14846D"/>
<path d="M1167.05 410.927C1167.05 410.927 1171.31 414.853 1169.13 424.767C1169.1 424.912 1169.1 425.063 1169.13 425.208C1169.17 425.352 1169.24 425.486 1169.33 425.6C1169.43 425.713 1169.55 425.803 1169.69 425.861C1169.83 425.92 1169.97 425.947 1170.12 425.939C1170.38 425.919 1170.63 425.841 1170.86 425.71C1172.07 424.954 1172.23 415.831 1168.34 410.91C1164.45 405.988 1167.05 410.927 1167.05 410.927ZM1173.57 412.673C1173.57 412.673 1177.01 417.361 1172.99 426.66C1172.92 426.798 1172.89 426.952 1172.89 427.107C1172.89 427.261 1172.93 427.413 1173 427.55C1173.08 427.686 1173.18 427.803 1173.31 427.891C1173.44 427.979 1173.58 428.035 1173.74 428.054C1174 428.059 1174.26 428.007 1174.5 427.902C1175.84 427.392 1177.72 418.462 1174.83 412.896C1171.95 407.329 1173.57 412.673 1173.57 412.673Z" fill="#009576"/>
<path d="M1173.63 409.148C1174.55 405.903 1172.66 402.531 1169.41 401.616C1166.17 400.702 1162.79 402.592 1161.88 405.838C1160.97 409.084 1162.86 412.456 1166.1 413.37C1169.35 414.284 1172.72 412.394 1173.63 409.148Z" fill="#2CFFD4"/>
<path d="M1179.92 416.458C1182.3 414.074 1182.3 410.208 1179.92 407.823C1177.53 405.439 1173.67 405.439 1171.28 407.823C1168.9 410.208 1168.9 414.074 1171.28 416.458C1173.67 418.842 1177.53 418.842 1179.92 416.458Z" fill="#39FFD6"/>
<path d="M1178.3 413.155C1177.99 413.872 1177.47 414.481 1176.81 414.905C1176.15 415.329 1175.38 415.549 1174.6 415.537C1173.82 415.526 1173.06 415.283 1172.41 414.84C1171.76 414.397 1171.26 413.774 1170.97 413.047C1170.68 412.321 1170.6 411.524 1170.76 410.757C1170.92 409.99 1171.3 409.286 1171.86 408.735C1172.41 408.183 1173.12 407.808 1173.89 407.656C1174.66 407.504 1175.45 407.583 1176.18 407.881C1176.66 408.087 1177.11 408.386 1177.48 408.763C1177.85 409.139 1178.14 409.585 1178.34 410.075C1178.53 410.566 1178.63 411.09 1178.63 411.618C1178.62 412.147 1178.51 412.669 1178.3 413.155ZM1168.38 407.618C1167.52 409.674 1165.45 410.77 1163.73 410.055C1162.01 409.34 1161.33 407.125 1162.18 405.045C1163.04 402.965 1165.11 401.893 1166.82 402.608C1168.54 403.323 1169.23 405.561 1168.38 407.618Z" fill="#14846D"/>
<path d="M1174.16 412.141C1174.96 412.141 1175.6 411.495 1175.6 410.699C1175.6 409.903 1174.96 409.258 1174.16 409.258C1173.36 409.258 1172.72 409.903 1172.72 410.699C1172.72 411.495 1173.36 412.141 1174.16 412.141Z" fill="white"/>
<path d="M1163.84 406.633C1164.63 406.633 1165.28 405.987 1165.28 405.191C1165.28 404.395 1164.63 403.75 1163.84 403.75C1163.04 403.75 1162.39 404.395 1162.39 405.191C1162.39 405.987 1163.04 406.633 1163.84 406.633Z" fill="white"/>
<path d="M1157.99 415.678C1157.99 416.342 1157.79 416.991 1157.42 417.543C1157.05 418.095 1156.53 418.525 1155.92 418.78C1155.3 419.034 1154.63 419.1 1153.98 418.971C1153.32 418.841 1152.73 418.521 1152.26 418.052C1151.79 417.582 1151.47 416.984 1151.34 416.333C1151.21 415.681 1151.27 415.006 1151.53 414.393C1151.78 413.779 1152.21 413.255 1152.77 412.886C1153.32 412.517 1153.97 412.32 1154.63 412.32C1155.07 412.32 1155.51 412.406 1155.92 412.574C1156.32 412.743 1156.69 412.99 1157.01 413.302C1157.32 413.614 1157.57 413.984 1157.73 414.392C1157.9 414.8 1157.99 415.237 1157.99 415.678ZM1198.17 453.91C1198.17 453.91 1197.59 450.98 1191.32 448.561C1188.57 447.607 1186.22 445.764 1184.63 443.322C1184.42 442.983 1184.09 442.736 1183.7 442.631C1183.32 442.526 1182.91 442.571 1182.55 442.756C1182.2 442.942 1181.93 443.254 1181.8 443.631C1181.66 444.008 1181.68 444.421 1181.84 444.787C1183.09 447.643 1185.38 449.917 1188.24 451.15C1193.7 453.494 1193.2 456.699 1193.2 456.699L1198.17 453.91Z" fill="#43FFD8"/>
<path d="M1196.86 452.138C1196.31 451.769 1195.66 451.572 1195 451.57C1194.34 451.569 1193.69 451.764 1193.14 452.13C1192.58 452.496 1192.15 453.017 1191.9 453.628C1191.64 454.239 1191.57 454.912 1191.7 455.562C1191.82 456.213 1192.14 456.812 1192.6 457.284C1193.07 457.756 1193.66 458.08 1194.31 458.215C1194.96 458.35 1195.63 458.29 1196.25 458.043C1196.86 457.795 1197.39 457.372 1197.76 456.825C1198.01 456.459 1198.19 456.046 1198.28 455.612C1198.37 455.177 1198.37 454.729 1198.29 454.294C1198.2 453.858 1198.03 453.443 1197.79 453.073C1197.54 452.703 1197.23 452.385 1196.86 452.138Z" fill="#43FFD8"/>
<path d="M1155.82 415.994C1156.27 418.033 1155.75 420.031 1154.57 420.031C1153.39 420.031 1151.21 418.631 1151.21 415.994C1151.21 414.236 1152.17 412.812 1153.35 412.812C1154.54 412.812 1155.45 414.277 1155.82 415.994Z" fill="#84F4DD"/>
<path d="M1151.85 416.962C1151.81 417.051 1151.75 417.127 1151.67 417.181C1151.59 417.234 1151.49 417.262 1151.4 417.262C1151.3 417.262 1151.2 417.234 1151.12 417.181C1151.04 417.127 1150.98 417.051 1150.94 416.962C1150.81 416.741 1150.75 416.492 1150.75 416.239C1150.75 415.985 1150.81 415.736 1150.94 415.515C1150.98 415.426 1151.04 415.35 1151.12 415.297C1151.2 415.243 1151.3 415.215 1151.4 415.215C1151.49 415.215 1151.59 415.243 1151.67 415.297C1151.75 415.35 1151.81 415.426 1151.85 415.515C1151.98 415.736 1152.04 415.985 1152.04 416.239C1152.04 416.492 1151.98 416.741 1151.85 416.962Z" fill="#2CFFD4"/>
<path d="M1151.27 416.67C1151.25 416.724 1151.22 416.771 1151.17 416.804C1151.13 416.838 1151.07 416.856 1151.02 416.856C1150.96 416.856 1150.9 416.838 1150.86 416.804C1150.81 416.771 1150.78 416.724 1150.76 416.67C1150.7 416.535 1150.66 416.387 1150.66 416.236C1150.66 416.086 1150.7 415.938 1150.76 415.803C1150.78 415.752 1150.82 415.708 1150.86 415.677C1150.91 415.646 1150.96 415.629 1151.02 415.629C1151.07 415.629 1151.12 415.646 1151.17 415.677C1151.21 415.708 1151.25 415.752 1151.27 415.803C1151.33 415.937 1151.37 416.086 1151.37 416.236C1151.37 416.387 1151.33 416.535 1151.27 416.67Z" fill="#39FFD6"/>
<path d="M1153.02 415.07C1152.93 415.126 1152.83 415.159 1152.73 415.165C1152.62 415.172 1152.52 415.152 1152.42 415.108C1152.33 415.063 1152.25 414.996 1152.18 414.911C1152.12 414.827 1152.08 414.728 1152.07 414.624C1152.03 414.379 1152.06 414.126 1152.17 413.9C1152.27 413.674 1152.44 413.486 1152.66 413.359C1152.74 413.303 1152.85 413.27 1152.95 413.263C1153.05 413.256 1153.16 413.276 1153.25 413.321C1153.35 413.365 1153.43 413.433 1153.49 413.517C1153.55 413.602 1153.59 413.7 1153.61 413.804C1153.65 414.049 1153.61 414.302 1153.51 414.528C1153.4 414.754 1153.23 414.943 1153.02 415.07Z" fill="#2CFFD4"/>
<path d="M1152.67 414.533C1152.63 414.564 1152.58 414.583 1152.53 414.588C1152.48 414.594 1152.43 414.585 1152.38 414.564C1152.34 414.542 1152.3 414.508 1152.27 414.465C1152.24 414.423 1152.22 414.373 1152.22 414.322C1152.21 414.196 1152.23 414.069 1152.28 413.955C1152.33 413.841 1152.42 413.744 1152.53 413.677C1152.57 413.648 1152.62 413.631 1152.67 413.626C1152.72 413.622 1152.77 413.631 1152.81 413.652C1152.86 413.673 1152.9 413.707 1152.93 413.748C1152.96 413.789 1152.97 413.838 1152.98 413.888C1152.99 414.014 1152.97 414.141 1152.92 414.255C1152.87 414.37 1152.78 414.466 1152.67 414.533Z" fill="#39FFD6"/>
<path d="M1153.91 418.506C1153.92 418.609 1153.9 418.714 1153.86 418.808C1153.82 418.903 1153.75 418.984 1153.66 419.044C1153.58 419.104 1153.48 419.14 1153.37 419.148C1153.27 419.156 1153.17 419.137 1153.07 419.092C1152.84 419.011 1152.63 418.863 1152.49 418.666C1152.34 418.469 1152.25 418.231 1152.24 417.984C1152.22 417.88 1152.24 417.776 1152.29 417.681C1152.33 417.587 1152.4 417.505 1152.48 417.446C1152.57 417.386 1152.67 417.35 1152.77 417.342C1152.88 417.333 1152.98 417.353 1153.07 417.398C1153.31 417.478 1153.51 417.627 1153.66 417.824C1153.81 418.021 1153.9 418.259 1153.91 418.506Z" fill="#2CFFD4"/>
<path d="M1153.33 418.505C1153.33 418.556 1153.33 418.607 1153.31 418.653C1153.29 418.7 1153.25 418.74 1153.21 418.77C1153.17 418.799 1153.12 418.818 1153.07 418.823C1153.02 418.828 1152.97 418.819 1152.92 418.798C1152.81 418.752 1152.7 418.672 1152.63 418.568C1152.55 418.464 1152.51 418.34 1152.5 418.212C1152.5 418.162 1152.51 418.111 1152.53 418.065C1152.55 418.018 1152.58 417.979 1152.62 417.949C1152.67 417.92 1152.71 417.901 1152.76 417.896C1152.82 417.891 1152.87 417.899 1152.91 417.919C1153.03 417.968 1153.13 418.049 1153.21 418.152C1153.28 418.256 1153.32 418.378 1153.33 418.505Z" fill="#39FFD6"/>
<path d="M1154.16 417.211C1154.65 417.211 1155.04 416.775 1155.04 416.238C1155.04 415.701 1154.65 415.266 1154.16 415.266C1153.68 415.266 1153.28 415.701 1153.28 416.238C1153.28 416.775 1153.68 417.211 1154.16 417.211Z" fill="#2CFFD4"/>
<path d="M1154.41 416.67C1154.36 416.727 1154.3 416.772 1154.23 416.804C1154.17 416.835 1154.09 416.851 1154.02 416.851C1153.94 416.851 1153.87 416.835 1153.8 416.804C1153.74 416.772 1153.68 416.727 1153.63 416.67C1153.53 416.549 1153.47 416.395 1153.47 416.237C1153.47 416.078 1153.53 415.924 1153.63 415.803C1153.68 415.747 1153.74 415.702 1153.8 415.672C1153.87 415.641 1153.94 415.625 1154.02 415.625C1154.09 415.625 1154.17 415.641 1154.23 415.672C1154.3 415.702 1154.36 415.747 1154.41 415.803C1154.51 415.923 1154.57 416.077 1154.57 416.237C1154.57 416.396 1154.51 416.55 1154.41 416.67Z" fill="#39FFD6"/>
<path d="M1195.09 453.902C1196.4 455.537 1196.85 457.558 1195.78 458.091C1194.7 458.625 1192.13 458.337 1190.95 455.964C1190.16 454.382 1190.36 452.671 1191.44 452.144C1192.53 451.617 1193.98 452.525 1195.09 453.902Z" fill="#84F4DD"/>
<path d="M1191.95 456.548C1191.96 456.645 1191.93 456.741 1191.88 456.824C1191.83 456.907 1191.76 456.973 1191.67 457.015C1191.59 457.058 1191.49 457.074 1191.39 457.062C1191.3 457.049 1191.21 457.009 1191.13 456.947C1190.93 456.803 1190.76 456.608 1190.64 456.38C1190.53 456.153 1190.48 455.9 1190.49 455.646C1190.49 455.549 1190.51 455.453 1190.56 455.369C1190.61 455.286 1190.68 455.219 1190.77 455.176C1190.86 455.134 1190.96 455.117 1191.05 455.129C1191.15 455.14 1191.24 455.18 1191.32 455.242C1191.53 455.386 1191.69 455.583 1191.81 455.811C1191.92 456.04 1191.97 456.294 1191.95 456.548Z" fill="#2CFFD4"/>
<path d="M1191.3 456.55C1191.3 456.825 1191.08 456.919 1190.85 456.767C1190.73 456.677 1190.63 456.559 1190.56 456.424C1190.49 456.288 1190.46 456.139 1190.46 455.987C1190.46 455.712 1190.68 455.612 1190.91 455.771C1191.03 455.861 1191.13 455.978 1191.2 456.114C1191.27 456.249 1191.3 456.399 1191.3 456.55Z" fill="#39FFD6"/>
<path d="M1192.15 454.321C1192.1 454.409 1192.02 454.482 1191.93 454.533C1191.84 454.583 1191.73 454.609 1191.63 454.609C1191.52 454.609 1191.42 454.583 1191.33 454.533C1191.24 454.482 1191.16 454.409 1191.1 454.321C1190.96 454.119 1190.88 453.876 1190.87 453.626C1190.86 453.376 1190.93 453.13 1191.07 452.921C1191.13 452.832 1191.2 452.76 1191.3 452.709C1191.39 452.659 1191.49 452.633 1191.6 452.633C1191.7 452.633 1191.81 452.659 1191.9 452.709C1191.99 452.76 1192.07 452.832 1192.12 452.921C1192.27 453.124 1192.35 453.366 1192.36 453.616C1192.36 453.866 1192.29 454.112 1192.15 454.321Z" fill="#2CFFD4"/>
<path d="M1191.61 453.995C1191.58 454.04 1191.55 454.078 1191.5 454.104C1191.46 454.131 1191.41 454.145 1191.36 454.145C1191.31 454.145 1191.25 454.131 1191.21 454.104C1191.17 454.078 1191.13 454.04 1191.1 453.995C1191.04 453.889 1191 453.766 1191 453.641C1191 453.515 1191.04 453.393 1191.1 453.286C1191.13 453.241 1191.17 453.203 1191.21 453.177C1191.25 453.151 1191.31 453.137 1191.36 453.137C1191.41 453.137 1191.46 453.151 1191.5 453.177C1191.55 453.203 1191.58 453.241 1191.61 453.286C1191.68 453.392 1191.71 453.515 1191.71 453.641C1191.71 453.766 1191.68 453.889 1191.61 453.995Z" fill="#39FFD6"/>
<path d="M1194.5 457.01C1194.56 457.099 1194.6 457.203 1194.61 457.311C1194.61 457.419 1194.59 457.527 1194.54 457.623C1194.49 457.719 1194.41 457.799 1194.32 457.854C1194.23 457.909 1194.12 457.938 1194.01 457.936C1193.77 457.964 1193.51 457.917 1193.29 457.801C1193.07 457.685 1192.89 457.506 1192.78 457.286C1192.72 457.198 1192.68 457.096 1192.68 456.99C1192.67 456.884 1192.69 456.779 1192.74 456.685C1192.79 456.591 1192.87 456.513 1192.96 456.457C1193.05 456.402 1193.15 456.373 1193.26 456.372C1193.5 456.343 1193.75 456.388 1193.98 456.502C1194.2 456.616 1194.38 456.793 1194.5 457.01Z" fill="#2CFFD4"/>
<path d="M1193.98 457.268C1194 457.311 1194.02 457.36 1194.02 457.411C1194.02 457.462 1194.01 457.512 1193.99 457.557C1193.96 457.602 1193.93 457.64 1193.89 457.667C1193.84 457.695 1193.79 457.71 1193.74 457.713C1193.62 457.725 1193.49 457.701 1193.38 457.642C1193.27 457.584 1193.17 457.495 1193.11 457.385C1193.08 457.342 1193.07 457.292 1193.06 457.241C1193.06 457.19 1193.07 457.138 1193.1 457.093C1193.12 457.047 1193.16 457.009 1193.2 456.982C1193.24 456.955 1193.29 456.941 1193.34 456.94C1193.47 456.93 1193.6 456.955 1193.71 457.013C1193.82 457.071 1193.91 457.159 1193.98 457.268Z" fill="#39FFD6"/>
<path d="M1194.5 454.469C1194.62 454.685 1194.65 454.94 1194.58 455.178C1194.51 455.416 1194.36 455.618 1194.14 455.74C1193.91 455.835 1193.66 455.837 1193.43 455.746C1193.2 455.656 1193.02 455.479 1192.92 455.254C1192.85 455.149 1192.8 455.03 1192.78 454.905C1192.76 454.78 1192.76 454.652 1192.8 454.529C1192.83 454.407 1192.89 454.293 1192.97 454.194C1193.05 454.096 1193.15 454.016 1193.26 453.96C1193.37 453.904 1193.5 453.872 1193.62 453.868C1193.75 453.863 1193.88 453.886 1193.99 453.934C1194.11 453.982 1194.22 454.055 1194.3 454.147C1194.39 454.239 1194.46 454.349 1194.5 454.469Z" fill="#2CFFD4"/>
<path d="M1194.12 455.142C1194.11 455.213 1194.07 455.281 1194.03 455.338C1193.98 455.396 1193.92 455.443 1193.85 455.475C1193.79 455.508 1193.71 455.525 1193.64 455.526C1193.57 455.527 1193.49 455.512 1193.43 455.481C1193.28 455.421 1193.16 455.31 1193.09 455.167C1193.02 455.025 1193 454.862 1193.04 454.708C1193.06 454.636 1193.09 454.569 1193.14 454.511C1193.19 454.453 1193.24 454.406 1193.31 454.373C1193.38 454.34 1193.45 454.322 1193.53 454.32C1193.6 454.319 1193.67 454.333 1193.74 454.362C1193.89 454.425 1194.01 454.538 1194.08 454.681C1194.15 454.824 1194.16 454.988 1194.12 455.142Z" fill="#39FFD6"/>
<g clip-path="url(#clip1_4726_38188)">
<path d="M232.258 198.266C232.258 187.994 226.305 170.552 206.133 159.078C206.133 159.078 215.321 174.768 206.875 171.977C198.429 169.187 201.739 156.955 188.142 149.89C188.142 149.89 193.441 161.379 185.856 159.137C175.807 156.184 176.549 141.058 157.742 138.742C157.742 138.742 179.948 157.193 175.896 162.477C171.844 167.762 157.742 149.133 157.742 149.133C157.742 149.133 158.989 167.02 174.412 170.923C197.434 176.742 193.872 195.534 177.366 180.631C177.366 180.631 190.755 213.258 217.266 213.258C227.76 213.258 232.258 206.073 232.258 198.266Z" fill="#84F4DD"/>
<path d="M228.399 198.264C228.399 187.25 217.815 180.718 209.755 177.676C209.755 177.676 215.989 185.424 210.824 185.127C205.658 184.83 203.357 174.989 194.971 176.444C194.971 176.444 205.272 184.118 202.912 191.658C201.161 197.24 195.683 187.621 195.683 187.621C195.683 187.621 196.5 209.397 217.266 209.397" fill="#29DBB6"/>
<path d="M217.266 209.398C223.414 209.398 228.398 204.414 228.398 198.266C228.398 192.117 223.414 187.133 217.266 187.133C211.117 187.133 206.133 192.117 206.133 198.266C206.133 204.414 211.117 209.398 217.266 209.398Z" fill="#15E3B9"/>
<path d="M222.595 188.484C223.456 190.073 223.946 191.884 223.946 193.813C223.946 199.959 218.959 204.946 212.813 204.946C210.884 204.946 209.073 204.456 207.484 203.595C209.37 207.054 213.051 209.399 217.266 209.399C223.412 209.399 228.399 204.412 228.399 198.266C228.399 194.051 226.054 190.37 222.595 188.484Z" fill="#39EFCA"/>
<path d="M220.931 205.998C222.764 205.38 224.059 204.312 223.824 203.613C223.588 202.914 221.91 202.848 220.077 203.466C218.244 204.085 216.949 205.153 217.185 205.852C217.421 206.551 219.098 206.616 220.931 205.998Z" fill="#15E3B9"/>
<path d="M219.627 192.871C221.089 193.84 222.641 194.073 223.095 193.39C223.548 192.707 222.73 191.367 221.268 190.397C219.806 189.427 218.254 189.194 217.8 189.878C217.347 190.561 218.165 191.901 219.627 192.871Z" fill="#10B291"/>
<path d="M211.432 201.606C212.777 201.606 213.867 200.131 213.867 198.311C213.867 196.491 212.777 195.016 211.432 195.016C210.088 195.016 208.998 196.491 208.998 198.311C208.998 200.131 210.088 201.606 211.432 201.606Z" fill="#10B291"/>
<path d="M217.266 213.999C204.144 213.999 192.788 208.982 185.574 204.766L186.316 203.49C193.382 207.602 204.47 212.515 217.266 212.515C225.92 212.515 231.516 206.919 231.516 198.265C231.516 188.646 227.077 168.652 227.033 168.444L228.488 168.117C228.666 168.948 233 188.483 233 198.25C233 202.896 231.53 206.83 228.74 209.65C225.92 212.5 221.956 213.999 217.266 213.999ZM182.368 202.777C180.631 201.634 179.681 200.877 179.637 200.848L180.557 199.69C180.572 199.69 181.507 200.432 183.184 201.545L182.368 202.777Z" fill="#34FFD5"/>
</g>
<defs>
<linearGradient id="paint0_linear_4726_38188" x1="731.5" y1="0" x2="731.5" y2="488.583" gradientUnits="userSpaceOnUse">
<stop stop-color="#141A21"/>
<stop offset="1" stop-color="#213636"/>
</linearGradient>
<clipPath id="clip0_4726_38188">
<rect width="38" height="38" fill="white" transform="translate(102 269)"/>
</clipPath>
<clipPath id="clip1_4726_38188">
<rect width="76" height="76" fill="white" transform="translate(157 138)"/>
</clipPath>
</defs>
</svg>
