<svg width="911" height="173" viewBox="0 0 911 173" fill="none" xmlns="http://www.w3.org/2000/svg">
<mask id="path-1-outside-1_4773_29391" maskUnits="userSpaceOnUse" x="9.10547" y="8.16016" width="894" height="162" fill="black">
<rect fill="white" x="9.10547" y="8.16016" width="894" height="162"/>
<path d="M87.3055 34.0402C89.1455 34.0402 90.5055 34.1202 91.3855 34.2802C92.3455 34.3602 93.3855 34.7202 94.5055 35.3602C95.7055 36.0002 96.5455 37.0802 97.0255 38.6002C97.5055 40.1202 97.7455 42.1602 97.7455 44.7202C97.7455 47.2802 97.5055 49.3202 97.0255 50.8402C96.5455 52.3602 95.7055 53.4402 94.5055 54.0802C93.3055 54.6402 92.2255 55.0002 91.2655 55.1602C90.3855 55.2402 88.9855 55.2802 87.0655 55.2802H50.3455V67.4002H73.9855C75.9055 67.4002 77.3055 67.4802 78.1855 67.6402C79.1455 67.7202 80.2255 68.0802 81.4255 68.7202C83.5055 69.9202 84.5455 73.0802 84.5455 78.2002C84.5455 83.8002 83.0255 87.1202 79.9855 88.1602C78.7055 88.5602 76.6655 88.7602 73.8655 88.7602H50.3455V111.44C50.3455 113.36 50.2655 114.76 50.1055 115.64C50.0255 116.52 49.6655 117.56 49.0255 118.76C47.9055 120.92 44.7855 122 39.6655 122C34.0655 122 30.7855 120.48 29.8255 117.44C29.3455 116.16 29.1055 114.12 29.1055 111.32V44.6002C29.1055 40.5202 29.8655 37.7602 31.3855 36.3202C32.9055 34.8002 35.7855 34.0402 40.0255 34.0402H87.3055Z"/>
<path d="M103.168 69.3202C103.168 67.4802 103.208 66.1202 103.288 65.2402C103.448 64.2802 103.808 63.2002 104.368 62.0002C105.488 59.9202 108.608 58.8802 113.728 58.8802C117.568 58.8802 120.288 59.5602 121.888 60.9202C123.248 62.0402 123.968 63.7602 124.048 66.0802C124.128 66.8802 124.168 68.0402 124.168 69.5602V111.56C124.168 113.4 124.088 114.8 123.928 115.76C123.848 116.64 123.488 117.68 122.848 118.88C121.808 120.96 118.728 122 113.608 122C108.568 122 105.488 120.92 104.368 118.76C103.808 117.56 103.448 116.52 103.288 115.64C103.208 114.76 103.168 113.36 103.168 111.44V69.3202ZM122.848 47.1202C122.288 48.2402 121.248 49.0402 119.728 49.5202C118.208 50.0002 116.168 50.2402 113.608 50.2402C111.128 50.2402 109.128 50.0002 107.608 49.5202C106.088 49.0402 105.008 48.2002 104.368 47.0002C103.808 45.8002 103.448 44.7602 103.288 43.8802C103.208 42.9202 103.168 41.5202 103.168 39.6802C103.168 37.8402 103.208 36.4802 103.288 35.6002C103.448 34.6402 103.808 33.6002 104.368 32.4802C105.488 30.3202 108.608 29.2402 113.728 29.2402C118.768 29.2402 121.808 30.3202 122.848 32.4802C123.488 33.6802 123.848 34.7602 123.928 35.7202C124.088 36.6002 124.168 37.9602 124.168 39.8002C124.168 41.6402 124.088 43.0402 123.928 44.0002C123.848 44.8802 123.488 45.9202 122.848 47.1202Z"/>
<path d="M177.554 90.3202L190.874 103.76C193.754 106.64 195.194 109.12 195.194 111.2C195.194 113.2 193.754 115.64 190.874 118.52C187.994 121.32 185.554 122.72 183.554 122.72C181.554 122.72 179.114 121.28 176.234 118.4L163.034 105.08L149.714 118.4C146.834 121.28 144.394 122.72 142.394 122.72C140.474 122.72 138.034 121.32 135.074 118.52C132.194 115.64 130.754 113.2 130.754 111.2C130.754 109.12 132.194 106.64 135.074 103.76L148.394 90.3202L135.074 76.8802C132.194 74.0002 130.754 71.5602 130.754 69.5602C130.754 67.4802 132.194 65.0002 135.074 62.1202C138.034 59.2402 140.474 57.8002 142.394 57.8002C144.394 57.8002 146.834 59.2402 149.714 62.1202L163.034 75.5602L176.234 62.1202C179.114 59.2402 181.554 57.8002 183.554 57.8002C185.554 57.8002 187.994 59.2402 190.874 62.1202C193.754 65.0002 195.194 67.4802 195.194 69.5602C195.194 71.5602 193.754 74.0002 190.874 76.8802L177.554 90.3202Z"/>
<path d="M238.56 80.0002L230.76 79.5202V96.0802C230.76 98.2402 231.08 99.8002 231.72 100.76C232.44 101.72 233.72 102.2 235.56 102.2C237.48 102.2 238.92 102.28 239.88 102.44C240.92 102.52 242 102.88 243.12 103.52C244.96 104.56 245.88 107.24 245.88 111.56C245.88 116.6 244.76 119.68 242.52 120.8C241.32 121.36 240.24 121.72 239.28 121.88C238.4 121.96 237.08 122 235.32 122C227 122 220.68 120.12 216.36 116.36C212.04 112.6 209.88 106.24 209.88 97.2802V79.5202C208.36 79.7602 206.72 79.8802 204.96 79.8802C203.2 79.8802 201.72 79.2002 200.52 77.8402C199.4 76.4802 198.84 74.1602 198.84 70.8802C198.84 67.6002 199.04 65.2402 199.44 63.8002C199.84 62.2802 200.4 61.2002 201.12 60.5602C202.4 59.5202 204 59.0002 205.92 59.0002L209.88 59.4802V47.1202C209.88 45.2802 209.92 43.9202 210 43.0402C210.16 42.1602 210.56 41.2002 211.2 40.1602C212.24 38.1602 215.32 37.1602 220.44 37.1602C225.88 37.1602 229.12 38.6402 230.16 41.6002C230.56 42.8802 230.76 44.9202 230.76 47.7202V59.4802C234.28 59.1602 236.92 59.0002 238.68 59.0002C240.52 59.0002 241.88 59.0802 242.76 59.2402C243.72 59.3202 244.8 59.6802 246 60.3202C248.08 61.3602 249.12 64.4402 249.12 69.5602C249.12 74.6002 248.04 77.6802 245.88 78.8002C244.68 79.3602 243.6 79.7202 242.64 79.8802C241.76 79.9602 240.4 80.0002 238.56 80.0002Z"/>
<path d="M314.362 82.8802C314.362 87.7602 313.122 91.4002 310.642 93.8002C308.242 96.1202 305.562 97.2802 302.602 97.2802H274.162C274.162 99.5202 275.482 101.4 278.122 102.92C280.762 104.44 283.402 105.2 286.042 105.2C290.682 105.2 294.322 104.72 296.962 103.76L298.282 103.28C300.202 102.4 301.802 101.96 303.082 101.96C305.642 101.96 307.842 103.76 309.682 107.36C310.722 109.52 311.242 111.36 311.242 112.88C311.242 120 302.722 123.56 285.682 123.56C279.762 123.56 274.482 122.56 269.842 120.56C265.282 118.48 261.722 115.76 259.162 112.4C254.122 105.92 251.602 98.6802 251.602 90.6802C251.602 80.6002 254.842 72.5602 261.322 66.5602C267.882 60.4802 276.042 57.4402 285.802 57.4402C296.922 57.4402 305.082 61.3602 310.282 69.2002C313.002 73.3602 314.362 77.9202 314.362 82.8802ZM289.042 86.3602C292.082 86.3602 293.602 85.0802 293.602 82.5202C293.602 80.6802 292.882 79.2002 291.442 78.0802C290.082 76.9602 288.082 76.4002 285.442 76.4002C282.882 76.4002 280.322 77.4802 277.762 79.6402C275.202 81.7202 273.922 83.9602 273.922 86.3602H289.042Z"/>
<path d="M365.151 59.4802C366.671 59.9602 367.911 60.8002 368.871 62.0002C369.911 63.1202 370.431 64.9602 370.431 67.5202C370.431 70.0802 369.671 72.8802 368.151 75.9202C366.631 78.9602 364.431 80.4802 361.551 80.4802C360.111 80.4802 358.711 80.1602 357.351 79.5202C356.071 78.8802 354.351 78.5602 352.191 78.5602C350.031 78.5602 347.991 79.3202 346.071 80.8402C344.231 82.3602 343.311 84.2002 343.311 86.3602V111.56C343.311 113.4 343.231 114.8 343.071 115.76C342.991 116.64 342.631 117.68 341.991 118.88C340.791 120.96 337.671 122 332.631 122C328.791 122 326.031 121.32 324.351 119.96C323.071 118.84 322.351 117.12 322.191 114.8C322.191 114 322.191 112.84 322.191 111.32V69.2002C322.191 67.3602 322.231 66.0002 322.311 65.1202C322.471 64.1602 322.831 63.1202 323.391 62.0002C324.511 59.8402 327.631 58.7602 332.751 58.7602C337.551 58.7602 340.551 59.6802 341.751 61.5202C342.631 62.8002 343.071 64.1202 343.071 65.4802C343.471 64.9202 344.031 64.2402 344.751 63.4402C345.551 62.6402 347.191 61.5602 349.671 60.2002C352.151 58.8402 354.311 58.1602 356.151 58.1602C358.071 58.1602 359.671 58.2802 360.951 58.5202C362.231 58.6802 363.631 59.0002 365.151 59.4802Z"/>
<path d="M413.482 114.08C410.442 118.08 405.602 120.08 398.962 120.08C392.322 120.08 386.082 117.04 380.242 110.96C374.482 104.8 371.602 97.6402 371.602 89.4802C371.602 81.3202 374.522 74.1602 380.362 68.0002C386.202 61.8402 392.602 58.7602 399.562 58.7602C402.282 58.7602 404.762 59.2802 407.002 60.3202C409.242 61.2802 410.762 62.2002 411.562 63.0802C412.442 63.8802 413.122 64.6402 413.602 65.3602C413.842 63.1202 414.642 61.4402 416.002 60.3202C417.442 59.1202 419.722 58.5202 422.842 58.5202C425.962 58.5202 428.242 58.7602 429.682 59.2402C431.122 59.7202 432.122 60.5602 432.682 61.7602C433.322 62.8802 433.682 63.8802 433.762 64.7602C433.922 65.6402 434.002 67.0002 434.002 68.8402V118.52C434.002 127.72 430.802 135.12 424.402 140.72C418.002 146.4 410.802 149.24 402.802 149.24C396.722 149.24 390.922 147.76 385.402 144.8C379.882 141.84 377.122 139.16 377.122 136.76C377.122 133.64 378.322 130.88 380.722 128.48C382.242 126.8 383.402 125.64 384.202 125C385.082 124.36 386.082 124.04 387.202 124.04C388.322 124.04 389.482 124.52 390.682 125.48C394.522 128.44 398.682 129.92 403.162 129.92C406.202 129.92 408.682 128.72 410.602 126.32C412.522 123.92 413.482 121.04 413.482 117.68V114.08ZM392.122 89.6002C392.122 92.1602 393.122 94.4802 395.122 96.5602C397.202 98.6402 399.682 99.6802 402.562 99.6802C405.522 99.6802 407.962 98.6402 409.882 96.5602C411.802 94.4002 412.762 92.0802 412.762 89.6002C412.762 87.0402 411.842 84.6802 410.002 82.5202C408.162 80.2802 405.682 79.1602 402.562 79.1602C399.442 79.1602 396.922 80.2402 395.002 82.4002C393.082 84.5602 392.122 86.9602 392.122 89.6002Z"/>
<path d="M504.558 82.8802C504.558 87.7602 503.318 91.4002 500.838 93.8002C498.438 96.1202 495.758 97.2802 492.798 97.2802H464.358C464.358 99.5202 465.678 101.4 468.318 102.92C470.958 104.44 473.598 105.2 476.238 105.2C480.878 105.2 484.518 104.72 487.158 103.76L488.478 103.28C490.398 102.4 491.998 101.96 493.278 101.96C495.838 101.96 498.038 103.76 499.878 107.36C500.918 109.52 501.438 111.36 501.438 112.88C501.438 120 492.918 123.56 475.878 123.56C469.958 123.56 464.678 122.56 460.038 120.56C455.478 118.48 451.918 115.76 449.358 112.4C444.318 105.92 441.798 98.6802 441.798 90.6802C441.798 80.6002 445.038 72.5602 451.518 66.5602C458.078 60.4802 466.238 57.4402 475.998 57.4402C487.118 57.4402 495.278 61.3602 500.478 69.2002C503.198 73.3602 504.558 77.9202 504.558 82.8802ZM479.238 86.3602C482.278 86.3602 483.798 85.0802 483.798 82.5202C483.798 80.6802 483.078 79.2002 481.638 78.0802C480.278 76.9602 478.278 76.4002 475.638 76.4002C473.078 76.4002 470.518 77.4802 467.958 79.6402C465.398 81.7202 464.118 83.9602 464.118 86.3602H479.238Z"/>
<path d="M573.347 82.8802C573.347 87.7602 572.107 91.4002 569.627 93.8002C567.227 96.1202 564.547 97.2802 561.587 97.2802H533.147C533.147 99.5202 534.467 101.4 537.107 102.92C539.747 104.44 542.387 105.2 545.027 105.2C549.667 105.2 553.307 104.72 555.947 103.76L557.267 103.28C559.187 102.4 560.787 101.96 562.067 101.96C564.627 101.96 566.827 103.76 568.667 107.36C569.707 109.52 570.227 111.36 570.227 112.88C570.227 120 561.707 123.56 544.667 123.56C538.747 123.56 533.467 122.56 528.827 120.56C524.267 118.48 520.707 115.76 518.147 112.4C513.107 105.92 510.587 98.6802 510.587 90.6802C510.587 80.6002 513.827 72.5602 520.307 66.5602C526.867 60.4802 535.027 57.4402 544.787 57.4402C555.907 57.4402 564.067 61.3602 569.267 69.2002C571.987 73.3602 573.347 77.9202 573.347 82.8802ZM548.027 86.3602C551.067 86.3602 552.587 85.0802 552.587 82.5202C552.587 80.6802 551.867 79.2002 550.427 78.0802C549.067 76.9602 547.067 76.4002 544.427 76.4002C541.867 76.4002 539.307 77.4802 536.747 79.6402C534.187 81.7202 532.907 83.9602 532.907 86.3602H548.027Z"/>
<path d="M618.376 90.3202L634.336 103.52C636.336 105.2 637.576 106.48 638.056 107.36C638.616 108.24 638.896 109.08 638.896 109.88C638.896 111.8 637.656 114.4 635.176 117.68C632.456 121.04 630.056 122.72 627.976 122.72C626.216 122.72 623.776 121.56 620.656 119.24L619.456 118.4C617.616 116.88 614.776 114.24 610.936 110.48C607.096 106.64 604.176 103.92 602.176 102.32V111.56C602.176 113.4 602.096 114.8 601.936 115.76C601.856 116.64 601.496 117.68 600.856 118.88C599.816 120.96 596.736 122 591.616 122C586.576 122 583.496 120.92 582.376 118.76C581.816 117.56 581.456 116.52 581.296 115.64C581.216 114.68 581.176 113.28 581.176 111.44V39.5602C581.176 37.7202 581.216 36.3602 581.296 35.4802C581.456 34.5202 581.816 33.4402 582.376 32.2402C583.496 30.0802 586.616 29.0002 591.736 29.0002C595.576 29.0002 598.296 29.6802 599.896 31.0402C601.256 32.1602 601.976 33.9202 602.056 36.3202C602.136 37.0402 602.176 38.1602 602.176 39.6802V77.7202C603.616 76.5202 605.776 74.4802 608.656 71.6002C611.616 68.7202 613.816 66.6802 615.256 65.4802L616.696 64.5202C619.496 62.3602 621.896 61.2802 623.896 61.2802C625.896 61.2802 628.176 62.9202 630.736 66.2002C633.376 69.4002 634.696 71.9202 634.696 73.7602C634.696 75.6002 633.216 77.7602 630.256 80.2402L618.376 90.3202Z"/>
<path d="M677.543 89.0002C674.423 87.4802 672.863 84.7202 672.863 80.7202C672.863 76.7202 674.463 73.9202 677.663 72.3202C705.103 56.0802 720.863 46.7202 724.943 44.2402C729.023 41.7602 731.463 40.4002 732.263 40.1602C733.143 39.7602 734.183 39.5602 735.383 39.5602C737.543 39.5602 739.783 41.5202 742.103 45.4402C743.623 47.9202 744.383 49.8002 744.383 51.0802C744.383 52.2802 744.103 53.3202 743.543 54.2002C742.823 55.4802 741.183 56.9602 738.623 58.6402C714.783 72.7202 702.383 80.0802 701.423 80.7202L738.623 102.8C740.143 103.68 741.223 104.4 741.863 104.96C743.623 106.4 744.503 107.96 744.503 109.64C744.503 111.24 743.783 113.2 742.343 115.52C740.983 117.76 739.743 119.36 738.623 120.32C737.503 121.28 736.343 121.76 735.143 121.76C733.543 121.76 731.463 121 728.903 119.48L677.543 89.0002Z"/>
<path d="M767.418 122.96C766.778 124.32 766.258 125.32 765.858 125.96C765.538 126.6 764.938 127.2 764.058 127.76C763.258 128.4 762.178 128.72 760.818 128.72C759.458 128.72 757.458 128.12 754.818 126.92C752.178 125.72 750.378 124.64 749.418 123.68C748.538 122.8 748.098 121.8 748.098 120.68C748.098 119.56 748.578 117.56 749.538 114.68L788.178 33.9202C789.698 30.8802 791.058 29.1202 792.258 28.6402C792.898 28.3202 793.818 28.1602 795.018 28.1602C796.298 28.1602 798.338 28.8002 801.138 30.0802C805.458 32.1602 807.618 34.4402 807.618 36.9202C807.618 37.9602 807.058 39.9602 805.938 42.9202L767.418 122.96Z"/>
<path d="M877.982 72.3202C881.182 73.9202 882.782 76.7202 882.782 80.7202C882.782 84.7202 881.222 87.4802 878.102 89.0002L826.862 119.48C822.782 122.12 819.502 122.4 817.022 120.32C815.902 119.36 814.742 117.92 813.542 116C811.942 113.36 811.142 111.44 811.142 110.24C811.142 109.04 811.382 108 811.862 107.12C812.742 105.76 814.462 104.32 817.022 102.8L854.342 80.7202L817.142 58.6402C815.702 57.7602 814.622 57.0402 813.902 56.4802C812.142 54.9602 811.262 53.3202 811.262 51.5602C811.262 49.9602 811.942 48.0402 813.302 45.8002C815.782 41.6402 818.102 39.5602 820.262 39.5602C822.182 39.5602 824.342 40.3202 826.742 41.8402L877.982 72.3202Z"/>
</mask>
<path d="M87.3055 34.0402C89.1455 34.0402 90.5055 34.1202 91.3855 34.2802C92.3455 34.3602 93.3855 34.7202 94.5055 35.3602C95.7055 36.0002 96.5455 37.0802 97.0255 38.6002C97.5055 40.1202 97.7455 42.1602 97.7455 44.7202C97.7455 47.2802 97.5055 49.3202 97.0255 50.8402C96.5455 52.3602 95.7055 53.4402 94.5055 54.0802C93.3055 54.6402 92.2255 55.0002 91.2655 55.1602C90.3855 55.2402 88.9855 55.2802 87.0655 55.2802H50.3455V67.4002H73.9855C75.9055 67.4002 77.3055 67.4802 78.1855 67.6402C79.1455 67.7202 80.2255 68.0802 81.4255 68.7202C83.5055 69.9202 84.5455 73.0802 84.5455 78.2002C84.5455 83.8002 83.0255 87.1202 79.9855 88.1602C78.7055 88.5602 76.6655 88.7602 73.8655 88.7602H50.3455V111.44C50.3455 113.36 50.2655 114.76 50.1055 115.64C50.0255 116.52 49.6655 117.56 49.0255 118.76C47.9055 120.92 44.7855 122 39.6655 122C34.0655 122 30.7855 120.48 29.8255 117.44C29.3455 116.16 29.1055 114.12 29.1055 111.32V44.6002C29.1055 40.5202 29.8655 37.7602 31.3855 36.3202C32.9055 34.8002 35.7855 34.0402 40.0255 34.0402H87.3055Z" fill="#15191E"/>
<path d="M103.168 69.3202C103.168 67.4802 103.208 66.1202 103.288 65.2402C103.448 64.2802 103.808 63.2002 104.368 62.0002C105.488 59.9202 108.608 58.8802 113.728 58.8802C117.568 58.8802 120.288 59.5602 121.888 60.9202C123.248 62.0402 123.968 63.7602 124.048 66.0802C124.128 66.8802 124.168 68.0402 124.168 69.5602V111.56C124.168 113.4 124.088 114.8 123.928 115.76C123.848 116.64 123.488 117.68 122.848 118.88C121.808 120.96 118.728 122 113.608 122C108.568 122 105.488 120.92 104.368 118.76C103.808 117.56 103.448 116.52 103.288 115.64C103.208 114.76 103.168 113.36 103.168 111.44V69.3202ZM122.848 47.1202C122.288 48.2402 121.248 49.0402 119.728 49.5202C118.208 50.0002 116.168 50.2402 113.608 50.2402C111.128 50.2402 109.128 50.0002 107.608 49.5202C106.088 49.0402 105.008 48.2002 104.368 47.0002C103.808 45.8002 103.448 44.7602 103.288 43.8802C103.208 42.9202 103.168 41.5202 103.168 39.6802C103.168 37.8402 103.208 36.4802 103.288 35.6002C103.448 34.6402 103.808 33.6002 104.368 32.4802C105.488 30.3202 108.608 29.2402 113.728 29.2402C118.768 29.2402 121.808 30.3202 122.848 32.4802C123.488 33.6802 123.848 34.7602 123.928 35.7202C124.088 36.6002 124.168 37.9602 124.168 39.8002C124.168 41.6402 124.088 43.0402 123.928 44.0002C123.848 44.8802 123.488 45.9202 122.848 47.1202Z" fill="#15191E"/>
<path d="M177.554 90.3202L190.874 103.76C193.754 106.64 195.194 109.12 195.194 111.2C195.194 113.2 193.754 115.64 190.874 118.52C187.994 121.32 185.554 122.72 183.554 122.72C181.554 122.72 179.114 121.28 176.234 118.4L163.034 105.08L149.714 118.4C146.834 121.28 144.394 122.72 142.394 122.72C140.474 122.72 138.034 121.32 135.074 118.52C132.194 115.64 130.754 113.2 130.754 111.2C130.754 109.12 132.194 106.64 135.074 103.76L148.394 90.3202L135.074 76.8802C132.194 74.0002 130.754 71.5602 130.754 69.5602C130.754 67.4802 132.194 65.0002 135.074 62.1202C138.034 59.2402 140.474 57.8002 142.394 57.8002C144.394 57.8002 146.834 59.2402 149.714 62.1202L163.034 75.5602L176.234 62.1202C179.114 59.2402 181.554 57.8002 183.554 57.8002C185.554 57.8002 187.994 59.2402 190.874 62.1202C193.754 65.0002 195.194 67.4802 195.194 69.5602C195.194 71.5602 193.754 74.0002 190.874 76.8802L177.554 90.3202Z" fill="#15191E"/>
<path d="M238.56 80.0002L230.76 79.5202V96.0802C230.76 98.2402 231.08 99.8002 231.72 100.76C232.44 101.72 233.72 102.2 235.56 102.2C237.48 102.2 238.92 102.28 239.88 102.44C240.92 102.52 242 102.88 243.12 103.52C244.96 104.56 245.88 107.24 245.88 111.56C245.88 116.6 244.76 119.68 242.52 120.8C241.32 121.36 240.24 121.72 239.28 121.88C238.4 121.96 237.08 122 235.32 122C227 122 220.68 120.12 216.36 116.36C212.04 112.6 209.88 106.24 209.88 97.2802V79.5202C208.36 79.7602 206.72 79.8802 204.96 79.8802C203.2 79.8802 201.72 79.2002 200.52 77.8402C199.4 76.4802 198.84 74.1602 198.84 70.8802C198.84 67.6002 199.04 65.2402 199.44 63.8002C199.84 62.2802 200.4 61.2002 201.12 60.5602C202.4 59.5202 204 59.0002 205.92 59.0002L209.88 59.4802V47.1202C209.88 45.2802 209.92 43.9202 210 43.0402C210.16 42.1602 210.56 41.2002 211.2 40.1602C212.24 38.1602 215.32 37.1602 220.44 37.1602C225.88 37.1602 229.12 38.6402 230.16 41.6002C230.56 42.8802 230.76 44.9202 230.76 47.7202V59.4802C234.28 59.1602 236.92 59.0002 238.68 59.0002C240.52 59.0002 241.88 59.0802 242.76 59.2402C243.72 59.3202 244.8 59.6802 246 60.3202C248.08 61.3602 249.12 64.4402 249.12 69.5602C249.12 74.6002 248.04 77.6802 245.88 78.8002C244.68 79.3602 243.6 79.7202 242.64 79.8802C241.76 79.9602 240.4 80.0002 238.56 80.0002Z" fill="#15191E"/>
<path d="M314.362 82.8802C314.362 87.7602 313.122 91.4002 310.642 93.8002C308.242 96.1202 305.562 97.2802 302.602 97.2802H274.162C274.162 99.5202 275.482 101.4 278.122 102.92C280.762 104.44 283.402 105.2 286.042 105.2C290.682 105.2 294.322 104.72 296.962 103.76L298.282 103.28C300.202 102.4 301.802 101.96 303.082 101.96C305.642 101.96 307.842 103.76 309.682 107.36C310.722 109.52 311.242 111.36 311.242 112.88C311.242 120 302.722 123.56 285.682 123.56C279.762 123.56 274.482 122.56 269.842 120.56C265.282 118.48 261.722 115.76 259.162 112.4C254.122 105.92 251.602 98.6802 251.602 90.6802C251.602 80.6002 254.842 72.5602 261.322 66.5602C267.882 60.4802 276.042 57.4402 285.802 57.4402C296.922 57.4402 305.082 61.3602 310.282 69.2002C313.002 73.3602 314.362 77.9202 314.362 82.8802ZM289.042 86.3602C292.082 86.3602 293.602 85.0802 293.602 82.5202C293.602 80.6802 292.882 79.2002 291.442 78.0802C290.082 76.9602 288.082 76.4002 285.442 76.4002C282.882 76.4002 280.322 77.4802 277.762 79.6402C275.202 81.7202 273.922 83.9602 273.922 86.3602H289.042Z" fill="#15191E"/>
<path d="M365.151 59.4802C366.671 59.9602 367.911 60.8002 368.871 62.0002C369.911 63.1202 370.431 64.9602 370.431 67.5202C370.431 70.0802 369.671 72.8802 368.151 75.9202C366.631 78.9602 364.431 80.4802 361.551 80.4802C360.111 80.4802 358.711 80.1602 357.351 79.5202C356.071 78.8802 354.351 78.5602 352.191 78.5602C350.031 78.5602 347.991 79.3202 346.071 80.8402C344.231 82.3602 343.311 84.2002 343.311 86.3602V111.56C343.311 113.4 343.231 114.8 343.071 115.76C342.991 116.64 342.631 117.68 341.991 118.88C340.791 120.96 337.671 122 332.631 122C328.791 122 326.031 121.32 324.351 119.96C323.071 118.84 322.351 117.12 322.191 114.8C322.191 114 322.191 112.84 322.191 111.32V69.2002C322.191 67.3602 322.231 66.0002 322.311 65.1202C322.471 64.1602 322.831 63.1202 323.391 62.0002C324.511 59.8402 327.631 58.7602 332.751 58.7602C337.551 58.7602 340.551 59.6802 341.751 61.5202C342.631 62.8002 343.071 64.1202 343.071 65.4802C343.471 64.9202 344.031 64.2402 344.751 63.4402C345.551 62.6402 347.191 61.5602 349.671 60.2002C352.151 58.8402 354.311 58.1602 356.151 58.1602C358.071 58.1602 359.671 58.2802 360.951 58.5202C362.231 58.6802 363.631 59.0002 365.151 59.4802Z" fill="#15191E"/>
<path d="M413.482 114.08C410.442 118.08 405.602 120.08 398.962 120.08C392.322 120.08 386.082 117.04 380.242 110.96C374.482 104.8 371.602 97.6402 371.602 89.4802C371.602 81.3202 374.522 74.1602 380.362 68.0002C386.202 61.8402 392.602 58.7602 399.562 58.7602C402.282 58.7602 404.762 59.2802 407.002 60.3202C409.242 61.2802 410.762 62.2002 411.562 63.0802C412.442 63.8802 413.122 64.6402 413.602 65.3602C413.842 63.1202 414.642 61.4402 416.002 60.3202C417.442 59.1202 419.722 58.5202 422.842 58.5202C425.962 58.5202 428.242 58.7602 429.682 59.2402C431.122 59.7202 432.122 60.5602 432.682 61.7602C433.322 62.8802 433.682 63.8802 433.762 64.7602C433.922 65.6402 434.002 67.0002 434.002 68.8402V118.52C434.002 127.72 430.802 135.12 424.402 140.72C418.002 146.4 410.802 149.24 402.802 149.24C396.722 149.24 390.922 147.76 385.402 144.8C379.882 141.84 377.122 139.16 377.122 136.76C377.122 133.64 378.322 130.88 380.722 128.48C382.242 126.8 383.402 125.64 384.202 125C385.082 124.36 386.082 124.04 387.202 124.04C388.322 124.04 389.482 124.52 390.682 125.48C394.522 128.44 398.682 129.92 403.162 129.92C406.202 129.92 408.682 128.72 410.602 126.32C412.522 123.92 413.482 121.04 413.482 117.68V114.08ZM392.122 89.6002C392.122 92.1602 393.122 94.4802 395.122 96.5602C397.202 98.6402 399.682 99.6802 402.562 99.6802C405.522 99.6802 407.962 98.6402 409.882 96.5602C411.802 94.4002 412.762 92.0802 412.762 89.6002C412.762 87.0402 411.842 84.6802 410.002 82.5202C408.162 80.2802 405.682 79.1602 402.562 79.1602C399.442 79.1602 396.922 80.2402 395.002 82.4002C393.082 84.5602 392.122 86.9602 392.122 89.6002Z" fill="url(#paint0_linear_4773_29391)"/>
<path d="M504.558 82.8802C504.558 87.7602 503.318 91.4002 500.838 93.8002C498.438 96.1202 495.758 97.2802 492.798 97.2802H464.358C464.358 99.5202 465.678 101.4 468.318 102.92C470.958 104.44 473.598 105.2 476.238 105.2C480.878 105.2 484.518 104.72 487.158 103.76L488.478 103.28C490.398 102.4 491.998 101.96 493.278 101.96C495.838 101.96 498.038 103.76 499.878 107.36C500.918 109.52 501.438 111.36 501.438 112.88C501.438 120 492.918 123.56 475.878 123.56C469.958 123.56 464.678 122.56 460.038 120.56C455.478 118.48 451.918 115.76 449.358 112.4C444.318 105.92 441.798 98.6802 441.798 90.6802C441.798 80.6002 445.038 72.5602 451.518 66.5602C458.078 60.4802 466.238 57.4402 475.998 57.4402C487.118 57.4402 495.278 61.3602 500.478 69.2002C503.198 73.3602 504.558 77.9202 504.558 82.8802ZM479.238 86.3602C482.278 86.3602 483.798 85.0802 483.798 82.5202C483.798 80.6802 483.078 79.2002 481.638 78.0802C480.278 76.9602 478.278 76.4002 475.638 76.4002C473.078 76.4002 470.518 77.4802 467.958 79.6402C465.398 81.7202 464.118 83.9602 464.118 86.3602H479.238Z" fill="url(#paint1_linear_4773_29391)"/>
<path d="M573.347 82.8802C573.347 87.7602 572.107 91.4002 569.627 93.8002C567.227 96.1202 564.547 97.2802 561.587 97.2802H533.147C533.147 99.5202 534.467 101.4 537.107 102.92C539.747 104.44 542.387 105.2 545.027 105.2C549.667 105.2 553.307 104.72 555.947 103.76L557.267 103.28C559.187 102.4 560.787 101.96 562.067 101.96C564.627 101.96 566.827 103.76 568.667 107.36C569.707 109.52 570.227 111.36 570.227 112.88C570.227 120 561.707 123.56 544.667 123.56C538.747 123.56 533.467 122.56 528.827 120.56C524.267 118.48 520.707 115.76 518.147 112.4C513.107 105.92 510.587 98.6802 510.587 90.6802C510.587 80.6002 513.827 72.5602 520.307 66.5602C526.867 60.4802 535.027 57.4402 544.787 57.4402C555.907 57.4402 564.067 61.3602 569.267 69.2002C571.987 73.3602 573.347 77.9202 573.347 82.8802ZM548.027 86.3602C551.067 86.3602 552.587 85.0802 552.587 82.5202C552.587 80.6802 551.867 79.2002 550.427 78.0802C549.067 76.9602 547.067 76.4002 544.427 76.4002C541.867 76.4002 539.307 77.4802 536.747 79.6402C534.187 81.7202 532.907 83.9602 532.907 86.3602H548.027Z" fill="url(#paint2_linear_4773_29391)"/>
<path d="M618.376 90.3202L634.336 103.52C636.336 105.2 637.576 106.48 638.056 107.36C638.616 108.24 638.896 109.08 638.896 109.88C638.896 111.8 637.656 114.4 635.176 117.68C632.456 121.04 630.056 122.72 627.976 122.72C626.216 122.72 623.776 121.56 620.656 119.24L619.456 118.4C617.616 116.88 614.776 114.24 610.936 110.48C607.096 106.64 604.176 103.92 602.176 102.32V111.56C602.176 113.4 602.096 114.8 601.936 115.76C601.856 116.64 601.496 117.68 600.856 118.88C599.816 120.96 596.736 122 591.616 122C586.576 122 583.496 120.92 582.376 118.76C581.816 117.56 581.456 116.52 581.296 115.64C581.216 114.68 581.176 113.28 581.176 111.44V39.5602C581.176 37.7202 581.216 36.3602 581.296 35.4802C581.456 34.5202 581.816 33.4402 582.376 32.2402C583.496 30.0802 586.616 29.0002 591.736 29.0002C595.576 29.0002 598.296 29.6802 599.896 31.0402C601.256 32.1602 601.976 33.9202 602.056 36.3202C602.136 37.0402 602.176 38.1602 602.176 39.6802V77.7202C603.616 76.5202 605.776 74.4802 608.656 71.6002C611.616 68.7202 613.816 66.6802 615.256 65.4802L616.696 64.5202C619.496 62.3602 621.896 61.2802 623.896 61.2802C625.896 61.2802 628.176 62.9202 630.736 66.2002C633.376 69.4002 634.696 71.9202 634.696 73.7602C634.696 75.6002 633.216 77.7602 630.256 80.2402L618.376 90.3202Z" fill="url(#paint3_linear_4773_29391)"/>
<path d="M677.543 89.0002C674.423 87.4802 672.863 84.7202 672.863 80.7202C672.863 76.7202 674.463 73.9202 677.663 72.3202C705.103 56.0802 720.863 46.7202 724.943 44.2402C729.023 41.7602 731.463 40.4002 732.263 40.1602C733.143 39.7602 734.183 39.5602 735.383 39.5602C737.543 39.5602 739.783 41.5202 742.103 45.4402C743.623 47.9202 744.383 49.8002 744.383 51.0802C744.383 52.2802 744.103 53.3202 743.543 54.2002C742.823 55.4802 741.183 56.9602 738.623 58.6402C714.783 72.7202 702.383 80.0802 701.423 80.7202L738.623 102.8C740.143 103.68 741.223 104.4 741.863 104.96C743.623 106.4 744.503 107.96 744.503 109.64C744.503 111.24 743.783 113.2 742.343 115.52C740.983 117.76 739.743 119.36 738.623 120.32C737.503 121.28 736.343 121.76 735.143 121.76C733.543 121.76 731.463 121 728.903 119.48L677.543 89.0002Z" fill="url(#paint4_linear_4773_29391)"/>
<path d="M767.418 122.96C766.778 124.32 766.258 125.32 765.858 125.96C765.538 126.6 764.938 127.2 764.058 127.76C763.258 128.4 762.178 128.72 760.818 128.72C759.458 128.72 757.458 128.12 754.818 126.92C752.178 125.72 750.378 124.64 749.418 123.68C748.538 122.8 748.098 121.8 748.098 120.68C748.098 119.56 748.578 117.56 749.538 114.68L788.178 33.9202C789.698 30.8802 791.058 29.1202 792.258 28.6402C792.898 28.3202 793.818 28.1602 795.018 28.1602C796.298 28.1602 798.338 28.8002 801.138 30.0802C805.458 32.1602 807.618 34.4402 807.618 36.9202C807.618 37.9602 807.058 39.9602 805.938 42.9202L767.418 122.96Z" fill="url(#paint5_linear_4773_29391)"/>
<path d="M877.982 72.3202C881.182 73.9202 882.782 76.7202 882.782 80.7202C882.782 84.7202 881.222 87.4802 878.102 89.0002L826.862 119.48C822.782 122.12 819.502 122.4 817.022 120.32C815.902 119.36 814.742 117.92 813.542 116C811.942 113.36 811.142 111.44 811.142 110.24C811.142 109.04 811.382 108 811.862 107.12C812.742 105.76 814.462 104.32 817.022 102.8L854.342 80.7202L817.142 58.6402C815.702 57.7602 814.622 57.0402 813.902 56.4802C812.142 54.9602 811.262 53.3202 811.262 51.5602C811.262 49.9602 811.942 48.0402 813.302 45.8002C815.782 41.6402 818.102 39.5602 820.262 39.5602C822.182 39.5602 824.342 40.3202 826.742 41.8402L877.982 72.3202Z" fill="url(#paint6_linear_4773_29391)"/>
<path d="M87.3055 34.0402C89.1455 34.0402 90.5055 34.1202 91.3855 34.2802C92.3455 34.3602 93.3855 34.7202 94.5055 35.3602C95.7055 36.0002 96.5455 37.0802 97.0255 38.6002C97.5055 40.1202 97.7455 42.1602 97.7455 44.7202C97.7455 47.2802 97.5055 49.3202 97.0255 50.8402C96.5455 52.3602 95.7055 53.4402 94.5055 54.0802C93.3055 54.6402 92.2255 55.0002 91.2655 55.1602C90.3855 55.2402 88.9855 55.2802 87.0655 55.2802H50.3455V67.4002H73.9855C75.9055 67.4002 77.3055 67.4802 78.1855 67.6402C79.1455 67.7202 80.2255 68.0802 81.4255 68.7202C83.5055 69.9202 84.5455 73.0802 84.5455 78.2002C84.5455 83.8002 83.0255 87.1202 79.9855 88.1602C78.7055 88.5602 76.6655 88.7602 73.8655 88.7602H50.3455V111.44C50.3455 113.36 50.2655 114.76 50.1055 115.64C50.0255 116.52 49.6655 117.56 49.0255 118.76C47.9055 120.92 44.7855 122 39.6655 122C34.0655 122 30.7855 120.48 29.8255 117.44C29.3455 116.16 29.1055 114.12 29.1055 111.32V44.6002C29.1055 40.5202 29.8655 37.7602 31.3855 36.3202C32.9055 34.8002 35.7855 34.0402 40.0255 34.0402H87.3055Z" stroke="white" stroke-width="40" mask="url(#path-1-outside-1_4773_29391)"/>
<path d="M103.168 69.3202C103.168 67.4802 103.208 66.1202 103.288 65.2402C103.448 64.2802 103.808 63.2002 104.368 62.0002C105.488 59.9202 108.608 58.8802 113.728 58.8802C117.568 58.8802 120.288 59.5602 121.888 60.9202C123.248 62.0402 123.968 63.7602 124.048 66.0802C124.128 66.8802 124.168 68.0402 124.168 69.5602V111.56C124.168 113.4 124.088 114.8 123.928 115.76C123.848 116.64 123.488 117.68 122.848 118.88C121.808 120.96 118.728 122 113.608 122C108.568 122 105.488 120.92 104.368 118.76C103.808 117.56 103.448 116.52 103.288 115.64C103.208 114.76 103.168 113.36 103.168 111.44V69.3202ZM122.848 47.1202C122.288 48.2402 121.248 49.0402 119.728 49.5202C118.208 50.0002 116.168 50.2402 113.608 50.2402C111.128 50.2402 109.128 50.0002 107.608 49.5202C106.088 49.0402 105.008 48.2002 104.368 47.0002C103.808 45.8002 103.448 44.7602 103.288 43.8802C103.208 42.9202 103.168 41.5202 103.168 39.6802C103.168 37.8402 103.208 36.4802 103.288 35.6002C103.448 34.6402 103.808 33.6002 104.368 32.4802C105.488 30.3202 108.608 29.2402 113.728 29.2402C118.768 29.2402 121.808 30.3202 122.848 32.4802C123.488 33.6802 123.848 34.7602 123.928 35.7202C124.088 36.6002 124.168 37.9602 124.168 39.8002C124.168 41.6402 124.088 43.0402 123.928 44.0002C123.848 44.8802 123.488 45.9202 122.848 47.1202Z" stroke="white" stroke-width="40" mask="url(#path-1-outside-1_4773_29391)"/>
<path d="M177.554 90.3202L190.874 103.76C193.754 106.64 195.194 109.12 195.194 111.2C195.194 113.2 193.754 115.64 190.874 118.52C187.994 121.32 185.554 122.72 183.554 122.72C181.554 122.72 179.114 121.28 176.234 118.4L163.034 105.08L149.714 118.4C146.834 121.28 144.394 122.72 142.394 122.72C140.474 122.72 138.034 121.32 135.074 118.52C132.194 115.64 130.754 113.2 130.754 111.2C130.754 109.12 132.194 106.64 135.074 103.76L148.394 90.3202L135.074 76.8802C132.194 74.0002 130.754 71.5602 130.754 69.5602C130.754 67.4802 132.194 65.0002 135.074 62.1202C138.034 59.2402 140.474 57.8002 142.394 57.8002C144.394 57.8002 146.834 59.2402 149.714 62.1202L163.034 75.5602L176.234 62.1202C179.114 59.2402 181.554 57.8002 183.554 57.8002C185.554 57.8002 187.994 59.2402 190.874 62.1202C193.754 65.0002 195.194 67.4802 195.194 69.5602C195.194 71.5602 193.754 74.0002 190.874 76.8802L177.554 90.3202Z" stroke="white" stroke-width="40" mask="url(#path-1-outside-1_4773_29391)"/>
<path d="M238.56 80.0002L230.76 79.5202V96.0802C230.76 98.2402 231.08 99.8002 231.72 100.76C232.44 101.72 233.72 102.2 235.56 102.2C237.48 102.2 238.92 102.28 239.88 102.44C240.92 102.52 242 102.88 243.12 103.52C244.96 104.56 245.88 107.24 245.88 111.56C245.88 116.6 244.76 119.68 242.52 120.8C241.32 121.36 240.24 121.72 239.28 121.88C238.4 121.96 237.08 122 235.32 122C227 122 220.68 120.12 216.36 116.36C212.04 112.6 209.88 106.24 209.88 97.2802V79.5202C208.36 79.7602 206.72 79.8802 204.96 79.8802C203.2 79.8802 201.72 79.2002 200.52 77.8402C199.4 76.4802 198.84 74.1602 198.84 70.8802C198.84 67.6002 199.04 65.2402 199.44 63.8002C199.84 62.2802 200.4 61.2002 201.12 60.5602C202.4 59.5202 204 59.0002 205.92 59.0002L209.88 59.4802V47.1202C209.88 45.2802 209.92 43.9202 210 43.0402C210.16 42.1602 210.56 41.2002 211.2 40.1602C212.24 38.1602 215.32 37.1602 220.44 37.1602C225.88 37.1602 229.12 38.6402 230.16 41.6002C230.56 42.8802 230.76 44.9202 230.76 47.7202V59.4802C234.28 59.1602 236.92 59.0002 238.68 59.0002C240.52 59.0002 241.88 59.0802 242.76 59.2402C243.72 59.3202 244.8 59.6802 246 60.3202C248.08 61.3602 249.12 64.4402 249.12 69.5602C249.12 74.6002 248.04 77.6802 245.88 78.8002C244.68 79.3602 243.6 79.7202 242.64 79.8802C241.76 79.9602 240.4 80.0002 238.56 80.0002Z" stroke="white" stroke-width="40" mask="url(#path-1-outside-1_4773_29391)"/>
<path d="M314.362 82.8802C314.362 87.7602 313.122 91.4002 310.642 93.8002C308.242 96.1202 305.562 97.2802 302.602 97.2802H274.162C274.162 99.5202 275.482 101.4 278.122 102.92C280.762 104.44 283.402 105.2 286.042 105.2C290.682 105.2 294.322 104.72 296.962 103.76L298.282 103.28C300.202 102.4 301.802 101.96 303.082 101.96C305.642 101.96 307.842 103.76 309.682 107.36C310.722 109.52 311.242 111.36 311.242 112.88C311.242 120 302.722 123.56 285.682 123.56C279.762 123.56 274.482 122.56 269.842 120.56C265.282 118.48 261.722 115.76 259.162 112.4C254.122 105.92 251.602 98.6802 251.602 90.6802C251.602 80.6002 254.842 72.5602 261.322 66.5602C267.882 60.4802 276.042 57.4402 285.802 57.4402C296.922 57.4402 305.082 61.3602 310.282 69.2002C313.002 73.3602 314.362 77.9202 314.362 82.8802ZM289.042 86.3602C292.082 86.3602 293.602 85.0802 293.602 82.5202C293.602 80.6802 292.882 79.2002 291.442 78.0802C290.082 76.9602 288.082 76.4002 285.442 76.4002C282.882 76.4002 280.322 77.4802 277.762 79.6402C275.202 81.7202 273.922 83.9602 273.922 86.3602H289.042Z" stroke="white" stroke-width="40" mask="url(#path-1-outside-1_4773_29391)"/>
<path d="M365.151 59.4802C366.671 59.9602 367.911 60.8002 368.871 62.0002C369.911 63.1202 370.431 64.9602 370.431 67.5202C370.431 70.0802 369.671 72.8802 368.151 75.9202C366.631 78.9602 364.431 80.4802 361.551 80.4802C360.111 80.4802 358.711 80.1602 357.351 79.5202C356.071 78.8802 354.351 78.5602 352.191 78.5602C350.031 78.5602 347.991 79.3202 346.071 80.8402C344.231 82.3602 343.311 84.2002 343.311 86.3602V111.56C343.311 113.4 343.231 114.8 343.071 115.76C342.991 116.64 342.631 117.68 341.991 118.88C340.791 120.96 337.671 122 332.631 122C328.791 122 326.031 121.32 324.351 119.96C323.071 118.84 322.351 117.12 322.191 114.8C322.191 114 322.191 112.84 322.191 111.32V69.2002C322.191 67.3602 322.231 66.0002 322.311 65.1202C322.471 64.1602 322.831 63.1202 323.391 62.0002C324.511 59.8402 327.631 58.7602 332.751 58.7602C337.551 58.7602 340.551 59.6802 341.751 61.5202C342.631 62.8002 343.071 64.1202 343.071 65.4802C343.471 64.9202 344.031 64.2402 344.751 63.4402C345.551 62.6402 347.191 61.5602 349.671 60.2002C352.151 58.8402 354.311 58.1602 356.151 58.1602C358.071 58.1602 359.671 58.2802 360.951 58.5202C362.231 58.6802 363.631 59.0002 365.151 59.4802Z" stroke="white" stroke-width="40" mask="url(#path-1-outside-1_4773_29391)"/>
<path d="M413.482 114.08C410.442 118.08 405.602 120.08 398.962 120.08C392.322 120.08 386.082 117.04 380.242 110.96C374.482 104.8 371.602 97.6402 371.602 89.4802C371.602 81.3202 374.522 74.1602 380.362 68.0002C386.202 61.8402 392.602 58.7602 399.562 58.7602C402.282 58.7602 404.762 59.2802 407.002 60.3202C409.242 61.2802 410.762 62.2002 411.562 63.0802C412.442 63.8802 413.122 64.6402 413.602 65.3602C413.842 63.1202 414.642 61.4402 416.002 60.3202C417.442 59.1202 419.722 58.5202 422.842 58.5202C425.962 58.5202 428.242 58.7602 429.682 59.2402C431.122 59.7202 432.122 60.5602 432.682 61.7602C433.322 62.8802 433.682 63.8802 433.762 64.7602C433.922 65.6402 434.002 67.0002 434.002 68.8402V118.52C434.002 127.72 430.802 135.12 424.402 140.72C418.002 146.4 410.802 149.24 402.802 149.24C396.722 149.24 390.922 147.76 385.402 144.8C379.882 141.84 377.122 139.16 377.122 136.76C377.122 133.64 378.322 130.88 380.722 128.48C382.242 126.8 383.402 125.64 384.202 125C385.082 124.36 386.082 124.04 387.202 124.04C388.322 124.04 389.482 124.52 390.682 125.48C394.522 128.44 398.682 129.92 403.162 129.92C406.202 129.92 408.682 128.72 410.602 126.32C412.522 123.92 413.482 121.04 413.482 117.68V114.08ZM392.122 89.6002C392.122 92.1602 393.122 94.4802 395.122 96.5602C397.202 98.6402 399.682 99.6802 402.562 99.6802C405.522 99.6802 407.962 98.6402 409.882 96.5602C411.802 94.4002 412.762 92.0802 412.762 89.6002C412.762 87.0402 411.842 84.6802 410.002 82.5202C408.162 80.2802 405.682 79.1602 402.562 79.1602C399.442 79.1602 396.922 80.2402 395.002 82.4002C393.082 84.5602 392.122 86.9602 392.122 89.6002Z" stroke="white" stroke-width="40" mask="url(#path-1-outside-1_4773_29391)"/>
<path d="M504.558 82.8802C504.558 87.7602 503.318 91.4002 500.838 93.8002C498.438 96.1202 495.758 97.2802 492.798 97.2802H464.358C464.358 99.5202 465.678 101.4 468.318 102.92C470.958 104.44 473.598 105.2 476.238 105.2C480.878 105.2 484.518 104.72 487.158 103.76L488.478 103.28C490.398 102.4 491.998 101.96 493.278 101.96C495.838 101.96 498.038 103.76 499.878 107.36C500.918 109.52 501.438 111.36 501.438 112.88C501.438 120 492.918 123.56 475.878 123.56C469.958 123.56 464.678 122.56 460.038 120.56C455.478 118.48 451.918 115.76 449.358 112.4C444.318 105.92 441.798 98.6802 441.798 90.6802C441.798 80.6002 445.038 72.5602 451.518 66.5602C458.078 60.4802 466.238 57.4402 475.998 57.4402C487.118 57.4402 495.278 61.3602 500.478 69.2002C503.198 73.3602 504.558 77.9202 504.558 82.8802ZM479.238 86.3602C482.278 86.3602 483.798 85.0802 483.798 82.5202C483.798 80.6802 483.078 79.2002 481.638 78.0802C480.278 76.9602 478.278 76.4002 475.638 76.4002C473.078 76.4002 470.518 77.4802 467.958 79.6402C465.398 81.7202 464.118 83.9602 464.118 86.3602H479.238Z" stroke="white" stroke-width="40" mask="url(#path-1-outside-1_4773_29391)"/>
<path d="M573.347 82.8802C573.347 87.7602 572.107 91.4002 569.627 93.8002C567.227 96.1202 564.547 97.2802 561.587 97.2802H533.147C533.147 99.5202 534.467 101.4 537.107 102.92C539.747 104.44 542.387 105.2 545.027 105.2C549.667 105.2 553.307 104.72 555.947 103.76L557.267 103.28C559.187 102.4 560.787 101.96 562.067 101.96C564.627 101.96 566.827 103.76 568.667 107.36C569.707 109.52 570.227 111.36 570.227 112.88C570.227 120 561.707 123.56 544.667 123.56C538.747 123.56 533.467 122.56 528.827 120.56C524.267 118.48 520.707 115.76 518.147 112.4C513.107 105.92 510.587 98.6802 510.587 90.6802C510.587 80.6002 513.827 72.5602 520.307 66.5602C526.867 60.4802 535.027 57.4402 544.787 57.4402C555.907 57.4402 564.067 61.3602 569.267 69.2002C571.987 73.3602 573.347 77.9202 573.347 82.8802ZM548.027 86.3602C551.067 86.3602 552.587 85.0802 552.587 82.5202C552.587 80.6802 551.867 79.2002 550.427 78.0802C549.067 76.9602 547.067 76.4002 544.427 76.4002C541.867 76.4002 539.307 77.4802 536.747 79.6402C534.187 81.7202 532.907 83.9602 532.907 86.3602H548.027Z" stroke="white" stroke-width="40" mask="url(#path-1-outside-1_4773_29391)"/>
<path d="M618.376 90.3202L634.336 103.52C636.336 105.2 637.576 106.48 638.056 107.36C638.616 108.24 638.896 109.08 638.896 109.88C638.896 111.8 637.656 114.4 635.176 117.68C632.456 121.04 630.056 122.72 627.976 122.72C626.216 122.72 623.776 121.56 620.656 119.24L619.456 118.4C617.616 116.88 614.776 114.24 610.936 110.48C607.096 106.64 604.176 103.92 602.176 102.32V111.56C602.176 113.4 602.096 114.8 601.936 115.76C601.856 116.64 601.496 117.68 600.856 118.88C599.816 120.96 596.736 122 591.616 122C586.576 122 583.496 120.92 582.376 118.76C581.816 117.56 581.456 116.52 581.296 115.64C581.216 114.68 581.176 113.28 581.176 111.44V39.5602C581.176 37.7202 581.216 36.3602 581.296 35.4802C581.456 34.5202 581.816 33.4402 582.376 32.2402C583.496 30.0802 586.616 29.0002 591.736 29.0002C595.576 29.0002 598.296 29.6802 599.896 31.0402C601.256 32.1602 601.976 33.9202 602.056 36.3202C602.136 37.0402 602.176 38.1602 602.176 39.6802V77.7202C603.616 76.5202 605.776 74.4802 608.656 71.6002C611.616 68.7202 613.816 66.6802 615.256 65.4802L616.696 64.5202C619.496 62.3602 621.896 61.2802 623.896 61.2802C625.896 61.2802 628.176 62.9202 630.736 66.2002C633.376 69.4002 634.696 71.9202 634.696 73.7602C634.696 75.6002 633.216 77.7602 630.256 80.2402L618.376 90.3202Z" stroke="white" stroke-width="40" mask="url(#path-1-outside-1_4773_29391)"/>
<path d="M677.543 89.0002C674.423 87.4802 672.863 84.7202 672.863 80.7202C672.863 76.7202 674.463 73.9202 677.663 72.3202C705.103 56.0802 720.863 46.7202 724.943 44.2402C729.023 41.7602 731.463 40.4002 732.263 40.1602C733.143 39.7602 734.183 39.5602 735.383 39.5602C737.543 39.5602 739.783 41.5202 742.103 45.4402C743.623 47.9202 744.383 49.8002 744.383 51.0802C744.383 52.2802 744.103 53.3202 743.543 54.2002C742.823 55.4802 741.183 56.9602 738.623 58.6402C714.783 72.7202 702.383 80.0802 701.423 80.7202L738.623 102.8C740.143 103.68 741.223 104.4 741.863 104.96C743.623 106.4 744.503 107.96 744.503 109.64C744.503 111.24 743.783 113.2 742.343 115.52C740.983 117.76 739.743 119.36 738.623 120.32C737.503 121.28 736.343 121.76 735.143 121.76C733.543 121.76 731.463 121 728.903 119.48L677.543 89.0002Z" stroke="white" stroke-width="40" mask="url(#path-1-outside-1_4773_29391)"/>
<path d="M767.418 122.96C766.778 124.32 766.258 125.32 765.858 125.96C765.538 126.6 764.938 127.2 764.058 127.76C763.258 128.4 762.178 128.72 760.818 128.72C759.458 128.72 757.458 128.12 754.818 126.92C752.178 125.72 750.378 124.64 749.418 123.68C748.538 122.8 748.098 121.8 748.098 120.68C748.098 119.56 748.578 117.56 749.538 114.68L788.178 33.9202C789.698 30.8802 791.058 29.1202 792.258 28.6402C792.898 28.3202 793.818 28.1602 795.018 28.1602C796.298 28.1602 798.338 28.8002 801.138 30.0802C805.458 32.1602 807.618 34.4402 807.618 36.9202C807.618 37.9602 807.058 39.9602 805.938 42.9202L767.418 122.96Z" stroke="white" stroke-width="40" mask="url(#path-1-outside-1_4773_29391)"/>
<path d="M877.982 72.3202C881.182 73.9202 882.782 76.7202 882.782 80.7202C882.782 84.7202 881.222 87.4802 878.102 89.0002L826.862 119.48C822.782 122.12 819.502 122.4 817.022 120.32C815.902 119.36 814.742 117.92 813.542 116C811.942 113.36 811.142 111.44 811.142 110.24C811.142 109.04 811.382 108 811.862 107.12C812.742 105.76 814.462 104.32 817.022 102.8L854.342 80.7202L817.142 58.6402C815.702 57.7602 814.622 57.0402 813.902 56.4802C812.142 54.9602 811.262 53.3202 811.262 51.5602C811.262 49.9602 811.942 48.0402 813.302 45.8002C815.782 41.6402 818.102 39.5602 820.262 39.5602C822.182 39.5602 824.342 40.3202 826.742 41.8402L877.982 72.3202Z" stroke="white" stroke-width="40" mask="url(#path-1-outside-1_4773_29391)"/>
<ellipse cx="402.5" cy="90" rx="10.5" ry="10" fill="white"/>
<defs>
<linearGradient id="paint0_linear_4773_29391" x1="43.3334" y1="88.7002" x2="882.431" y2="110.983" gradientUnits="userSpaceOnUse">
<stop stop-color="#83F3D3"/>
<stop offset="1" stop-color="#569C8B"/>
</linearGradient>
<linearGradient id="paint1_linear_4773_29391" x1="43.3334" y1="88.7002" x2="882.431" y2="110.983" gradientUnits="userSpaceOnUse">
<stop stop-color="#83F3D3"/>
<stop offset="1" stop-color="#569C8B"/>
</linearGradient>
<linearGradient id="paint2_linear_4773_29391" x1="43.3334" y1="88.7002" x2="882.431" y2="110.983" gradientUnits="userSpaceOnUse">
<stop stop-color="#83F3D3"/>
<stop offset="1" stop-color="#569C8B"/>
</linearGradient>
<linearGradient id="paint3_linear_4773_29391" x1="43.3334" y1="88.7002" x2="882.431" y2="110.983" gradientUnits="userSpaceOnUse">
<stop stop-color="#83F3D3"/>
<stop offset="1" stop-color="#569C8B"/>
</linearGradient>
<linearGradient id="paint4_linear_4773_29391" x1="43.3334" y1="88.7002" x2="882.431" y2="110.983" gradientUnits="userSpaceOnUse">
<stop stop-color="#83F3D3"/>
<stop offset="1" stop-color="#569C8B"/>
</linearGradient>
<linearGradient id="paint5_linear_4773_29391" x1="43.3334" y1="88.7002" x2="882.431" y2="110.983" gradientUnits="userSpaceOnUse">
<stop stop-color="#83F3D3"/>
<stop offset="1" stop-color="#569C8B"/>
</linearGradient>
<linearGradient id="paint6_linear_4773_29391" x1="43.3334" y1="88.7002" x2="882.431" y2="110.983" gradientUnits="userSpaceOnUse">
<stop stop-color="#83F3D3"/>
<stop offset="1" stop-color="#569C8B"/>
</linearGradient>
</defs>
</svg>
