<svg width="335" height="188" viewBox="0 0 335 188" fill="none" xmlns="http://www.w3.org/2000/svg">
<path d="M328.814 75.9483C328.414 75.7004 327.966 75.5391 327.499 75.4752C327.032 75.4113 326.556 75.4461 326.104 75.5773C326.486 74.8327 326.576 73.974 326.357 73.1671C326.139 72.3602 325.627 71.6624 324.92 71.2087C324.213 70.7549 323.363 70.5773 322.532 70.7103C321.701 70.8433 320.95 71.2773 320.422 71.9285C320.093 72.3327 319.513 73.1743 318.817 74.2429L318.705 74.1876C320.029 69.8428 321.067 65.4168 321.811 60.9379C322.614 56.1239 323.731 51.367 325.156 46.6971C325.292 46.2747 325.343 45.8297 325.306 45.3877C325.269 44.9456 325.145 44.5151 324.941 44.1208C324.736 43.7264 324.455 43.3759 324.114 43.0893C323.773 42.8027 323.379 42.5856 322.954 42.4503C322.528 42.3151 322.08 42.2644 321.635 42.3011C321.19 42.3378 320.756 42.4612 320.359 42.6643C319.962 42.8674 319.609 43.1462 319.321 43.4847C319.032 43.8233 318.813 44.2149 318.677 44.6374C317.159 49.5745 315.968 54.6055 315.114 59.6976C314.674 62.0397 314.244 64.3264 313.715 66.6132C313.994 63.4904 314.183 60.2292 314.367 57.0123C314.612 52.7378 314.847 48.707 315.265 45.1025C315.368 44.2126 315.112 43.3183 314.551 42.6164C313.991 41.9145 313.172 41.4624 312.276 41.3596C311.38 41.2568 310.48 41.5117 309.773 42.0683C309.066 42.6248 308.611 43.4374 308.507 44.3273C308.067 48.1201 307.816 52.4444 307.576 56.6247C307.375 60.0686 307.169 63.5734 306.862 66.8457L303.467 67.2499C302.723 67.341 302.03 67.6729 301.494 68.1943C300.959 68.7157 300.612 69.3976 300.506 70.1346L299.045 80.3722C298.963 80.9372 299.027 81.5135 299.231 82.0472C299.435 82.5809 299.772 83.0543 300.211 83.423C300.074 84.1758 300.005 84.9393 300.004 85.7042C300.002 87.1331 300.243 88.5521 300.718 89.9012C300.18 89.9253 299.66 90.1037 299.222 90.4148C298.784 90.726 298.446 91.1565 298.249 91.6543C298.052 92.1521 298.005 92.696 298.112 93.22C298.22 93.7441 298.478 94.226 298.856 94.6075L296.447 98.212C295.869 98.0235 295.245 98.0279 294.67 98.2246C294.094 98.4213 293.6 98.7994 293.261 99.3012C292.923 99.8031 292.759 100.401 292.794 101.004C292.83 101.607 293.063 102.182 293.458 102.641L269.957 137.391C269.762 137.391 269.561 137.357 269.361 137.357C268.32 137.357 267.286 137.516 266.294 137.828L226.662 105.548V103.14C226.661 100.667 226.505 98.1962 226.194 95.7425L226.807 95.6539L227.867 95.4878L228.424 95.3826C228.692 95.3217 228.619 95.3107 228.625 95.2885V95.2165V94.9397L228.597 94.386L228.541 93.2786L228.413 91.0639C228.24 89.5856 228.039 88.1017 227.855 86.6344C227.671 85.1671 227.214 83.6999 226.88 82.2049C226.545 80.71 226.027 79.3036 225.553 77.853C223.609 72.3507 220.816 67.1821 217.273 62.5325L240.69 44.9696L239.135 41.271L239.915 40.8336L239.358 39.8646L238.689 40.2356L237.323 36.991L204.426 50.2794C203.925 49.9306 203.417 49.5873 202.904 49.2551C197.634 45.8435 191.774 43.4276 185.62 42.1292L184.332 46.7359C179.097 45.1842 173.67 44.3625 168.207 44.2941V10.1982C168.945 9.99712 169.585 9.53698 170.007 8.90316C170.429 8.26933 170.606 7.50487 170.504 6.75163C170.402 5.99839 170.028 5.30753 169.452 4.80725C168.875 4.30697 168.136 4.03125 167.371 4.03125C166.605 4.03125 165.866 4.30697 165.29 4.80725C164.714 5.30753 164.34 5.99839 164.238 6.75163C164.135 7.50487 164.312 8.26933 164.734 8.90316C165.157 9.53698 165.796 9.99712 166.534 10.1982V44.2941C161.073 44.3673 155.649 45.1909 150.415 46.7414L149.127 42.1403C142.972 43.4357 137.112 45.8517 131.843 49.2662C131.324 49.5984 130.817 49.9417 130.315 50.2905L97.4185 37.0021L96.0692 40.219L95.3611 39.8203L94.8036 40.7893L95.6287 41.2488L94.0508 44.9696L117.469 62.5325C113.927 67.1834 111.134 72.3517 109.189 77.853C108.72 79.3036 108.263 80.7487 107.862 82.2049C107.46 83.6611 107.181 85.1505 106.892 86.6344C106.602 88.1183 106.479 89.6077 106.306 91.0639L106.183 93.2786L106.122 94.386L106.094 94.9397V95.2165V95.283C106.094 95.3107 106.027 95.3217 106.301 95.3826L106.858 95.4878L107.917 95.6539L108.525 95.7425C108.214 98.1962 108.058 100.667 108.057 103.14V105.51L68.4251 137.795C67.4333 137.483 66.399 137.324 65.3585 137.324C65.1522 137.324 64.9571 137.324 64.7564 137.357L41.2717 102.63C41.6671 102.171 41.9004 101.596 41.936 100.993C41.9716 100.39 41.8076 99.7921 41.469 99.2902C41.1304 98.7883 40.6357 98.4102 40.0605 98.2135C39.4853 98.0169 38.8611 98.0124 38.2832 98.2009L35.8522 94.6019C36.2316 94.2207 36.4914 93.7384 36.6 93.2134C36.7087 92.6884 36.6616 92.1434 36.4644 91.6445C36.2673 91.1456 35.9285 90.7142 35.4892 90.4028C35.05 90.0914 34.5291 89.9133 33.9899 89.8901C34.4644 88.5411 34.7057 87.1221 34.7036 85.6931C34.7012 84.928 34.6303 84.1646 34.4917 83.412C34.9319 83.0454 35.2704 82.5732 35.4753 82.0403C35.6802 81.5074 35.7447 80.9313 35.6626 80.3667L34.1962 70.1235C34.0922 69.3872 33.7461 68.7057 33.2116 68.185C32.6772 67.6643 31.9844 67.3336 31.2411 67.2444L27.8455 66.8346C27.5333 63.5624 27.3326 60.0575 27.1319 56.6081C26.8865 52.4277 26.6356 48.1035 26.2007 44.3163C26.0654 43.4525 25.5987 42.6742 24.8983 42.1446C24.198 41.615 23.3184 41.3752 22.4439 41.4755C21.5694 41.5757 20.7679 42.0082 20.2074 42.6823C19.647 43.3564 19.371 44.2197 19.4375 45.0914C19.8556 48.6904 20.0898 52.7267 20.3407 56.9957C20.5247 60.2126 20.7143 63.4682 20.9931 66.5965C20.4634 64.3098 20.0341 62.0231 19.5936 59.6866C18.7401 54.5943 17.5499 49.5633 16.0307 44.6263C15.8945 44.2039 15.6759 43.8122 15.3873 43.4737C15.0987 43.1351 14.7457 42.8563 14.3486 42.6533C13.9515 42.4502 13.518 42.3268 13.0728 42.29C12.6277 42.2533 12.1796 42.304 11.7542 42.4393C11.3288 42.5745 10.9344 42.7916 10.5935 43.0782C10.2526 43.3649 9.97183 43.7153 9.76732 44.1097C9.56281 44.504 9.43852 44.9345 9.40155 45.3766C9.36457 45.8186 9.41564 46.2636 9.55183 46.686C10.9767 51.3559 12.0942 56.1129 12.8972 60.9268C13.6371 65.4092 14.6708 69.8389 15.9917 74.1876L15.8802 74.2429C15.1832 73.1743 14.6034 72.3327 14.2744 71.9285C13.7472 71.2773 12.9956 70.8433 12.1648 70.7103C11.3341 70.5773 10.4832 70.7549 9.77667 71.2087C9.07011 71.6624 8.55801 72.3602 8.33935 73.1671C8.12069 73.974 8.211 74.8327 8.59282 75.5773C7.93418 75.3923 7.23464 75.4088 6.58565 75.6249C5.93666 75.841 5.36842 76.2465 4.95522 76.7884C4.54202 77.3303 4.3031 77.9834 4.26968 78.6623C4.23626 79.3412 4.40991 80.0144 4.76792 80.5937C5.42886 81.6352 6.01215 82.7233 6.5131 83.8494C7.14997 85.3822 8.00834 86.8147 9.06117 88.1017C9.62087 91.0357 11.1921 93.6846 13.5048 95.5933C15.8176 97.502 18.7275 98.5512 21.7346 98.5608C21.6261 98.971 21.614 99.4005 21.6992 99.8161C21.7844 100.232 21.9646 100.622 22.2259 100.958C22.4872 101.293 22.8227 101.565 23.2064 101.751C23.59 101.937 24.0117 102.034 24.4388 102.032H24.6618L27.3382 105.991C27.0734 106.412 26.9273 106.895 26.9152 107.391C26.903 107.887 27.0253 108.377 27.2692 108.81C27.5131 109.243 27.8697 109.603 28.3016 109.852C28.7336 110.102 29.225 110.231 29.7245 110.227C29.874 110.225 30.0231 110.212 30.1706 110.188L55.1662 147.152C55.1662 147.28 55.1662 147.407 55.1662 147.54C55.1721 150.063 56.1241 152.493 57.8365 154.357C59.5489 156.221 61.899 157.384 64.4285 157.621C66.958 157.857 69.4855 157.15 71.5181 155.636C73.5507 154.122 74.9427 151.911 75.4226 149.433L108.548 122.408C108.903 125.251 109.471 128.065 110.248 130.824L107.098 131.721C107.496 133.364 107.962 134.988 108.497 136.593H97.6917L104.594 148.326H113.839C116.018 152.03 118.582 155.496 121.489 158.669C128.654 166.476 137.689 172.359 147.756 175.772L149.155 171.033C151.334 171.731 153.551 172.304 155.796 172.749L153.599 183.551H181.126L178.923 172.749C181.167 172.304 183.382 171.731 185.558 171.033L186.958 175.772C197.026 172.362 206.062 166.479 213.225 158.669C216.132 155.495 218.698 152.029 220.88 148.326H230.125L237.027 136.593H226.222C226.779 134.988 227.225 133.365 227.616 131.721L224.471 130.824C225.251 128.064 225.827 125.251 226.194 122.408L259.33 149.389C259.797 151.878 261.184 154.103 263.218 155.628C265.253 157.153 267.788 157.867 270.326 157.63C272.864 157.394 275.221 156.223 276.935 154.349C278.648 152.475 279.594 150.032 279.586 147.501C279.586 147.368 279.586 147.241 279.586 147.113L304.582 110.149C304.729 110.174 304.879 110.186 305.028 110.188C305.527 110.192 306.019 110.063 306.451 109.814C306.883 109.564 307.239 109.204 307.483 108.772C307.727 108.339 307.849 107.849 307.837 107.353C307.825 106.857 307.679 106.373 307.414 105.952L310.091 101.994H310.314C310.738 101.994 311.157 101.898 311.539 101.713C311.921 101.528 312.255 101.259 312.516 100.926C312.776 100.593 312.957 100.206 313.044 99.7927C313.131 99.38 313.122 98.9529 313.018 98.5442C316.028 98.5361 318.941 97.487 321.257 95.5773C323.573 93.6676 325.147 91.0164 325.708 88.0795C326.762 86.7951 327.62 85.3643 328.256 83.8328C328.744 82.7078 329.315 81.6197 329.962 80.5771C330.428 79.812 330.568 78.8946 330.353 78.0266C330.138 77.1586 329.584 76.411 328.814 75.9483Z" fill="url(#paint0_linear_4355_29593)" stroke="white" stroke-width="8" stroke-miterlimit="10"/>
<path d="M167.923 7.14844H166.25V48.1543H167.923V7.14844Z" fill="#231F20"/>
<path d="M167.091 10.2788C167.716 10.2788 168.328 10.0947 168.847 9.74971C169.367 9.40474 169.773 8.91444 170.012 8.34079C170.251 7.76714 170.314 7.13591 170.192 6.52693C170.07 5.91795 169.769 5.35856 169.327 4.91951C168.884 4.48046 168.321 4.18146 167.708 4.06032C167.095 3.93919 166.459 4.00136 165.881 4.23897C165.304 4.47659 164.81 4.87897 164.462 5.39524C164.115 5.91151 163.93 6.51848 163.93 7.1394C163.93 7.55167 164.011 7.9599 164.17 8.34079C164.329 8.72168 164.562 9.06776 164.856 9.35928C165.449 9.94803 166.253 10.2788 167.091 10.2788Z" fill="#231F20"/>
<path d="M180.841 183.493H153.314L156.27 168.98H177.892L180.841 183.493Z" fill="url(#paint1_linear_4355_29593)"/>
<path d="M120.036 148.274H104.312L97.3984 136.547H116.59L120.036 148.274Z" fill="url(#paint2_linear_4355_29593)"/>
<path d="M214.117 148.274H229.841L236.743 136.547H217.557L214.117 148.274Z" fill="url(#paint3_linear_4355_29593)"/>
<path d="M124.741 68.1428L93.7734 44.9434L97.1188 36.9648L135.697 52.5566L124.741 68.1428Z" fill="url(#paint4_linear_4355_29593)"/>
<path d="M95.0771 39.7695L94.5195 40.7385L126.652 58.7222L127.21 57.7532L95.0771 39.7695Z" fill="white"/>
<path d="M209.413 68.1428L240.375 44.9434L237.029 36.9648L198.457 52.5566L209.413 68.1428Z" fill="url(#paint5_linear_4355_29593)"/>
<path d="M239.05 39.8203L206.906 57.7819L207.464 58.7508L239.607 40.7893L239.05 39.8203Z" fill="white"/>
<path d="M167.094 169.924C152.409 169.924 138.325 164.131 127.941 153.819C117.556 143.507 111.723 129.521 111.723 114.938V103.139C111.723 88.5555 117.556 74.5695 127.941 64.2575C138.325 53.9455 152.409 48.1523 167.094 48.1523C181.78 48.1523 195.864 53.9455 206.248 64.2575C216.632 74.5695 222.466 88.5555 222.466 103.139V114.943C222.465 129.526 216.63 143.51 206.246 153.821C195.862 164.132 181.779 169.924 167.094 169.924Z" fill="#231F20"/>
<path d="M167.088 173.811C151.365 173.797 136.29 167.59 125.171 156.552C114.052 145.513 107.797 130.545 107.779 114.932V103.133C107.779 87.5171 114.026 72.5411 125.145 61.4991C136.265 50.4572 151.346 44.2539 167.071 44.2539C182.796 44.2539 197.877 50.4572 208.996 61.4991C220.115 72.5411 226.362 87.5171 226.362 103.133V114.937C226.343 130.544 220.092 145.506 208.981 156.542C197.869 167.579 182.803 173.789 167.088 173.811ZM167.088 52.0332C153.443 52.0449 140.36 57.432 130.711 67.0122C121.061 76.5924 115.633 89.5829 115.619 103.133V114.937C115.635 128.486 121.063 141.474 130.713 151.052C140.362 160.63 153.444 166.016 167.088 166.026C180.729 166.011 193.807 160.623 203.453 151.045C213.099 141.466 218.525 128.478 218.54 114.932V103.133C218.526 89.5853 213.101 76.5964 203.455 67.0164C193.809 57.4364 180.73 52.0478 167.088 52.0332Z" fill="#231F20"/>
<path d="M147.482 175.717C137.414 172.307 128.378 166.423 121.215 158.614C114.206 150.98 109.255 141.71 106.824 131.666L117.602 128.609C120.328 136.374 124.987 143.328 131.145 148.824C137.126 154.165 144.371 157.916 152.204 159.726L147.482 175.717Z" fill="#231F20"/>
<path d="M181.953 159.71C189.787 157.9 197.032 154.15 203.012 148.808C209.17 143.317 213.829 136.369 216.556 128.609L227.339 131.682C224.904 141.725 219.954 150.994 212.948 158.63C205.783 166.438 196.748 172.321 186.681 175.734L181.953 159.71Z" fill="#231F20"/>
<path d="M110.985 96.1314L107.64 95.6442L106.581 95.4726L106.023 95.3674C105.75 95.312 105.828 95.3009 105.817 95.2732V95.2068V94.9299L105.845 94.3763L105.9 93.2689L106.029 91.0541C106.196 89.5758 106.402 88.0919 106.586 86.6247C106.77 85.1574 107.227 83.6901 107.562 82.1952C107.896 80.7002 108.415 79.2883 108.883 77.8432C113.025 66.088 120.981 56.0324 131.504 49.2565C136.774 45.8432 142.634 43.4255 148.788 42.125L153.277 58.1819C149.007 59.7583 144.899 61.7385 141.01 64.0952C137.112 66.4783 133.513 69.3127 130.288 72.5389C126.991 75.8377 124.123 79.5337 121.752 83.5406C121.194 84.5816 120.592 85.6004 120.04 86.6579C119.488 87.7154 119.02 88.8117 118.535 89.9136L117.208 93.291L116.65 95.0296L116.383 95.91L116.243 96.3474L116.176 96.5688V96.6242C116.176 96.6242 116.226 96.6685 115.948 96.6519L115.39 96.6076L114.347 96.4913L110.985 96.1314Z" fill="#231F20"/>
<path d="M223.174 96.1292L219.828 96.4946L218.758 96.5998L218.2 96.6441C217.921 96.6441 217.988 96.6441 217.971 96.6164V96.561L217.905 96.3396L217.765 95.9022L217.498 95.0218L216.94 93.2832L215.613 89.9057C215.128 88.7984 214.598 87.7242 214.108 86.6501C213.617 85.5759 212.931 84.5738 212.396 83.5328C210.024 79.5259 207.157 75.8299 203.86 72.5311C200.635 69.3049 197.036 66.4705 193.138 64.0874C189.249 61.7307 185.141 59.7505 180.871 58.1741L185.36 42.1172C191.514 43.4177 197.374 45.8354 202.644 49.2486C213.166 56.0246 221.123 66.0802 225.264 77.8354C225.733 79.2861 226.184 80.7312 226.586 82.1874C226.987 83.6436 227.272 85.1274 227.562 86.6169C227.852 88.1063 227.974 89.5901 228.119 91.0463L228.247 93.2611L228.303 94.3684L228.337 94.9221V95.199V95.2654C228.337 95.2654 228.404 95.3042 228.13 95.3651L227.573 95.4703L226.513 95.6364L223.174 96.1292Z" fill="#231F20"/>
<path d="M167.091 151.765C156.592 151.765 146.523 147.624 139.099 140.251C131.675 132.879 127.504 122.88 127.504 112.454V105.644C127.504 95.2123 131.677 85.2083 139.104 77.8323C146.532 70.4563 156.606 66.3125 167.111 66.3125C177.615 66.3125 187.689 70.4563 195.117 77.8323C202.544 85.2083 206.717 95.2123 206.717 105.644V112.432C206.72 117.599 205.697 122.717 203.706 127.491C201.716 132.266 198.797 136.604 195.116 140.257C191.436 143.911 187.066 146.807 182.258 148.782C177.449 150.757 172.295 151.771 167.091 151.765Z" fill="url(#paint6_linear_4355_29593)"/>
<path d="M163.501 81.5457H170.655C177.931 81.6483 184.874 84.5906 189.983 89.7364C195.092 94.8823 197.956 101.818 197.956 109.045C197.956 116.271 195.092 123.207 189.983 128.353C184.874 133.498 177.931 136.441 170.655 136.543H163.501C159.832 136.595 156.188 135.922 152.783 134.563C149.378 133.204 146.278 131.187 143.665 128.628C141.052 126.07 138.976 123.021 137.56 119.659C136.143 116.297 135.414 112.689 135.414 109.045C135.414 105.4 136.143 101.792 137.56 98.4301C138.976 95.068 141.052 92.0191 143.665 89.4605C146.278 86.9019 149.378 84.8846 152.783 83.5258C156.188 82.1671 159.832 81.494 163.501 81.5457Z" fill="white"/>
<path d="M180.838 114.678C179.803 114.678 178.81 114.269 178.078 113.542C177.346 112.816 176.935 111.83 176.935 110.802C176.874 108.25 175.81 105.822 173.971 104.039C172.131 102.255 169.662 101.256 167.091 101.256C164.52 101.256 162.052 102.255 160.212 104.039C158.373 105.822 157.309 108.25 157.248 110.802C157.248 111.834 156.835 112.824 156.1 113.554C155.364 114.284 154.367 114.694 153.328 114.694C152.288 114.694 151.291 114.284 150.556 113.554C149.821 112.824 149.408 111.834 149.408 110.802C149.491 106.199 151.39 101.812 154.697 98.5851C158.004 95.3586 162.455 93.5508 167.091 93.5508C171.728 93.5508 176.178 95.3586 179.486 98.5851C182.793 101.812 184.692 106.199 184.775 110.802C184.775 111.314 184.673 111.82 184.474 112.293C184.276 112.765 183.986 113.194 183.62 113.554C183.254 113.915 182.819 114.199 182.342 114.392C181.865 114.585 181.354 114.682 180.838 114.678Z" fill="#231F20"/>
<path d="M64.5012 156.039C64.173 156.039 63.8451 156.017 63.5199 155.973C62.5935 155.838 61.7059 155.512 60.9145 155.015C60.1231 154.518 59.4455 153.862 58.9256 153.088L20.6934 96.4962L31.8447 89.0547L65.9732 139.534L115.652 99.0708L124.161 109.408L68.7666 154.528C67.565 155.509 66.0568 156.043 64.5012 156.039Z" fill="#231F20"/>
<path d="M65.0854 157.622C67.1081 157.623 69.0857 157.028 70.768 155.913C72.4504 154.798 73.7619 153.212 74.5367 151.357C75.3116 149.502 75.5149 147.46 75.1209 145.489C74.727 143.519 73.7535 141.709 72.3236 140.289C70.8938 138.868 69.0717 137.9 67.088 137.508C65.1042 137.116 63.0479 137.317 61.179 138.085C59.3102 138.853 57.7128 140.155 56.589 141.825C55.4651 143.495 54.8652 145.458 54.8652 147.467C54.8645 148.8 55.1283 150.121 55.6416 151.353C56.1549 152.585 56.9076 153.704 57.8567 154.647C58.8058 155.59 59.9327 156.338 61.173 156.849C62.4134 157.359 63.7428 157.622 65.0854 157.622Z" fill="url(#paint7_linear_4355_29593)"/>
<path d="M21.4799 98.5341C24.0391 98.533 26.5406 97.7784 28.668 96.3656C30.7955 94.9529 32.4533 92.9454 33.4319 90.5971C34.4105 88.2488 34.666 85.665 34.166 83.1726C33.6661 80.6801 32.4331 78.3908 30.6231 76.5941C28.813 74.7974 26.5071 73.574 23.9969 73.0786C21.4867 72.5832 18.885 72.838 16.5207 73.8108C14.1563 74.7836 12.1355 76.4308 10.7138 78.544C9.29204 80.6572 8.5332 83.1416 8.5332 85.6831C8.5332 87.3712 8.86812 89.0427 9.51882 90.6022C10.1695 92.1617 11.1232 93.5787 12.3255 94.7721C13.5278 95.9655 14.9551 96.912 16.5258 97.5575C18.0965 98.2029 19.78 98.5348 21.4799 98.5341Z" fill="#231F20"/>
<path d="M21.4469 82.7695C20.7982 82.769 20.1631 82.5849 19.616 82.2387C19.0689 81.8926 18.6325 81.3987 18.358 80.815C15.0126 73.7113 13.8585 67.4878 12.6207 60.8824C11.8191 56.0682 10.7016 51.3111 9.27527 46.6416C9.02008 45.7938 9.11015 44.8804 9.52609 44.0978C9.94204 43.3152 10.6506 42.726 11.4995 42.4569C12.3484 42.1878 13.2697 42.2602 14.0653 42.6586C14.861 43.057 15.4674 43.7496 15.7542 44.5874C17.2756 49.5242 18.4677 54.5552 19.3226 59.6477C20.4768 65.7991 21.5529 71.6128 24.5358 77.9469C24.776 78.4615 24.8822 79.0277 24.8444 79.5936C24.8067 80.1594 24.6263 80.7068 24.3198 81.1853C24.0133 81.6639 23.5907 82.0583 23.0906 82.3322C22.5905 82.6061 22.0292 82.7508 21.4581 82.7529L21.4469 82.7695Z" fill="#58595B"/>
<path d="M16.2412 85.1919C15.6281 85.1933 15.026 85.0299 14.4988 84.7189C13.9716 84.408 13.5391 83.961 13.2471 83.4256C11.8657 80.9107 10.3469 78.4727 8.69738 76.1225C8.41841 75.7757 8.21097 75.3777 8.08689 74.9512C7.96281 74.5248 7.92453 74.0783 7.97423 73.6371C8.02394 73.196 8.16065 72.7689 8.37657 72.3802C8.59249 71.9915 8.88338 71.6489 9.23264 71.3719C9.58191 71.0949 9.9827 70.8889 10.4121 70.7656C10.8416 70.6424 11.2912 70.6044 11.7355 70.6538C12.1797 70.7031 12.6098 70.8389 13.0012 71.0533C13.3926 71.2677 13.7376 71.5566 14.0166 71.9034C15.919 74.5654 17.658 77.3388 19.2242 80.2087C19.5021 80.7227 19.6414 81.2994 19.6286 81.8827C19.6158 82.466 19.4513 83.036 19.1511 83.5376C18.8509 84.0391 18.4252 84.455 17.9153 84.7448C17.4054 85.0347 16.8287 85.1887 16.2412 85.1919Z" fill="#58595B"/>
<path d="M12.5065 90.5963C12.0351 90.5969 11.5688 90.4986 11.1383 90.3077C10.7079 90.1169 10.3229 89.8378 10.0086 89.4889C8.38842 87.8541 7.09941 85.9256 6.21157 83.8081C5.72553 82.6821 5.15521 81.5938 4.50542 80.5524C4.27111 80.1747 4.11402 79.7548 4.04312 79.3168C3.97222 78.8788 3.98888 78.4312 4.09217 77.9996C4.19546 77.5679 4.38335 77.1608 4.64512 76.8012C4.90688 76.4417 5.23738 76.1369 5.61776 75.9042C5.99814 75.6716 6.42095 75.5156 6.86204 75.4452C7.30313 75.3748 7.75387 75.3913 8.18852 75.4939C9.06633 75.701 9.82532 76.246 10.2985 77.0088C11.1031 78.302 11.813 79.6509 12.4228 81.0452C13.0053 82.5 13.8842 83.8195 15.0044 84.921C15.4532 85.4033 15.7507 86.005 15.8604 86.6526C15.9702 87.3001 15.8875 87.9654 15.6225 88.567C15.3574 89.1686 14.9215 89.6805 14.3681 90.0399C13.8147 90.3993 13.1677 90.5907 12.5065 90.5907V90.5963Z" fill="#58595B"/>
<path d="M25.726 80.295C24.9747 80.2941 24.2447 80.0466 23.6497 79.591C23.0548 79.1353 22.6282 78.4972 22.4364 77.7758C20.9309 72.0784 20.4849 64.3987 20.0556 56.9738C19.8102 52.6994 19.576 48.6686 19.1523 45.0641C19.0859 44.1924 19.3618 43.329 19.9223 42.6549C20.4827 41.9808 21.2842 41.5483 22.1587 41.4481C23.0332 41.3479 23.9128 41.5877 24.6132 42.1173C25.3135 42.6469 25.7803 43.4251 25.9156 44.2889C26.356 48.0816 26.6069 52.4059 26.8467 56.5862C27.2593 63.679 27.683 71.0153 29.0212 76.0538C29.1345 76.4835 29.1614 76.9313 29.1002 77.3713C29.039 77.8114 28.891 78.2351 28.6647 78.6183C28.4383 79.0014 28.1381 79.3365 27.7812 79.6043C27.4243 79.872 27.0177 80.0673 26.5846 80.1788C26.3047 80.2543 26.0161 80.2934 25.726 80.295Z" fill="#58595B"/>
<path d="M32.0005 84.1986C31.1853 84.1934 30.3991 83.8976 29.7851 83.3651C29.1711 82.8326 28.7701 82.0987 28.6552 81.2973L27.54 73.6176L23.8712 73.1802C23.4275 73.1272 22.9987 72.9878 22.6092 72.7701C22.2197 72.5525 21.8772 72.2608 21.6013 71.9117C21.3253 71.5626 21.1213 71.1629 21.0009 70.7355C20.8804 70.3081 20.846 69.8613 20.8994 69.4207C20.9529 68.9801 21.0932 68.5542 21.3124 68.1675C21.5316 67.7807 21.8253 67.4406 22.1769 67.1665C22.5284 66.8925 22.9309 66.6899 23.3613 66.5703C23.7917 66.4507 24.2416 66.4165 24.6853 66.4696L30.9523 67.2226C31.6956 67.3134 32.3881 67.6445 32.9232 68.1648C33.4582 68.6851 33.806 69.3657 33.913 70.1017L35.3738 80.3449C35.4376 80.7842 35.4135 81.2317 35.3027 81.6617C35.192 82.0917 34.9969 82.4957 34.7285 82.8506C34.4602 83.2056 34.1239 83.5044 33.7391 83.73C33.3542 83.9556 32.9282 84.1036 32.4856 84.1653C32.3249 84.1874 32.1628 84.1985 32.0005 84.1986Z" fill="#231F20"/>
<path d="M24.1602 101.97C23.561 101.979 22.975 101.796 22.489 101.447C22.003 101.099 21.6429 100.605 21.462 100.038C21.2812 99.4703 21.2892 98.8602 21.485 98.2977C21.6808 97.7353 22.0538 97.2505 22.5489 96.9151L31.9661 90.3484C32.2671 90.1387 32.6067 89.9898 32.9655 89.9104C33.3244 89.8309 33.6955 89.8224 34.0577 89.8854C34.4199 89.9484 34.766 90.0816 35.0763 90.2774C35.3866 90.4733 35.6551 90.7279 35.8663 91.0267C36.0776 91.3255 36.2275 91.6628 36.3075 92.0191C36.3875 92.3755 36.396 92.744 36.3326 93.1037C36.2691 93.4633 36.135 93.807 35.9378 94.1152C35.7406 94.4234 35.4842 94.6899 35.1833 94.8997L25.766 101.466C25.2949 101.793 24.7347 101.969 24.1602 101.97Z" fill="url(#paint8_linear_4355_29593)"/>
<path d="M29.4415 110.155C28.8423 110.163 28.2563 109.98 27.7702 109.632C27.2842 109.284 26.9241 108.789 26.7433 108.222C26.5624 107.655 26.5705 107.044 26.7662 106.482C26.962 105.92 27.3351 105.435 27.8301 105.099L37.253 98.5383C37.8607 98.1153 38.6128 97.9495 39.3437 98.0772C40.0746 98.2049 40.7245 98.6157 41.1504 99.2193C41.5762 99.8228 41.7432 100.57 41.6146 101.295C41.486 102.021 41.0723 102.667 40.4645 103.09L31.0473 109.651C30.5771 109.979 30.0163 110.155 29.4415 110.155Z" fill="url(#paint9_linear_4355_29593)"/>
<path d="M269.63 156.037C268.077 156.039 266.571 155.505 265.371 154.525L209.977 109.406L218.496 99.0904L268.175 139.554L302.309 89.0742L313.461 96.5157L275.212 153.086C274.691 153.859 274.012 154.514 273.22 155.01C272.427 155.506 271.539 155.831 270.612 155.965C270.287 156.014 269.959 156.038 269.63 156.037Z" fill="#231F20"/>
<path d="M269.064 157.622C271.087 157.623 273.064 157.028 274.747 155.913C276.429 154.798 277.74 153.212 278.515 151.357C279.29 149.502 279.493 147.46 279.099 145.489C278.706 143.519 277.732 141.709 276.302 140.289C274.872 138.868 273.05 137.9 271.066 137.508C269.083 137.116 267.026 137.317 265.158 138.085C263.289 138.853 261.691 140.155 260.567 141.825C259.444 143.495 258.844 145.458 258.844 147.467C258.843 148.8 259.107 150.121 259.62 151.353C260.133 152.585 260.886 153.704 261.835 154.647C262.784 155.59 263.911 156.338 265.152 156.849C266.392 157.359 267.721 157.622 269.064 157.622Z" fill="url(#paint10_linear_4355_29593)"/>
<path d="M312.675 98.5341C315.235 98.5341 317.737 97.7804 319.865 96.3683C321.993 94.9562 323.652 92.9492 324.631 90.6009C325.611 88.2527 325.867 85.6688 325.368 83.176C324.869 80.6831 323.636 78.3933 321.826 76.596C320.016 74.7988 317.71 73.5748 315.2 73.079C312.69 72.5831 310.088 72.8376 307.723 73.8103C305.358 74.7829 303.337 76.4301 301.915 78.5434C300.493 80.6568 299.734 83.1414 299.734 85.6831C299.734 89.0914 301.098 92.3601 303.525 94.7701C305.952 97.1802 309.243 98.5341 312.675 98.5341Z" fill="#231F20"/>
<path d="M312.701 82.7708C312.13 82.7682 311.569 82.6232 311.069 82.3493C310.569 82.0754 310.146 81.6813 309.839 81.2031C309.532 80.7248 309.351 80.1777 309.313 79.612C309.274 79.0463 309.379 78.4799 309.618 77.9649C312.589 71.6307 313.682 65.817 314.836 59.6933C315.689 54.6008 316.879 49.5698 318.399 44.633C318.514 44.1889 318.719 43.7726 319.002 43.4097C319.284 43.0469 319.638 42.7449 320.042 42.5223C320.446 42.2996 320.891 42.161 321.351 42.1148C321.81 42.0686 322.274 42.1159 322.715 42.2537C323.155 42.3915 323.563 42.6169 323.913 42.9163C324.263 43.2156 324.548 43.5826 324.75 43.9948C324.952 44.4071 325.068 44.856 325.09 45.3141C325.112 45.7722 325.04 46.23 324.878 46.6595C323.457 51.3284 322.339 56.0833 321.533 60.8947C320.301 67.4836 319.13 73.707 315.795 80.8274C315.521 81.4111 315.083 81.9044 314.535 82.2488C313.986 82.5932 313.35 82.7744 312.701 82.7708Z" fill="#58595B"/>
<path d="M317.913 85.1815C317.325 85.1799 316.748 85.0269 316.237 84.7375C315.726 84.448 315.3 84.0319 314.999 83.5299C314.698 83.0278 314.534 82.457 314.522 81.8731C314.51 81.2892 314.651 80.7122 314.93 80.1984C316.495 77.3273 318.234 74.5537 320.138 71.8931C320.408 71.5232 320.752 71.2118 321.147 70.9775C321.542 70.7432 321.981 70.591 322.437 70.5301C322.893 70.4692 323.357 70.5009 323.801 70.6232C324.244 70.7455 324.658 70.956 325.017 71.2417C325.376 71.5275 325.673 71.8827 325.89 72.2858C326.107 72.6889 326.239 73.1316 326.279 73.5869C326.318 74.0422 326.265 74.5008 326.12 74.9349C325.976 75.369 325.745 75.7695 325.441 76.1122C323.796 78.4643 322.279 80.9022 320.896 83.4153C320.604 83.9483 320.173 84.3935 319.649 84.7042C319.124 85.015 318.524 85.1798 317.913 85.1815Z" fill="#58595B"/>
<path d="M321.643 90.5908C320.982 90.5908 320.335 90.3993 319.782 90.0399C319.228 89.6805 318.792 89.1686 318.527 88.567C318.262 87.9654 318.18 87.3001 318.289 86.6526C318.399 86.005 318.697 85.4033 319.145 84.921C320.266 83.8195 321.145 82.5 321.727 81.0452C322.337 79.651 323.047 78.302 323.851 77.0089C324.325 76.246 325.084 75.701 325.961 75.4939C326.839 75.2867 327.764 75.4343 328.532 75.9043C329.3 76.3742 329.849 77.1279 330.058 77.9996C330.266 78.8713 330.118 79.7896 329.644 80.5524C328.995 81.5938 328.424 82.6821 327.938 83.8081C327.05 85.9256 325.761 87.8541 324.141 89.4889C323.826 89.8368 323.441 90.1148 323.011 90.3047C322.58 90.4946 322.114 90.5921 321.643 90.5908Z" fill="#58595B"/>
<path d="M308.423 80.295C308.131 80.2933 307.841 80.2561 307.559 80.1843C306.686 79.9555 305.94 79.3919 305.485 78.6175C305.031 77.843 304.904 76.9209 305.133 76.0538C306.466 71.0153 306.89 63.679 307.302 56.5862C307.542 52.4059 307.798 48.0816 308.233 44.2889C308.369 43.4251 308.835 42.6469 309.536 42.1173C310.236 41.5877 311.116 41.3479 311.99 41.4481C312.865 41.5483 313.666 41.9808 314.227 42.6549C314.787 43.329 315.063 44.1924 314.997 45.0641C314.578 48.663 314.344 52.6994 314.093 56.9794C313.664 64.4043 313.218 72.0784 311.713 77.7758C311.522 78.4976 311.095 79.1363 310.5 79.5921C309.905 80.0479 309.174 80.2951 308.423 80.295Z" fill="#58595B"/>
<path d="M302.147 84.1989C301.987 84.1988 301.827 84.1877 301.668 84.1657C301.225 84.1039 300.799 83.956 300.414 83.7304C300.029 83.5049 299.692 83.2062 299.423 82.8513C299.155 82.4965 298.959 82.0925 298.847 81.6625C298.736 81.2324 298.711 80.7848 298.774 80.3453L300.241 70.1021C300.345 69.3661 300.692 68.6851 301.226 68.1646C301.76 67.644 302.453 67.3131 303.196 67.2229L309.463 66.4699C309.906 66.4165 310.356 66.4503 310.787 66.5696C311.217 66.6888 311.62 66.8911 311.972 67.1649C312.324 67.4387 312.618 67.7786 312.837 68.1652C313.057 68.5519 313.198 68.9776 313.251 69.4183C313.305 69.8589 313.271 70.3057 313.151 70.7333C313.031 71.1608 312.827 71.5607 312.551 71.91C312.276 72.2594 311.933 72.5514 311.544 72.7694C311.155 72.9874 310.726 73.1271 310.282 73.1806L306.608 73.618L305.493 81.292C305.379 82.0945 304.979 82.8297 304.365 83.3633C303.75 83.8969 302.963 84.1935 302.147 84.1989Z" fill="#231F20"/>
<path d="M309.999 101.97C309.425 101.969 308.865 101.793 308.394 101.466L298.976 94.8997C298.675 94.6899 298.419 94.4234 298.222 94.1152C298.025 93.807 297.891 93.4633 297.827 93.1037C297.764 92.744 297.772 92.3755 297.852 92.0191C297.932 91.6628 298.082 91.3255 298.293 91.0267C298.505 90.7279 298.773 90.4733 299.083 90.2774C299.394 90.0816 299.74 89.9484 300.102 89.8854C300.464 89.8224 300.835 89.8309 301.194 89.9104C301.553 89.9898 301.893 90.1387 302.194 90.3484L311.611 96.9151C312.106 97.2505 312.479 97.7353 312.675 98.2977C312.87 98.8602 312.879 99.4703 312.698 100.038C312.517 100.605 312.157 101.099 311.671 101.447C311.185 101.796 310.599 101.979 309.999 101.97Z" fill="url(#paint11_linear_4355_29593)"/>
<path d="M304.708 110.155C304.134 110.156 303.575 109.98 303.107 109.651L293.685 103.09C293.384 102.88 293.127 102.614 292.93 102.306C292.733 101.998 292.598 101.655 292.535 101.295C292.471 100.936 292.479 100.568 292.559 100.212C292.638 99.8553 292.788 99.5181 292.999 99.2193C293.21 98.9204 293.478 98.6658 293.788 98.4698C294.098 98.2738 294.444 98.1404 294.805 98.0772C295.167 98.014 295.538 98.0221 295.897 98.1012C296.256 98.1803 296.595 98.3288 296.896 98.5382L306.319 105.099C306.814 105.435 307.187 105.92 307.383 106.482C307.579 107.044 307.587 107.655 307.406 108.222C307.225 108.789 306.865 109.284 306.379 109.632C305.893 109.98 305.307 110.163 304.708 110.155Z" fill="url(#paint12_linear_4355_29593)"/>
<defs>
<linearGradient id="paint0_linear_4355_29593" x1="9.70206" y1="93.7914" x2="330.529" y2="95.987" gradientUnits="userSpaceOnUse">
<stop stop-color="#83F3D3"/>
<stop offset="1" stop-color="#559B8B"/>
</linearGradient>
<linearGradient id="paint1_linear_4355_29593" x1="153.773" y1="176.237" x2="180.848" y2="176.43" gradientUnits="userSpaceOnUse">
<stop stop-color="#83F3D3"/>
<stop offset="1" stop-color="#559B8B"/>
</linearGradient>
<linearGradient id="paint2_linear_4355_29593" x1="97.7757" y1="142.41" x2="120.041" y2="142.572" gradientUnits="userSpaceOnUse">
<stop stop-color="#83F3D3"/>
<stop offset="1" stop-color="#559B8B"/>
</linearGradient>
<linearGradient id="paint3_linear_4355_29593" x1="214.494" y1="142.41" x2="236.748" y2="142.572" gradientUnits="userSpaceOnUse">
<stop stop-color="#83F3D3"/>
<stop offset="1" stop-color="#559B8B"/>
</linearGradient>
<linearGradient id="paint4_linear_4355_29593" x1="94.4722" y1="52.5539" x2="135.708" y2="52.7627" gradientUnits="userSpaceOnUse">
<stop stop-color="#83F3D3"/>
<stop offset="1" stop-color="#559B8B"/>
</linearGradient>
<linearGradient id="paint5_linear_4355_29593" x1="199.156" y1="52.5539" x2="240.386" y2="52.7626" gradientUnits="userSpaceOnUse">
<stop stop-color="#83F3D3"/>
<stop offset="1" stop-color="#559B8B"/>
</linearGradient>
<linearGradient id="paint6_linear_4355_29593" x1="128.824" y1="109.039" x2="206.739" y2="109.311" gradientUnits="userSpaceOnUse">
<stop stop-color="#83F3D3"/>
<stop offset="1" stop-color="#559B8B"/>
</linearGradient>
<linearGradient id="paint7_linear_4355_29593" x1="55.2061" y1="147.467" x2="75.3222" y2="147.543" gradientUnits="userSpaceOnUse">
<stop stop-color="#83F3D3"/>
<stop offset="1" stop-color="#559B8B"/>
</linearGradient>
<linearGradient id="paint8_linear_4355_29593" x1="21.5827" y1="95.9072" x2="36.3785" y2="95.9763" gradientUnits="userSpaceOnUse">
<stop stop-color="#83F3D3"/>
<stop offset="1" stop-color="#559B8B"/>
</linearGradient>
<linearGradient id="paint9_linear_4355_29593" x1="26.864" y1="104.095" x2="41.6609" y2="104.164" gradientUnits="userSpaceOnUse">
<stop stop-color="#83F3D3"/>
<stop offset="1" stop-color="#559B8B"/>
</linearGradient>
<linearGradient id="paint10_linear_4355_29593" x1="259.185" y1="147.467" x2="279.301" y2="147.543" gradientUnits="userSpaceOnUse">
<stop stop-color="#83F3D3"/>
<stop offset="1" stop-color="#559B8B"/>
</linearGradient>
<linearGradient id="paint11_linear_4355_29593" x1="298.036" y1="95.9072" x2="312.832" y2="95.9763" gradientUnits="userSpaceOnUse">
<stop stop-color="#83F3D3"/>
<stop offset="1" stop-color="#559B8B"/>
</linearGradient>
<linearGradient id="paint12_linear_4355_29593" x1="292.743" y1="104.095" x2="307.54" y2="104.164" gradientUnits="userSpaceOnUse">
<stop stop-color="#83F3D3"/>
<stop offset="1" stop-color="#559B8B"/>
</linearGradient>
</defs>
</svg>
