<svg xmlns="http://www.w3.org/2000/svg" viewBox="0 0 2800 1900" id="Spacemandoingspacewalk">
  <g style="isolation:isolate" fill="#000000" class="color000000 svgShape">
    <g id="b1f69705-b466-428c-a069-43b7dd97e310" fill="#000000" class="color000000 svgShape">
      <g fill="#000000" class="color000000 svgShape">
        <g fill="#000000" class="color000000 svgShape">
          <path d="M1470.284,1406.3737a591.68731,591.68731,0,0,1-93.0166-7.4983c-104.8164-16.7009-198.8788-59.8674-239.6364-109.9729l18.6689-15.1846c71.0543,87.3573,349.4373,167.8401,543.5252,48.3499,96.2697-59.2706,150.5719-150.2708,145.2595-243.4299-1.6346-28.6809-9.1329-55.0523-21.2526-76.9797-53.1327,31.6517-115.5247,41.1931-169.2677,9.9367-38.3864-22.3253-41.5292-50.3959-31.6705-69.2207,17.9914-34.3644,82.9804-50.1163,156.5941-15.6498,19.7094,9.2297,36.9104,23.4115,50.8503,41.2792a242.36325,242.36325,0,0,0,57.9962-60.553c50.3448-75.872-15.8648-162.6647-16.5396-163.5304l18.9969-14.7706c3.1885,4.1026,77.3964,101.4772,17.5935,191.6037a269.67264,269.67264,0,0,1-64.4809,67.5861c14.4238,25.417,23.32,55.8885,25.2047,88.9274,5.8232,102.1333-52.743,201.3092-156.6695,265.2927C1644.1733,1384.5888,1560.397,1406.3737,1470.284,1406.3737Zm228.955-474.9229c-28.4147,0-48.608,9.8211-55.0308,22.086-6.0814,11.6143,2.3121,25.5434,22.4543,37.2599,44.3575,25.8015,97.5118,17.2521,143.5173-9.5549-11.4019-14.1657-25.2154-25.3821-40.8974-32.7244C1743.1744,936.2901,1719.1796,931.4508,1699.239,931.4508Z" fill="#357265" class="color356b72 svgShape"></path>
          <g fill="#000000" class="color000000 svgShape">
            <path d="M1115.8831,1737.015l3.3706,16.2007-1.7528,12.8798s50.7343,27.2378,51.2679,52.2353-45.7494,21.2096-135.3921,6.8273c-85.4115-11.0038-55.448-31.1589-42.2427-70.3566s13.4684-41.1296,13.4684-41.1296Z" fill="#d1dedb" class="colord1d9de svgShape"></path>
            <path d="M1033.4016,1825.1378c-85.4524-10.9754-55.4539-31.1313-42.2758-70.3219,13.2343-39.2329,13.4964-41.1585,13.4964-41.1585l111.2768,23.3403,3.3772,16.1995-1.579,11.6024c-12.7884,3.4394-33.4447,6.3107-65.987,5.2512-65.6347-2.1436,60.1682,78.8917,116.9857,47.9029a.9272.9272,0,0,1,.0515.3591C1169.3153,1843.3325,1123.0135,1839.5457,1033.4016,1825.1378Z" style="mix-blend-mode:soft-light" opacity=".44" fill="#000000" class="color000000 svgShape"></path>
          </g>
          <g fill="#000000" class="color000000 svgShape">
            <path d="M658.4948,1654.0462l-7.1305,16.933-.8392,14.408s-61.0944,18.8496-67.0114,45.9732,45.3218,32.8751,146.0671,36.3378c95.4138,6.2408,67.0674-22.1159,61.0452-67.6446s-5.8962-47.69-5.8962-47.69Z" fill="#d1dedb" class="colord1d9de svgShape"></path>
            <path d="M798.763,1750.7093c-2.5782,13.815-18.1978,20.3314-69.2086,16.9721-100.7171-3.4283-151.9763-9.185-146.0171-36.3255,5.9035-27.1434,66.9632-45.9759,66.9632-45.9759l.8396-14.4152,7.1376-16.9302,126.23-1.6805s-.0965,1.6569,4.0347,33.486c-19.1301,3.0421-48.8436,13.887-76.3616,12.5056C665.5257,1695.949,670.2546,1762.0104,798.763,1750.7093Z" style="mix-blend-mode:soft-light" opacity=".44" fill="#000000" class="color000000 svgShape"></path>
          </g>
          <path d="M1182.2342,1472.6734c-.0602,1.8652-.1204,3.6701-.2408,5.4743-2.767,55.4037-11.2491,110.145-32.4838,185.0985-4.0905,14.5579-8.7226,29.8376-13.836,46.0191-4.331,13.5951-8.9631,27.852-14.0762,42.8306-16.8434,2.8873-35.251,1.744-52.636-1.2638-38.6197-6.6162-72.1263-22.2572-72.1263-22.2572s2.2859-17.9262,4.5718-43.4923c2.2258-24.2428,4.3913-55.3427,4.8124-84.3982.7821-59.6738-43.9134-196.1669-43.9134-196.1669s-106.7161,108.2798-127.1085,142.809c-14.7984,25.0851-27.9724,47.2219-35.9732,83.9173a339.54963,339.54963,0,0,0-6.617,48.6656,237.52988,237.52988,0,0,1-73.4499,9.2634c-41.2666-1.2028-69.1788-12.3916-69.1788-12.3916s-2.8873-17.866-4.2109-48.004c-.4208-8.9029-.6617-18.9491-.6617-29.8978A735.08415,735.08415,0,0,1,655.5131,1475.14c5.3535-31.401,18.1065-66.0506,33.7471-99.8579,26.0474-56.2452,60.1555-110.0848,81.9919-142.3273,12.8132-19.0101,21.3551-30.4992,21.3551-30.4992l135.1692-45.8987,256.5631,132.5821c.1807,0,.3609,8.9037.4814,23.4615C1185.0614,1348.6336,1184.7004,1419.1356,1182.2342,1472.6734Z" fill="#d1dedb" class="colord1d9de svgShape"></path>
          <path d="M799.2242 1631.2438a339.54963 339.54963 0 0 0-6.617 48.6656c-77.9013 22.7382-142.6287-3.1282-142.6287-3.1282s-2.8873-17.866-4.2109-48.004C679.5151 1638.6428 737.5046 1649.0496 799.2242 1631.2438ZM1135.6736 1709.2653c-4.331 13.5951-8.9631 27.852-14.0762 42.8306-54.1399 9.3839-124.7623-23.521-124.7623-23.521s2.2859-17.9262 4.5718-43.4923C1024.0853 1693.8651 1075.5181 1710.5283 1135.6736 1709.2653ZM767.7028 1486.8707c0 63.2837-45.2969 114.5957-101.2417 114.5957a89.47006 89.47006 0 0 1-21.3552-2.587A735.08415 735.08415 0 0 1 655.5131 1475.14c5.3535-31.401 18.1065-66.0506 33.7471-99.8579C734.1962 1386.9519 767.7028 1432.49 767.7028 1486.8707ZM1182.2342 1472.6734c-.0602 1.8652-.1204 3.6701-.2408 5.4743-2.767 55.4037-11.2491 110.145-32.4838 185.0985a95.49782 95.49782 0 0 1-25.9269-2.6472c-51.4333-12.5121-82.7138-65.6291-69.7806-118.506 12.8734-52.9371 65.0883-85.6613 116.5211-73.1485A97.78372 97.78372 0 0 1 1182.2342 1472.6734ZM1184.8209 1312.6005a551.91159 551.91159 0 0 1-85.5413 10.8276c-154.3587 7.5194-271.2407-52.9966-328.0275-90.4733 12.8132-19.0101 21.3551-30.4992 21.3551-30.4992l135.1692-45.8987 256.5631 132.5821C1184.5202 1289.139 1184.7004 1298.0427 1184.8209 1312.6005Z" fill="#65b0a1" class="color65a4b0 svgShape"></path>
          <path d="M1074.4354,1330.2257c8.7226-2.1655,17.0241-4.4515,24.8442-6.7976,53.5385-15.9414,85.0599-34.2891,85.0599-34.2891L927.7764,1156.5569l-135.1692,45.8987s-8.5419,11.4891-21.3551,30.4992c-21.8364,32.2425-55.9445,86.0821-81.9919,142.3273-15.6406,33.8073-28.3936,68.4569-33.7471,99.8579a735.08415,735.08415,0,0,0-10.4072,123.7394c0,10.9487.2409,20.9949.6617,29.8978,1.3236,30.138,4.2109,48.004,4.2109,48.004s27.9122,11.1888,69.1788,12.3916c-9.0835-65.1481,5.5346-197.8506,94.023-358.4059a541.72575,541.72575,0,0,0,164.405,14.4374l-15.2794,59.3132s44.6955,136.4931,43.9134,196.1669c-.4211,29.0555-2.5866,60.1554-4.8124,84.3982-2.2859,25.5661-4.5718,43.4923-4.5718,43.4923s33.5066,15.641,72.1263,22.2572c15.2191-51.0117,34.4087-126.9873,32.9651-182.3308C1100.0617,1494.2697,1081.2932,1372.5754,1074.4354,1330.2257Z" style="mix-blend-mode:soft-light" opacity=".44" fill="#000000" class="color000000 svgShape"></path>
          <path d="M1605.6682,1078.896s-5.474,14.9185-23.8214,35.3715a217.75716,217.75716,0,0,1-29.5365,27.371c-11.4895-2.4064-27.972-7.46-47.3423-14.1364-93.1807-32.4246-254.0364-103.4076-257.8262-105.0319l-.0602-.0595s-43.4923,111.5879-58.7118,226.7858c-1.7443,13.3543-3.1278,26.7086-4.0303,39.9425-142.0269,9.4449-331.6972-22.5583-391.7323-86.6834,3.549-26.4686,30.0175-223.0569,30.0175-223.0569s-138.4779,40.1239-252.1715,52.0353a537.0695,537.0695,0,0,1-54.4406,3.3081c-7.6399-15.099-14.9188-34.8302-20.8742-52.9965-8.7226-26.5295-14.6177-49.5681-14.6177-49.5681,15.6403-8.4828,32.7848-17.0847,50.7712-25.6865,31.0401-14.7987,64.7876-29.5365,98.6551-43.6127,27.7918-11.5501,55.7037-22.5583,82.1722-32.7249,39.2817-15.1593,75.5552-28.3932,103.9488-38.4997,36.9954-13.1737,60.6967-21.1146,60.6967-21.1146s219.6878-44.7553,370.3169,24.3031c33.326,15.2797,69.5397,37.7175,105.5728,63.404,3.7898,2.6465,7.5194,5.3532,11.3092,8.1209,54.0797,39.5218,107.3777,85.3609,150.0879,124.4018,22.7988,20.8135,42.5902,39.7017,57.8696,54.5606C1593.0959,1065.903,1605.6682,1078.896,1605.6682,1078.896Z" fill="#d1dedb" class="colord1d9de svgShape"></path>
          <path d="M496.0173,937.935s-89.1543,35.3087-127.6996,77.3848-9.7099,66.7922,4.7078,67.3806,52.6688-32.3662,60.9074-30.895c14.1235,22.6564,14.1235,36.1913,32.3663,35.0144s41.4876-55.6111,47.0782-67.3807S496.0173,937.935,496.0173,937.935Z" fill="#d1dedb" class="colord1d9de svgShape"></path>
          <path d="M513.3657,1019.4624c-5.5944,11.7308-28.8147,66.171-47.0416,67.3746-18.2875,1.1426-18.2875-12.3924-32.3636-35.0109-8.2413-1.5039-46.5001,31.4612-60.9375,30.8598-9.1438-.3606-24.1224-10.467-23.9418-28.5739,52.9969,16.7836,117.2429-47.0412,128.6722-61.9597,8.1815-10.5874,4.5117-32.1235.662-46.6204,10.7677-4.873,17.6255-7.5797,17.6255-7.5797S518.9601,1007.6722,513.3657,1019.4624Z" style="mix-blend-mode:soft-light" opacity=".44" fill="#000000" class="color000000 svgShape"></path>
          <path d="M1581.0199,1063.2415s79.6979,44.4382,111.176,90.2955,1.6866,67.3968-11.9016,66.4698-45.8038-37.6884-53.6946-37.0901c-15.7639,21.0352-17.2677,34.4864-34.2474,31.4039s-32.7342-59.617-36.6701-71.8999S1581.0199,1063.2415,1581.0199,1063.2415Z" fill="#d1dedb" class="colord1d9de svgShape"></path>
          <path d="M1703.3609,1203.839c-5.1134,11.3093-16.1818,16.6632-23.0396,16.1815-13.5952-.962-45.8384-37.7176-53.7188-37.1155-15.7607,21.0544-17.2646,34.469-34.2284,31.401-17.0241-3.068-32.7848-59.6135-36.6951-71.8855-3.9099-12.2719,25.3256-79.1647,25.3256-79.1647s11.5497,6.4363,27.6115,16.9033c-1.5641,10.2268-4.4518,22.498-9.986,31.6418-11.3695,18.8896,61.5991,88.3085,100.4597,91.8575C1700.5334,1203.7788,1701.9771,1203.839,1703.3609,1203.839Z" style="mix-blend-mode:soft-light" opacity=".44" fill="#000000" class="color000000 svgShape"></path>
          <path d="M570.4532 1031.434a537.0695 537.0695 0 0 1-54.4406 3.3081c-18.8287-37.0559-35.4919-102.5646-35.4919-102.5646 15.6403-8.4828 32.7848-17.0847 50.7712-25.6865C537.7888 928.6278 555.3541 987.7611 570.4532 1031.434ZM1605.6682 1078.896s-10.9484 29.7767-53.3579 62.7425c-11.4895-2.4064-27.972-7.46-47.3423-14.1364 30.7394-25.2055 54.0199-59.9748 66.9531-82.1726C1593.0959 1065.903 1605.6682 1078.896 1605.6682 1078.896Z" fill="#65b0a1" class="color65a4b0 svgShape"></path>
          <g fill="#000000" class="color000000 svgShape">
            <path d="M1144.0176,1094.6326a144.59531,144.59531,0,0,1-17.6154,45.6126c-27.8733,46.3956-79.9433,72.7604-132.5111,62.0702-67.9966-13.8278-111.0562-84.4413-96.1452-157.7645,14.5523-71.5598,78.9832-119.2048,145.3211-108.5071,1.5945.2479,3.2183.5398,4.7979.861C1115.8614,950.7326,1158.9211,1021.3462,1144.0176,1094.6326Z" fill="#65b0a1" class="color65a4b0 svgShape"></path>
            <ellipse cx="1020.873" cy="1069.605" rx="119.764" ry="111.132" transform="rotate(-78.505 1020.873 1069.605)" fill="#84f4dd" class="color83c3cc svgShape"></ellipse>
            <path d="M1144.0176,1094.6326a144.59531,144.59531,0,0,1-17.6154,45.6126,125.17363,125.17363,0,0,1-19.1878,2.1805,129.06329,129.06329,0,0,1-29.8181-2.5445c-63.9191-12.9986-106.0262-71.177-94.081-129.9165a102.39755,102.39755,0,0,1,36.8929-59.7099,111.70462,111.70462,0,0,1,22.8588-14.211c1.5945.2479,3.2183.5398,4.7979.861C1115.8614,950.7326,1158.9211,1021.3462,1144.0176,1094.6326Z" fill="#ffffff" opacity=".11" class="colorffffff svgShape"></path>
          </g>
          <path d="M1514.0515 990.7689a96.18162 96.18162 0 0 1-56.1853 18.1068c-55.403 0-100.3393-47.1624-100.3393-105.3924a109.61291 109.61291 0 0 1 6.4367-37.1162C1418.0433 905.8889 1471.3413 951.728 1514.0515 990.7689ZM817.9328 811.686c0 58.1698-44.9363 105.3322-100.3396 105.3322-37.7172 0-70.5622-21.8372-87.6462-54.1399 69.0584-28.634 138.5378-54.2603 186.121-71.2246A104.74024 104.74024 0 0 1 817.9328 811.686Z" fill="#65b0a1" class="color65a4b0 svgShape"></path>
          <path d="m833.2122 900.5357-10.5875 78.863s-138.4779 40.1239-252.1715 52.0353a537.0695 537.0695 0 0 1-54.4406 3.3081c-7.6399-15.099-14.9188-34.8302-20.8742-52.9965C549.5188 974.6469 741.836 947.1562 833.2122 900.5357ZM1188.3698 1249.1965c-1.7443 13.3543-3.1278 26.7086-4.0303 39.9425-142.0269 9.4449-331.6972-22.5583-391.7323-86.6834 3.549-26.4686 30.0175-223.0569 30.0175-223.0569S938.2437 1218.9983 1188.3698 1249.1965ZM712.1192 830.1534c39.2817-15.1593 75.5552-28.3932 103.9488-38.4997 36.9954-13.1737 60.6967-21.1146 60.6967-21.1146s219.6878-44.7553 370.3169 24.3031c33.326 15.2797 69.5397 37.7175 105.5728 63.404C1269.5195 915.6943 1062.7054 1004.9647 712.1192 830.1534ZM1581.8468 1114.2675a217.75716 217.75716 0 0 1-29.5365 27.371c-11.4895-2.4064-27.972-7.46-47.3423-14.1364-93.1807-32.4246-254.0364-103.4076-257.8262-105.0319l-.0602-.0595s25.1449-50.6519 41.6275-73.0295C1413.6521 1016.8159 1532.6397 1085.6334 1581.8468 1114.2675Z" style="mix-blend-mode:soft-light" opacity=".44" fill="#000000" class="color000000 svgShape"></path>
          <g fill="#000000" class="color000000 svgShape">
            <polygon points="2017.017 681.103 1676.226 441.284 1686.614 426.524 2011.951 655.471 2044.611 604.231 1693.865 357.132 1704.258 342.377 2069.093 599.403 2017.017 681.103" fill="#357265" class="color356b72 svgShape"></polygon>
            <polygon points="2056.834 454.061 2049.014 471.206 2045.344 479.327 1914.687 767.05 1638.874 581.049 1621.85 569.56 1839.673 340.608 1845.809 334.111 1858.802 320.456 1946.75 379.77 1946.75 379.83 1959.623 388.492 1968.707 394.628 1968.767 394.628 1968.887 394.688 2048.292 448.287 2056.774 454.061 2056.834 454.061" fill="#d1dedb" class="colord1d9de svgShape"></polygon>
            <path d="M2056.8341,454.0614l-7.8202,17.1441-3.6694,8.1216c-5.5944,1.6845-16.4825-.7226-30.7995-6.3768-21.8967-8.7223-51.7938-25.0844-83.2553-46.3194-52.0343-35.0711-90.2934-71.345-91.6167-86.0226l6.136-6.4973,12.9934-13.6547,87.9473,59.3132v.0602l12.8733,8.6621,9.0836,6.136h.0602l.12.0602,79.4053,53.5987,8.4821,5.7747Z" fill="#65b0a1" class="color65a4b0 svgShape"></path>
            <path d="M2056.8341,454.0012v.0602h-.0599c-2.2859,3.3088-8.6025,3.6091-17.8061,1.4436-20.8139-5.0528-56.5463-22.979-94.4442-48.5451-54.6811-36.9355-93.0603-75.6158-85.7215-86.5036,6.8578-10.1666,50.9519,7.4593,101.1815,39.7025,3.6694,2.3461,7.399,4.8127,11.1286,7.3388.5416.3613,1.143.782,1.6846,1.1433,3.1282,2.1053,6.1958,4.2708,9.2036,6.3761.0602,0,.0602.0602.1204.0602,36.9958,26.1682,64.8478,52.2748,73.089,67.7351C2057.857,447.7455,2058.4584,451.5346,2056.8341,454.0012Z" fill="#d1dedb" class="colord1d9de svgShape"></path>
            <path d="M2116.3881,152.1408l-4.9328,31.221-129.274,191.595-.0602.1204-13.2343,19.6108-.12-.0602h-.0602a28.8744,28.8744,0,0,1-8.9632-2.767,9.62782,9.62782,0,0,1-1.7447-.9024,31.10964,31.10964,0,0,1-11.249-11.1287v-.0602l13.2342-19.6107,129.3343-191.7756Z" fill="#65b0a1" class="color65a4b0 svgShape"></path>
            <g fill="#000000" class="color000000 svgShape">
              <path d="M2448.1456,830.7548,2356.649,961.1721l-3.4289,4.9325a15.21828,15.21828,0,0,1-21.6558,3.369L1985.3694,706.6541a15.26943,15.26943,0,0,1-3.0677-21.1741l93.0604-126.6878a14.8218,14.8218,0,0,1,3.2482-3.1884,15.25151,15.25151,0,0,1,18.0467-.0602l347.9995,254.1568A15.1617,15.1617,0,0,1,2448.1456,830.7548Z" fill="#357265" class="color356b72 svgShape"></path>
              <rect width="11.778" height="463.184" x="2209.26" y="528.139" transform="rotate(-53.799 2215.15 759.731)" fill="#84f4dd" class="color83c3cc svgShape"></rect>
              <rect width="188.46" height="11.777" x="1968.123" y="641.604" transform="rotate(-54.154 2062.354 647.492)" fill="#84f4dd" class="color83c3cc svgShape"></rect>
              <rect width="188.46" height="11.777" x="2019.261" y="679.894" transform="rotate(-54.153 2113.492 685.783)" fill="#84f4dd" class="color83c3cc svgShape"></rect>
              <rect width="188.46" height="11.777" x="2070.399" y="718.184" transform="rotate(-54.153 2164.63 724.073)" fill="#84f4dd" class="color83c3cc svgShape"></rect>
              <rect width="188.46" height="11.777" x="2121.534" y="756.475" transform="rotate(-54.154 2215.765 762.363)" fill="#84f4dd" class="color83c3cc svgShape"></rect>
              <rect width="188.46" height="11.777" x="2172.672" y="794.765" transform="rotate(-54.153 2266.903 800.654)" fill="#84f4dd" class="color83c3cc svgShape"></rect>
              <rect width="188.46" height="11.777" x="2223.811" y="833.056" transform="rotate(-54.153 2318.04 838.944)" fill="#84f4dd" class="color83c3cc svgShape"></rect>
              <rect width="188.462" height="11.777" x="2274.946" y="871.346" transform="rotate(-54.153 2369.162 877.232)" fill="#84f4dd" class="color83c3cc svgShape"></rect>
            </g>
            <g fill="#000000" class="color000000 svgShape">
              <path d="M1760.3882,341.571l-94.9255,135.3497a12.25894,12.25894,0,0,1-1.3834,1.6236,15.094,15.094,0,0,1-20.2724,1.7448L1297.6123,217.4702a15.27,15.27,0,0,1-3.068-21.1748l93.0604-126.6877a15.06037,15.06037,0,0,1,13.5349-6.0758,14.56685,14.56685,0,0,1,7.7603,2.8279l347.9992,254.1568A15.16141,15.16141,0,0,1,1760.3882,341.571Z" fill="#357265" class="color356b72 svgShape"></path>
              <rect width="11.778" height="463.184" x="1521.502" y="38.95" transform="rotate(-53.799 1527.391 270.541)" fill="#84f4dd" class="color83c3cc svgShape"></rect>
              <rect width="188.46" height="11.777" x="1280.365" y="152.414" transform="rotate(-54.153 1374.596 158.302)" fill="#84f4dd" class="color83c3cc svgShape"></rect>
              <rect width="188.46" height="11.777" x="1331.503" y="190.704" transform="rotate(-54.153 1425.734 196.593)" fill="#84f4dd" class="color83c3cc svgShape"></rect>
              <rect width="188.46" height="11.777" x="1382.641" y="228.994" transform="rotate(-54.153 1476.872 234.883)" fill="#84f4dd" class="color83c3cc svgShape"></rect>
              <rect width="188.46" height="11.777" x="1433.777" y="267.285" transform="rotate(-54.153 1528.007 273.173)" fill="#84f4dd" class="color83c3cc svgShape"></rect>
              <rect width="188.46" height="11.777" x="1484.915" y="305.575" transform="rotate(-54.153 1579.145 311.464)" fill="#84f4dd" class="color83c3cc svgShape"></rect>
              <rect width="188.46" height="11.777" x="1536.053" y="343.865" transform="rotate(-54.153 1630.283 349.754)" fill="#84f4dd" class="color83c3cc svgShape"></rect>
              <rect width="188.462" height="11.777" x="1587.188" y="382.156" transform="rotate(-54.153 1681.42 388.044)" fill="#84f4dd" class="color83c3cc svgShape"></rect>
            </g>
            <path d="M2055.2101,442.8123c-2.2257,1.8652-4.5719,3.6694-6.918,5.4744-3.0078,2.4063-6.136,4.812-9.324,7.2183q-11.45985,8.5728-24.4231,17.4453c-82.1124,55.9448-209.4011,114.957-375.6709,108.0991L1621.85,569.5603l217.823-228.952,6.136-6.4973,12.9934-13.6547c6.8578-10.1666,50.9519,7.4593,101.1815,39.7025l129.3343-191.7756,27.0699-16.2424-143.591,216.5001-13.1741,19.8509-1.6243,2.4666-.1803.3003,1.925.6021,8.9632,2.767h.0602l.12.0602,10.467-19.0688,2.6469-.6022.1806-.0602-.0602.1204C2019.1169,401.2454,2046.9689,427.352,2055.2101,442.8123Z" style="mix-blend-mode:soft-light" opacity=".44" fill="#000000" class="color000000 svgShape"></path>
            <path d="M1914.6647,767.0422a7.89311,7.89311,0,0,1-3.1035,2.6265c-17.9002,9.1184-87.6016-21.3271-162.9735-72.1664s-129.765-104.0971-128.0159-124.1098a7.89646,7.89646,0,0,1,1.273-3.8612c10.8511-16.0873,85.2217,15.1007,166.0851,69.6442C1868.793,693.7187,1925.5158,750.9549,1914.6647,767.0422Z" fill="#65b0a1" class="color65a4b0 svgShape"></path>
            <path d="M1911.5612,769.6687c-17.9002,9.1184-87.6016-21.3271-162.9735-72.1664s-129.765-104.0971-128.0159-124.1098c17.8997-9.1176,87.61,21.4316,162.9819,72.2709S1913.3097,749.6569,1911.5612,769.6687Z" fill="#357265" class="color356b72 svgShape"></path>
            <path d="M1664.0793 478.5443a15.094 15.094 0 0 1-20.2724 1.7448L1297.6123 217.4702a15.27 15.27 0 0 1-3.068-21.1748l93.0604-126.6877a15.06037 15.06037 0 0 1 13.5349-6.0758C1460.8141 159.9011 1604.8263 385.7249 1664.0793 478.5443ZM2356.649 961.1721l-3.4289 4.9325a15.21828 15.21828 0 0 1-21.6558 3.369L1985.3694 706.6541a15.26943 15.26943 0 0 1-3.0677-21.1741l93.0604-126.6878a14.8218 14.8218 0 0 1 3.2482-3.1884Z" style="mix-blend-mode:soft-light" opacity=".44" fill="#000000" class="color000000 svgShape"></path>
          </g>
        </g>
        <g fill="#000000" class="color000000 svgShape">
          <g fill="#000000" class="color000000 svgShape">
            <path d="M719.37757,408.03787h82.61279a0,0,0,0,1,0,0V616.17023a0,0,0,0,1,0,0H719.37768a12.72538,12.72538,0,0,1-12.72538-12.72538V420.76315A12.72527,12.72527,0,0,1,719.37757,408.03787Z" transform="rotate(10.798 754.321 512.104)" fill="#d1dedb" class="colord1d9de svgShape"></path>
            <path d="M820.6434,418.7885,781.6433,623.265l-24.8094-4.7319a70.07259,70.07259,0,0,1-55.7154-81.9779l12.7376-66.7832a70.09315,70.09315,0,0,1,81.9779-55.7154Z" style="mix-blend-mode:soft-light" opacity=".44" fill="#000000" class="color000000 svgShape"></path>
            <path d="M820.6434,418.7885,789.4433,582.3698l-5.0182-.9571a70.07277,70.07277,0,0,1-55.7154-81.9779l12.7376-66.7831a63.48211,63.48211,0,0,1,1.9717-7.7895,69.74937,69.74937,0,0,1,52.415-10.8056Z" fill="#d1dedb" class="colord1d9de svgShape"></path>
          </g>
          <g fill="#000000" class="color000000 svgShape">
            <path d="M1457.6164,611.6305l-12.7376,66.7832a70.093,70.093,0,0,1-81.931,55.7244l-24.8563-4.7409,39.0001-204.4765,24.8563,4.7409a71.117,71.117,0,0,1,34.2084,17.1203q2.22375,2.10135,4.2802,4.3161a57.619,57.619,0,0,1,4.3451,5.2516c.654.9026,1.3081,1.8048,1.9535,2.7541a55.29146,55.29146,0,0,1,3.5248,5.7274c1.0852,1.9566,2.0583,3.9892,2.9378,6.004.5735,1.3245,1.1004,2.6401,1.5623,4.0403.6718,1.8295,1.2409,3.6877,1.7541,5.5839a31.60516,31.60516,0,0,1,.8165,3.3638A70.01527,70.01527,0,0,1,1457.6164,611.6305Z" fill="#d1dedb" class="colord1d9de svgShape"></path>
            <path d="M1457.6634,611.6395l-12.7377,66.7831a69.98781,69.98781,0,0,1-11.0462,26.5699l-.0467-.0089a67.74577,67.74577,0,0,1-18.4051,18.2642,69.66175,69.66175,0,0,1-52.4799,10.8903l-24.8094-4.732,39.0001-204.4764,24.8094,4.7319a71.117,71.117,0,0,1,34.2084,17.1203q2.22375,2.10135,4.2802,4.3161a57.619,57.619,0,0,1,4.3451,5.2516c.6629.8556,1.317,1.7579,1.9244,2.6516.0381.0556.0381.0556.0291.1025a55.29146,55.29146,0,0,1,3.5248,5.7274,62.37009,62.37009,0,0,1,2.9378,6.004c.5735,1.3245,1.1004,2.6401,1.5623,4.0403.6718,1.8295,1.2409,3.6877,1.7541,5.5839a31.60516,31.60516,0,0,1,.8165,3.3638A69.19131,69.19131,0,0,1,1457.6634,611.6395Z" style="mix-blend-mode:soft-light" opacity=".44" fill="#000000" class="color000000 svgShape"></path>
          </g>
          <path d="M1187.9294,821.5309c-106.4374-6.9001-208.4232-24.3931-304.9933-54.7749-78.2352-24.6135-130.8435-99.2639-124.4158-181.0273a764.04466,764.04466,0,0,1,39.1019-189.0515C819.677,332.4554,876.2381,285.5098,943.72,277.9557c128.2586-14.3577,247.398,11.6351,359.1877,70.1522A178.64009,178.64009,0,0,1,1398.87,511.9631a688.22806,688.22806,0,0,1-31.9618,187.0597C1342.5585,775.9612,1268.4599,826.7516,1187.9294,821.5309Z" fill="#d1dedb" class="colord1d9de svgShape"></path>
          <path d="M1365.6912,702.6798a176.26416,176.26416,0,0,1-177.7664,118.858c-106.4423-6.8871-208.4289-24.3951-304.9963-54.7701-78.2195-24.6398-130.8167-99.2671-124.4026-181.0598a763.66711,763.66711,0,0,1,39.1192-189.0466c22.0122-64.1877,78.5991-111.1368,146.0999-118.7249a600.71785,600.71785,0,0,1,180.545,6.7311c-121.9157,23.0183-232.9021,76.6519-215.9249,197.3668C930.9473,642.1671,1172.103,697.0577,1365.6912,702.6798Z" style="mix-blend-mode:soft-light" opacity=".44" fill="#000000" class="color000000 svgShape"></path>
          <g fill="#000000" class="color000000 svgShape">
            <path d="M1321.0313,654.9867a391.16743,391.16743,0,0,1-13.9266,52.1207c-17.5198,51.3383-75.2756,83.7748-139.5126,78.3275a1312.6673,1312.6673,0,0,1-148.8725-20.9096q-48.5298-9.6936-95.2313-23.3644c-62.8177-18.4941-106.5384-70.091-103.3401-125.0845q1.11045-20.3478,4.1817-40.2729a424.66987,424.66987,0,0,1,22.3862-86.2802c15.9857-42.7852,59.874-73.1033,113.4219-76.5965,13.7755-.8722,27.4618-1.2752,40.9556-1.1801,86.5627.5191,168.5061,20.6685,246.6535,57.154,49.0925,22.9243,80.3645,66.6543,80.3084,112.8178A389.57263,389.57263,0,0,1,1321.0313,654.9867Z" fill="#000000" class="color000000 svgShape"></path>
            <g fill="#000000" class="color000000 svgShape">
              <path d="M1321.0313 654.9867a224.36221 224.36221 0 0 1-140.2348 18.4062c-121.6072-23.1944-201.727-140.059-179.7029-261.6462 86.5627.5191 168.5061 20.6685 246.6535 57.154 49.0925 22.9243 80.3645 66.6543 80.3084 112.8178A389.57263 389.57263 0 0 1 1321.0313 654.9867ZM1018.7196 764.5253q-48.5298-9.6936-95.2313-23.3644c-62.8177-18.4941-106.5384-70.091-103.3401-125.0845q1.11045-20.3478 4.1817-40.2729c4.556.5771 9.1788 1.3132 13.7747 2.1897C934.2461 596.3305 1004.3636 673.1327 1018.7196 764.5253Z" fill="#ffffff" opacity=".13" class="colorffffff svgShape"></path>
            </g>
          </g>
          <path d="M1457.6634,611.6395l-12.7377,66.7831a69.98781,69.98781,0,0,1-11.0462,26.5699l-.0467-.0089c-53.4396-1.1523-22.9995-134.5008-14.1158-169.3567a68.25751,68.25751,0,0,1,16.4393,11.155q2.22375,2.10135,4.2802,4.3161a57.619,57.619,0,0,1,4.3451,5.2516c.6629.8556,1.317,1.7579,1.9244,2.6516.0381.0556.0381.0556.0291.1025a55.29146,55.29146,0,0,1,3.5248,5.7274,62.37009,62.37009,0,0,1,2.9378,6.004c.5735,1.3245,1.1004,2.6401,1.5623,4.0403.6718,1.8295,1.2409,3.6877,1.7541,5.5839a31.60516,31.60516,0,0,1,.8165,3.3638A69.19131,69.19131,0,0,1,1457.6634,611.6395Z" fill="#d1dedb" class="colord1d9de svgShape"></path>
        </g>
      </g>
    </g>
  </g>
</svg>
