<svg width="24" height="24" viewBox="0 0 24 24" fill="none" xmlns="http://www.w3.org/2000/svg">
<g clip-path="url(#clip0_4680_37079)">
<path d="M23.5794 13.365C23.4995 13.298 23.4049 13.2508 23.3034 13.227L23.2994 13.226C22.6994 13.83 21.9494 14.463 21.2994 14.889C20.9894 15.087 20.5994 15.186 20.3494 15.186C19.7594 15.186 19.5094 14.642 19.4394 13.761C19.309 12.1698 19.2523 10.5734 19.2694 8.977C19.2694 6.742 18.7484 5.218 17.3894 5.1L17.2094 5.09C16.3794 5.09 15.9694 5.516 15.4394 6.595C14.9794 7.526 14.2694 8.872 12.9594 11.445C11.9712 13.3935 10.7992 15.2432 9.4594 16.969C9.1494 17.345 8.9094 17.602 8.6794 17.76C8.54972 17.8481 8.39715 17.8964 8.2404 17.899C7.8104 17.899 7.4914 17.543 7.3914 16.701C7.36411 16.4844 7.35075 16.2663 7.3514 16.048V16.019C7.3514 14.287 8.0114 11.466 9.1514 7.328C9.9814 4.309 9.6314 2.25 7.8114 2.25H7.7814C7.3714 2.25 7.0314 2.408 6.7014 2.666C6.3714 2.913 6.0514 3.468 5.7414 4.21C5.4014 5.042 3.3214 9.189 0.00240064 11.337C-0.0375994 12.139 0.422401 12.951 1.3724 13.049C2.2224 13.128 2.8324 12.772 3.6124 12.247L3.4524 12.97C3.25603 13.7618 3.09652 14.5624 2.9744 15.369L2.9524 15.543C2.4924 19.7 4.4224 21.749 6.6924 21.749C7.0724 21.749 7.4524 21.699 7.8224 21.601C10.3224 20.977 12.7224 18.127 15.5714 11.574C15.5326 12.246 15.5296 12.9197 15.5624 13.592C15.7564 17.338 17.2444 18.454 19.3604 18.454C20.9604 18.454 22.4504 17.632 23.2104 16.603C23.7028 15.9876 23.9803 15.2279 24.0004 14.44V14.435C23.9794 13.95 23.8294 13.564 23.5794 13.365Z" fill="white"/>
</g>
<defs>
<clipPath id="clip0_4680_37079">
<rect width="24" height="24" fill="white"/>
</clipPath>
</defs>
</svg>
