<svg width="120" height="120" viewBox="0 0 120 120" fill="none" xmlns="http://www.w3.org/2000/svg">
<rect x="0.5" y="0.5" width="119" height="119" rx="23.5" fill="#182128"/>
<rect x="0.5" y="0.5" width="119" height="119" rx="23.5" stroke="#2C3944"/>
<path d="M66 56H44V61.6213H51.8907V87H58.1425V61.6213H66V56Z" fill="#182128"/>
<path d="M62.9772 61.4789C63.1335 61.6795 63.1993 61.969 63.1549 62.237L62.7322 64.087C62.6878 64.3764 62.4872 64.6 62.2437 64.7332L60.5315 65.5357C60.2865 65.669 59.9756 65.669 59.7306 65.5357L58.0184 64.7332C57.7734 64.6 57.5743 64.3764 57.5299 64.087L57.1072 62.237C57.0628 61.969 57.1302 61.6795 57.2848 61.4789L58.4855 59.9857C58.6402 59.7621 58.9082 59.6289 59.1961 59.6289H61.0645C61.3539 59.6289 61.6204 59.7621 61.7766 59.9857L62.9772 61.4789Z" fill="#2A3741"/>
<path d="M62.115 47.8832L62.1885 48.4575C62.3937 50.0456 62.5407 51.6506 62.6877 53.2387C62.7459 53.8712 62.8056 54.4899 62.8485 55.1224C62.8776 55.6079 63.4213 55.8575 63.8179 55.5788C64.3172 55.2112 64.8318 54.8437 65.3601 54.4899C66.6817 53.5925 67.9881 52.695 69.3388 51.8267L69.8381 51.5174C67.7385 49.6046 65.0661 48.2952 62.115 47.8832ZM62.115 47.8832L62.1885 48.4575C62.3937 50.0456 62.5407 51.6506 62.6877 53.2387C62.7459 53.8712 62.8056 54.4899 62.8485 55.1224C62.8776 55.6079 63.4213 55.8575 63.8179 55.5788C64.3172 55.2112 64.8318 54.8437 65.3601 54.4899C66.6817 53.5925 67.9881 52.695 69.3388 51.8267L69.8381 51.5174C67.7385 49.6046 65.0661 48.2952 62.115 47.8832ZM62.115 47.8832L62.1885 48.4575C62.3937 50.0456 62.5407 51.6506 62.6877 53.2387C62.7459 53.8712 62.8056 54.4899 62.8485 55.1224C62.8776 55.6079 63.4213 55.8575 63.8179 55.5788C64.3172 55.2112 64.8318 54.8437 65.3601 54.4899C66.6817 53.5925 67.9881 52.695 69.3388 51.8267L69.8381 51.5174C67.7385 49.6046 65.0661 48.2952 62.115 47.8832ZM62.115 47.8832L62.1885 48.4575C62.3937 50.0456 62.5407 51.6506 62.6877 53.2387C62.7459 53.8712 62.8056 54.4899 62.8485 55.1224C62.8776 55.6079 63.4213 55.8575 63.8179 55.5788C64.3172 55.2112 64.8318 54.8437 65.3601 54.4899C66.6817 53.5925 67.9881 52.695 69.3388 51.8267L69.8381 51.5174C67.7385 49.6046 65.0661 48.2952 62.115 47.8832ZM62.115 47.8832L62.1885 48.4575C62.3937 50.0456 62.5407 51.6506 62.6877 53.2387C62.7459 53.8712 62.8056 54.4899 62.8485 55.1224C62.8776 55.6079 63.4213 55.8575 63.8179 55.5788C64.3172 55.2112 64.8318 54.8437 65.3601 54.4899C66.6817 53.5925 67.9881 52.695 69.3388 51.8267L69.8381 51.5174C67.7385 49.6046 65.0661 48.2952 62.115 47.8832ZM72.5396 54.7824L72.1429 55.2097C71.0418 56.3874 69.9116 57.5191 68.7798 58.6524C68.0601 59.3875 67.2821 60.0935 66.5332 60.8148C67.5317 61.0644 68.5302 61.3294 69.5287 61.6234C71.0709 62.0645 72.5978 62.4918 74.1246 62.991L74.6683 63.1671C74.6836 62.9313 74.6836 62.6817 74.6836 62.432C74.6836 59.6233 73.9056 57.0046 72.5396 54.7824ZM72.5396 54.7824L72.1429 55.2097C71.0418 56.3874 69.9116 57.5191 68.7798 58.6524C68.0601 59.3875 67.2821 60.0935 66.5332 60.8148C67.5317 61.0644 68.5302 61.3294 69.5287 61.6234C71.0709 62.0645 72.5978 62.4918 74.1246 62.991L74.6683 63.1671C74.6836 62.9313 74.6836 62.6817 74.6836 62.432C74.6836 59.6233 73.9056 57.0046 72.5396 54.7824ZM62.115 47.8832L62.1885 48.4575C62.3937 50.0456 62.5407 51.6506 62.6877 53.2387C62.7459 53.8712 62.8056 54.4899 62.8485 55.1224C62.8776 55.6079 63.4213 55.8575 63.8179 55.5788C64.3172 55.2112 64.8318 54.8437 65.3601 54.4899C66.6817 53.5925 67.9881 52.695 69.3388 51.8267L69.8381 51.5174C67.7385 49.6046 65.0661 48.2952 62.115 47.8832ZM62.115 47.8832L62.1885 48.4575C62.3937 50.0456 62.5407 51.6506 62.6877 53.2387C62.7459 53.8712 62.8056 54.4899 62.8485 55.1224C62.8776 55.6079 63.4213 55.8575 63.8179 55.5788C64.3172 55.2112 64.8318 54.8437 65.3601 54.4899C66.6817 53.5925 67.9881 52.695 69.3388 51.8267L69.8381 51.5174C67.7385 49.6046 65.0661 48.2952 62.115 47.8832ZM73.3175 67.3174C71.7172 67.2148 70.1306 67.0677 68.5302 66.9207C67.8395 66.8625 67.1642 66.789 66.475 66.714C66.0339 66.6558 65.6817 67.0968 65.844 67.5226C66.0937 68.1842 66.328 68.8473 66.5638 69.5242C67.0784 71.025 67.6067 72.5396 68.0907 74.0696L68.2515 74.5994C70.806 72.849 72.7892 70.319 73.8306 67.3465L73.3175 67.3174ZM72.5396 54.7824L72.1429 55.2097C71.0418 56.3874 69.9116 57.5191 68.7798 58.6524C68.0601 59.3875 67.2821 60.0935 66.5332 60.8148C67.5317 61.0644 68.5302 61.3294 69.5287 61.6234C71.0709 62.0645 72.5978 62.4918 74.1246 62.991L74.6683 63.1671C74.6836 62.9313 74.6836 62.6817 74.6836 62.432C74.6836 59.6233 73.9056 57.0046 72.5396 54.7824ZM72.5396 54.7824L72.1429 55.2097C71.0418 56.3874 69.9116 57.5191 68.7798 58.6524C68.0601 59.3875 67.2821 60.0935 66.5332 60.8148C67.5317 61.0644 68.5302 61.3294 69.5287 61.6234C71.0709 62.0645 72.5978 62.4918 74.1246 62.991L74.6683 63.1671C74.6836 62.9313 74.6836 62.6817 74.6836 62.432C74.6836 59.6233 73.9056 57.0046 72.5396 54.7824ZM73.3175 67.3174C71.7172 67.2148 70.1306 67.0677 68.5302 66.9207C67.8395 66.8625 67.1642 66.789 66.475 66.714C66.0339 66.6558 65.6817 67.0968 65.844 67.5226C66.0937 68.1842 66.328 68.8473 66.5638 69.5242C67.0784 71.025 67.6067 72.5396 68.0907 74.0696L68.2515 74.5994C70.806 72.849 72.7892 70.319 73.8306 67.3465L73.3175 67.3174ZM62.115 47.8832L62.1885 48.4575C62.3937 50.0456 62.5407 51.6506 62.6877 53.2387C62.7459 53.8712 62.8056 54.4899 62.8485 55.1224C62.8776 55.6079 63.4213 55.8575 63.8179 55.5788C64.3172 55.2112 64.8318 54.8437 65.3601 54.4899C66.6817 53.5925 67.9881 52.695 69.3388 51.8267L69.8381 51.5174C67.7385 49.6046 65.0661 48.2952 62.115 47.8832ZM62.115 47.8832L62.1885 48.4575C62.3937 50.0456 62.5407 51.6506 62.6877 53.2387C62.7459 53.8712 62.8056 54.4899 62.8485 55.1224C62.8776 55.6079 63.4213 55.8575 63.8179 55.5788C64.3172 55.2112 64.8318 54.8437 65.3601 54.4899C66.6817 53.5925 67.9881 52.695 69.3388 51.8267L69.8381 51.5174C67.7385 49.6046 65.0661 48.2952 62.115 47.8832ZM73.3175 67.3174C71.7172 67.2148 70.1306 67.0677 68.5302 66.9207C67.8395 66.8625 67.1642 66.789 66.475 66.714C66.0339 66.6558 65.6817 67.0968 65.844 67.5226C66.0937 68.1842 66.328 68.8473 66.5638 69.5242C67.0784 71.025 67.6067 72.5396 68.0907 74.0696L68.2515 74.5994C70.806 72.849 72.7892 70.319 73.8306 67.3465L73.3175 67.3174ZM72.5396 54.7824L72.1429 55.2097C71.0418 56.3874 69.9116 57.5191 68.7798 58.6524C68.0601 59.3875 67.2821 60.0935 66.5332 60.8148C67.5317 61.0644 68.5302 61.3294 69.5287 61.6234C71.0709 62.0645 72.5978 62.4918 74.1246 62.991L74.6683 63.1671C74.6836 62.9313 74.6836 62.6817 74.6836 62.432C74.6836 59.6233 73.9056 57.0046 72.5396 54.7824ZM72.5396 54.7824L72.1429 55.2097C71.0418 56.3874 69.9116 57.5191 68.7798 58.6524C68.0601 59.3875 67.2821 60.0935 66.5332 60.8148C67.5317 61.0644 68.5302 61.3294 69.5287 61.6234C71.0709 62.0645 72.5978 62.4918 74.1246 62.991L74.6683 63.1671C74.6836 62.9313 74.6836 62.6817 74.6836 62.432C74.6836 59.6233 73.9056 57.0046 72.5396 54.7824ZM73.3175 67.3174C71.7172 67.2148 70.1306 67.0677 68.5302 66.9207C67.8395 66.8625 67.1642 66.789 66.475 66.714C66.0339 66.6558 65.6817 67.0968 65.844 67.5226C66.0937 68.1842 66.328 68.8473 66.5638 69.5242C67.0784 71.025 67.6067 72.5396 68.0907 74.0696L68.2515 74.5994C70.806 72.849 72.7892 70.319 73.8306 67.3465L73.3175 67.3174ZM62.115 47.8832L62.1885 48.4575C62.3937 50.0456 62.5407 51.6506 62.6877 53.2387C62.7459 53.8712 62.8056 54.4899 62.8485 55.1224C62.8776 55.6079 63.4213 55.8575 63.8179 55.5788C64.3172 55.2112 64.8318 54.8437 65.3601 54.4899C66.6817 53.5925 67.9881 52.695 69.3388 51.8267L69.8381 51.5174C67.7385 49.6046 65.0661 48.2952 62.115 47.8832ZM64.0967 75.8935C63.2452 74.5397 62.4519 73.143 61.6586 71.7601C61.3063 71.1567 60.9679 70.5533 60.6448 69.9362C60.4104 69.5089 59.8071 69.5089 59.5727 69.9362C59.2343 70.5687 58.8821 71.1874 58.516 71.7892C57.709 73.1721 56.9003 74.555 56.0489 75.9088L55.6813 76.4969C57.0474 76.9242 58.5007 77.1447 59.9985 77.1447C61.5407 77.1447 63.0384 76.9089 64.4336 76.4525L64.0967 75.8935ZM62.115 47.8832L62.1885 48.4575C62.3937 50.0456 62.5407 51.6506 62.6877 53.2387C62.7459 53.8712 62.8056 54.4899 62.8485 55.1224C62.8776 55.6079 63.4213 55.8575 63.8179 55.5788C64.3172 55.2112 64.8318 54.8437 65.3601 54.4899C66.6817 53.5925 67.9881 52.695 69.3388 51.8267L69.8381 51.5174C67.7385 49.6046 65.0661 48.2952 62.115 47.8832ZM73.3175 67.3174C71.7172 67.2148 70.1306 67.0677 68.5302 66.9207C67.8395 66.8625 67.1642 66.789 66.475 66.714C66.0339 66.6558 65.6817 67.0968 65.844 67.5226C66.0937 68.1842 66.328 68.8473 66.5638 69.5242C67.0784 71.025 67.6067 72.5396 68.0907 74.0696L68.2515 74.5994C70.806 72.849 72.7892 70.319 73.8306 67.3465L73.3175 67.3174ZM72.5396 54.7824L72.1429 55.2097C71.0418 56.3874 69.9116 57.5191 68.7798 58.6524C68.0601 59.3875 67.2821 60.0935 66.5332 60.8148C67.5317 61.0644 68.5302 61.3294 69.5287 61.6234C71.0709 62.0645 72.5978 62.4918 74.1246 62.991L74.6683 63.1671C74.6836 62.9313 74.6836 62.6817 74.6836 62.432C74.6836 59.6233 73.9056 57.0046 72.5396 54.7824ZM72.5396 54.7824L72.1429 55.2097C71.0418 56.3874 69.9116 57.5191 68.7798 58.6524C68.0601 59.3875 67.2821 60.0935 66.5332 60.8148C67.5317 61.0644 68.5302 61.3294 69.5287 61.6234C71.0709 62.0645 72.5978 62.4918 74.1246 62.991L74.6683 63.1671C74.6836 62.9313 74.6836 62.6817 74.6836 62.432C74.6836 59.6233 73.9056 57.0046 72.5396 54.7824ZM73.3175 67.3174C71.7172 67.2148 70.1306 67.0677 68.5302 66.9207C67.8395 66.8625 67.1642 66.789 66.475 66.714C66.0339 66.6558 65.6817 67.0968 65.844 67.5226C66.0937 68.1842 66.328 68.8473 66.5638 69.5242C67.0784 71.025 67.6067 72.5396 68.0907 74.0696L68.2515 74.5994C70.806 72.849 72.7892 70.319 73.8306 67.3465L73.3175 67.3174ZM62.115 47.8832L62.1885 48.4575C62.3937 50.0456 62.5407 51.6506 62.6877 53.2387C62.7459 53.8712 62.8056 54.4899 62.8485 55.1224C62.8776 55.6079 63.4213 55.8575 63.8179 55.5788C64.3172 55.2112 64.8318 54.8437 65.3601 54.4899C66.6817 53.5925 67.9881 52.695 69.3388 51.8267L69.8381 51.5174C67.7385 49.6046 65.0661 48.2952 62.115 47.8832ZM64.0967 75.8935C63.2452 74.5397 62.4519 73.143 61.6586 71.7601C61.3063 71.1567 60.9679 70.5533 60.6448 69.9362C60.4104 69.5089 59.8071 69.5089 59.5727 69.9362C59.2343 70.5687 58.8821 71.1874 58.516 71.7892C57.709 73.1721 56.9003 74.555 56.0489 75.9088L55.6813 76.4969C57.0474 76.9242 58.5007 77.1447 59.9985 77.1447C61.5407 77.1447 63.0384 76.9089 64.4336 76.4525L64.0967 75.8935ZM53.7884 66.5088C53.0977 66.5976 52.4224 66.7002 51.7332 66.7737C50.1329 66.9651 48.5616 67.1566 46.9612 67.3036L46.1679 67.3771C47.2399 70.3788 49.266 72.9378 51.8649 74.6745L52.0701 74.0558C52.5694 72.5258 53.0977 71.025 53.6414 69.5104C53.891 68.7753 54.156 68.054 54.4347 67.3189C54.6108 66.8901 54.2433 66.4353 53.7884 66.5088ZM64.0967 75.8935C63.2452 74.5397 62.4519 73.143 61.6586 71.7601C61.3063 71.1567 60.9679 70.5533 60.6448 69.9362C60.4104 69.5089 59.8071 69.5089 59.5727 69.9362C59.2343 70.5687 58.8821 71.1874 58.516 71.7892C57.709 73.1721 56.9003 74.555 56.0489 75.9088L55.6813 76.4969C57.0474 76.9242 58.5007 77.1447 59.9985 77.1447C61.5407 77.1447 63.0384 76.9089 64.4336 76.4525L64.0967 75.8935ZM62.115 47.8832L62.1885 48.4575C62.3937 50.0456 62.5407 51.6506 62.6877 53.2387C62.7459 53.8712 62.8056 54.4899 62.8485 55.1224C62.8776 55.6079 63.4213 55.8575 63.8179 55.5788C64.3172 55.2112 64.8318 54.8437 65.3601 54.4899C66.6817 53.5925 67.9881 52.695 69.3388 51.8267L69.8381 51.5174C67.7385 49.6046 65.0661 48.2952 62.115 47.8832ZM73.3175 67.3174C71.7172 67.2148 70.1306 67.0677 68.5302 66.9207C67.8395 66.8625 67.1642 66.789 66.475 66.714C66.0339 66.6558 65.6817 67.0968 65.844 67.5226C66.0937 68.1842 66.328 68.8473 66.5638 69.5242C67.0784 71.025 67.6067 72.5396 68.0907 74.0696L68.2515 74.5994C70.806 72.849 72.7892 70.319 73.8306 67.3465L73.3175 67.3174ZM72.5396 54.7824L72.1429 55.2097C71.0418 56.3874 69.9116 57.5191 68.7798 58.6524C68.0601 59.3875 67.2821 60.0935 66.5332 60.8148C67.5317 61.0644 68.5302 61.3294 69.5287 61.6234C71.0709 62.0645 72.5978 62.4918 74.1246 62.991L74.6683 63.1671C74.6836 62.9313 74.6836 62.6817 74.6836 62.432C74.6836 59.6233 73.9056 57.0046 72.5396 54.7824ZM72.5396 54.7824L72.1429 55.2097C71.0418 56.3874 69.9116 57.5191 68.7798 58.6524C68.0601 59.3875 67.2821 60.0935 66.5332 60.8148C67.5317 61.0644 68.5302 61.3294 69.5287 61.6234C71.0709 62.0645 72.5978 62.4918 74.1246 62.991L74.6683 63.1671C74.6836 62.9313 74.6836 62.6817 74.6836 62.432C74.6836 59.6233 73.9056 57.0046 72.5396 54.7824ZM73.3175 67.3174C71.7172 67.2148 70.1306 67.0677 68.5302 66.9207C67.8395 66.8625 67.1642 66.789 66.475 66.714C66.0339 66.6558 65.6817 67.0968 65.844 67.5226C66.0937 68.1842 66.328 68.8473 66.5638 69.5242C67.0784 71.025 67.6067 72.5396 68.0907 74.0696L68.2515 74.5994C70.806 72.849 72.7892 70.319 73.8306 67.3465L73.3175 67.3174ZM62.115 47.8832L62.1885 48.4575C62.3937 50.0456 62.5407 51.6506 62.6877 53.2387C62.7459 53.8712 62.8056 54.4899 62.8485 55.1224C62.8776 55.6079 63.4213 55.8575 63.8179 55.5788C64.3172 55.2112 64.8318 54.8437 65.3601 54.4899C66.6817 53.5925 67.9881 52.695 69.3388 51.8267L69.8381 51.5174C67.7385 49.6046 65.0661 48.2952 62.115 47.8832ZM64.0967 75.8935C63.2452 74.5397 62.4519 73.143 61.6586 71.7601C61.3063 71.1567 60.9679 70.5533 60.6448 69.9362C60.4104 69.5089 59.8071 69.5089 59.5727 69.9362C59.2343 70.5687 58.8821 71.1874 58.516 71.7892C57.709 73.1721 56.9003 74.555 56.0489 75.9088L55.6813 76.4969C57.0474 76.9242 58.5007 77.1447 59.9985 77.1447C61.5407 77.1447 63.0384 76.9089 64.4336 76.4525L64.0967 75.8935ZM53.7884 66.5088C53.0977 66.5976 52.4224 66.7002 51.7332 66.7737C50.1329 66.9651 48.5616 67.1566 46.9612 67.3036L46.1679 67.3771C47.2399 70.3788 49.266 72.9378 51.8649 74.6745L52.0701 74.0558C52.5694 72.5258 53.0977 71.025 53.6414 69.5104C53.891 68.7753 54.156 68.054 54.4347 67.3189C54.6108 66.8901 54.2433 66.4353 53.7884 66.5088ZM53.7884 66.5088C53.0977 66.5976 52.4224 66.7002 51.7332 66.7737C50.1329 66.9651 48.5616 67.1566 46.9612 67.3036L46.1679 67.3771C47.2399 70.3788 49.266 72.9378 51.8649 74.6745L52.0701 74.0558C52.5694 72.5258 53.0977 71.025 53.6414 69.5104C53.891 68.7753 54.156 68.054 54.4347 67.3189C54.6108 66.8901 54.2433 66.4353 53.7884 66.5088ZM64.0967 75.8935C63.2452 74.5397 62.4519 73.143 61.6586 71.7601C61.3063 71.1567 60.9679 70.5533 60.6448 69.9362C60.4104 69.5089 59.8071 69.5089 59.5727 69.9362C59.2343 70.5687 58.8821 71.1874 58.516 71.7892C57.709 73.1721 56.9003 74.555 56.0489 75.9088L55.6813 76.4969C57.0474 76.9242 58.5007 77.1447 59.9985 77.1447C61.5407 77.1447 63.0384 76.9089 64.4336 76.4525L64.0967 75.8935ZM62.115 47.8832L62.1885 48.4575C62.3937 50.0456 62.5407 51.6506 62.6877 53.2387C62.7459 53.8712 62.8056 54.4899 62.8485 55.1224C62.8776 55.6079 63.4213 55.8575 63.8179 55.5788C64.3172 55.2112 64.8318 54.8437 65.3601 54.4899C66.6817 53.5925 67.9881 52.695 69.3388 51.8267L69.8381 51.5174C67.7385 49.6046 65.0661 48.2952 62.115 47.8832ZM73.3175 67.3174C71.7172 67.2148 70.1306 67.0677 68.5302 66.9207C67.8395 66.8625 67.1642 66.789 66.475 66.714C66.0339 66.6558 65.6817 67.0968 65.844 67.5226C66.0937 68.1842 66.328 68.8473 66.5638 69.5242C67.0784 71.025 67.6067 72.5396 68.0907 74.0696L68.2515 74.5994C70.806 72.849 72.7892 70.319 73.8306 67.3465L73.3175 67.3174ZM72.5396 54.7824L72.1429 55.2097C71.0418 56.3874 69.9116 57.5191 68.7798 58.6524C68.0601 59.3875 67.2821 60.0935 66.5332 60.8148C67.5317 61.0644 68.5302 61.3294 69.5287 61.6234C71.0709 62.0645 72.5978 62.4918 74.1246 62.991L74.6683 63.1671C74.6836 62.9313 74.6836 62.6817 74.6836 62.432C74.6836 59.6233 73.9056 57.0046 72.5396 54.7824ZM72.5396 54.7824L72.1429 55.2097C71.0418 56.3874 69.9116 57.5191 68.7798 58.6524C68.0601 59.3875 67.2821 60.0935 66.5332 60.8148C67.5317 61.0644 68.5302 61.3294 69.5287 61.6234C71.0709 62.0645 72.5978 62.4918 74.1246 62.991L74.6683 63.1671C74.6836 62.9313 74.6836 62.6817 74.6836 62.432C74.6836 59.6233 73.9056 57.0046 72.5396 54.7824ZM73.3175 67.3174C71.7172 67.2148 70.1306 67.0677 68.5302 66.9207C67.8395 66.8625 67.1642 66.789 66.475 66.714C66.0339 66.6558 65.6817 67.0968 65.844 67.5226C66.0937 68.1842 66.328 68.8473 66.5638 69.5242C67.0784 71.025 67.6067 72.5396 68.0907 74.0696L68.2515 74.5994C70.806 72.849 72.7892 70.319 73.8306 67.3465L73.3175 67.3174ZM62.115 47.8832L62.1885 48.4575C62.3937 50.0456 62.5407 51.6506 62.6877 53.2387C62.7459 53.8712 62.8056 54.4899 62.8485 55.1224C62.8776 55.6079 63.4213 55.8575 63.8179 55.5788C64.3172 55.2112 64.8318 54.8437 65.3601 54.4899C66.6817 53.5925 67.9881 52.695 69.3388 51.8267L69.8381 51.5174C67.7385 49.6046 65.0661 48.2952 62.115 47.8832ZM64.0967 75.8935C63.2452 74.5397 62.4519 73.143 61.6586 71.7601C61.3063 71.1567 60.9679 70.5533 60.6448 69.9362C60.4104 69.5089 59.8071 69.5089 59.5727 69.9362C59.2343 70.5687 58.8821 71.1874 58.516 71.7892C57.709 73.1721 56.9003 74.555 56.0489 75.9088L55.6813 76.4969C57.0474 76.9242 58.5007 77.1447 59.9985 77.1447C61.5407 77.1447 63.0384 76.9089 64.4336 76.4525L64.0967 75.8935ZM53.7884 66.5088C53.0977 66.5976 52.4224 66.7002 51.7332 66.7737C50.1329 66.9651 48.5616 67.1566 46.9612 67.3036L46.1679 67.3771C47.2399 70.3788 49.266 72.9378 51.8649 74.6745L52.0701 74.0558C52.5694 72.5258 53.0977 71.025 53.6414 69.5104C53.891 68.7753 54.156 68.054 54.4347 67.3189C54.6108 66.8901 54.2433 66.4353 53.7884 66.5088ZM52.966 59.7995C52.4668 59.3431 51.9828 58.8867 51.4974 58.4012C50.3518 57.268 49.2216 56.15 48.1052 54.9876L47.635 54.5022C46.1664 56.7825 45.3149 59.5039 45.3149 62.432C45.3149 62.7123 45.3302 62.9757 45.3302 63.2406L46.0209 63.0048C47.534 62.4611 49.0608 61.9894 50.5724 61.4902C51.2922 61.2543 52.0119 61.0491 52.7302 60.8286C53.1866 60.6969 53.3183 60.1226 52.966 59.7995ZM53.7884 66.5088C53.0977 66.5976 52.4224 66.7002 51.7332 66.7737C50.1329 66.9651 48.5616 67.1566 46.9612 67.3036L46.1679 67.3771C47.2399 70.3788 49.266 72.9378 51.8649 74.6745L52.0701 74.0558C52.5694 72.5258 53.0977 71.025 53.6414 69.5104C53.891 68.7753 54.156 68.054 54.4347 67.3189C54.6108 66.8901 54.2433 66.4353 53.7884 66.5088ZM64.0967 75.8935C63.2452 74.5397 62.4519 73.143 61.6586 71.7601C61.3063 71.1567 60.9679 70.5533 60.6448 69.9362C60.4104 69.5089 59.8071 69.5089 59.5727 69.9362C59.2343 70.5687 58.8821 71.1874 58.516 71.7892C57.709 73.1721 56.9003 74.555 56.0489 75.9088L55.6813 76.4969C57.0474 76.9242 58.5007 77.1447 59.9985 77.1447C61.5407 77.1447 63.0384 76.9089 64.4336 76.4525L64.0967 75.8935ZM62.115 47.8832L62.1885 48.4575C62.3937 50.0456 62.5407 51.6506 62.6877 53.2387C62.7459 53.8712 62.8056 54.4899 62.8485 55.1224C62.8776 55.6079 63.4213 55.8575 63.8179 55.5788C64.3172 55.2112 64.8318 54.8437 65.3601 54.4899C66.6817 53.5925 67.9881 52.695 69.3388 51.8267L69.8381 51.5174C67.7385 49.6046 65.0661 48.2952 62.115 47.8832ZM73.3175 67.3174C71.7172 67.2148 70.1306 67.0677 68.5302 66.9207C67.8395 66.8625 67.1642 66.789 66.475 66.714C66.0339 66.6558 65.6817 67.0968 65.844 67.5226C66.0937 68.1842 66.328 68.8473 66.5638 69.5242C67.0784 71.025 67.6067 72.5396 68.0907 74.0696L68.2515 74.5994C70.806 72.849 72.7892 70.319 73.8306 67.3465L73.3175 67.3174ZM72.5396 54.7824L72.1429 55.2097C71.0418 56.3874 69.9116 57.5191 68.7798 58.6524C68.0601 59.3875 67.2821 60.0935 66.5332 60.8148C67.5317 61.0644 68.5302 61.3294 69.5287 61.6234C71.0709 62.0645 72.5978 62.4918 74.1246 62.991L74.6683 63.1671C74.6836 62.9313 74.6836 62.6817 74.6836 62.432C74.6836 59.6233 73.9056 57.0046 72.5396 54.7824ZM72.5396 54.7824L72.1429 55.2097C71.0418 56.3874 69.9116 57.5191 68.7798 58.6524C68.0601 59.3875 67.2821 60.0935 66.5332 60.8148C67.5317 61.0644 68.5302 61.3294 69.5287 61.6234C71.0709 62.0645 72.5978 62.4918 74.1246 62.991L74.6683 63.1671C74.6836 62.9313 74.6836 62.6817 74.6836 62.432C74.6836 59.6233 73.9056 57.0046 72.5396 54.7824ZM68.5302 66.9207C67.8395 66.8625 67.1642 66.789 66.475 66.714C66.0339 66.6558 65.6817 67.0968 65.844 67.5226C66.0937 68.1842 66.328 68.8473 66.5638 69.5242C67.0784 71.025 67.6067 72.5396 68.0907 74.0696L68.2515 74.5994C70.806 72.849 72.7892 70.319 73.8306 67.3465L73.316 67.3174C71.7172 67.2148 70.1321 67.0677 68.5302 66.9207ZM69.8381 51.5174C67.7385 49.6046 65.0661 48.2952 62.115 47.8832L62.1885 48.4575C62.3937 50.0456 62.5407 51.6506 62.6877 53.2387C62.7459 53.8712 62.8056 54.4899 62.8485 55.1224C62.8776 55.6079 63.4213 55.8575 63.8179 55.5788C64.3172 55.2112 64.8318 54.8437 65.3601 54.4899C66.6817 53.5925 67.9881 52.695 69.3388 51.8267L69.8381 51.5174ZM61.6586 71.7601C61.3063 71.1567 60.9679 70.5533 60.6448 69.9362C60.4104 69.5089 59.8071 69.5089 59.5727 69.9362C59.2343 70.5687 58.8821 71.1874 58.516 71.7892C57.709 73.1721 56.9003 74.555 56.0489 75.9088L55.6813 76.4969C57.0474 76.9242 58.5007 77.1447 59.9985 77.1447C61.5407 77.1447 63.0384 76.9089 64.4336 76.4525L64.0951 75.8935C63.2452 74.5412 62.4519 73.143 61.6586 71.7601ZM53.7884 66.5088C53.0977 66.5976 52.4224 66.7002 51.7332 66.7737C50.1329 66.9651 48.5616 67.1566 46.9612 67.3036L46.1679 67.3771C47.2399 70.3788 49.266 72.9378 51.8649 74.6745L52.0701 74.0558C52.5694 72.5258 53.0977 71.025 53.6414 69.5104C53.891 68.7753 54.156 68.054 54.4347 67.3189C54.6108 66.8901 54.2433 66.4353 53.7884 66.5088ZM52.7317 60.8286C53.1866 60.6969 53.3198 60.1226 52.966 59.7995C52.4668 59.3431 51.9828 58.8867 51.4974 58.4012C50.3518 57.268 49.2216 56.15 48.1052 54.9876L47.635 54.5022C46.1664 56.7825 45.3149 59.5039 45.3149 62.432C45.3149 62.7123 45.3302 62.9757 45.3302 63.2406L46.0209 63.0048C47.534 62.4611 49.0608 61.9894 50.5724 61.4902C51.2922 61.2559 52.0119 61.0507 52.7317 60.8286ZM91.9079 67.5532L86.2982 42.8662C86.0485 41.7635 85.315 40.8508 84.3011 40.35L61.6004 29.3756C60.5866 28.8748 59.4119 28.8748 58.3996 29.3756L35.6989 40.35C34.6851 40.8508 33.9515 41.762 33.7019 42.8662L28.0922 67.5532C27.8425 68.6559 28.1075 69.8045 28.7966 70.6728L44.5078 90.4745C45.2123 91.3566 46.2843 91.8727 47.4007 91.8727H72.5978C73.7142 91.8727 74.7862 91.3582 75.4907 90.4745L91.2019 70.6728C91.8926 69.8029 92.1575 68.6559 91.9079 67.5532ZM84.0668 68.5824C83.6258 68.685 83.1862 68.5824 82.834 68.3618C82.1142 67.8764 81.3516 67.6114 80.5874 67.3909C80.206 67.2883 79.8094 67.1995 79.428 67.1413C79.0467 67.0233 78.6057 67.1413 78.1646 67.3465C77.7235 67.5961 77.3269 67.5532 76.9165 67.5226H76.8721C75.6086 71.7157 72.8336 75.261 69.1627 77.5123V77.5276C69.2806 77.9104 69.4123 78.278 69.2944 78.7788C69.1918 79.2643 69.1765 79.7053 69.3832 80.0591C69.544 80.4128 69.7217 80.7804 69.9116 81.1188C70.3082 81.8095 70.7493 82.5018 71.394 83.076C72.0403 83.6794 72.0847 84.6795 71.4966 85.3411C70.8948 85.9889 69.8963 86.0318 69.2347 85.4437C68.8962 85.1343 68.7201 84.7224 68.7201 84.2966C68.691 83.4283 68.4705 82.6641 68.2055 81.8984C68.0738 81.5308 67.9268 81.1633 67.7507 80.7957C67.619 80.4128 67.2668 80.1479 66.8395 79.8983C66.4291 79.6777 66.2223 79.3684 66.0171 79.0299C64.138 79.7222 62.1119 80.0897 59.997 80.0897C57.9126 80.0897 55.9156 79.7222 54.0641 79.0606C53.888 79.3837 53.6828 79.6777 53.2708 79.8998C52.8451 80.1357 52.4928 80.4144 52.3611 80.7972C52.185 81.151 52.0227 81.5186 51.891 81.8861C51.626 82.6518 51.3917 83.416 51.3764 84.2844C51.3473 85.1665 50.5984 85.8587 49.7178 85.8296C48.8372 85.8005 48.1466 85.0654 48.1757 84.1818C48.191 83.7254 48.3962 83.3287 48.704 83.0485C49.3503 82.4604 49.7913 81.7835 50.2018 81.1066C50.3932 80.7528 50.5693 80.4006 50.7301 80.033C50.9353 79.6946 50.9215 79.2382 50.8327 78.7527C50.7301 78.2964 50.8327 77.9288 50.9506 77.5904C47.2644 75.3682 44.445 71.8382 43.154 67.6451C42.8156 67.6742 42.494 67.6742 42.1111 67.4828C41.6563 67.2913 41.2305 67.1734 40.8476 67.3067C40.451 67.3802 40.0697 67.4828 39.6883 67.6007C38.9241 67.8503 38.1753 68.1306 37.4708 68.6298C36.751 69.1444 35.7525 68.9683 35.2395 68.247C34.7402 67.5257 34.901 66.5256 35.6208 66.0248C35.9883 65.7599 36.4432 65.6711 36.8536 65.7446C37.6913 65.9207 38.4984 65.8625 39.2917 65.7599C39.6883 65.7155 40.085 65.642 40.4663 65.5394C40.863 65.5103 41.2152 65.2162 41.5383 64.8487C41.8171 64.5255 42.1402 64.3923 42.4633 64.2744C42.4051 63.671 42.3745 63.0538 42.3745 62.4351C42.3745 58.6693 43.5491 55.1821 45.5615 52.3137C45.2965 52.0488 45.0469 51.7838 44.9443 51.3137C44.8126 50.8435 44.6365 50.4316 44.298 50.211C43.9902 49.9461 43.6808 49.7102 43.3577 49.4897C42.6823 49.0487 41.9916 48.6367 41.1692 48.3871C40.3178 48.1512 39.8185 47.2538 40.0681 46.4161C40.3178 45.5631 41.1983 45.0776 42.0498 45.3134C42.4756 45.4451 42.8278 45.7407 43.0192 46.1083C43.4159 46.874 43.9596 47.4759 44.5323 48.0348C44.811 48.3151 45.1204 48.5785 45.4282 48.8143C45.7069 49.1084 46.148 49.1972 46.6319 49.2263C47.1465 49.2416 47.4681 49.4621 47.8066 49.6827L47.8219 49.698C50.5831 47.021 54.2234 45.2552 58.2618 44.8724C58.3062 44.4757 58.3353 44.0776 58.6431 43.6809C58.9372 43.2843 59.1424 42.8861 59.098 42.4894C59.1133 42.0928 59.098 41.6946 59.0689 41.2826C58.9801 40.4878 58.8637 39.693 58.5252 38.8997C58.173 38.0911 58.5543 37.1493 59.3629 36.7955C60.17 36.457 61.1103 36.8246 61.4626 37.6347C61.6387 38.062 61.6234 38.5168 61.4626 38.8997C61.1241 39.6945 61.0077 40.4878 60.9189 41.2826C60.8898 41.6946 60.8745 42.0913 60.8898 42.4894C60.8454 42.8861 61.0506 43.2843 61.3446 43.6809C61.6525 44.0776 61.6831 44.4757 61.726 44.8724C65.867 45.269 69.5961 47.1083 72.3864 49.9032C72.7249 49.6827 73.0465 49.4468 73.561 49.433C74.045 49.404 74.486 49.3151 74.7648 49.0211C75.0726 48.7715 75.3666 48.5065 75.6607 48.2263C76.2181 47.6673 76.7618 47.0639 77.1584 46.2997C77.5551 45.5049 78.5245 45.197 79.3025 45.609C80.0958 46.0057 80.4036 46.9766 79.9932 47.7576C79.7879 48.1696 79.4357 48.4499 79.0237 48.5662C78.2014 48.8021 77.5107 49.2278 76.8506 49.6689C76.5275 49.9047 76.2043 50.139 75.9103 50.404C75.5718 50.6245 75.3957 51.0365 75.264 51.5066C75.1614 52.0074 74.8827 52.2861 74.604 52.5802C76.5122 55.3904 77.6148 58.7887 77.6148 62.4366C77.6148 62.9956 77.5857 63.5546 77.5413 64.0998H77.5566C77.9379 64.2177 78.3208 64.3203 78.6577 64.717C78.9962 65.0707 79.3484 65.3341 79.7451 65.3648C80.1417 65.4536 80.523 65.5118 80.9197 65.5562C81.7268 65.6297 82.5201 65.6588 83.3715 65.4674C84.2383 65.2759 85.0898 65.8211 85.2797 66.6879C85.4758 67.5379 84.9321 68.3909 84.0668 68.5824ZM72.1429 55.2097C71.0418 56.3874 69.9116 57.5191 68.7798 58.6524C68.0601 59.3875 67.2821 60.0935 66.5332 60.8148C67.5317 61.0644 68.5302 61.3294 69.5287 61.6234C71.0709 62.0645 72.5978 62.4918 74.1246 62.991L74.6683 63.1671C74.6836 62.9313 74.6836 62.6817 74.6836 62.432C74.6836 59.6218 73.9056 57.003 72.5396 54.7824L72.1429 55.2097ZM68.5302 66.9207C67.8395 66.8625 67.1642 66.789 66.475 66.714C66.0339 66.6558 65.6817 67.0968 65.844 67.5226C66.0937 68.1842 66.328 68.8473 66.5638 69.5242C67.0784 71.025 67.6067 72.5396 68.0907 74.0696L68.2515 74.5994C70.806 72.849 72.7892 70.319 73.8306 67.3465L73.316 67.3174C71.7172 67.2148 70.1321 67.0677 68.5302 66.9207ZM69.8381 51.5174C67.7385 49.6046 65.0661 48.2952 62.115 47.8832L62.1885 48.4575C62.3937 50.0456 62.5407 51.6506 62.6877 53.2387C62.7459 53.8712 62.8056 54.4899 62.8485 55.1224C62.8776 55.6079 63.4213 55.8575 63.8179 55.5788C64.3172 55.2112 64.8318 54.8437 65.3601 54.4899C66.6817 53.5925 67.9881 52.695 69.3388 51.8267L69.8381 51.5174ZM61.6586 71.7601C61.3063 71.1567 60.9679 70.5533 60.6448 69.9362C60.4104 69.5089 59.8071 69.5089 59.5727 69.9362C59.2343 70.5687 58.8821 71.1874 58.516 71.7892C57.709 73.1721 56.9003 74.555 56.0489 75.9088L55.6813 76.4969C57.0474 76.9242 58.5007 77.1447 59.9985 77.1447C61.5407 77.1447 63.0384 76.9089 64.4336 76.4525L64.0951 75.8935C63.2452 74.5412 62.4519 73.143 61.6586 71.7601ZM57.3123 53.2387C57.4593 51.6491 57.6064 50.0456 57.8116 48.4575L57.8851 47.8832C55.0519 48.2799 52.4821 49.502 50.4254 51.2968L50.8802 51.5771C52.2463 52.4301 53.5679 53.3275 54.8895 54.225C55.6537 54.7104 56.372 55.2541 57.0918 55.7702C57.1515 54.9294 57.225 54.0764 57.3123 53.2387ZM53.7884 66.5088C53.0977 66.5976 52.4224 66.7002 51.7332 66.7737C50.1329 66.9651 48.5616 67.1566 46.9612 67.3036L46.1679 67.3771C47.2399 70.3788 49.266 72.9378 51.8649 74.6745L52.0701 74.0558C52.5694 72.5258 53.0977 71.025 53.6414 69.5104C53.891 68.7753 54.156 68.054 54.4347 67.3189C54.6108 66.8901 54.2433 66.4353 53.7884 66.5088ZM52.7317 60.8286C53.1866 60.6969 53.3198 60.1226 52.966 59.7995C52.4668 59.3431 51.9828 58.8867 51.4974 58.4012C50.3518 57.268 49.2216 56.15 48.1052 54.9876L47.635 54.5022C46.1664 56.7825 45.3149 59.5039 45.3149 62.432C45.3149 62.7123 45.3302 62.9757 45.3302 63.2406L46.0209 63.0048C47.534 62.4611 49.0608 61.9894 50.5724 61.4902C51.2922 61.2559 52.0119 61.0507 52.7317 60.8286ZM52.966 59.7995C52.4668 59.3431 51.9828 58.8867 51.4974 58.4012C50.3518 57.268 49.2216 56.15 48.1052 54.9876L47.635 54.5022C46.1664 56.7825 45.3149 59.5039 45.3149 62.432C45.3149 62.7123 45.3302 62.9757 45.3302 63.2406L46.0209 63.0048C47.534 62.4611 49.0608 61.9894 50.5724 61.4902C51.2922 61.2543 52.0119 61.0491 52.7302 60.8286C53.1866 60.6969 53.3183 60.1226 52.966 59.7995ZM53.7884 66.5088C53.0977 66.5976 52.4224 66.7002 51.7332 66.7737C50.1329 66.9651 48.5616 67.1566 46.9612 67.3036L46.1679 67.3771C47.2399 70.3788 49.266 72.9378 51.8649 74.6745L52.0701 74.0558C52.5694 72.5258 53.0977 71.025 53.6414 69.5104C53.891 68.7753 54.156 68.054 54.4347 67.3189C54.6108 66.8901 54.2433 66.4353 53.7884 66.5088ZM64.0967 75.8935C63.2452 74.5397 62.4519 73.143 61.6586 71.7601C61.3063 71.1567 60.9679 70.5533 60.6448 69.9362C60.4104 69.5089 59.8071 69.5089 59.5727 69.9362C59.2343 70.5687 58.8821 71.1874 58.516 71.7892C57.709 73.1721 56.9003 74.555 56.0489 75.9088L55.6813 76.4969C57.0474 76.9242 58.5007 77.1447 59.9985 77.1447C61.5407 77.1447 63.0384 76.9089 64.4336 76.4525L64.0967 75.8935ZM62.115 47.8832L62.1885 48.4575C62.3937 50.0456 62.5407 51.6506 62.6877 53.2387C62.7459 53.8712 62.8056 54.4899 62.8485 55.1224C62.8776 55.6079 63.4213 55.8575 63.8179 55.5788C64.3172 55.2112 64.8318 54.8437 65.3601 54.4899C66.6817 53.5925 67.9881 52.695 69.3388 51.8267L69.8381 51.5174C67.7385 49.6046 65.0661 48.2952 62.115 47.8832ZM73.3175 67.3174C71.7172 67.2148 70.1306 67.0677 68.5302 66.9207C67.8395 66.8625 67.1642 66.789 66.475 66.714C66.0339 66.6558 65.6817 67.0968 65.844 67.5226C66.0937 68.1842 66.328 68.8473 66.5638 69.5242C67.0784 71.025 67.6067 72.5396 68.0907 74.0696L68.2515 74.5994C70.806 72.849 72.7892 70.319 73.8306 67.3465L73.3175 67.3174ZM72.5396 54.7824L72.1429 55.2097C71.0418 56.3874 69.9116 57.5191 68.7798 58.6524C68.0601 59.3875 67.2821 60.0935 66.5332 60.8148C67.5317 61.0644 68.5302 61.3294 69.5287 61.6234C71.0709 62.0645 72.5978 62.4918 74.1246 62.991L74.6683 63.1671C74.6836 62.9313 74.6836 62.6817 74.6836 62.432C74.6836 59.6233 73.9056 57.0046 72.5396 54.7824ZM72.5396 54.7824L72.1429 55.2097C71.0418 56.3874 69.9116 57.5191 68.7798 58.6524C68.0601 59.3875 67.2821 60.0935 66.5332 60.8148C67.5317 61.0644 68.5302 61.3294 69.5287 61.6234C71.0709 62.0645 72.5978 62.4918 74.1246 62.991L74.6683 63.1671C74.6836 62.9313 74.6836 62.6817 74.6836 62.432C74.6836 59.6233 73.9056 57.0046 72.5396 54.7824ZM73.3175 67.3174C71.7172 67.2148 70.1306 67.0677 68.5302 66.9207C67.8395 66.8625 67.1642 66.789 66.475 66.714C66.0339 66.6558 65.6817 67.0968 65.844 67.5226C66.0937 68.1842 66.328 68.8473 66.5638 69.5242C67.0784 71.025 67.6067 72.5396 68.0907 74.0696L68.2515 74.5994C70.806 72.849 72.7892 70.319 73.8306 67.3465L73.3175 67.3174ZM62.115 47.8832L62.1885 48.4575C62.3937 50.0456 62.5407 51.6506 62.6877 53.2387C62.7459 53.8712 62.8056 54.4899 62.8485 55.1224C62.8776 55.6079 63.4213 55.8575 63.8179 55.5788C64.3172 55.2112 64.8318 54.8437 65.3601 54.4899C66.6817 53.5925 67.9881 52.695 69.3388 51.8267L69.8381 51.5174C67.7385 49.6046 65.0661 48.2952 62.115 47.8832ZM64.0967 75.8935C63.2452 74.5397 62.4519 73.143 61.6586 71.7601C61.3063 71.1567 60.9679 70.5533 60.6448 69.9362C60.4104 69.5089 59.8071 69.5089 59.5727 69.9362C59.2343 70.5687 58.8821 71.1874 58.516 71.7892C57.709 73.1721 56.9003 74.555 56.0489 75.9088L55.6813 76.4969C57.0474 76.9242 58.5007 77.1447 59.9985 77.1447C61.5407 77.1447 63.0384 76.9089 64.4336 76.4525L64.0967 75.8935ZM53.7884 66.5088C53.0977 66.5976 52.4224 66.7002 51.7332 66.7737C50.1329 66.9651 48.5616 67.1566 46.9612 67.3036L46.1679 67.3771C47.2399 70.3788 49.266 72.9378 51.8649 74.6745L52.0701 74.0558C52.5694 72.5258 53.0977 71.025 53.6414 69.5104C53.891 68.7753 54.156 68.054 54.4347 67.3189C54.6108 66.8901 54.2433 66.4353 53.7884 66.5088ZM52.966 59.7995C52.4668 59.3431 51.9828 58.8867 51.4974 58.4012C50.3518 57.268 49.2216 56.15 48.1052 54.9876L47.635 54.5022C46.1664 56.7825 45.3149 59.5039 45.3149 62.432C45.3149 62.7123 45.3302 62.9757 45.3302 63.2406L46.0209 63.0048C47.534 62.4611 49.0608 61.9894 50.5724 61.4902C51.2922 61.2543 52.0119 61.0491 52.7302 60.8286C53.1866 60.6969 53.3183 60.1226 52.966 59.7995ZM53.7884 66.5088C53.0977 66.5976 52.4224 66.7002 51.7332 66.7737C50.1329 66.9651 48.5616 67.1566 46.9612 67.3036L46.1679 67.3771C47.2399 70.3788 49.266 72.9378 51.8649 74.6745L52.0701 74.0558C52.5694 72.5258 53.0977 71.025 53.6414 69.5104C53.891 68.7753 54.156 68.054 54.4347 67.3189C54.6108 66.8901 54.2433 66.4353 53.7884 66.5088ZM64.0967 75.8935C63.2452 74.5397 62.4519 73.143 61.6586 71.7601C61.3063 71.1567 60.9679 70.5533 60.6448 69.9362C60.4104 69.5089 59.8071 69.5089 59.5727 69.9362C59.2343 70.5687 58.8821 71.1874 58.516 71.7892C57.709 73.1721 56.9003 74.555 56.0489 75.9088L55.6813 76.4969C57.0474 76.9242 58.5007 77.1447 59.9985 77.1447C61.5407 77.1447 63.0384 76.9089 64.4336 76.4525L64.0967 75.8935ZM62.115 47.8832L62.1885 48.4575C62.3937 50.0456 62.5407 51.6506 62.6877 53.2387C62.7459 53.8712 62.8056 54.4899 62.8485 55.1224C62.8776 55.6079 63.4213 55.8575 63.8179 55.5788C64.3172 55.2112 64.8318 54.8437 65.3601 54.4899C66.6817 53.5925 67.9881 52.695 69.3388 51.8267L69.8381 51.5174C67.7385 49.6046 65.0661 48.2952 62.115 47.8832ZM73.3175 67.3174C71.7172 67.2148 70.1306 67.0677 68.5302 66.9207C67.8395 66.8625 67.1642 66.789 66.475 66.714C66.0339 66.6558 65.6817 67.0968 65.844 67.5226C66.0937 68.1842 66.328 68.8473 66.5638 69.5242C67.0784 71.025 67.6067 72.5396 68.0907 74.0696L68.2515 74.5994C70.806 72.849 72.7892 70.319 73.8306 67.3465L73.3175 67.3174ZM72.5396 54.7824L72.1429 55.2097C71.0418 56.3874 69.9116 57.5191 68.7798 58.6524C68.0601 59.3875 67.2821 60.0935 66.5332 60.8148C67.5317 61.0644 68.5302 61.3294 69.5287 61.6234C71.0709 62.0645 72.5978 62.4918 74.1246 62.991L74.6683 63.1671C74.6836 62.9313 74.6836 62.6817 74.6836 62.432C74.6836 59.6233 73.9056 57.0046 72.5396 54.7824ZM72.5396 54.7824L72.1429 55.2097C71.0418 56.3874 69.9116 57.5191 68.7798 58.6524C68.0601 59.3875 67.2821 60.0935 66.5332 60.8148C67.5317 61.0644 68.5302 61.3294 69.5287 61.6234C71.0709 62.0645 72.5978 62.4918 74.1246 62.991L74.6683 63.1671C74.6836 62.9313 74.6836 62.6817 74.6836 62.432C74.6836 59.6233 73.9056 57.0046 72.5396 54.7824ZM73.3175 67.3174C71.7172 67.2148 70.1306 67.0677 68.5302 66.9207C67.8395 66.8625 67.1642 66.789 66.475 66.714C66.0339 66.6558 65.6817 67.0968 65.844 67.5226C66.0937 68.1842 66.328 68.8473 66.5638 69.5242C67.0784 71.025 67.6067 72.5396 68.0907 74.0696L68.2515 74.5994C70.806 72.849 72.7892 70.319 73.8306 67.3465L73.3175 67.3174ZM62.115 47.8832L62.1885 48.4575C62.3937 50.0456 62.5407 51.6506 62.6877 53.2387C62.7459 53.8712 62.8056 54.4899 62.8485 55.1224C62.8776 55.6079 63.4213 55.8575 63.8179 55.5788C64.3172 55.2112 64.8318 54.8437 65.3601 54.4899C66.6817 53.5925 67.9881 52.695 69.3388 51.8267L69.8381 51.5174C67.7385 49.6046 65.0661 48.2952 62.115 47.8832ZM64.0967 75.8935C63.2452 74.5397 62.4519 73.143 61.6586 71.7601C61.3063 71.1567 60.9679 70.5533 60.6448 69.9362C60.4104 69.5089 59.8071 69.5089 59.5727 69.9362C59.2343 70.5687 58.8821 71.1874 58.516 71.7892C57.709 73.1721 56.9003 74.555 56.0489 75.9088L55.6813 76.4969C57.0474 76.9242 58.5007 77.1447 59.9985 77.1447C61.5407 77.1447 63.0384 76.9089 64.4336 76.4525L64.0967 75.8935ZM53.7884 66.5088C53.0977 66.5976 52.4224 66.7002 51.7332 66.7737C50.1329 66.9651 48.5616 67.1566 46.9612 67.3036L46.1679 67.3771C47.2399 70.3788 49.266 72.9378 51.8649 74.6745L52.0701 74.0558C52.5694 72.5258 53.0977 71.025 53.6414 69.5104C53.891 68.7753 54.156 68.054 54.4347 67.3189C54.6108 66.8901 54.2433 66.4353 53.7884 66.5088ZM64.0967 75.8935C63.2452 74.5397 62.4519 73.143 61.6586 71.7601C61.3063 71.1567 60.9679 70.5533 60.6448 69.9362C60.4104 69.5089 59.8071 69.5089 59.5727 69.9362C59.2343 70.5687 58.8821 71.1874 58.516 71.7892C57.709 73.1721 56.9003 74.555 56.0489 75.9088L55.6813 76.4969C57.0474 76.9242 58.5007 77.1447 59.9985 77.1447C61.5407 77.1447 63.0384 76.9089 64.4336 76.4525L64.0967 75.8935ZM62.115 47.8832L62.1885 48.4575C62.3937 50.0456 62.5407 51.6506 62.6877 53.2387C62.7459 53.8712 62.8056 54.4899 62.8485 55.1224C62.8776 55.6079 63.4213 55.8575 63.8179 55.5788C64.3172 55.2112 64.8318 54.8437 65.3601 54.4899C66.6817 53.5925 67.9881 52.695 69.3388 51.8267L69.8381 51.5174C67.7385 49.6046 65.0661 48.2952 62.115 47.8832ZM73.3175 67.3174C71.7172 67.2148 70.1306 67.0677 68.5302 66.9207C67.8395 66.8625 67.1642 66.789 66.475 66.714C66.0339 66.6558 65.6817 67.0968 65.844 67.5226C66.0937 68.1842 66.328 68.8473 66.5638 69.5242C67.0784 71.025 67.6067 72.5396 68.0907 74.0696L68.2515 74.5994C70.806 72.849 72.7892 70.319 73.8306 67.3465L73.3175 67.3174ZM72.5396 54.7824L72.1429 55.2097C71.0418 56.3874 69.9116 57.5191 68.7798 58.6524C68.0601 59.3875 67.2821 60.0935 66.5332 60.8148C67.5317 61.0644 68.5302 61.3294 69.5287 61.6234C71.0709 62.0645 72.5978 62.4918 74.1246 62.991L74.6683 63.1671C74.6836 62.9313 74.6836 62.6817 74.6836 62.432C74.6836 59.6233 73.9056 57.0046 72.5396 54.7824ZM72.5396 54.7824L72.1429 55.2097C71.0418 56.3874 69.9116 57.5191 68.7798 58.6524C68.0601 59.3875 67.2821 60.0935 66.5332 60.8148C67.5317 61.0644 68.5302 61.3294 69.5287 61.6234C71.0709 62.0645 72.5978 62.4918 74.1246 62.991L74.6683 63.1671C74.6836 62.9313 74.6836 62.6817 74.6836 62.432C74.6836 59.6233 73.9056 57.0046 72.5396 54.7824ZM73.3175 67.3174C71.7172 67.2148 70.1306 67.0677 68.5302 66.9207C67.8395 66.8625 67.1642 66.789 66.475 66.714C66.0339 66.6558 65.6817 67.0968 65.844 67.5226C66.0937 68.1842 66.328 68.8473 66.5638 69.5242C67.0784 71.025 67.6067 72.5396 68.0907 74.0696L68.2515 74.5994C70.806 72.849 72.7892 70.319 73.8306 67.3465L73.3175 67.3174ZM62.115 47.8832L62.1885 48.4575C62.3937 50.0456 62.5407 51.6506 62.6877 53.2387C62.7459 53.8712 62.8056 54.4899 62.8485 55.1224C62.8776 55.6079 63.4213 55.8575 63.8179 55.5788C64.3172 55.2112 64.8318 54.8437 65.3601 54.4899C66.6817 53.5925 67.9881 52.695 69.3388 51.8267L69.8381 51.5174C67.7385 49.6046 65.0661 48.2952 62.115 47.8832ZM64.0967 75.8935C63.2452 74.5397 62.4519 73.143 61.6586 71.7601C61.3063 71.1567 60.9679 70.5533 60.6448 69.9362C60.4104 69.5089 59.8071 69.5089 59.5727 69.9362C59.2343 70.5687 58.8821 71.1874 58.516 71.7892C57.709 73.1721 56.9003 74.555 56.0489 75.9088L55.6813 76.4969C57.0474 76.9242 58.5007 77.1447 59.9985 77.1447C61.5407 77.1447 63.0384 76.9089 64.4336 76.4525L64.0967 75.8935ZM64.0967 75.8935C63.2452 74.5397 62.4519 73.143 61.6586 71.7601C61.3063 71.1567 60.9679 70.5533 60.6448 69.9362C60.4104 69.5089 59.8071 69.5089 59.5727 69.9362C59.2343 70.5687 58.8821 71.1874 58.516 71.7892C57.709 73.1721 56.9003 74.555 56.0489 75.9088L55.6813 76.4969C57.0474 76.9242 58.5007 77.1447 59.9985 77.1447C61.5407 77.1447 63.0384 76.9089 64.4336 76.4525L64.0967 75.8935ZM62.115 47.8832L62.1885 48.4575C62.3937 50.0456 62.5407 51.6506 62.6877 53.2387C62.7459 53.8712 62.8056 54.4899 62.8485 55.1224C62.8776 55.6079 63.4213 55.8575 63.8179 55.5788C64.3172 55.2112 64.8318 54.8437 65.3601 54.4899C66.6817 53.5925 67.9881 52.695 69.3388 51.8267L69.8381 51.5174C67.7385 49.6046 65.0661 48.2952 62.115 47.8832ZM73.3175 67.3174C71.7172 67.2148 70.1306 67.0677 68.5302 66.9207C67.8395 66.8625 67.1642 66.789 66.475 66.714C66.0339 66.6558 65.6817 67.0968 65.844 67.5226C66.0937 68.1842 66.328 68.8473 66.5638 69.5242C67.0784 71.025 67.6067 72.5396 68.0907 74.0696L68.2515 74.5994C70.806 72.849 72.7892 70.319 73.8306 67.3465L73.3175 67.3174ZM72.5396 54.7824L72.1429 55.2097C71.0418 56.3874 69.9116 57.5191 68.7798 58.6524C68.0601 59.3875 67.2821 60.0935 66.5332 60.8148C67.5317 61.0644 68.5302 61.3294 69.5287 61.6234C71.0709 62.0645 72.5978 62.4918 74.1246 62.991L74.6683 63.1671C74.6836 62.9313 74.6836 62.6817 74.6836 62.432C74.6836 59.6233 73.9056 57.0046 72.5396 54.7824ZM72.5396 54.7824L72.1429 55.2097C71.0418 56.3874 69.9116 57.5191 68.7798 58.6524C68.0601 59.3875 67.2821 60.0935 66.5332 60.8148C67.5317 61.0644 68.5302 61.3294 69.5287 61.6234C71.0709 62.0645 72.5978 62.4918 74.1246 62.991L74.6683 63.1671C74.6836 62.9313 74.6836 62.6817 74.6836 62.432C74.6836 59.6233 73.9056 57.0046 72.5396 54.7824ZM73.3175 67.3174C71.7172 67.2148 70.1306 67.0677 68.5302 66.9207C67.8395 66.8625 67.1642 66.789 66.475 66.714C66.0339 66.6558 65.6817 67.0968 65.844 67.5226C66.0937 68.1842 66.328 68.8473 66.5638 69.5242C67.0784 71.025 67.6067 72.5396 68.0907 74.0696L68.2515 74.5994C70.806 72.849 72.7892 70.319 73.8306 67.3465L73.3175 67.3174ZM62.115 47.8832L62.1885 48.4575C62.3937 50.0456 62.5407 51.6506 62.6877 53.2387C62.7459 53.8712 62.8056 54.4899 62.8485 55.1224C62.8776 55.6079 63.4213 55.8575 63.8179 55.5788C64.3172 55.2112 64.8318 54.8437 65.3601 54.4899C66.6817 53.5925 67.9881 52.695 69.3388 51.8267L69.8381 51.5174C67.7385 49.6046 65.0661 48.2952 62.115 47.8832ZM64.0967 75.8935C63.2452 74.5397 62.4519 73.143 61.6586 71.7601C61.3063 71.1567 60.9679 70.5533 60.6448 69.9362C60.4104 69.5089 59.8071 69.5089 59.5727 69.9362C59.2343 70.5687 58.8821 71.1874 58.516 71.7892C57.709 73.1721 56.9003 74.555 56.0489 75.9088L55.6813 76.4969C57.0474 76.9242 58.5007 77.1447 59.9985 77.1447C61.5407 77.1447 63.0384 76.9089 64.4336 76.4525L64.0967 75.8935ZM62.115 47.8832L62.1885 48.4575C62.3937 50.0456 62.5407 51.6506 62.6877 53.2387C62.7459 53.8712 62.8056 54.4899 62.8485 55.1224C62.8776 55.6079 63.4213 55.8575 63.8179 55.5788C64.3172 55.2112 64.8318 54.8437 65.3601 54.4899C66.6817 53.5925 67.9881 52.695 69.3388 51.8267L69.8381 51.5174C67.7385 49.6046 65.0661 48.2952 62.115 47.8832ZM73.3175 67.3174C71.7172 67.2148 70.1306 67.0677 68.5302 66.9207C67.8395 66.8625 67.1642 66.789 66.475 66.714C66.0339 66.6558 65.6817 67.0968 65.844 67.5226C66.0937 68.1842 66.328 68.8473 66.5638 69.5242C67.0784 71.025 67.6067 72.5396 68.0907 74.0696L68.2515 74.5994C70.806 72.849 72.7892 70.319 73.8306 67.3465L73.3175 67.3174ZM72.5396 54.7824L72.1429 55.2097C71.0418 56.3874 69.9116 57.5191 68.7798 58.6524C68.0601 59.3875 67.2821 60.0935 66.5332 60.8148C67.5317 61.0644 68.5302 61.3294 69.5287 61.6234C71.0709 62.0645 72.5978 62.4918 74.1246 62.991L74.6683 63.1671C74.6836 62.9313 74.6836 62.6817 74.6836 62.432C74.6836 59.6233 73.9056 57.0046 72.5396 54.7824ZM72.5396 54.7824L72.1429 55.2097C71.0418 56.3874 69.9116 57.5191 68.7798 58.6524C68.0601 59.3875 67.2821 60.0935 66.5332 60.8148C67.5317 61.0644 68.5302 61.3294 69.5287 61.6234C71.0709 62.0645 72.5978 62.4918 74.1246 62.991L74.6683 63.1671C74.6836 62.9313 74.6836 62.6817 74.6836 62.432C74.6836 59.6233 73.9056 57.0046 72.5396 54.7824ZM73.3175 67.3174C71.7172 67.2148 70.1306 67.0677 68.5302 66.9207C67.8395 66.8625 67.1642 66.789 66.475 66.714C66.0339 66.6558 65.6817 67.0968 65.844 67.5226C66.0937 68.1842 66.328 68.8473 66.5638 69.5242C67.0784 71.025 67.6067 72.5396 68.0907 74.0696L68.2515 74.5994C70.806 72.849 72.7892 70.319 73.8306 67.3465L73.3175 67.3174ZM62.115 47.8832L62.1885 48.4575C62.3937 50.0456 62.5407 51.6506 62.6877 53.2387C62.7459 53.8712 62.8056 54.4899 62.8485 55.1224C62.8776 55.6079 63.4213 55.8575 63.8179 55.5788C64.3172 55.2112 64.8318 54.8437 65.3601 54.4899C66.6817 53.5925 67.9881 52.695 69.3388 51.8267L69.8381 51.5174C67.7385 49.6046 65.0661 48.2952 62.115 47.8832ZM62.115 47.8832L62.1885 48.4575C62.3937 50.0456 62.5407 51.6506 62.6877 53.2387C62.7459 53.8712 62.8056 54.4899 62.8485 55.1224C62.8776 55.6079 63.4213 55.8575 63.8179 55.5788C64.3172 55.2112 64.8318 54.8437 65.3601 54.4899C66.6817 53.5925 67.9881 52.695 69.3388 51.8267L69.8381 51.5174C67.7385 49.6046 65.0661 48.2952 62.115 47.8832ZM72.5396 54.7824L72.1429 55.2097C71.0418 56.3874 69.9116 57.5191 68.7798 58.6524C68.0601 59.3875 67.2821 60.0935 66.5332 60.8148C67.5317 61.0644 68.5302 61.3294 69.5287 61.6234C71.0709 62.0645 72.5978 62.4918 74.1246 62.991L74.6683 63.1671C74.6836 62.9313 74.6836 62.6817 74.6836 62.432C74.6836 59.6233 73.9056 57.0046 72.5396 54.7824ZM72.5396 54.7824L72.1429 55.2097C71.0418 56.3874 69.9116 57.5191 68.7798 58.6524C68.0601 59.3875 67.2821 60.0935 66.5332 60.8148C67.5317 61.0644 68.5302 61.3294 69.5287 61.6234C71.0709 62.0645 72.5978 62.4918 74.1246 62.991L74.6683 63.1671C74.6836 62.9313 74.6836 62.6817 74.6836 62.432C74.6836 59.6233 73.9056 57.0046 72.5396 54.7824ZM62.115 47.8832L62.1885 48.4575C62.3937 50.0456 62.5407 51.6506 62.6877 53.2387C62.7459 53.8712 62.8056 54.4899 62.8485 55.1224C62.8776 55.6079 63.4213 55.8575 63.8179 55.5788C64.3172 55.2112 64.8318 54.8437 65.3601 54.4899C66.6817 53.5925 67.9881 52.695 69.3388 51.8267L69.8381 51.5174C67.7385 49.6046 65.0661 48.2952 62.115 47.8832ZM62.115 47.8832L62.1885 48.4575C62.3937 50.0456 62.5407 51.6506 62.6877 53.2387C62.7459 53.8712 62.8056 54.4899 62.8485 55.1224C62.8776 55.6079 63.4213 55.8575 63.8179 55.5788C64.3172 55.2112 64.8318 54.8437 65.3601 54.4899C66.6817 53.5925 67.9881 52.695 69.3388 51.8267L69.8381 51.5174C67.7385 49.6046 65.0661 48.2952 62.115 47.8832ZM72.5396 54.7824L72.1429 55.2097C71.0418 56.3874 69.9116 57.5191 68.7798 58.6524C68.0601 59.3875 67.2821 60.0935 66.5332 60.8148C67.5317 61.0644 68.5302 61.3294 69.5287 61.6234C71.0709 62.0645 72.5978 62.4918 74.1246 62.991L74.6683 63.1671C74.6836 62.9313 74.6836 62.6817 74.6836 62.432C74.6836 59.6233 73.9056 57.0046 72.5396 54.7824ZM72.5396 54.7824L72.1429 55.2097C71.0418 56.3874 69.9116 57.5191 68.7798 58.6524C68.0601 59.3875 67.2821 60.0935 66.5332 60.8148C67.5317 61.0644 68.5302 61.3294 69.5287 61.6234C71.0709 62.0645 72.5978 62.4918 74.1246 62.991L74.6683 63.1671C74.6836 62.9313 74.6836 62.6817 74.6836 62.432C74.6836 59.6233 73.9056 57.0046 72.5396 54.7824ZM62.115 47.8832L62.1885 48.4575C62.3937 50.0456 62.5407 51.6506 62.6877 53.2387C62.7459 53.8712 62.8056 54.4899 62.8485 55.1224C62.8776 55.6079 63.4213 55.8575 63.8179 55.5788C64.3172 55.2112 64.8318 54.8437 65.3601 54.4899C66.6817 53.5925 67.9881 52.695 69.3388 51.8267L69.8381 51.5174C67.7385 49.6046 65.0661 48.2952 62.115 47.8832ZM62.115 47.8832L62.1885 48.4575C62.3937 50.0456 62.5407 51.6506 62.6877 53.2387C62.7459 53.8712 62.8056 54.4899 62.8485 55.1224C62.8776 55.6079 63.4213 55.8575 63.8179 55.5788C64.3172 55.2112 64.8318 54.8437 65.3601 54.4899C66.6817 53.5925 67.9881 52.695 69.3388 51.8267L69.8381 51.5174C67.7385 49.6046 65.0661 48.2952 62.115 47.8832ZM62.115 47.8832L62.1885 48.4575C62.3937 50.0456 62.5407 51.6506 62.6877 53.2387C62.7459 53.8712 62.8056 54.4899 62.8485 55.1224C62.8776 55.6079 63.4213 55.8575 63.8179 55.5788C64.3172 55.2112 64.8318 54.8437 65.3601 54.4899C66.6817 53.5925 67.9881 52.695 69.3388 51.8267L69.8381 51.5174C67.7385 49.6046 65.0661 48.2952 62.115 47.8832Z" fill="#2A3741"/>
</svg>
