<svg width="120" height="120" viewBox="0 0 120 120" fill="none" xmlns="http://www.w3.org/2000/svg">
<rect x="0.5" y="0.5" width="119" height="119" rx="23.5" fill="#182128"/>
<rect x="0.5" y="0.5" width="119" height="119" rx="23.5" stroke="#2C3944"/>
<path d="M86.1937 52.9782C86.8327 50.1425 86.0433 46.8002 82.1077 43.1719C75.7108 48.9625 77.5396 54.9836 79.6562 57.8813C79.6562 57.8813 79.3849 59.5157 73.1186 59.5157C66.8524 59.5157 24.0871 59.5157 24.0871 59.5157C24.0871 59.5157 21.0913 85.6659 50.2373 85.6659C75.7222 85.6659 82.8808 66.0483 84.2782 61.0259C84.8568 61.1043 85.5056 61.155 86.1937 61.1501C89.7027 61.1223 94.2512 59.2362 96 52.1871C91.3616 50.5805 88.3821 51.3078 86.1937 52.9782Z" fill="#2A3741"/>
<path d="M24.3535 66.0547C25.5548 73.8 30.5936 85.6673 50.234 85.6673C70.149 85.6673 78.8733 73.6873 82.4019 66.0547H24.3535Z" fill="#394650"/>
<path d="M53.1997 85.5659C51.6961 85.0396 44.9101 83.7844 43.7007 74.2266C36.8216 77.2714 30.7269 76.4738 28.0449 75.874C31.5785 81.1514 38.1291 85.6672 50.2382 85.6672C51.2564 85.6672 52.2387 85.628 53.1997 85.5659Z" fill="#4C555D"/>
<path d="M50.2356 69.3203C49.3686 69.3203 48.5372 69.6647 47.9242 70.2777C47.3112 70.8907 46.9668 71.7221 46.9668 72.5891C46.9668 73.456 47.3112 74.2874 47.9242 74.9005C48.5372 75.5135 49.3686 75.8578 50.2356 75.8578C51.1025 75.8578 51.9339 75.5135 52.5469 74.9005C53.1599 74.2874 53.5043 73.456 53.5043 72.5891C53.5043 71.7221 53.1599 70.8907 52.5469 70.2777C51.9339 69.6647 51.1025 69.3203 50.2356 69.3203Z" fill="#555E66"/>
<path d="M45.1924 75.2016C45.5585 76.0269 45.2251 77.1007 44.3588 77.3557C38.9637 78.9459 34.3139 79.1568 30.7984 79.1568C29.7458 78.1451 28.8469 77.0664 28.0918 75.9485C32.3167 75.9485 39.0585 75.7524 43.0366 74.3697C43.8898 74.0722 44.8263 74.3729 45.1924 75.2016ZM24.0859 64.4195C24.0859 64.4195 27.1504 64.6238 28.9891 62.7852C32.0536 65.544 38.6973 64.5634 40.4298 62.7852C42.1671 65.544 51.7691 65.0324 53.5048 62.7852C55.5478 65.1354 64.3326 65.6453 66.5799 62.7852C67.3628 65.173 77.7248 65.848 79.655 62.7852C81.3891 64.5634 87.9299 65.9526 91.604 62.7852C92.5258 64.7268 95.9988 64.4195 95.9988 64.4195V66.0539H24.0859V64.4195ZM48.6017 72.5915C48.6017 73.4936 49.3339 74.2258 50.2361 74.2258C51.1383 74.2258 51.8705 73.4936 51.8705 72.5915C51.8705 71.6893 51.1383 70.9571 50.2361 70.9571C49.3339 70.9571 48.6017 71.6893 48.6017 72.5915Z" fill="#37474F"/>
<path d="M38.795 59.5157H30.623V51.3438H38.795V59.5157ZM55.1388 51.3438H46.9669V59.5157H55.1388V51.3438ZM71.4826 51.3438H63.3107V59.5157H71.4826V51.3438ZM46.9669 43.1719H38.795V51.3438H46.9669V43.1719ZM63.3107 43.1719H55.1388V51.3438H63.3107V43.1719Z" fill="#2D3841"/>
<path d="M46.9668 59.5158H38.7949V51.3438H46.9668V59.5158ZM63.3107 51.3438H55.1388V59.5158H63.3107V51.3438ZM63.3107 35H55.1388V43.1719H63.3107V35ZM55.1388 43.1719H46.9668V51.3438H55.1388V43.1719Z" fill="#394650"/>
</svg>
