<svg width="120" height="120" viewBox="0 0 120 120" fill="none" xmlns="http://www.w3.org/2000/svg">
<rect x="0.5" y="0.5" width="119" height="119" rx="23.5" fill="#182128"/>
<rect x="0.5" y="0.5" width="119" height="119" rx="23.5" stroke="#2C3944"/>
<path d="M66 56H44V61.6213H51.8907V87H58.1425V61.6213H66V56Z" fill="#182128"/>
<path d="M86.5431 63.0368C86.5431 63.0368 83.3951 60.9787 79.8365 60.9787C76.278 60.9787 74.9973 62.6362 74.9973 64.4077C74.9973 68.9799 88 68.5223 88 77.7235C88 91.8975 68.1744 85.6108 68.1744 85.6108V78.8113C68.1744 78.8113 71.9655 81.6119 76.5123 81.6119C81.0591 81.6119 80.8865 78.6974 80.8865 78.2968C80.8865 74.0683 68 74.0683 68 64.6944C68 51.9501 86.7757 56.978 86.7757 56.978L86.5431 63.0368Z" fill="#182128"/>
<path d="M49.9121 91.8743C52.75 93.0163 55.8289 93.6942 59.0616 93.807C63.4367 93.9598 67.5973 93.0552 71.3167 91.3369C66.8565 89.5846 62.817 87.0222 59.3696 83.8359C57.1349 87.4141 53.8297 90.24 49.9121 91.8743Z" fill="#394650"/>
<path d="M59.37 83.8351C51.5006 76.557 46.7266 66.0229 47.1301 54.4688C47.1432 54.0936 47.163 53.7186 47.1862 53.3438C45.7767 52.9793 44.3054 52.7568 42.7912 52.704C40.6237 52.6283 38.5247 52.8971 36.5431 53.4551C34.4424 57.1349 33.1747 61.3572 33.0168 65.8795C32.6092 77.5512 39.6723 87.7493 49.9125 91.8734C53.8302 90.2392 57.1352 87.4164 59.37 83.8351Z" fill="#4C555D"/>
<path d="M59.3691 83.839C61.1987 80.9111 62.308 77.4784 62.4372 73.7801C62.7769 64.0516 56.2369 55.6829 47.1852 53.3477C47.1621 53.7225 47.1423 54.0975 47.1292 54.4727C46.7257 66.0268 51.4997 76.5609 59.3691 83.839Z" fill="#394650"/>
<path d="M61.4256 26C56.2703 30.13 52.1995 35.5757 49.7365 41.8491C48.3264 45.4424 47.4403 49.3022 47.1816 53.3482C56.2333 55.6835 62.7733 64.0522 62.4336 73.7807C62.3044 77.4789 61.1919 80.9082 59.3655 83.8396C62.8128 87.029 66.8524 89.5883 71.3126 91.3406C80.2649 87.2025 86.6165 78.2978 86.9841 67.7654C87.2226 60.9413 84.6008 54.8595 80.8959 49.7258C76.9835 44.2965 61.4256 26 61.4256 26Z" fill="#2A3741"/>
</svg>
