<svg width="120" height="120" viewBox="0 0 120 120" fill="none" xmlns="http://www.w3.org/2000/svg">
<rect x="0.5" y="0.5" width="119" height="119" rx="23.5" fill="#182128"/>
<rect x="0.5" y="0.5" width="119" height="119" rx="23.5" stroke="#2C3944"/>
<path d="M30 26H90L82.9412 86L60 93.0588L35.2941 86L30 26Z" fill="#2A3741"/>
<path d="M84.0529 31.2969L78.0882 81.9616L60 87.5204V31.2969H84.0529Z" fill="#394650"/>
<path d="M59.999 54.2339L61.7637 57.7633L59.999 61.2927H43.7461L45.2461 38.3516H59.999L61.7637 41.881L59.999 45.4104H52.9932L52.4108 54.2339H59.999Z" fill="#182128"/>
<path d="M59.8247 74.6506L60.0012 74.5977L61.7659 78.9389L60.0012 81.9742L59.8953 82.0095L45.1953 77.8095L44.207 66.5859H51.3012L51.7953 72.3565L59.8247 74.6506Z" fill="#182128"/>
<path d="M76.0059 54.2344L73.2353 77.9167L60 81.9756V74.5991L66.7588 72.5167L68.0647 61.2932H60V54.2344H76.0059Z" fill="#182128"/>
<path d="M77.5059 48.9398H70.4647L70.0059 45.4104H60V38.3516H76.1118L76.4118 40.5751L77.5059 48.9398Z" fill="#182128"/>
</svg>
