<svg width="120" height="120" viewBox="0 0 120 120" fill="none" xmlns="http://www.w3.org/2000/svg">
<rect x="0.5" y="0.5" width="119" height="119" rx="23.5" fill="#182128"/>
<rect x="0.5" y="0.5" width="119" height="119" rx="23.5" stroke="#2C3944"/>
<path d="M66 56H44V61.6213H51.8907V87H58.1425V61.6213H66V56Z" fill="#182128"/>
<path d="M86.5431 63.0368C86.5431 63.0368 83.3951 60.9787 79.8365 60.9787C76.278 60.9787 74.9973 62.6362 74.9973 64.4077C74.9973 68.9799 88 68.5223 88 77.7235C88 91.8975 68.1744 85.6108 68.1744 85.6108V78.8113C68.1744 78.8113 71.9655 81.6119 76.5123 81.6119C81.0591 81.6119 80.8865 78.6974 80.8865 78.2968C80.8865 74.0683 68 74.0683 68 64.6944C68 51.9501 86.7757 56.978 86.7757 56.978L86.5431 63.0368Z" fill="#182128"/>
<path d="M90 49.1667C90 83.3333 60 93.6667 60 93.6667C60 93.6667 30 83.3333 30 49.1667C30 45 30.3333 41.5 30.6667 38.6667C31.1667 34.5 34 31.1667 38 30.1667C43.1667 28.6667 51.3333 27 60 27C68.6667 27 76.8333 28.6667 82.1667 30.1667C86.1667 31.1667 89 34.6667 89.5 38.6667C89.6667 41.5 90 45.1667 90 49.1667Z" fill="#182128"/>
<path d="M60 32C68.1667 32 75.8333 33.6667 80.8333 35C82.8333 35.5 84.1667 37.1667 84.5 39.3333C84.8333 42.5 85 45.8333 85 49.1667C85 75.1667 65.8333 85.6667 60 88.1667C54.1667 85.5 35 75 35 49.1667C35 45.8333 35.1667 42.5 35.5 39.3333C35.6667 37.1667 37.1667 35.5 39.1667 35C44.1667 33.6667 51.8333 32 60 32ZM60 27C51.3333 27 43.1667 28.6667 37.8333 30.1667C34 31.1667 31 34.6667 30.6667 38.6667C30.3333 41.5 30 45.1667 30 49.1667C30 83.3333 60 93.6667 60 93.6667C60 93.6667 90 83.3333 90 49.1667C90 45 89.6667 41.5 89.3333 38.6667C88.8333 34.5 86 31.1667 82 30.1667C76.8333 28.6667 68.6667 27 60 27Z" fill="#2A3741"/>
<path d="M58.334 67H61.6673V80.3333H58.334V67Z" fill="#262F35"/>
<path d="M60 37C60 37 50 45.3333 50 58.6667C50 67.3333 55.5 72.8333 58.3333 75.3333L60 70.3333L61.6667 75.3333C64.5 72.8333 70 67.3333 70 58.6667C70 45.3333 60 37 60 37Z" fill="#2A3741"/>
<path d="M60 37C60 37 50 45.3333 50 58.6667C50 67.3333 55.5 72.8333 58.3333 75.3333L60 70.3333V37Z" fill="#394650"/>
</svg>
