<svg width="120" height="120" viewBox="0 0 120 120" fill="none" xmlns="http://www.w3.org/2000/svg">
<rect x="0.5" y="0.5" width="119" height="119" rx="23.5" fill="#182128"/>
<rect x="0.5" y="0.5" width="119" height="119" rx="23.5" stroke="#2C3944"/>
<path d="M47.6159 53.464L38.3131 58.5953C37.9642 58.7862 37.75 59.1415 37.75 59.5252V69.7935C37.75 70.1772 37.9642 70.5306 38.3131 70.7234L47.6178 75.8586C47.9647 76.0494 48.3951 76.0494 48.742 75.8586L58.0449 70.7234C58.3899 70.5306 58.6042 70.1772 58.6042 69.7935V59.5252C58.6042 59.1415 58.3899 58.7881 58.0411 58.5953L48.7401 53.464C48.5657 53.3676 48.3705 53.3203 48.1771 53.3203C47.9818 53.3203 47.7884 53.3676 47.614 53.464H47.6159ZM95.48 62.7079L93.9292 63.5622C93.8705 63.5943 93.8363 63.6529 93.8363 63.7172V65.4295C93.8363 65.4938 93.8724 65.5524 93.9292 65.5845L95.48 66.4407C95.5388 66.4728 95.6089 66.4728 95.6677 66.4407L97.2185 65.5845C97.2754 65.5524 97.3114 65.4938 97.3114 65.4295V63.7172C97.3114 63.6529 97.2754 63.5943 97.2166 63.5622L95.6658 62.7079C95.6374 62.6909 95.6051 62.6834 95.5729 62.6834C95.5407 62.6834 95.5085 62.6909 95.48 62.7079Z" fill="#4C555D"/>
<path d="M82.7786 42.5775L78.2494 40.0582C78.1073 39.9788 77.9328 39.9807 77.7925 40.0638C77.6523 40.147 77.565 40.2963 77.565 40.4588L77.5632 55.6771L73.3866 53.3732C73.2122 53.2768 73.0169 53.2296 72.8236 53.2296C72.6302 53.2296 72.4349 53.2768 72.2605 53.3732H72.2624L62.9595 58.5045C62.6107 58.6954 62.3965 59.0508 62.3965 59.4325V69.7009C62.3965 70.0846 62.6107 70.438 62.9595 70.6308L72.2643 75.7659C72.6112 75.9568 73.0416 75.9568 73.3885 75.7659L82.6914 70.6308C83.0364 70.4399 83.2507 70.0846 83.2507 69.7009V43.3789C83.2507 43.0462 83.0686 42.7401 82.7786 42.5775ZM77.3091 67.3252L73.0814 69.6593C72.924 69.7463 72.7288 69.7463 72.5714 69.6593L68.3418 67.3252C68.1807 67.2382 68.084 67.0757 68.084 66.9018V62.2335C68.084 62.0596 68.1807 61.899 68.3399 61.8102L72.5695 59.4779H72.5676C72.6473 59.4344 72.7345 59.4136 72.8236 59.4136C72.9127 59.4136 72.9999 59.4363 73.0795 59.4779L77.3072 61.8102C77.4665 61.899 77.5632 62.0615 77.5632 62.2354V66.9037C77.5632 67.0757 77.4665 67.2382 77.3091 67.3252Z" fill="#2A3741"/>
<path d="M47.6159 53.464L37.75 69.7935C37.75 70.1772 37.9642 70.5306 38.3131 70.7234L47.6178 75.8586C47.9647 76.0494 48.3951 76.0494 48.742 75.8586L58.6042 59.5252C58.6042 59.1415 58.3899 58.7881 58.0411 58.5953L48.7401 53.464C48.5657 53.3676 48.3705 53.3203 48.1771 53.3203C47.9818 53.3203 47.7884 53.3676 47.614 53.464" fill="#394650"/>
<path d="M47.6159 53.464L38.3131 58.5953C37.9642 58.7862 37.75 59.1415 37.75 59.5252L47.6159 75.8586C47.9629 76.0494 48.3932 76.0494 48.7401 75.8586L58.043 70.7234C58.3899 70.5306 58.6042 70.1772 58.6042 69.7935L48.7401 53.464C48.5657 53.3676 48.3705 53.3203 48.1771 53.3203C47.9818 53.3203 47.7884 53.3676 47.614 53.464" fill="#2A3741"/>
<path d="M105.437 58.5055L96.136 53.3741C95.9616 53.2777 95.7663 53.2305 95.5729 53.2305C95.3795 53.2305 95.1843 53.2777 95.0099 53.3741H95.0117L85.7089 58.5055C85.362 58.6963 85.1458 59.0592 85.1458 59.4561V69.6829C85.1458 70.0779 85.362 70.4427 85.7089 70.6336L95.0137 75.7687C95.3625 75.9615 95.789 75.9615 96.1379 75.7687L100.428 73.4005C100.821 73.1832 100.819 72.6219 100.424 72.4064L91.0893 67.328C90.9319 67.2391 90.8333 67.0747 90.8333 66.8971V62.2363C90.8333 62.0624 90.9281 61.9018 91.0798 61.8186L95.317 59.4826H95.3151C95.3947 59.4391 95.4819 59.4183 95.571 59.4183C95.6601 59.4183 95.7473 59.441 95.827 59.4826L100.064 61.8205C100.216 61.9037 100.311 62.0643 100.311 62.2382V66.0409C100.311 66.2034 100.398 66.3546 100.54 66.4359C100.682 66.5153 100.857 66.5153 100.999 66.434L105.545 63.8012C105.826 63.6387 106 63.3382 106 63.0131V59.4599C106 59.0611 105.784 58.6963 105.437 58.5055ZM35.2911 58.5055L25.9901 53.3741C25.8157 53.2777 25.6205 53.2305 25.4271 53.2305C25.2337 53.2305 25.0384 53.2777 24.864 53.3741H24.8659L15.5631 58.5055C15.2161 58.6963 15 59.0592 15 59.4561V73.565C15 73.7275 15.0872 73.8787 15.2294 73.96C15.3716 74.0394 15.546 74.0394 15.6882 73.9581L20.2344 71.3253C20.515 71.1628 20.6875 70.8623 20.6875 70.5372V62.2344C20.6875 62.0605 20.7823 61.8999 20.934 61.8167L25.1711 59.4807C25.2508 59.4372 25.338 59.4164 25.4271 59.4164C25.5162 59.4164 25.6034 59.4391 25.683 59.4807L29.9202 61.8186C30.0719 61.9018 30.1667 62.0624 30.1667 62.2363V70.5391C30.1667 70.8642 30.3392 71.1647 30.6217 71.3272L35.1679 73.96C35.3101 74.0413 35.4845 74.0413 35.6267 73.9619C35.767 73.8787 35.8542 73.7275 35.8542 73.565V59.458C35.8542 59.0611 35.638 58.6963 35.2911 58.5055Z" fill="#2A3741"/>
</svg>
