<svg width="120" height="120" viewBox="0 0 120 120" fill="none" xmlns="http://www.w3.org/2000/svg">
<rect x="0.5" y="0.5" width="119" height="119" rx="23.5" fill="#182128"/>
<rect x="0.5" y="0.5" width="119" height="119" rx="23.5" stroke="#2C3944"/>
<path d="M66 56H44V61.6213H51.8907V87H58.1425V61.6213H66V56Z" fill="#182128"/>
<path d="M60.8147 28.0001C58.1958 28.0085 56.3803 28.2393 54.1859 28.6182C47.7053 29.7466 46.5247 32.1162 46.5247 36.4832V43.1574H61.682V46.5257H45.9487H38.6227C34.1833 46.5257 30.2979 48.6174 29.0668 53.6311C27.6757 59.3859 27.6134 62.9899 29.0668 68.999C30.1699 73.4805 32.6002 76.8404 37.0413 76.8404H43.1581V68.2445C43.1581 63.2493 47.6817 58.3148 52.8655 58.3148H65.052C69.3011 58.3148 73.4727 55.1789 73.4727 50.9432V36.4832C73.4727 32.3755 70.5103 29.3037 66.369 28.6148C66.4717 28.6047 63.4116 27.99 60.8147 28.0001ZM52.4209 34.7367C53.8036 34.7367 54.9471 35.8769 54.9471 37.2663C54.9471 38.6692 53.8036 39.7891 52.4209 39.7891C51.0112 39.7891 49.8947 38.6709 49.8947 37.2663C49.8947 35.8819 51.0112 34.7367 52.4209 34.7367Z" fill="#2A3741"/>
<path d="M59.1834 91.9965C61.8023 91.9881 63.6178 91.7573 65.8122 91.3784C72.2928 90.25 73.4734 87.8804 73.4734 83.5134V76.8392H58.3161V73.4709H74.0511H81.3771C85.8165 73.4709 89.7018 71.3792 90.933 66.3655C92.3241 60.6107 92.3864 57.0067 90.933 50.9976C89.8282 46.5161 87.3979 43.1562 82.9568 43.1562H76.84V51.7521C76.84 56.7473 72.3164 61.6819 67.1326 61.6819H54.9461C50.697 61.6819 46.5254 64.8177 46.5254 69.0534V83.5134C46.5254 87.6211 49.4878 90.693 53.6291 91.3818C53.5264 91.3919 56.5865 92.0066 59.1834 91.9965ZM67.5789 85.2599C66.1962 85.2599 65.0527 84.1197 65.0527 82.7303C65.0527 81.3274 66.1962 80.2075 67.5789 80.2075C68.9885 80.2075 70.1051 81.3257 70.1051 82.7303C70.1051 84.1147 68.9868 85.2599 67.5789 85.2599Z" fill="#394650"/>
</svg>
