<svg width="120" height="120" viewBox="0 0 120 120" fill="none" xmlns="http://www.w3.org/2000/svg">
<rect x="0.5" y="0.5" width="119" height="119" rx="23.5" fill="#182128"/>
<rect x="0.5" y="0.5" width="119" height="119" rx="23.5" stroke="#2C3944"/>
<path d="M66 56H44V61.6213H51.8907V87H58.1425V61.6213H66V56Z" fill="#182128"/>
<path d="M86.5431 63.0368C86.5431 63.0368 83.3951 60.9787 79.8365 60.9787C76.278 60.9787 74.9973 62.6362 74.9973 64.4077C74.9973 68.9799 88 68.5223 88 77.7235C88 91.8975 68.1744 85.6108 68.1744 85.6108V78.8113C68.1744 78.8113 71.9655 81.6119 76.5123 81.6119C81.0591 81.6119 80.8865 78.6974 80.8865 78.2968C80.8865 74.0683 68 74.0683 68 64.6944C68 51.9501 86.7757 56.978 86.7757 56.978L86.5431 63.0368Z" fill="#182128"/>
<path d="M60.0497 28.1395L57.7115 24.2982C57.2104 23.4631 56.2084 23.4631 55.7073 24.2982L53.3691 28.1395M53.3691 89.2664L55.7073 93.1077C56.2084 93.9428 57.2104 93.9428 57.7115 93.1077L60.0497 89.2664" fill="#2A3741"/>
<path d="M65.9482 29.3765L64.4043 25.1528C64.0758 24.2361 63.093 24.0406 62.4387 24.7618L59.396 28.0732M47.4707 88.0255L49.0146 92.2492C49.3431 93.166 50.3259 93.3615 50.9802 92.6402L54.0229 89.3288" fill="#2A3741"/>
<path d="M71.4897 31.7427L70.7995 27.299C70.6561 26.3357 69.7303 25.9522 68.9479 26.532L65.3177 29.1861M41.9254 85.66L42.6156 90.1037C42.7589 91.067 43.6847 91.4504 44.4672 90.8707L48.0974 88.2166" fill="#2A3741"/>
<path d="M76.4652 35.1449L76.6552 30.652C76.7025 29.6793 75.8693 29.1226 74.9888 29.5385L70.9105 31.4334M36.9502 82.2586L36.7602 86.7515C36.7129 87.7242 37.5461 88.281 38.4266 87.865L42.5049 85.9701" fill="#2A3741"/>
<path d="M80.682 39.4532L81.7448 35.0837C81.981 34.1389 81.2724 33.4303 80.3277 33.6665L75.9581 34.7294M32.7349 77.9526L31.672 82.3222C31.4358 83.267 32.1444 83.9756 33.0891 83.7394L37.4587 82.6765" fill="#2A3741"/>
<path d="M83.9773 44.5055L85.8722 40.4272C86.2882 39.5467 85.7314 38.7135 84.7587 38.7608L80.2658 38.9508M29.4406 72.9111L27.5457 76.9894C27.1297 77.8699 27.6865 78.7031 28.6592 78.6558L33.1521 78.4658" fill="#2A3741"/>
<path d="M86.22 50.0926L88.8741 46.4624C89.4539 45.68 89.0704 44.7542 88.1072 44.6108L83.6635 43.9206M27.1896 67.3129L24.5355 70.9431C23.9557 71.7256 24.3392 72.6514 25.3024 72.7947L29.7461 73.4849" fill="#2A3741"/>
<path d="M87.3337 56.0175L90.645 52.9748C91.3663 52.3205 91.1708 51.3377 90.254 51.0092L86.0303 49.4653M26.078 61.3906L22.7666 64.4333C22.0454 65.0876 22.2409 66.0704 23.1576 66.3989L27.3813 67.9428" fill="#2A3741"/>
<path d="M87.2687 62.0399L91.11 59.7017C91.9451 59.2007 91.9451 58.1986 91.11 57.6976L87.2687 55.3594M26.1418 55.3594L22.3005 57.6976C21.4654 58.1986 21.4654 59.2007 22.3005 59.7017L26.1418 62.0399" fill="#2A3741"/>
<path d="M86.0298 67.9423L90.2534 66.3984C91.1702 66.0699 91.3657 65.0871 90.6444 64.4328L87.3331 61.3901M27.3807 49.4649L23.157 51.0087C22.2403 51.3372 22.0448 52.32 22.766 52.9744L26.0774 56.017" fill="#2A3741"/>
<path d="M83.6636 73.4858L88.1073 72.7956C89.0705 72.6522 89.454 71.7264 88.8742 70.944L86.2201 67.3138M29.7462 43.9215L25.3025 44.6117C24.3393 44.755 23.9558 45.6808 24.5356 46.4633L27.1897 50.0935" fill="#2A3741"/>
<path d="M80.2613 78.4632L84.7543 78.6532C85.727 78.7005 86.2837 77.8673 85.8677 76.9868L83.9728 72.9086M33.1477 38.9483L28.6547 38.7583C27.682 38.7109 27.1253 39.5441 27.5412 40.4247L29.4361 44.5029" fill="#2A3741"/>
<path d="M75.955 82.6742L80.3245 83.737C81.2693 83.9732 81.9779 83.2646 81.7417 82.3199L80.6788 77.9503M37.4556 34.727L33.086 33.6642C32.1412 33.428 31.4326 34.1366 31.6688 35.0813L32.7317 39.4509" fill="#2A3741"/>
<path d="M70.9086 85.9734L74.9868 87.8683C75.8674 88.2843 76.7006 87.7275 76.6532 86.7548L76.4632 82.2619M42.5029 31.4367L38.4247 29.5418C37.5442 29.1258 36.711 29.6826 36.7583 30.6553L36.9483 35.1482" fill="#2A3741"/>
<path d="M65.3175 88.222L68.9477 90.8761C69.7302 91.4558 70.656 91.0724 70.7993 90.1091L71.4895 85.6654M48.0973 29.1915L44.4671 26.5374C43.6846 25.9576 42.7588 26.3411 42.6155 27.3044L41.9253 31.7481" fill="#2A3741"/>
<path d="M59.3926 89.3317L62.4353 92.643C63.0896 93.3643 64.0725 93.1688 64.401 92.252L65.9448 88.0284M54.0196 28.076L50.9769 24.7647C50.3226 24.0434 49.3397 24.2389 49.0112 25.1557L47.4674 29.3793" fill="#2A3741"/>
<path d="M39.8366 31.8164C33.5818 35.742 28.8919 41.7262 26.575 48.7379C24.258 55.7497 24.4591 63.35 27.1436 70.2295L32.488 67.5573C31.066 63.6605 30.6076 59.4776 31.1519 55.3653L35.3273 53.1941C36.3294 52.6931 36.8304 51.691 36.1623 50.6889L34.3252 46.3466C36.5981 42.1001 40.0106 38.5719 44.179 36.1588M29.4818 49.8539C30.3169 47.1816 34.3252 48.6848 33.4901 51.19C32.6551 53.6952 28.6467 52.5261 29.4818 49.8539Z" fill="#2A3741"/>
<path d="M77.0678 34.3513C71.4015 29.6157 64.261 27.0046 56.8764 26.9678C49.4918 26.931 42.3256 29.4709 36.6125 34.1499L40.8054 38.4069C44.072 35.8504 47.9086 34.1218 51.9878 33.3687L55.3429 36.6688C56.1291 37.467 57.237 37.6338 57.9836 36.6888L61.5457 33.5997C66.2867 34.4491 70.6968 36.6043 74.2799 39.823M56.7134 30.0772C59.5129 30.0456 59.3219 34.3222 56.6813 34.3022C54.0407 34.2822 53.9139 30.1087 56.7134 30.0772Z" fill="#2A3741"/>
<path d="M86.1564 70.5493C88.9093 63.697 89.1861 56.099 86.9391 49.0645C84.6921 42.03 80.0621 35.9994 73.8466 32.0117L71.0936 37.315C74.5345 39.6317 77.364 42.7463 79.3408 46.3931L77.2391 50.6039C76.7229 51.5982 76.9065 52.7034 78.036 53.1214L82.0747 55.5546C82.7319 60.3261 82.0449 65.1863 80.091 69.5887M83.9315 49.8703C84.8266 52.523 80.7003 53.663 79.9034 51.1454C79.1064 48.6278 83.0364 47.2176 83.9315 49.8703Z" fill="#2A3741"/>
<path d="M54.547 90.3764C61.9147 90.8771 69.2263 88.7924 75.2222 84.4817C81.2181 80.1709 85.5227 73.9039 87.3946 66.7604L81.5001 65.7809C80.3601 69.7693 78.2723 73.4228 75.4148 76.4297L70.7607 75.732C69.6555 75.5484 68.6611 76.0646 68.6126 77.268L67.5465 81.8608C63.2117 83.9604 58.3771 84.8089 53.5864 84.311M73.5264 81.8703C71.2802 83.5413 68.9209 79.9692 71.069 78.4333C73.2171 76.8974 75.7727 80.1992 73.5264 81.8703Z" fill="#2A3741"/>
<path d="M25.9194 66.4377C27.72 73.5995 31.962 79.9091 37.9147 84.2794C43.8673 88.6497 51.1578 90.807 58.5301 90.3798L57.6401 84.4712C53.4947 84.6194 49.3748 83.7628 45.632 81.9744L44.8573 77.3325C44.6905 76.2246 43.8923 75.4384 42.7328 75.7641L38.0353 76.1695C34.699 72.6956 32.398 68.3599 31.3911 63.6498M39.8742 81.8596C37.5908 80.2397 40.259 76.892 42.3836 78.4604C44.5081 80.0287 42.1576 83.4796 39.8742 81.8596Z" fill="#2A3741"/>
<path d="M79.2533 60.3755C79.2533 60.3755 79.9213 65.7199 76.247 65.7199C72.5727 65.7199 75.2449 61.7116 69.0654 57.2022C69.0654 57.2022 74.2429 55.031 74.2429 49.3526C74.2429 43.6741 67.5623 41.3359 64.7231 41.3359H33.4916V49.0186H39.337V65.5529H30.6523V73.7365H57.3745V65.7199H50.861V61.0435H57.5415C64.3891 61.0435 59.7127 73.7365 67.5623 73.7365H84.0966V60.3755M50.861 54.029V49.0186H59.8797C63.554 49.0186 63.721 54.029 59.8797 54.029" fill="#2A3741"/>
</svg>
