<svg width="120" height="120" viewBox="0 0 120 120" fill="none" xmlns="http://www.w3.org/2000/svg">
<rect x="0.5" y="0.5" width="119" height="119" rx="23.5" fill="#182128"/>
<rect x="0.5" y="0.5" width="119" height="119" rx="23.5" stroke="#2C3944"/>
<path d="M66 56H44V61.6213H51.8907V87H58.1425V61.6213H66V56Z" fill="#182128"/>
<path d="M86.5431 63.0368C86.5431 63.0368 83.3951 60.9787 79.8365 60.9787C76.278 60.9787 74.9973 62.6362 74.9973 64.4077C74.9973 68.9799 88 68.5223 88 77.7235C88 91.8975 68.1744 85.6108 68.1744 85.6108V78.8113C68.1744 78.8113 71.9655 81.6119 76.5123 81.6119C81.0591 81.6119 80.8865 78.6974 80.8865 78.2968C80.8865 74.0683 68 74.0683 68 64.6944C68 51.9501 86.7757 56.978 86.7757 56.978L86.5431 63.0368Z" fill="#182128"/>
<path d="M81.666 51.7003C79.1662 50.8393 76.9596 49.2912 75.2993 47.2336C73.4695 44.941 71.1395 43.0974 68.4877 41.8437C65.8358 40.59 62.9323 39.9594 59.9993 40.0003C56.0539 39.7209 52.148 40.9378 49.0594 43.4086C45.9708 45.8795 43.9262 49.4231 43.3327 53.3336C44.5016 51.3778 46.2609 49.8432 48.3573 48.9507C50.4538 48.0582 52.7794 47.8538 54.9993 48.3669C57.495 49.253 59.698 50.81 61.366 52.8669C63.2059 55.1412 65.5403 56.9658 68.1916 58.2019C70.8429 59.438 73.7412 60.0531 76.666 60.0003C80.6115 60.2797 84.5174 59.0628 87.606 56.5919C90.6946 54.121 92.7392 50.5775 93.3327 46.6669C92.185 48.6462 90.4313 50.2039 88.3306 51.1103C86.2298 52.0166 83.8933 52.2234 81.666 51.7003ZM38.3327 68.3003C40.8325 69.1612 43.0391 70.7093 44.6993 72.7669C46.5292 75.0595 48.8592 76.9031 51.511 78.1569C54.1629 79.4106 57.0664 80.0411 59.9993 80.0003C63.9448 80.2797 67.8507 79.0628 70.9393 76.5919C74.0279 74.121 76.0725 70.5775 76.666 66.6669C75.4971 68.6228 73.7378 70.1574 71.6414 71.0499C69.5449 71.9424 67.2193 72.1467 64.9993 71.6336C62.5037 70.7476 60.3007 69.1905 58.6327 67.1336C56.7879 64.865 54.4525 63.0444 51.8024 61.8088C49.1522 60.5732 46.2564 59.9549 43.3327 60.0003C39.3872 59.7209 35.4813 60.9377 32.3927 63.4086C29.3041 65.8795 27.2595 69.423 26.666 73.3336C27.8137 71.3544 29.5674 69.7966 31.6681 68.8903C33.7689 67.9839 36.1054 67.7771 38.3327 68.3003Z" fill="#2A3741"/>
</svg>
