<svg width="120" height="120" viewBox="0 0 120 120" fill="none" xmlns="http://www.w3.org/2000/svg">
<rect x="0.5" y="0.5" width="119" height="119" rx="23.5" fill="#182128"/>
<rect x="0.5" y="0.5" width="119" height="119" rx="23.5" stroke="#2C3944"/>
<path d="M83 29H37C32.5817 29 29 32.5817 29 37V83C29 87.4183 32.5817 91 37 91H83C87.4183 91 91 87.4183 91 83V37C91 32.5817 87.4183 29 83 29Z" fill="#2A3741"/>
<path d="M66 56H44V61.6213H51.8907V87H58.1425V61.6213H66V56Z" fill="#182128"/>
<path d="M86.5431 63.0368C86.5431 63.0368 83.3951 60.9787 79.8365 60.9787C76.278 60.9787 74.9973 62.6362 74.9973 64.4077C74.9973 68.9799 88 68.5223 88 77.7235C88 91.8975 68.1744 85.6108 68.1744 85.6108V78.8113C68.1744 78.8113 71.9655 81.6119 76.5123 81.6119C81.0591 81.6119 80.8865 78.6974 80.8865 78.2968C80.8865 74.0683 68 74.0683 68 64.6944C68 51.9501 86.7757 56.978 86.7757 56.978L86.5431 63.0368Z" fill="#182128"/>
</svg>
