<svg width="40" height="50" viewBox="0 0 40 50" fill="none" xmlns="http://www.w3.org/2000/svg">
<path d="M22.6282 37.0665L18.7739 38.3522C17.919 38.6407 16.3842 38.2958 15.5622 38.0338L11.4038 36.2728L8.56254 34.8106C6.8686 33.838 4.31192 32.0394 4.63771 29.2543C4.72774 28.4845 5.02648 27.6845 5.52228 27.187C5.68878 27.02 5.90211 26.9 6.04558 26.7037C6.61891 25.9188 6.90579 25.3233 7.66341 24.6238C6.55091 23.0493 6.35979 21.5494 7.21754 19.7483C7.30066 19.5737 7.3896 19.3434 7.51379 19.2099C7.79754 18.905 7.87391 19.1844 8.17985 18.6281C8.66979 17.7373 9.30741 16.9829 9.92604 16.2313C11.6397 14.1493 13.4437 12.3978 15.5181 10.8805L17.2175 9.71313C18.0699 9.18935 18.8845 8.74452 19.8417 8.63488C21.6194 8.58655 22.8374 9.39364 24.4425 10.2281L33.8084 15.1474C34.053 15.2882 34.2481 15.6253 34.1116 15.9623C33.9466 16.3697 33.4998 16.4373 33.1872 16.5785C32.4741 17.8484 32.3308 20.7496 32.8549 22.0715C33.0223 22.4938 33.3682 23.3105 33.8315 23.1564C34.0186 23.0942 34.1874 22.9662 34.3805 22.9273C34.782 22.8461 35.1443 23.2447 34.982 23.7511C34.84 24.194 33.5657 24.4957 33.1922 24.7018C32.7872 24.9253 32.5944 26.357 32.5207 26.8316C32.2901 28.318 32.1852 30.3708 33.2318 31.4681C33.5184 31.7686 34.0994 31.202 34.5408 31.1431C35.0635 31.0734 35.3185 31.9158 34.8213 32.2527C34.5381 32.4447 34.176 32.5469 33.8687 32.6815L31.8442 33.5628L22.6282 37.0665ZM20.0598 9.77081C17.7941 10.0128 13.7969 13.5392 12.1502 15.283C11.1195 16.3745 10.1544 17.5747 9.2376 18.8106L12.1937 20.1171L17.2967 22.57C17.7179 22.7686 18.2844 23.2104 18.733 22.9597L20.657 21.7947L32.5097 15.7945C31.9481 15.4259 31.3589 15.1422 30.7764 14.8296L23.772 11.1686C22.7517 10.6425 21.1858 9.65831 20.0598 9.77081ZM31.8701 17.3841C31.4763 17.5167 31.0962 17.7044 30.7144 17.8816L22.1716 22.2403L19.9951 23.5141C19.6254 23.7334 19.238 24.0166 18.8474 24.1659L18.8137 24.1798C18.3455 24.3612 18.2393 23.9703 17.9692 24.5245C17.535 25.4158 17.2182 26.4795 17.4927 27.5164C17.6602 28.1491 18.1052 28.844 18.5935 29.1376C19.104 29.4445 20.7577 28.7411 21.3036 28.5508L25.7796 26.7935L32.0259 23.9537L32.5934 23.6865C32.5177 23.54 32.407 23.4129 32.3261 23.2658C31.9239 22.5343 31.6799 21.7929 31.6157 20.9109C31.3099 21.042 31.0085 21.2343 30.7115 21.3948L20.449 26.7722C20.1447 26.9255 19.8305 27.1281 19.5135 27.2293C18.8027 27.4561 18.6175 26.4771 19.3709 26.048L30.368 20.2808C30.7793 20.0512 31.1899 19.791 31.617 19.6099C31.6446 19.121 31.6768 18.6352 31.7505 18.1531L31.823 17.737C31.8464 17.6286 31.8885 17.515 31.8947 17.403L31.8701 17.3841ZM8.6136 19.9878C7.83891 20.1778 7.51766 21.3659 7.66091 22.2252C7.93241 23.8536 9.16623 24.6201 10.2649 25.2682L12.9505 26.6791L16.6938 28.4544L16.7869 28.4981C16.7826 28.3569 16.6749 28.1745 16.6328 28.0357C16.2157 26.6608 16.4677 24.9017 17.2423 23.7927C16.928 23.6833 16.6214 23.5287 16.3175 23.3814L10.055 20.3974C9.60766 20.2036 9.09435 19.9481 8.6136 19.9878ZM31.7689 25.3096L28.8634 26.5647L25.5467 28.1982L19.9517 30.3263C18.7313 30.8207 17.5559 31.4698 16.2995 31.8206L16.2914 31.8551C16.2094 32.1954 16.063 32.5167 15.9589 32.8485C15.505 34.2936 15.7653 36.0338 16.7485 37.0297C17.9084 37.4085 18.6331 37.1998 19.7549 36.8337L26.8027 34.3029L31.2565 32.5512L32.4132 32.0775C31.915 31.4554 31.6704 30.6952 31.4989 29.8695L19.713 34.3372C19.1317 34.5599 18.5323 34.8221 17.9356 34.9673C17.5394 35.0637 17.1118 34.7046 17.3373 34.1793C17.4886 33.8269 17.8846 33.7409 18.1686 33.6475L27.246 30.2663L31.1814 28.6989C31.2642 28.6677 31.3437 28.6622 31.4178 28.602C31.4349 27.5981 31.5389 26.5718 31.7755 25.6077C31.7909 25.5451 31.862 25.3398 31.8357 25.2956L31.7689 25.3096ZM8.37035 25.3566L7.25198 26.7056C8.15648 26.9406 9.02723 27.3845 9.89335 27.7754L15.1714 30.0977C15.6456 30.2829 16.0843 30.4344 16.5866 30.4115C16.9834 30.3707 17.3276 30.239 17.7019 30.0794C16.2242 29.5844 14.8021 28.8545 13.3797 28.1624L10.3863 26.6413C9.68791 26.2539 9.01854 25.8617 8.37035 25.3566ZM6.68129 27.8875C5.83363 28.1144 5.44508 29.1461 5.62503 30.1469C5.95893 32.004 7.75854 33.0866 9.04904 33.8072L11.219 34.9086L15.0534 36.5961L15.3332 36.7189C14.4731 35.2013 14.6207 32.9787 15.4462 31.4768L8.5856 28.4677C7.97966 28.1946 7.34054 27.8361 6.68129 27.8875Z" fill="#83F3D3"/>
</svg>
