<svg width="40" height="40" viewBox="0 0 40 40" fill="none" xmlns="http://www.w3.org/2000/svg">
<g clip-path="url(#clip0_4360_33353)">
<path d="M31.332 19.3359H8.66536C7.92898 19.3359 7.33203 19.9329 7.33203 20.6693V34.0026C7.33203 34.739 7.92898 35.3359 8.66536 35.3359H31.332C32.0684 35.3359 32.6654 34.739 32.6654 34.0026V20.6693C32.6654 19.9329 32.0684 19.3359 31.332 19.3359Z" stroke="#83F3D3" stroke-linecap="round" stroke-linejoin="round"/>
<path d="M17.3327 27.3346H22.666M9.99935 27.3346H11.9993M13.9993 27.3346H15.3327M9.99935 24.668H11.9993M24.666 27.3346H26.666M28.666 27.3346H29.9993M27.9993 24.668H29.9993M9.99935 22.0013H11.3327M29.3327 22.0013H29.9993M4.66602 7.0013C4.66602 6.38246 4.91185 5.78897 5.34943 5.35139C5.78702 4.9138 6.38051 4.66797 6.99935 4.66797H32.9993C33.6182 4.66797 34.2117 4.9138 34.6493 5.35139C35.0868 5.78897 35.3327 6.38246 35.3327 7.0013C35.3314 7.21793 35.3 7.43334 35.2393 7.6413L33.0793 15.2146C32.9606 15.6325 32.709 16.0004 32.3626 16.2626C32.0162 16.5249 31.5938 16.6671 31.1593 16.668H8.83935C8.40489 16.6671 7.98252 16.5249 7.63611 16.2626C7.2897 16.0004 7.0381 15.6325 6.91935 15.2146L4.75935 7.65464C4.69744 7.44238 4.66602 7.2224 4.66602 7.0013Z" stroke="#83F3D3" stroke-linecap="round" stroke-linejoin="round"/>
<path d="M13.3327 22.6693C13.7009 22.6693 13.9993 22.3708 13.9993 22.0026C13.9993 21.6344 13.7009 21.3359 13.3327 21.3359C12.9645 21.3359 12.666 21.6344 12.666 22.0026C12.666 22.3708 12.9645 22.6693 13.3327 22.6693Z" fill="#83F3D3"/>
<path d="M15.3327 22.6693C15.7009 22.6693 15.9993 22.3708 15.9993 22.0026C15.9993 21.6344 15.7009 21.3359 15.3327 21.3359C14.9645 21.3359 14.666 21.6344 14.666 22.0026C14.666 22.3708 14.9645 22.6693 15.3327 22.6693Z" fill="#83F3D3"/>
<path d="M17.3327 22.6693C17.7009 22.6693 17.9993 22.3708 17.9993 22.0026C17.9993 21.6344 17.7009 21.3359 17.3327 21.3359C16.9645 21.3359 16.666 21.6344 16.666 22.0026C16.666 22.3708 16.9645 22.6693 17.3327 22.6693Z" fill="#83F3D3"/>
<path d="M19.3327 22.6693C19.7009 22.6693 19.9993 22.3708 19.9993 22.0026C19.9993 21.6344 19.7009 21.3359 19.3327 21.3359C18.9645 21.3359 18.666 21.6344 18.666 22.0026C18.666 22.3708 18.9645 22.6693 19.3327 22.6693Z" fill="#83F3D3"/>
<path d="M21.3327 22.6693C21.7009 22.6693 21.9993 22.3708 21.9993 22.0026C21.9993 21.6344 21.7009 21.3359 21.3327 21.3359C20.9645 21.3359 20.666 21.6344 20.666 22.0026C20.666 22.3708 20.9645 22.6693 21.3327 22.6693Z" fill="#83F3D3"/>
<path d="M23.3327 22.6693C23.7009 22.6693 23.9993 22.3708 23.9993 22.0026C23.9993 21.6344 23.7009 21.3359 23.3327 21.3359C22.9645 21.3359 22.666 21.6344 22.666 22.0026C22.666 22.3708 22.9645 22.6693 23.3327 22.6693Z" fill="#83F3D3"/>
<path d="M25.3327 22.6693C25.7009 22.6693 25.9993 22.3708 25.9993 22.0026C25.9993 21.6344 25.7009 21.3359 25.3327 21.3359C24.9645 21.3359 24.666 21.6344 24.666 22.0026C24.666 22.3708 24.9645 22.6693 25.3327 22.6693Z" fill="#83F3D3"/>
<path d="M27.3327 22.6693C27.7009 22.6693 27.9993 22.3708 27.9993 22.0026C27.9993 21.6344 27.7009 21.3359 27.3327 21.3359C26.9645 21.3359 26.666 21.6344 26.666 22.0026C26.666 22.3708 26.9645 22.6693 27.3327 22.6693Z" fill="#83F3D3"/>
<path d="M13.9987 25.3333C14.3669 25.3333 14.6654 25.0349 14.6654 24.6667C14.6654 24.2985 14.3669 24 13.9987 24C13.6305 24 13.332 24.2985 13.332 24.6667C13.332 25.0349 13.6305 25.3333 13.9987 25.3333Z" fill="#83F3D3"/>
<path d="M15.9987 25.3333C16.3669 25.3333 16.6654 25.0349 16.6654 24.6667C16.6654 24.2985 16.3669 24 15.9987 24C15.6305 24 15.332 24.2985 15.332 24.6667C15.332 25.0349 15.6305 25.3333 15.9987 25.3333Z" fill="#83F3D3"/>
<path d="M17.9987 25.3333C18.3669 25.3333 18.6654 25.0349 18.6654 24.6667C18.6654 24.2985 18.3669 24 17.9987 24C17.6305 24 17.332 24.2985 17.332 24.6667C17.332 25.0349 17.6305 25.3333 17.9987 25.3333Z" fill="#83F3D3"/>
<path d="M19.9987 25.3333C20.3669 25.3333 20.6654 25.0349 20.6654 24.6667C20.6654 24.2985 20.3669 24 19.9987 24C19.6305 24 19.332 24.2985 19.332 24.6667C19.332 25.0349 19.6305 25.3333 19.9987 25.3333Z" fill="#83F3D3"/>
<path d="M21.9987 25.3333C22.3669 25.3333 22.6654 25.0349 22.6654 24.6667C22.6654 24.2985 22.3669 24 21.9987 24C21.6305 24 21.332 24.2985 21.332 24.6667C21.332 25.0349 21.6305 25.3333 21.9987 25.3333Z" fill="#83F3D3"/>
<path d="M23.9987 25.3333C24.3669 25.3333 24.6654 25.0349 24.6654 24.6667C24.6654 24.2985 24.3669 24 23.9987 24C23.6305 24 23.332 24.2985 23.332 24.6667C23.332 25.0349 23.6305 25.3333 23.9987 25.3333Z" fill="#83F3D3"/>
<path d="M25.9987 25.3333C26.3669 25.3333 26.6654 25.0349 26.6654 24.6667C26.6654 24.2985 26.3669 24 25.9987 24C25.6305 24 25.332 24.2985 25.332 24.6667C25.332 25.0349 25.6305 25.3333 25.9987 25.3333Z" fill="#83F3D3"/>
<path d="M17.9987 34.6667H21.9987M15.332 35.3333V30H24.6654V35.3333" stroke="#83F3D3" stroke-linecap="round" stroke-linejoin="round"/>
</g>
<defs>
<clipPath id="clip0_4360_33353">
<rect width="32" height="32" fill="white" transform="translate(4 4)"/>
</clipPath>
</defs>
</svg>
