<svg width="40" height="40" viewBox="0 0 40 40" fill="none" xmlns="http://www.w3.org/2000/svg">
<path d="M28.3062 35.625H11.6562C10.7125 35.625 10 34.825 10 33.7625V6.0875C10 5.14375 10.7437 4.375 11.6562 4.375H28.3062C29.2188 4.375 29.9625 5.14375 29.9625 6.0875V33.9125C29.9625 34.8563 29.2188 35.625 28.3062 35.625ZM11.6562 5C11.0875 5 10.625 5.4875 10.625 6.0875V33.7563C10.625 34.475 11.0562 34.9937 11.6562 34.9937H28.3062C28.875 34.9937 29.3375 34.5063 29.3375 33.9062V6.0875C29.3375 5.4875 28.875 5 28.3062 5H11.6562Z" fill="#83F3D3"/>
<path d="M29.6875 30.5953H10.3125C10.1375 30.5953 10 30.4578 10 30.2828C10 30.1078 10.1375 29.9703 10.3125 29.9703H29.6875C29.8625 29.9703 29.9375 30.1078 29.9375 30.2828C29.9375 30.4578 29.8625 30.5953 29.6875 30.5953ZM29.6875 10.0328H10.3125C10.1375 10.0328 10 9.89531 10 9.72031C10 9.54531 10.1375 9.40781 10.3125 9.40781H29.6875C29.8625 9.40781 29.9375 9.54531 29.9375 9.72031C29.9375 9.89531 29.8625 10.0328 29.6875 10.0328ZM19.9812 34.1766C19.2562 34.1766 18.6687 33.5891 18.6687 32.8641C18.6687 32.1391 19.2562 31.5516 19.9812 31.5516C20.7063 31.5516 21.2938 32.1391 21.2938 32.8641C21.2938 33.5891 20.7063 34.1766 19.9812 34.1766ZM19.9812 32.1766C19.6 32.1766 19.2937 32.4828 19.2937 32.8641C19.2937 33.2453 19.6 33.5516 19.9812 33.5516C20.3625 33.5516 20.6688 33.2453 20.6688 32.8641C20.6688 32.4828 20.3562 32.1766 19.9812 32.1766ZM22.075 7.63281H17.8875C17.7125 7.63281 17.575 7.49531 17.575 7.32031C17.575 7.14531 17.7125 7.00781 17.8875 7.00781H22.075C22.25 7.00781 22.3875 7.14531 22.3875 7.32031C22.3875 7.49531 22.2438 7.63281 22.075 7.63281ZM27.4375 25.4828C27.4125 25.4828 27.3875 25.4828 27.3625 25.4766C26.7437 25.3328 26.1375 25.1516 25.5438 24.9766C23.2688 24.3078 21.3063 23.7328 20.2563 25.3391C20.2 25.4203 20.1125 25.4766 20.0063 25.4828C19.9062 25.4891 19.8062 25.4453 19.7437 25.3641C19.0625 24.5016 18.1812 24.1266 16.9937 24.1891C15.9375 24.2453 14.6063 24.6328 12.675 25.4578C12.5688 25.5016 12.45 25.4891 12.3625 25.4203C12.275 25.3516 12.225 25.2391 12.2437 25.1266L13.45 16.3578C13.4625 16.2516 13.5312 16.1641 13.625 16.1203C15.3812 15.3016 17.5 14.6516 19.9563 16.0266C21.725 14.6328 23.9813 15.2703 26.325 16.1141C26.4375 16.1516 26.5125 16.2516 26.5312 16.3641L27.75 25.1328C27.7625 25.2328 27.725 25.3391 27.65 25.4078C27.5875 25.4578 27.5125 25.4828 27.4375 25.4828ZM22.2875 23.6766C23.325 23.6766 24.5063 24.0203 25.7188 24.3766C26.1562 24.5078 26.6125 24.6391 27.0625 24.7578L25.9438 16.6328C23.7688 15.8578 21.7 15.3203 20.2 16.6391C20.1 16.7266 19.95 16.7453 19.8313 16.6703C17.6125 15.3453 15.6687 15.8766 14.0437 16.6141L12.9375 24.6703C16.0625 23.3891 18.3687 22.9891 19.9688 24.6703C20.6 23.9391 21.3938 23.6766 22.2875 23.6766Z" fill="#83F3D3"/>
<path d="M20.0004 25.4813C19.8254 25.4813 19.6879 25.3438 19.6879 25.1688V16.4062C19.6879 16.2313 19.8254 16.0938 20.0004 16.0938C20.1754 16.0938 20.3129 16.2313 20.3129 16.4062V25.175C20.3129 25.3437 20.1754 25.4813 20.0004 25.4813ZM18.0254 19.2937H15.1504C14.9754 19.2937 14.8379 19.1562 14.8379 18.9812C14.8379 18.8062 14.9754 18.6687 15.1504 18.6687H18.0254C18.2004 18.6687 18.3379 18.8062 18.3379 18.9812C18.3379 19.1562 18.1941 19.2937 18.0254 19.2937ZM18.0254 20.8687H15.1504C14.9754 20.8687 14.8379 20.7312 14.8379 20.5562C14.8379 20.3812 14.9754 20.2437 15.1504 20.2437H18.0254C18.2004 20.2437 18.3379 20.3812 18.3379 20.5562C18.3379 20.7312 18.1941 20.8687 18.0254 20.8687ZM24.8629 19.2937H21.9879C21.8129 19.2937 21.6754 19.1562 21.6754 18.9812C21.6754 18.8062 21.8129 18.6687 21.9879 18.6687H24.8629C25.0379 18.6687 25.1754 18.8062 25.1754 18.9812C25.1754 19.1562 25.0316 19.2937 24.8629 19.2937ZM24.8629 20.8687H21.9879C21.8129 20.8687 21.6754 20.7312 21.6754 20.5562C21.6754 20.3812 21.8129 20.2437 21.9879 20.2437H24.8629C25.0379 20.2437 25.1754 20.3812 25.1754 20.5562C25.1754 20.7312 25.0316 20.8687 24.8629 20.8687Z" fill="#83F3D3"/>
</svg>
