<svg width="420" height="420" viewBox="0 0 420 420" fill="none" xmlns="http://www.w3.org/2000/svg">
<path d="M372.053 373.52C372.78 370.192 373.187 366.744 373.187 363.201C373.187 336.606 351.62 315.056 325.032 315.056C313.86 315.056 303.606 318.895 295.429 325.285C292.89 317.698 285.741 312.223 277.308 312.223C271.247 312.223 266.39 315.411 262.41 319.382C257.099 324.695 246.578 319.848 244.911 318.748C237.238 313.721 224.436 303.678 224.436 260.177L224.377 251.691C224.377 246.964 226.368 244.624 229.041 244.152C232.109 243.61 234.585 241.329 234.585 238.161L234.581 238.127C240.352 237.923 244.974 233.223 244.974 227.4C244.973 225.988 244.695 224.589 244.154 223.285C243.612 221.98 242.82 220.795 241.82 219.797C240.821 218.799 239.635 218.008 238.33 217.468C237.025 216.928 235.626 216.651 234.214 216.652C232.701 216.655 231.207 216.979 229.829 217.603C228.452 218.228 227.223 219.139 226.225 220.275C225.943 219.521 225.437 218.871 224.776 218.411C224.115 217.952 223.33 217.705 222.525 217.702C221.009 217.702 219.707 218.565 219.043 219.817C218.53 218.863 217.768 218.065 216.839 217.508C215.91 216.951 214.847 216.655 213.764 216.652C212.658 216.654 211.574 216.962 210.632 217.541C209.69 218.12 208.926 218.949 208.426 219.935C207.308 219.418 206.092 219.148 204.86 219.143C203.73 219.143 202.612 219.366 201.568 219.799C200.525 220.231 199.577 220.865 198.778 221.664C197.98 222.463 197.346 223.411 196.914 224.455C196.482 225.499 196.26 226.617 196.26 227.747C196.26 228.876 196.482 229.995 196.914 231.038C197.346 232.082 197.98 233.031 198.778 233.83C199.577 234.628 200.525 235.262 201.568 235.695C202.612 236.127 203.73 236.35 204.86 236.35C204.923 236.35 204.973 236.336 205.034 236.336C204.963 236.613 204.86 236.873 204.86 237.169C204.86 238.856 206.006 240.145 207.491 240.735C208.984 241.329 209.948 242.936 209.948 244.673V274.377C209.948 291.36 207.823 303.132 202.1 311.264C200.097 314.111 197.344 316.528 193.612 316.528C192.21 316.534 190.824 316.228 189.554 315.632C188.285 315.036 187.164 314.165 186.273 313.082C186.296 313.124 186.313 313.164 186.336 313.21C181.911 305.991 173.967 301.156 164.88 301.156C156.547 301.156 149.183 305.218 144.596 311.459C135.643 305.499 125.126 302.324 114.371 302.334C84.1455 302.334 59.6406 326.833 59.6406 357.058C59.6406 387.286 84.1455 411.789 114.371 411.789C126.45 411.789 137.574 407.826 146.627 401.202C147.572 411.742 156.415 419.997 167.194 419.997C169.908 419.998 172.595 419.464 175.103 418.426C177.61 417.387 179.888 415.865 181.807 413.946C183.726 412.027 185.248 409.749 186.286 407.242C187.325 404.735 187.859 402.047 187.858 399.333C187.858 398.149 187.739 396.986 187.545 395.856C191.909 397.96 196.691 399.056 201.536 399.06C210.381 399.06 218.382 395.516 224.234 389.783C224.23 389.944 224.19 390.102 224.19 390.27C224.19 393.623 225.522 396.839 227.894 399.211C230.265 401.582 233.481 402.914 236.834 402.914C240.188 402.914 243.208 401.591 245.474 399.464C249.344 411.379 260.522 419.993 273.731 419.993C285.095 419.993 294.954 413.609 299.96 404.239C307.499 408.883 316.178 411.343 325.032 411.343C337.307 411.343 348.477 406.709 356.982 399.144C359.335 400.631 362.06 401.423 364.844 401.431C366.804 401.432 368.745 401.046 370.556 400.297C372.367 399.547 374.013 398.448 375.399 397.062C376.785 395.676 377.884 394.031 378.635 392.22C379.385 390.41 379.771 388.469 379.771 386.509C379.773 380.898 376.634 376.065 372.053 373.52Z" fill="white"/>
<path d="M312.707 158.326C311.807 157.421 310.736 156.703 309.557 156.215C308.377 155.726 307.112 155.477 305.836 155.481C304.559 155.477 303.294 155.727 302.115 156.216C300.935 156.704 299.864 157.421 298.963 158.326C298.058 159.228 297.34 160.3 296.852 161.48C296.364 162.661 296.115 163.926 296.119 165.204V201.828H315.561V165.204C315.563 163.926 315.311 162.66 314.822 161.479C314.332 160.299 313.613 159.227 312.707 158.326Z" fill="#CCCBCA"/>
<path d="M296.116 201.826H315.558V210.905H296.116V201.826ZM246.707 106.934V201.826H296.116L296.114 176.229C268.822 176.229 246.707 145.204 246.707 106.934Z" fill="#477C70"/>
<path d="M140.475 158.326C139.575 157.422 138.504 156.704 137.325 156.216C136.146 155.728 134.882 155.478 133.606 155.481C132.329 155.476 131.065 155.726 129.885 156.214C128.706 156.703 127.635 157.42 126.735 158.326C125.828 159.227 125.11 160.299 124.62 161.479C124.13 162.66 123.879 163.925 123.881 165.204V201.828H143.327V165.204C143.329 163.926 143.078 162.66 142.589 161.48C142.099 160.299 141.381 159.227 140.475 158.326Z" fill="#CCCBCA"/>
<path d="M123.879 201.826H143.325V210.905H123.879V201.826ZM192.732 106.934V201.826H143.325V176.229C170.617 176.229 192.732 145.204 192.732 106.934Z" fill="#477C70"/>
<path d="M219.72 0C202.703 24.6687 192.73 54.5475 192.73 86.7699V201.827H246.709V86.7699C246.746 55.775 237.33 25.5058 219.72 0Z" fill="#E6E5E5"/>
<path d="M219.721 0C213.141 9.54656 207.668 19.81 203.406 30.5928H236.026C231.765 19.8115 226.295 9.54832 219.721 0Z" fill="#83F3D3"/>
<path d="M192.73 183.676H246.709V201.828H192.73V183.676Z" fill="#CCCBCA"/>
<path d="M238.256 219.981H201.181L192.73 201.828H246.707L238.256 219.981Z" fill="#477C70"/>
<path d="M237.567 76.4239C237.567 81.1569 235.686 85.6961 232.34 89.0428C228.993 92.3895 224.454 94.2697 219.721 94.2697C214.988 94.2697 210.449 92.3895 207.102 89.0428C203.755 85.6961 201.875 81.1569 201.875 76.4239C201.875 74.0804 202.337 71.7598 203.233 69.5946C204.13 67.4295 205.445 65.4622 207.102 63.805C208.759 62.1479 210.726 60.8334 212.892 59.9366C215.057 59.0397 217.377 58.5781 219.721 58.5781C222.064 58.5781 224.385 59.0397 226.55 59.9366C228.715 60.8334 230.683 62.1479 232.34 63.805C233.997 65.4622 235.311 67.4295 236.208 69.5946C237.105 71.7598 237.567 74.0804 237.567 76.4239Z" fill="#CCCBCA"/>
<path d="M219.719 88.9155C226.619 88.9155 232.212 83.3222 232.212 76.4226C232.212 69.5229 226.619 63.9297 219.719 63.9297C212.82 63.9297 207.227 69.5229 207.227 76.4226C207.227 83.3222 212.82 88.9155 219.719 88.9155Z" fill="#477C70"/>
<path d="M346.918 264.905C346.918 267.89 346.033 270.808 344.374 273.29C342.716 275.772 340.359 277.707 337.601 278.849C334.843 279.991 331.808 280.29 328.881 279.708C325.953 279.126 323.264 277.688 321.153 275.577C319.042 273.467 317.605 270.777 317.022 267.85C316.44 264.922 316.739 261.887 317.881 259.129C319.024 256.372 320.958 254.014 323.44 252.356C325.922 250.698 328.84 249.813 331.825 249.813C333.807 249.812 335.77 250.202 337.602 250.96C339.433 251.719 341.097 252.83 342.499 254.232C343.9 255.633 345.012 257.297 345.77 259.129C346.528 260.96 346.918 262.923 346.918 264.905Z" fill="#83F3D3"/>
<path d="M84.864 113.669C90.2211 113.669 94.5639 109.327 94.5639 103.969C94.5639 98.6123 90.2211 94.2695 84.864 94.2695C79.5069 94.2695 75.1641 98.6123 75.1641 103.969C75.1641 109.327 79.5069 113.669 84.864 113.669Z" fill="#83F3D3"/>
<path d="M128.417 264.905C131.989 264.905 134.885 262.009 134.885 258.437C134.885 254.865 131.989 251.969 128.417 251.969C124.845 251.969 121.949 254.865 121.949 258.437C121.949 262.009 124.845 264.905 128.417 264.905Z" fill="#83F3D3"/>
<path d="M283.727 24.8252C288.99 24.8252 293.257 20.5586 293.257 15.2954C293.257 10.0323 288.99 5.76562 283.727 5.76562C278.464 5.76562 274.197 10.0323 274.197 15.2954C274.197 20.5586 278.464 24.8252 283.727 24.8252Z" fill="#83F3D3"/>
<path d="M10.5256 222.993C12.7327 222.993 14.5219 221.203 14.5219 218.996C14.5219 216.789 12.7327 215 10.5256 215C8.3185 215 6.5293 216.789 6.5293 218.996C6.5293 221.203 8.3185 222.993 10.5256 222.993Z" fill="#83F3D3"/>
<path d="M413.471 119.258C403.332 119.258 395.119 127.49 395.119 137.604C395.119 127.49 386.918 119.258 376.777 119.258C386.918 119.258 395.119 111.022 395.119 100.917C395.117 111.022 403.332 119.258 413.471 119.258ZM320.768 88.909C317.623 88.9112 314.607 90.1618 312.382 92.386C310.158 94.6102 308.908 97.6263 308.905 100.772C308.903 97.6274 307.654 94.6123 305.431 92.3882C303.208 90.1642 300.193 88.9129 297.049 88.909C300.192 88.9068 303.206 87.6572 305.429 85.4346C307.652 83.2119 308.903 80.198 308.905 77.0545C308.908 80.1991 310.159 83.214 312.384 85.4368C314.608 87.6596 317.624 88.9084 320.768 88.909ZM397.416 241.01C395.964 241.012 394.571 241.589 393.544 242.616C392.517 243.644 391.939 245.036 391.937 246.489C391.937 245.036 391.36 243.643 390.333 242.616C389.306 241.589 387.913 241.011 386.461 241.01C387.913 241.009 389.306 240.431 390.333 239.404C391.36 238.376 391.937 236.984 391.937 235.531C391.938 236.984 392.515 238.377 393.543 239.405C394.57 240.432 395.963 241.009 397.416 241.01ZM49.8347 151.485C39.7148 151.485 31.5059 159.71 31.5059 169.805C31.5059 159.71 23.3012 151.485 13.1855 151.485C23.2991 151.485 31.5059 143.257 31.5059 133.156C31.5059 143.257 39.7148 151.485 49.8347 151.485ZM88.6449 47.4466C86.0735 47.4477 83.6077 48.4691 81.7887 50.2865C79.9697 52.1039 78.9462 54.5688 78.9428 57.1402C78.9395 54.5681 77.9154 52.1025 76.0955 50.285C74.2756 48.4675 71.8087 47.4466 69.2366 47.4466C71.8104 47.4438 74.2779 46.42 76.0976 44.5999C77.9174 42.7798 78.9406 40.312 78.9428 37.7383C78.9451 40.3113 79.9678 42.7784 81.7866 44.5984C83.6054 46.4184 86.0718 47.4427 88.6449 47.4466ZM401.452 297.147C398.93 297.148 396.511 298.15 394.726 299.933C392.942 301.717 391.939 304.135 391.937 306.658C391.937 304.135 390.934 301.716 389.15 299.933C387.366 298.149 384.947 297.147 382.424 297.147C384.947 297.145 387.366 296.142 389.15 294.358C390.934 292.574 391.936 290.155 391.937 287.632C391.939 290.155 392.942 292.574 394.726 294.358C396.51 296.142 398.929 297.145 401.452 297.147ZM61.5611 278.127C50.1623 278.127 40.9202 287.39 40.9202 298.764C40.9202 287.39 31.6844 278.127 20.2772 278.127C31.6844 278.127 40.9202 268.862 40.9202 257.489C40.9202 268.862 50.1623 278.127 61.5611 278.127Z" fill="#E6E5E5"/>
</svg>
