<svg width="175" height="119" viewBox="0 0 175 119" fill="none" xmlns="http://www.w3.org/2000/svg">
<path opacity="0.28" d="M63.8411 56.1685C63.8411 56.1685 57.6773 50.0338 51.5371 32.8922C54.547 13.4583 74.5019 8.80637 90.9515 12.8818C97.5287 24.0755 101.743 37.0263 101.743 37.0263L63.8411 56.1685Z" fill="#84F4DD"/>
<path d="M68.2533 36.9956L67.3422 37.0224L66.873 32.7494L67.7841 32.7227L68.2533 36.9956Z" fill="#B1B2B2"/>
<path d="M70.1381 38.6363L69.227 38.663L68.7578 34.39L69.6689 34.3633L70.1381 38.6363Z" fill="#B1B2B2"/>
<g style="mix-blend-mode:soft-light" opacity="0.44">
<path d="M68.2535 36.9956L67.8123 37.0085L67.3418 32.7357L67.7847 32.7227L68.2535 36.9956Z" fill="black"/>
</g>
<g style="mix-blend-mode:soft-light" opacity="0.44">
<path d="M70.1402 38.6361L69.6973 38.6492L69.2285 34.3762L69.6697 34.3633L70.1402 38.6361Z" fill="black"/>
</g>
<path d="M68.9366 47.926C68.9343 47.9623 68.932 47.9969 68.9297 48.0316C68.9245 48.0844 68.9193 48.1373 68.9124 48.1869C68.9103 48.2119 68.9065 48.2368 68.9011 48.2613C68.8956 48.3043 68.8884 48.3473 68.8795 48.3871C68.871 48.4364 68.8594 48.4852 68.8448 48.5331C68.8446 48.5412 68.8426 48.5491 68.8388 48.5563C68.8295 48.5958 68.8176 48.6347 68.8032 48.6726C68.8016 48.6802 68.799 48.6874 68.7954 48.6942C68.783 48.7324 68.7682 48.7696 68.7511 48.8059C68.7501 48.8118 68.7479 48.8174 68.7448 48.8225C68.6141 49.1113 68.4107 49.3132 68.1203 49.4041C67.9126 49.4695 67.7149 49.5263 67.5255 49.5763C66.3148 49.8985 65.4959 49.9406 65.0195 49.9184C64.9345 49.6541 64.8541 49.3782 64.7787 49.0938C64.323 47.4028 64.0298 45.4006 63.8398 43.5387C64.0131 43.4101 64.263 43.2232 64.6263 42.954C64.5029 41.9053 64.4899 40.7891 64.4899 40.7891L65.3557 40.2367L66.0461 39.7948L66.606 39.4375C66.606 39.4375 68.0776 42.795 68.685 45.6229C68.8687 46.4738 68.9741 47.2776 68.9366 47.926Z" fill="#B1B2B2"/>
<g style="mix-blend-mode:soft-light" opacity="0.44">
<path d="M68.7455 48.8225C67.3381 49.2361 66.4036 49.2882 65.8828 49.264C65.2877 47.4238 64.9251 45.0598 64.7031 42.8842C64.8764 42.7556 65.1263 42.5688 65.4895 42.2996C65.3891 41.4396 65.3607 40.5363 65.3564 40.2367L66.6067 39.4375C66.6067 39.4375 69.7537 46.6191 68.7455 48.8225Z" fill="black"/>
</g>
<path d="M73.5689 37.7339L73.535 49.1774C73.5316 49.3933 73.4662 49.6036 73.3467 49.7833C73.2272 49.963 73.0587 50.1044 72.8612 50.1907C72.052 50.5562 70.5844 51.0822 68.8675 51.0584C68.6454 51.0566 68.4286 50.9906 68.243 50.8683C68.0574 50.746 67.911 50.5726 67.8214 50.369C67.7168 50.1194 67.6184 49.8549 67.526 49.5756C67.4768 49.4359 67.4307 49.2903 67.3876 49.1447C67.2368 48.6544 67.1045 48.1314 66.9876 47.5846C66.4184 45.0053 66.1599 41.9654 66.0461 39.7961V39.7932C65.9999 38.9819 65.9784 38.2955 65.963 37.7992C65.9588 37.5441 66.0415 37.2952 66.1976 37.0937C66.3537 36.8921 66.5738 36.75 66.8215 36.6908C66.9815 36.6492 67.1384 36.6136 67.2922 36.5839C67.4491 36.5482 67.6029 36.5185 67.7568 36.4947C67.9045 36.468 68.0491 36.4442 68.1907 36.4264C68.4583 36.3907 68.7199 36.3639 68.9721 36.3491C69.1321 36.3372 69.286 36.3283 69.4398 36.3253C69.5906 36.3164 69.7383 36.3164 69.8829 36.3164C70.1567 36.3164 70.4182 36.3253 70.6675 36.3432C70.9936 36.3639 71.2951 36.3966 71.5751 36.4353C72.012 36.4947 72.3905 36.572 72.6951 36.6433C72.9422 36.6995 73.163 36.8379 73.3217 37.0359C73.4803 37.2339 73.5675 37.4799 73.5689 37.7339Z" fill="#B1B2B2"/>
<path d="M67.4541 39.9066C67.4817 40.783 68.2395 41.4728 69.1481 41.4462C70.0555 41.4195 70.7698 40.6864 70.7422 39.81C70.7288 39.4117 70.5633 39.0338 70.2799 38.7542C70.1183 38.5937 69.9257 38.468 69.7139 38.3848C69.5021 38.3016 69.2755 38.2627 69.0481 38.2705C68.1985 38.2955 67.5199 38.937 67.459 39.7378C67.4535 39.7939 67.4519 39.8503 67.4541 39.9066Z" fill="#65B0A1"/>
<path opacity="0.11" d="M67.459 39.7378C67.6207 39.898 67.8133 40.0236 68.0251 40.1068C68.2369 40.1899 68.4634 40.2289 68.6907 40.2214C69.539 40.1965 70.2189 39.5537 70.2798 38.7542C70.1182 38.5937 69.9256 38.468 69.7138 38.3848C69.502 38.3016 69.2754 38.2627 69.0481 38.2705C68.1985 38.2955 67.5198 38.937 67.459 39.7378Z" fill="white"/>
<path d="M71.544 43.6825C71.5288 43.8601 71.4441 44.0245 71.3085 44.1398C71.1729 44.2552 70.9973 44.3121 70.8199 44.2983C69.4327 44.2155 67.6457 44.7011 67.6271 44.7066C67.5728 44.7212 67.517 44.7294 67.4608 44.7312C67.3465 44.7352 67.2332 44.7102 67.1311 44.6586C67.0096 44.6016 66.9087 44.5082 66.8424 44.3912C66.7761 44.2743 66.7477 44.1396 66.761 44.0058C66.7744 43.872 66.829 43.7457 66.9171 43.6442C67.0052 43.5428 67.1226 43.4713 67.253 43.4396C67.3342 43.4175 69.28 42.8861 70.9047 42.9849C71.008 42.9905 71.1087 43.0192 71.1994 43.069C71.2901 43.1188 71.3685 43.1883 71.4288 43.2725C71.5121 43.3923 71.5526 43.5367 71.544 43.6825Z" fill="#65B0A1"/>
<g style="mix-blend-mode:soft-light" opacity="0.44">
<path d="M71.544 43.6821C71.5288 43.8597 71.4442 44.0241 71.3085 44.1395C71.1729 44.2548 70.9973 44.3118 70.8199 44.2979C69.4327 44.2151 67.6457 44.7007 67.6271 44.7062C67.5728 44.7208 67.517 44.7291 67.4608 44.7309C67.3466 44.7348 67.2332 44.7098 67.1311 44.6582C67.0896 44.6007 67.0581 44.5364 67.0382 44.4683C67.0145 44.3841 67.0079 44.296 67.0188 44.2091C67.0296 44.1223 67.0577 44.0386 67.1014 43.9628C67.1452 43.8871 67.2036 43.8209 67.2732 43.7682C67.3429 43.7154 67.4224 43.6772 67.5071 43.6558C67.5882 43.632 69.5341 43.1022 71.1588 43.1994C71.2526 43.2058 71.3443 43.2305 71.4288 43.2722C71.5121 43.3919 71.5527 43.5364 71.544 43.6821Z" fill="black"/>
</g>
<path d="M70.7629 50.1954C70.3302 50.295 69.8905 50.3608 69.4476 50.3921C69.2902 50.4037 69.1333 50.3634 69.0008 50.2776C68.8682 50.1917 68.7672 50.0649 68.7131 49.9163C68.7112 49.9115 68.7093 49.9049 68.7074 49.9C68.4709 49.2104 68.3157 48.3981 68.2356 47.913C68.2126 47.7713 68.2337 47.626 68.2962 47.4968C68.3587 47.3677 68.4594 47.261 68.5846 47.1913C69.0328 46.947 69.5244 46.7933 70.0317 46.7388C70.0894 46.7305 70.1489 46.7238 70.2101 46.7187C70.3988 46.6991 70.5877 46.7548 70.7357 46.8737C70.8837 46.9927 70.979 47.1653 71.0008 47.3542C71.0698 48.0834 71.2082 48.85 71.3133 49.3723C71.3482 49.5545 71.31 49.7431 71.2069 49.8972C71.1039 50.0513 70.9443 50.1585 70.7629 50.1954Z" fill="#65B0A1"/>
<path d="M68.3987 47.981C68.4706 48.4166 68.6113 49.1518 68.8255 49.7705C68.8738 49.9033 68.9639 50.0167 69.0823 50.0935C69.2007 50.1702 69.3409 50.2062 69.4816 50.1959C69.8772 50.1668 70.2701 50.1079 70.6569 50.0195C70.8188 49.9862 70.9612 49.8903 71.0532 49.7527C71.1452 49.615 71.1795 49.4466 71.1486 49.2838C71.025 48.6882 70.9316 48.0867 70.8688 47.4816C70.8493 47.3129 70.7643 47.1587 70.6321 47.0524C70.5 46.9461 70.3315 46.8962 70.1629 46.9135C69.4769 46.9763 69.0025 47.1704 68.7104 47.3366C68.5986 47.3988 68.5087 47.4941 68.4529 47.6094C68.3971 47.7247 68.3782 47.8545 68.3987 47.981Z" fill="#83CCBD"/>
<path opacity="0.11" d="M70.1502 47.4709C70.1854 48.5881 69.5763 49.5513 68.7074 49.8996C68.4709 49.2099 68.3157 48.3976 68.2356 47.9125C68.2126 47.7709 68.2337 47.6255 68.2962 47.4963C68.3587 47.3672 68.4594 47.2605 68.5846 47.1908C69.0328 46.9465 69.5244 46.7928 70.0317 46.7383C70.1026 46.9763 70.1425 47.2226 70.1502 47.4709Z" fill="white"/>
<g style="mix-blend-mode:soft-light" opacity="0.44">
<path d="M73.5697 37.7344L73.5359 49.178C73.5324 49.3939 73.467 49.6042 73.3476 49.7839C73.2281 49.9635 73.0596 50.105 72.8621 50.1913C72.0529 50.5568 70.5852 51.0828 68.8684 51.059C68.6463 51.0572 68.4294 50.9912 68.2438 50.8689C68.0583 50.7466 67.9119 50.5732 67.8223 50.3696C67.7177 50.12 67.6192 49.8555 67.5269 49.5762C66.3146 49.9001 65.4962 49.9417 65.0193 49.9179C64.9331 49.6564 64.8531 49.3801 64.7793 49.0948C65.0882 48.9427 65.3882 48.7731 65.6777 48.5866H65.6808C66.1446 48.2912 66.5821 47.9562 66.9884 47.5852C67.6287 47.0007 68.1977 46.3424 68.6837 45.624C68.6837 45.621 68.6868 45.621 68.6868 45.618C68.9508 45.2257 69.1765 44.8087 69.3607 44.3729C69.5195 44.0048 69.6572 43.6277 69.7729 43.2437C69.7976 43.1635 69.8222 43.0833 69.8437 43.0001C70.0346 42.3287 70.1826 41.6459 70.2868 40.9556C70.3883 40.3197 70.4621 39.6808 70.5175 39.0598C70.6037 38.0821 70.6406 37.149 70.6683 36.3438C70.9944 36.3645 71.296 36.3972 71.576 36.4359C72.0129 36.4953 72.3913 36.5725 72.6959 36.6439C72.943 36.7001 73.1639 36.8385 73.3225 37.0365C73.4812 37.2345 73.5683 37.4805 73.5697 37.7344Z" fill="black"/>
</g>
<path d="M79.0465 32.4615C79.0465 32.4615 81.2137 34.3316 85.9092 34.8142C91.2668 34.4824 92.7116 33.6379 92.7116 33.6379C92.7116 33.6379 93.5544 37.2272 91.5076 38.5544C89.4609 39.8815 82.3575 38.9967 81.8357 38.9163C81.314 38.8359 79.1384 37.9428 79.0465 37.4283C78.9547 36.9138 75.6152 30.6719 75.6152 30.6719" fill="#D1DEDB"/>
<g style="mix-blend-mode:soft-light" opacity="0.44">
<path d="M91.5078 38.5536C89.4617 39.8794 82.3573 38.9976 81.8373 38.9143C81.3143 38.8342 79.139 37.9431 79.0467 37.4282C78.9544 36.9225 75.7207 30.867 75.6191 30.6758L79.0467 32.461C79.0467 32.461 80.2282 33.4785 82.7389 34.2092C83.185 34.8999 83.8034 35.7971 84.2496 36.201C84.8126 36.7098 87.7448 35.2946 89.3294 34.4744C91.92 34.0982 92.7108 33.6358 92.7108 33.6358C92.7108 33.6358 93.5539 37.2278 91.5078 38.5536Z" fill="black"/>
</g>
<path d="M96.203 38.5526C96.0245 39.7304 95.3384 41.4354 95.3384 41.4354L94.8184 42.8352L75.4961 52.489C75.4961 52.489 72.0039 48.5054 71.1609 43.2268C70.3178 37.9482 71.8223 31.2976 71.8223 31.2976L71.6131 31.313C71.6131 31.313 77.0591 26.5771 78.7175 30.7395C78.856 31.0848 79.0067 31.4271 79.1729 31.7662C80.9882 35.4847 84.225 38.5526 84.225 38.5526C84.225 38.5526 87.6556 37.6769 91.1478 35.7776C92.0493 31.8865 93.3754 32.6696 94.3385 34.3285C95.5415 34.0294 96.8645 34.0571 97.4368 35.2658C98.0091 36.4713 98.2491 37.2267 96.203 38.5526Z" fill="#D1DEDB"/>
<path d="M75.9461 35.4141C76.6212 35.7255 77.2933 36.0347 77.9705 36.3311C78.6495 36.623 79.3275 36.9141 80.0141 37.1831C80.6984 37.4585 81.3939 37.7008 82.0912 37.941C82.4421 38.0531 82.7927 38.1698 83.1501 38.2619C83.5022 38.3785 83.8646 38.4478 84.2233 38.551C83.4807 38.4876 82.7449 38.3597 82.0244 38.1686C81.3038 37.9772 80.5949 37.7439 79.9014 37.4698C79.2107 37.1908 78.529 36.8894 77.8693 36.5443C77.2055 36.2078 76.5632 35.8303 75.9461 35.4141ZM90.95 44.7668C89.7395 45.4061 88.4605 45.9328 87.1117 46.2424C86.7737 46.3233 86.4302 46.3783 86.0839 46.407C85.7323 46.4438 85.3774 46.436 85.0277 46.3838C84.3491 46.2493 83.6807 46.0668 83.0277 45.8379C81.7368 45.37 80.4716 44.834 79.2372 44.2321C78.0045 43.6324 76.791 42.9945 75.6152 42.2909C76.8507 42.8812 78.0875 43.4642 79.3365 44.0169C80.5865 44.5655 81.8396 45.1114 83.1281 45.5468C83.7633 45.7793 84.4141 45.9668 85.0757 46.1078C85.7178 46.2163 86.4035 46.125 87.0645 46.0112C87.7318 45.8831 88.3894 45.7081 89.0322 45.4876C89.6828 45.2819 90.3159 45.0256 90.95 44.7668Z" fill="#9FADAA"/>
<path d="M90.3512 45.0446C89.2528 45.5286 86.8806 46.4536 85.1883 46.2748C83.8807 46.0497 82.1146 45.3806 80.4531 44.653C81.5977 43.3673 85.3422 40.0774 90.3512 45.0446Z" fill="#65B0A1"/>
<g style="mix-blend-mode:soft-light" opacity="0.44">
<path d="M96.203 38.5526C96.0245 39.7304 95.3384 41.4354 95.3384 41.4354L94.8184 42.8352L75.4961 52.489C75.4961 52.489 72.0039 48.5054 71.1609 43.2268C70.3178 37.9482 71.8223 31.2976 71.8223 31.2976L71.6131 31.313C71.6131 31.313 77.0591 26.5771 78.7175 30.7395C78.856 31.0848 79.0067 31.4271 79.1729 31.7662C76.9237 33.4312 71.647 38.1363 76.4499 42.7335C82.6589 45.7304 88.2679 43.3779 88.2679 43.3779L96.203 38.5526Z" fill="black"/>
</g>
<path d="M159.702 28.2585C159.599 28.6749 159.501 29.0569 159.398 29.4046C158.717 31.727 158.01 32.6929 156.798 34.2511C155.401 36.0412 152.942 37.4406 150.539 37.608C148.136 37.7798 147.463 39.2908 144.893 40.6344C142.323 41.9781 138.412 40.9693 136.124 39.4024C133.833 37.8356 134 39.5698 132.659 37.05C131.318 34.5302 129.81 33.0191 129.193 31.0015C128.581 28.9882 129.81 27.3613 128.187 25.7515C126.567 24.1417 127.24 22.2658 128.414 19.4111C129.583 16.5565 130.311 17.1145 130.367 14.2041C130.423 11.2936 133.554 10.6754 133.554 10.6754C135.897 9.94998 136.291 8.43892 138.078 7.48595C138.767 7.11678 139.414 6.99227 140.134 6.96222C141.278 6.91071 142.606 7.09959 144.559 6.9279C147.746 6.64456 148.916 6.19813 151.991 7.76496C155.063 9.33182 155.847 10.0058 157.971 12.9162C160.092 15.8267 159.368 17.0587 159.085 19.5228C158.807 21.9868 160.482 25.069 159.702 28.2585Z" fill="#939393"/>
<g style="mix-blend-mode:soft-light" opacity="0.44">
<path d="M154.741 32.2623C156.922 31.1247 157.731 29.8627 159.398 29.4034C158.717 31.7257 158.01 32.6916 156.798 34.2498C155.401 36.0399 152.942 37.4393 150.539 37.6068C148.136 37.7785 147.463 39.2895 144.893 40.6331C142.323 41.9768 138.412 40.968 136.124 39.4011C133.833 37.8343 134 39.5685 132.659 37.0487C131.318 34.5289 129.81 33.0178 129.193 31.0002C128.581 28.9869 129.81 27.36 128.187 25.7502C126.567 24.1405 127.24 22.2645 128.414 19.4099C129.583 16.5552 130.311 17.1133 130.367 14.2028C130.423 11.2923 133.554 10.6742 133.554 10.6742C135.897 9.94869 136.291 8.43763 138.078 7.48466C138.767 7.11549 139.414 6.99099 140.134 6.96094C139.92 8.65657 139.252 8.62652 138.258 11.0433C137.084 13.898 136.411 15.7696 138.035 17.3794C139.654 18.9935 138.425 20.6161 139.037 22.6337C139.654 24.647 141.162 26.158 142.503 28.6779C143.844 31.1977 143.677 29.4635 145.968 31.0303C148.26 32.5972 152.171 33.6059 154.741 32.2623Z" fill="black"/>
</g>
<g style="mix-blend-mode:soft-light" opacity="0.44">
<path d="M138.19 13.646C138.19 13.646 132.505 15.4657 131.793 19.5392C131.08 23.6126 135.061 22.3528 138.497 17.6074C141.934 12.8621 138.19 13.646 138.19 13.646Z" fill="black"/>
</g>
<g style="mix-blend-mode:soft-light" opacity="0.44">
<path d="M137.828 14.2792C137.828 14.2792 133.012 15.8206 132.409 19.2709C131.805 22.7212 135.177 21.6541 138.088 17.6347C140.999 13.6153 137.828 14.2792 137.828 14.2792ZM156.67 27.5959C156.67 27.5959 151.992 28.0652 151.503 31.1705C151.014 34.2757 154.522 34.2332 156.881 30.6157C159.24 26.9983 156.67 27.5959 156.67 27.5959Z" fill="black"/>
</g>
<g style="mix-blend-mode:soft-light" opacity="0.44">
<path d="M156.31 28.1195C156.31 28.1195 152.476 28.5041 152.075 31.0488C151.675 33.5934 154.549 33.5585 156.482 30.5942C158.416 27.6298 156.31 28.1195 156.31 28.1195ZM148.974 11.8125C148.974 11.8125 146.208 12.5264 146.795 14.2482C147.381 15.9699 151.237 12.9883 151.488 12.4424C151.739 11.8965 148.974 11.8125 148.974 11.8125Z" fill="black"/>
</g>
<g style="mix-blend-mode:soft-light" opacity="0.44">
<path d="M149.023 12.3477C149.023 12.3477 147.257 12.8035 147.632 13.903C148.006 15.0025 150.468 13.0985 150.629 12.7499C150.789 12.4013 149.023 12.3477 149.023 12.3477ZM140.272 33.3657C140.272 33.3657 137.582 32.404 137.105 34.1595C136.628 35.915 141.489 35.6103 142.002 35.2993C142.516 34.9883 140.272 33.3657 140.272 33.3657Z" fill="black"/>
</g>
<g style="mix-blend-mode:soft-light" opacity="0.44">
<path d="M140.161 33.5644C140.161 33.5644 137.886 32.751 137.483 34.2357C137.08 35.7205 141.19 35.4628 141.625 35.1997C142.059 34.9367 140.161 33.5644 140.161 33.5644ZM146.254 23.7393C145.024 23.2323 143.642 23.2506 142.396 23.7183C140.413 24.4626 137.675 25.7009 140.593 25.9615C144.826 26.3394 147.801 25.0376 147.13 24.2817C146.944 24.0717 146.622 23.8909 146.254 23.7393Z" fill="black"/>
</g>
<g style="mix-blend-mode:soft-light" opacity="0.44">
<path d="M145.868 23.8664C144.797 23.425 143.594 23.441 142.509 23.8481C140.783 24.4961 138.399 25.5743 140.939 25.8011C144.624 26.1302 147.215 24.9968 146.631 24.3387C146.469 24.1559 146.188 23.9984 145.868 23.8664Z" fill="black"/>
</g>
<path d="M68.285 82.3164C68.285 82.3164 68.2045 84.0287 67.7397 86.3932C67.2047 89.1561 66.1515 92.8168 64.1166 95.6893C57.9333 100.41 53.5 103.793 50.3258 106.22L42.2891 112.355C42.2891 112.355 56.6333 91.306 57.6499 86.8656C58.6665 82.4252 68.285 82.3164 68.285 82.3164Z" fill="#3EBAA1"/>
<g style="mix-blend-mode:soft-light" opacity="0.3">
<path d="M68.285 82.3164C68.285 82.3164 68.2045 84.0287 67.7397 86.3932L58.8688 92.0637L50.3258 106.22L42.2891 112.355C42.2891 112.355 56.6333 91.306 57.6499 86.8656C58.6665 82.4252 68.285 82.3164 68.285 82.3164Z" fill="black"/>
</g>
<path d="M58.224 59.2973C58.224 59.2973 53.9045 67.9114 49.4781 66.8763C45.0473 65.8426 19.8789 69.5132 19.8789 69.5132L26.7856 66.0396C29.6698 64.5914 33.7612 62.5341 39.5579 59.6188C41.0539 58.8627 42.6686 58.0504 44.4019 57.1819C50.8343 56.1204 58.224 59.2973 58.224 59.2973Z" fill="#3EBAA1"/>
<g style="mix-blend-mode:soft-light" opacity="0.3">
<path d="M58.224 59.2973C58.224 59.2973 53.9045 67.9114 49.4781 66.8763C45.0473 65.8426 19.8789 69.5132 19.8789 69.5132L26.7856 66.0396C33.2816 65.3781 41.8323 65.0624 41.8323 65.0624L48.2455 60.5056C45.0986 60.7124 41.6913 60.1026 39.5579 59.6188C41.0539 58.8627 42.6686 58.0504 44.4019 57.1819C50.8343 56.1204 58.224 59.2973 58.224 59.2973Z" fill="black"/>
</g>
<path d="M42.6231 75.6004C42.6231 75.6004 32.8119 72.7628 27.7805 79.6312C30.2348 78.3879 33.0953 79.4905 36.0048 78.4823C29.4899 83.0833 25.0982 86.3566 19.0974 83.6316C21.3127 87.8359 24.9586 87.4679 24.9586 87.4679C24.9586 87.4679 17.6861 88.5024 15.0918 96.4567C16.1632 93.1423 20.8081 91.6163 20.8081 91.6163C20.8081 91.6163 15.4152 94.3723 15.2984 101.99C16.2681 97.6417 21.394 97.0281 21.394 97.0281C21.394 97.0281 16.536 100.984 16.1014 110.227C18.8772 104.272 30.1994 103.54 36.0873 101.502C41.9752 99.4632 42.4761 94.1222 42.4761 94.1222C42.4761 94.1222 43.014 99.5024 37.8555 102.397C45.4265 99.0814 46.0683 93.4667 45.7752 91.237C45.7752 91.237 46.6297 93.4392 45.891 95.7709C50.0955 90.9577 49.2881 84.3598 49.2881 84.3598L42.6231 75.6004Z" fill="#24EAC1"/>
<path d="M44.8128 79.4643C44.8128 79.4643 39.3834 77.2559 36.1015 80.8735C37.5764 80.3113 39.143 81.1123 40.8636 80.7116C36.8706 82.9462 34.1687 84.5505 30.9071 82.6352C31.92 85.1675 34.0226 85.1764 34.0226 85.1764C34.0226 85.1764 29.8105 85.3301 27.8545 89.7137C28.6641 87.8866 31.406 87.2946 31.406 87.2946C31.406 87.2946 28.1637 88.5436 27.6416 92.8839C28.4549 90.4606 31.4169 90.4182 31.4169 90.4182C31.4169 90.4182 28.408 92.3842 27.6074 97.633C29.5475 94.401 36.0526 94.663 39.5346 93.8532C43.0165 93.0434 43.6217 90.0254 43.6217 90.0254C43.6217 90.0254 43.607 93.1281 40.4901 94.4705C45.009 93.0327 45.7109 89.867 45.6769 88.577C45.6769 88.577 46.0329 89.885 45.4719 91.1713C48.1591 88.6769 48.0927 84.8632 48.0927 84.8632L44.8128 79.4643Z" fill="#25E8C0"/>
<path d="M44.8315 71.8183L42.577 73.0518C42.2939 73.2064 42.0719 73.4531 41.9476 73.7512C41.8232 74.0492 41.804 74.3809 41.893 74.6914C42.7364 77.641 45.7282 85.0725 49.439 87.3622C49.6319 87.4815 49.8503 87.5533 50.0762 87.5717C50.3022 87.5902 50.5293 87.5547 50.739 87.4682C51.7052 87.0673 52.418 86.7716 52.944 86.5534C53.1295 86.4763 53.2965 86.3606 53.434 86.214C53.5715 86.0673 53.6763 85.893 53.7414 85.7026C53.8065 85.5123 53.8305 85.3102 53.8117 85.1098C53.7929 84.9095 53.7319 84.7154 53.6325 84.5405L46.7448 72.3648C46.5612 72.0404 46.2577 71.8012 45.8998 71.699C45.5419 71.5967 45.1581 71.6396 44.8315 71.8183Z" fill="#1A302B"/>
<path d="M142.131 31.5426C135.366 44.8818 119.26 55.4714 119.26 55.4714L119.254 55.4683L112.4 54.6221L110.543 50.7019L107.606 44.4963L105.166 39.3382L107.003 34.2048C107.003 34.2048 117.034 30.6701 130.253 29.0863C133.404 28.7052 136.73 28.441 140.149 28.3597C140.213 28.359 140.272 28.3597 140.332 28.3604C141.88 28.4481 142.857 30.1184 142.131 31.5426Z" fill="#3EBAA1"/>
<path d="M119.26 55.4697C119.26 55.4697 86.3331 79.0342 56.2047 88.1808C52.865 86.2981 50.4313 83.774 48.6651 81.1301C44.2799 74.5773 43.9668 67.2988 43.9668 67.2988L43.9833 67.2886L44.0073 67.271C44.6266 66.8451 51.9571 61.7917 64.4137 54.8143C71.0589 51.0932 79.1663 46.8195 88.4916 42.4031C94.219 39.6881 100.409 36.9238 107.004 34.2031C107.611 37.5956 108.712 40.8803 110.271 43.9526C111.155 45.7035 112.172 47.3832 113.315 48.9766C116.277 53.1117 119.115 55.3532 119.254 55.4667L119.26 55.4697Z" fill="#84F4DD"/>
<g style="mix-blend-mode:soft-light" opacity="0.3">
<path d="M142.132 31.5415C135.367 44.8807 119.26 55.4703 119.26 55.4703C119.26 55.4703 86.3331 79.0347 56.2047 88.1814C52.865 86.2987 50.4313 83.7746 48.6651 81.1307C65.0402 74.1691 82.1592 63.5518 82.1592 63.5518C58.0924 69.0356 43.9668 67.2994 43.9668 67.2994L43.9833 67.2892L44.0073 67.2716C44.6266 66.8457 51.9571 61.7923 64.4137 54.8149L93.7475 59.8397C99.8523 56.9 105.469 53.7903 110.543 50.7008C111.486 50.127 112.41 49.5524 113.315 48.9772C126.706 40.5186 136.004 32.4116 140.332 28.3594C141.88 28.4471 142.857 30.1173 142.132 31.5415Z" fill="black"/>
</g>
<path opacity="0.26" d="M130.255 29.0859C124.21 37.9707 117.121 42.2494 110.272 43.9539C109.376 44.1767 108.49 44.3564 107.607 44.4959C100.186 45.6763 93.254 44.0887 88.4922 42.4044C94.2196 39.6894 100.41 36.9251 107.004 34.2044C107.004 34.2044 117.035 30.6697 130.255 29.0859Z" fill="white"/>
<path d="M90.7163 28.9376C90.7011 29.0949 90.6842 29.2506 90.6656 29.4079C90.501 30.7905 89.8797 32.0783 88.9006 33.0662C87.9214 34.0542 86.6407 34.6856 85.2621 34.86C81.5197 35.3269 77.8616 35.3946 74.3065 34.9784C71.4267 34.6401 69.1039 32.3919 68.7865 29.5026C68.5326 27.2276 68.5677 24.9295 68.8912 22.6634C69.2322 20.2833 70.8848 18.2736 73.1789 17.5614C77.5392 16.2115 81.8488 16.3249 86.1197 17.619C87.0594 17.9027 87.9202 18.4019 88.634 19.0769C89.3477 19.7519 89.8948 20.5843 90.2318 21.508C90.3717 21.8895 90.474 22.2839 90.5373 22.6854C90.8655 24.753 90.9256 26.8545 90.7163 28.9376Z" fill="#D1DEDB"/>
<g style="mix-blend-mode:soft-light" opacity="0.44">
<path d="M90.648 29.5437C90.4557 30.899 89.8244 32.1535 88.8512 33.1141C87.8779 34.0748 86.6166 34.6884 85.2614 34.8605C81.5189 35.3274 77.8609 35.395 74.3058 34.9789C71.4259 34.6406 69.1048 32.3924 68.7858 29.5031C68.5324 27.228 68.5681 24.9299 68.8921 22.6638C69.2314 20.2837 70.8857 18.2741 73.1798 17.5619C75.2243 16.9233 77.3534 16.5982 79.4949 16.5977C75.4131 18.2081 71.9138 20.8115 73.3031 24.9002C75.1481 30.3235 83.8873 30.6331 90.648 29.5437Z" fill="black"/>
</g>
<path d="M90.7165 28.9368C90.7013 29.0941 90.6844 29.2497 90.6658 29.4071C90.5527 30.3332 90.2351 31.2225 89.736 32.0102C89.237 32.7979 88.5691 33.4643 87.7809 33.9609C87.0938 33.9305 86.4124 33.8826 85.7366 33.8171C83.4324 33.5905 81.5722 32.0849 81.319 30.1497C81.2548 29.6727 81.2143 29.1962 81.1974 28.7203C81.1555 27.6654 81.2246 26.6091 81.4034 25.5688C81.6751 23.9736 82.9986 22.627 84.8352 22.15C85.3079 22.0282 85.7805 21.9233 86.2498 21.837C87.5628 21.5934 88.8969 21.4829 90.232 21.5072C90.3719 21.8887 90.4742 22.283 90.5375 22.6845C90.8656 24.7522 90.9258 26.8537 90.7165 28.9368Z" fill="black"/>
<path opacity="0.13" d="M90.7163 28.9368C89.3878 28.2852 88.2664 27.276 87.4776 26.0221C86.6887 24.7683 86.2636 23.3192 86.2497 21.837C87.5626 21.5934 88.8968 21.4829 90.2318 21.5072C90.3717 21.8887 90.4741 22.283 90.5374 22.6845C90.8655 24.7522 90.9257 26.8537 90.7163 28.9368ZM88.829 33.132C88.5107 33.4457 88.1592 33.7236 87.7808 33.9609C87.0937 33.9305 86.4123 33.8826 85.7365 33.8171C83.4323 33.5905 81.572 32.0849 81.3188 30.1497C81.2547 29.6727 81.2141 29.1962 81.1973 28.7203C81.3593 28.7101 81.5248 28.705 81.6902 28.705C83.1733 28.7045 84.6271 29.1185 85.8882 29.9006C87.1494 30.6826 88.1678 31.8017 88.829 33.132Z" fill="white"/>
<path d="M76.7218 26.8976C76.7218 29.3504 75.2194 31.3381 73.3659 31.3381C72.6958 31.3381 72.0712 31.0776 71.5479 30.6293C70.6228 29.8393 70.0117 28.4623 70.0117 26.8976C70.0117 24.6511 71.271 22.7954 72.9068 22.4993C73.0581 22.4708 73.2119 22.4566 73.3659 22.457C75.2194 22.457 76.7218 24.4447 76.7218 26.8976Z" fill="#D1DEDB"/>
<g style="mix-blend-mode:soft-light" opacity="0.44">
<path d="M76.7218 26.8976C76.7218 29.3504 75.2194 31.3381 73.3659 31.3381C72.6958 31.3381 72.0712 31.0776 71.5479 30.6293C70.6228 29.8393 70.0117 28.4623 70.0117 26.8976C70.0117 24.6511 71.271 22.7954 72.9068 22.4993C73.0581 22.4708 73.2119 22.4566 73.3659 22.457C75.2194 22.457 76.7218 24.4447 76.7218 26.8976Z" fill="black"/>
</g>
<g style="mix-blend-mode:soft-light" opacity="0.44">
<path d="M76.7218 26.8976C76.7218 29.3504 75.2194 31.3381 73.3659 31.3381C72.6958 31.3381 72.0712 31.0776 71.5479 30.6293C70.6228 29.8393 70.0117 28.4623 70.0117 26.8976C70.0117 24.6511 71.271 22.7954 72.9068 22.4993C73.0581 22.4708 73.2119 22.4566 73.3659 22.457C75.2194 22.457 76.7218 24.4447 76.7218 26.8976Z" fill="black"/>
</g>
<path d="M74.4429 26.2317C74.4429 28.4782 73.1836 30.3339 71.5479 30.63C70.6228 29.84 70.0117 28.463 70.0117 26.8982C70.0117 24.6517 71.271 22.796 72.9068 22.5C73.8318 23.29 74.4429 24.667 74.4429 26.2317Z" fill="#D1DEDB"/>
<g style="mix-blend-mode:soft-light" opacity="0.44">
<path d="M74.4429 26.2317C74.4429 28.4782 73.1836 30.3339 71.5479 30.63C70.6228 29.84 70.0117 28.463 70.0117 26.8982C70.0117 24.6517 71.271 22.796 72.9068 22.5C73.8318 23.29 74.4429 24.667 74.4429 26.2317Z" fill="black"/>
</g>
<g style="mix-blend-mode:soft-light" opacity="0.44">
<path d="M74.4429 26.2317C74.4429 28.4782 73.1836 30.3339 71.5479 30.63C70.6228 29.84 70.0117 28.463 70.0117 26.8982C70.0117 24.6517 71.271 22.796 72.9068 22.5C73.8318 23.29 74.4429 24.667 74.4429 26.2317Z" fill="black"/>
</g>
<g style="mix-blend-mode:soft-light" opacity="0.44">
<path d="M74.4429 26.2317C74.4429 28.4782 73.1836 30.3339 71.5479 30.63C70.6228 29.84 70.0117 28.463 70.0117 26.8982C70.0117 24.6517 71.271 22.796 72.9068 22.5C73.8318 23.29 74.4429 24.667 74.4429 26.2317Z" fill="black"/>
</g>
</svg>
