<svg width="24" height="24" viewBox="0 0 24 24" fill="none" xmlns="http://www.w3.org/2000/svg">
<g clip-path="url(#clip0_4416_33001)">
<path fill-rule="evenodd" clip-rule="evenodd" d="M14.707 4.92441C14.5213 4.85341 14.3149 4.85912 14.1333 4.94028C13.9517 5.02143 13.8098 5.17138 13.7388 5.35716L8.86379 18.1072C8.82701 18.1995 8.80895 18.2982 8.81066 18.3975C8.81236 18.4969 8.83379 18.5949 8.8737 18.6859C8.91362 18.7769 8.97122 18.8591 9.04316 18.9277C9.1151 18.9962 9.19995 19.0498 9.29277 19.0853C9.38559 19.1207 9.48454 19.1374 9.58387 19.1343C9.68319 19.1312 9.78091 19.1084 9.87135 19.0673C9.96179 19.0261 10.0431 18.9673 10.1107 18.8944C10.1782 18.8216 10.2306 18.736 10.2648 18.6427L15.1398 5.89266C15.2108 5.70687 15.2051 5.50049 15.1239 5.31892C15.0428 5.13734 14.8928 4.99543 14.707 4.92441ZM20.3043 10.8194L16.3177 8.36166C16.2338 8.30997 16.1407 8.2753 16.0435 8.25963C15.9462 8.24396 15.8469 8.24758 15.7511 8.2703C15.6553 8.29303 15.5649 8.3344 15.485 8.39205C15.4052 8.44971 15.3375 8.52253 15.2858 8.60634C15.2342 8.69016 15.1995 8.78333 15.1838 8.88055C15.1681 8.97776 15.1718 9.07711 15.1945 9.17293C15.2172 9.26874 15.2586 9.35914 15.3162 9.43896C15.3739 9.51879 15.4467 9.58647 15.5305 9.63816L19.3267 11.9785C19.3304 11.9925 19.3304 12.0073 19.3267 12.0213L15.5305 14.3617C15.4445 14.4123 15.3694 14.4795 15.3097 14.5595C15.25 14.6395 15.2069 14.7306 15.1828 14.8275C15.1588 14.9243 15.1543 15.025 15.1697 15.1236C15.1851 15.2223 15.22 15.3168 15.2724 15.4018C15.3248 15.4867 15.3936 15.5604 15.4748 15.6184C15.556 15.6764 15.648 15.7176 15.7453 15.7397C15.8427 15.7617 15.9435 15.764 16.0417 15.7466C16.14 15.7292 16.2338 15.6923 16.3177 15.6382L20.3043 13.1804L20.3662 13.1185C20.6623 12.8215 20.8285 12.4193 20.8285 11.9999C20.8285 11.5805 20.6623 11.1783 20.3662 10.8813L20.3043 10.8194Z" fill="#FFFFFE"/>
<mask id="mask0_4416_33001" style="mask-type:luminance" maskUnits="userSpaceOnUse" x="0" y="0" width="24" height="24">
<path d="M0.0234375 24.0006V0.015625H24.0009V24.0006H0.0234375Z" fill="white"/>
</mask>
<g mask="url(#mask0_4416_33001)">
<path fill-rule="evenodd" clip-rule="evenodd" d="M8.47181 14.3622L4.67569 12.0218C4.67193 12.0078 4.67193 11.993 4.67569 11.979L8.47181 9.63866C8.55784 9.58806 8.63291 9.5208 8.69261 9.44081C8.75232 9.36083 8.79545 9.26973 8.8195 9.17286C8.84354 9.07599 8.84801 8.97529 8.83264 8.87667C8.81726 8.77806 8.78236 8.6835 8.72997 8.59854C8.67759 8.51358 8.60877 8.43994 8.52756 8.38192C8.44634 8.3239 8.35436 8.28267 8.25701 8.26066C8.15966 8.23864 8.05889 8.23628 7.96062 8.25371C7.86234 8.27114 7.76853 8.30801 7.68469 8.36216L3.69806 10.8199L3.63619 10.8818C3.34009 11.1788 3.17383 11.581 3.17383 12.0004C3.17383 12.4198 3.34009 12.822 3.63619 13.119L3.69806 13.1809L7.68469 15.6387C7.85396 15.743 8.05777 15.7759 8.25127 15.73C8.44477 15.6841 8.61212 15.5632 8.7165 15.394C8.82088 15.2247 8.85374 15.0209 8.80785 14.8274C8.76196 14.6339 8.64109 14.4665 8.47181 14.3622Z" fill="#FFFFFE"/>
</g>
<mask id="mask1_4416_33001" style="mask-type:luminance" maskUnits="userSpaceOnUse" x="0" y="0" width="24" height="24">
<path d="M0.0234375 24.0006V0.015625H24.0009V24.0006H0.0234375Z" fill="white"/>
</mask>
<g mask="url(#mask1_4416_33001)">
<path fill-rule="evenodd" clip-rule="evenodd" d="M20.3644 13.1186L20.3025 13.1805L16.3159 15.6383C16.1466 15.7426 15.9428 15.7755 15.7493 15.7296C15.5558 15.6837 15.3884 15.5628 15.2841 15.3936C15.1797 15.2243 15.1468 15.0205 15.1927 14.827C15.2386 14.6335 15.3595 14.4661 15.5287 14.3617L19.3249 12.0214C19.3286 12.0074 19.3286 11.9926 19.3249 11.9786L15.5287 9.63825C15.4427 9.58765 15.3676 9.52039 15.3079 9.4404C15.2482 9.36042 15.2051 9.26932 15.1811 9.17245C15.157 9.07558 15.1526 8.97488 15.1679 8.87626C15.1833 8.77764 15.2182 8.68308 15.2706 8.59813C15.323 8.51317 15.3918 8.43953 15.473 8.38151C15.5542 8.32349 15.6462 8.28226 15.7435 8.26025C15.8409 8.23823 15.9417 8.23587 16.0399 8.2533C16.1382 8.27073 16.232 8.3076 16.3159 8.36175L20.3025 10.8195L20.3644 10.8814C20.6605 11.1784 20.8267 11.5806 20.8267 12C20.8267 12.4194 20.6605 12.8216 20.3644 13.1186ZM10.263 18.6427C10.2288 18.7361 10.1764 18.8216 10.1089 18.8945C10.0414 18.9674 9.96 19.0262 9.86956 19.0674C9.77913 19.1085 9.68141 19.1313 9.58208 19.1344C9.48276 19.1375 9.38381 19.1208 9.29099 19.0854C9.19816 19.0499 9.11331 18.9963 9.04137 18.9277C8.96943 18.8592 8.91183 18.777 8.87192 18.686C8.832 18.595 8.81057 18.497 8.80887 18.3976C8.80717 18.2983 8.82523 18.1996 8.862 18.1073L13.737 5.35725C13.7712 5.26394 13.8236 5.17835 13.8911 5.10546C13.9586 5.03257 14.04 4.97383 14.1304 4.93265C14.2209 4.89147 14.3186 4.86867 14.4179 4.86558C14.5172 4.86249 14.6162 4.87917 14.709 4.91465C14.8018 4.95013 14.8867 5.0037 14.9586 5.07225C15.0306 5.14081 15.0882 5.22297 15.1281 5.31398C15.168 5.40498 15.1894 5.50301 15.1911 5.60237C15.1928 5.70173 15.1748 5.80043 15.138 5.89275L10.263 18.6427ZM8.07712 15.75C7.94287 15.75 7.80675 15.714 7.68412 15.6383L3.6975 13.1805L3.63562 13.1186C3.33953 12.8216 3.17327 12.4194 3.17327 12C3.17327 11.5806 3.33953 11.1784 3.63562 10.8814L3.6975 10.8195L7.68412 8.36175C7.8534 8.25737 8.05721 8.22451 8.25071 8.2704C8.44421 8.31629 8.61156 8.43716 8.71594 8.60644C8.82032 8.77571 8.85318 8.97952 8.80729 9.17302C8.7614 9.36652 8.64052 9.53387 8.47125 9.63825L4.67513 11.9786C4.67137 11.9926 4.67137 12.0074 4.67513 12.0214L8.47125 14.3617C8.61017 14.4475 8.71732 14.5762 8.77645 14.7283C8.83558 14.8805 8.84345 15.0478 8.79886 15.2048C8.75428 15.3619 8.65968 15.5001 8.52942 15.5985C8.39917 15.6968 8.24037 15.7501 8.07712 15.75ZM12 0C5.37262 0 0 5.37262 0 12C0 18.6274 5.37262 24 12 24C18.6274 24 24 18.6274 24 12C24 5.37262 18.6274 0 12 0Z" fill="#51B4A0"/>
</g>
</g>
<defs>
<clipPath id="clip0_4416_33001">
<rect width="24" height="24" fill="white"/>
</clipPath>
</defs>
</svg>
