<svg width="102" height="102" viewBox="0 0 102 102" fill="none" xmlns="http://www.w3.org/2000/svg">
<path d="M50.7379 20.582C42.5228 35.2653 24.9203 33.5641 17.358 32.0377C17.3991 32.0959 17.4404 32.1554 17.4819 32.2157C17.4984 32.2395 17.5149 32.2639 17.5314 32.2881C17.5558 32.324 17.5804 32.3602 17.6049 32.3969C17.6254 32.4273 17.6458 32.458 17.6663 32.489C17.6888 32.523 17.7113 32.5575 17.7339 32.5921C17.7538 32.6226 17.7737 32.6529 17.7936 32.6839C17.8319 32.7434 17.8702 32.8037 17.9086 32.8649C17.9118 32.8701 17.9151 32.875 17.9183 32.8802C18.9272 34.4926 20.1215 36.9922 20.4607 40.147C20.5077 40.5836 20.5385 41.0326 20.5499 41.4938C20.6193 44.2922 19.9824 47.168 18.657 50.0413C18.6326 50.094 18.6075 50.1468 18.5827 50.1996C18.5676 50.2316 18.5528 50.2637 18.5375 50.2957C18.5141 50.345 18.4902 50.3943 18.4663 50.4436C18.4463 50.485 18.4263 50.5264 18.4059 50.5679C18.3831 50.6144 18.36 50.6609 18.3368 50.7074C18.3144 50.7525 18.2918 50.7975 18.269 50.8425C18.2467 50.8865 18.2243 50.9306 18.2017 50.9747C18.1762 51.0245 18.1502 51.0743 18.1242 51.1241C18.1035 51.1639 18.083 51.2036 18.062 51.2433C18.022 51.319 17.9815 51.3948 17.9406 51.4704C17.9214 51.506 17.9018 51.5416 17.8823 51.5773C17.8466 51.6427 17.8107 51.708 17.7743 51.7735C17.7535 51.8107 17.7324 51.8478 17.7115 51.8851C17.6812 51.9388 17.6508 51.9926 17.62 52.0463C17.5976 52.0856 17.5749 52.1249 17.5522 52.1641C17.5219 52.2165 17.4913 52.2689 17.4605 52.3213C17.4376 52.3604 17.4147 52.3995 17.3915 52.4385C17.3588 52.4935 17.3257 52.5485 17.2926 52.6035C17.2709 52.6394 17.2494 52.6753 17.2276 52.7113C17.1758 52.7963 17.1235 52.8814 17.0705 52.9664C17.0491 53.0008 17.0273 53.0351 17.0057 53.0695C16.9699 53.1263 16.9342 53.1832 16.898 53.24C16.8704 53.2832 16.8425 53.3263 16.8148 53.3695C16.7848 53.4159 16.7548 53.4623 16.7245 53.5087C16.6944 53.5549 16.664 53.6011 16.6335 53.6473C16.6052 53.6903 16.5766 53.7333 16.548 53.7761C16.5157 53.8245 16.4835 53.8729 16.4508 53.9213C16.4444 53.9309 16.4381 53.9404 16.4316 53.95C25.3245 55.9864 41.6348 61.4357 47.7839 74.7381C47.7839 74.7381 62.3842 58.2952 81.5439 57.0931C81.5165 57.0413 81.4898 56.9895 81.4629 56.9376C81.4423 56.8979 81.4212 56.8581 81.4008 56.8183C81.3492 56.7178 81.2984 56.6173 81.2485 56.5168C81.2327 56.4848 81.2173 56.4528 81.2016 56.4207C81.1664 56.349 81.1313 56.2772 81.0969 56.2054C81.0772 56.1641 81.0579 56.1229 81.0385 56.0815C81.0089 56.0187 80.9794 55.9559 80.9504 55.8931C80.9305 55.8498 80.9108 55.8065 80.8912 55.7632C80.8634 55.7018 80.8358 55.6405 80.8086 55.579C80.7895 55.5358 80.7704 55.4927 80.7516 55.4494C80.7242 55.3866 80.6973 55.3238 80.6706 55.2611C80.6531 55.2199 80.6355 55.1788 80.6184 55.1377C80.5894 55.0684 80.5611 54.9991 80.533 54.9299C80.5191 54.8955 80.5048 54.8612 80.4911 54.827C80.4501 54.7246 80.4099 54.6223 80.3708 54.5201C80.3632 54.5001 80.356 54.4803 80.3485 54.4604C80.3168 54.3771 80.2857 54.294 80.2553 54.2108C80.2411 54.1718 80.2274 54.1329 80.2135 54.094C80.1904 54.0298 80.1675 53.9655 80.1452 53.9014C80.1302 53.8581 80.1155 53.8149 80.1008 53.7716C80.0804 53.7115 80.0602 53.6516 80.0404 53.5915C80.0257 53.5468 80.0111 53.5022 79.9968 53.4576C79.9778 53.3985 79.9592 53.3396 79.9409 53.2806C79.9269 53.236 79.913 53.1913 79.8994 53.1466C79.8811 53.0864 79.8635 53.0262 79.8458 52.9661C79.8332 52.9232 79.8204 52.8803 79.8082 52.8375C79.7878 52.7661 79.7682 52.6948 79.7488 52.6235C79.7409 52.5946 79.7324 52.5656 79.7246 52.5367C79.6154 52.1289 79.5215 51.7228 79.4429 51.3186C79.4421 51.3148 79.4413 51.3109 79.4405 51.307C79.4402 51.3054 79.4399 51.3038 79.4396 51.3022C79.1526 49.82 79.0721 48.365 79.1986 46.9559C79.1997 46.9444 79.2003 46.933 79.2013 46.9215C79.2032 46.9013 79.2058 46.8813 79.2077 46.8611C79.2306 46.6231 79.2588 46.3863 79.2937 46.1511C79.2946 46.1453 79.2956 46.1395 79.2964 46.1337C79.3066 46.0654 79.3173 45.9972 79.3285 45.9292C79.3329 45.9023 79.3377 45.8753 79.3423 45.8485C79.3504 45.8011 79.3585 45.7538 79.3671 45.7066C79.3726 45.6761 79.3784 45.6457 79.3841 45.6153C79.3923 45.5716 79.4006 45.5278 79.4092 45.4842C79.4154 45.4528 79.4218 45.4215 79.4282 45.3901C79.437 45.3471 79.446 45.3042 79.4552 45.2614C79.4619 45.2302 79.4686 45.199 79.4755 45.1679C79.4851 45.1243 79.4951 45.0809 79.5052 45.0374C79.5121 45.0075 79.519 44.9775 79.5261 44.9475C79.5374 44.9002 79.5491 44.8529 79.5609 44.8057C79.5673 44.7801 79.5735 44.7544 79.58 44.7288C79.5984 44.657 79.6173 44.5853 79.6368 44.5138C79.6401 44.5015 79.6437 44.4893 79.6471 44.4769C79.6636 44.4168 79.6805 44.3569 79.6979 44.297C79.7056 44.2702 79.7138 44.2434 79.7217 44.2167C79.7351 44.1713 79.7486 44.126 79.7625 44.0807C79.7716 44.051 79.7811 44.0213 79.7904 43.9915C79.8037 43.9492 79.8171 43.9069 79.8309 43.8647C79.8408 43.8342 79.8509 43.8038 79.861 43.7733C79.8749 43.7315 79.889 43.6899 79.9032 43.6483C79.9136 43.6182 79.9239 43.588 79.9344 43.558C79.9495 43.515 79.9649 43.4721 79.9804 43.4292C79.9906 43.401 80.0007 43.3728 80.0111 43.3446C80.0287 43.2968 80.0467 43.2491 80.0649 43.2014C80.0737 43.1784 80.0822 43.1553 80.0912 43.1322C80.1182 43.0623 80.1457 42.9926 80.1739 42.9229C80.1798 42.9084 80.1859 42.8939 80.1919 42.8794C80.2146 42.8236 80.2376 42.7678 80.2612 42.7123C80.272 42.6867 80.2831 42.6612 80.2941 42.6357C80.3132 42.5911 80.3324 42.5466 80.352 42.5022C80.3645 42.4741 80.3771 42.446 80.3897 42.418C80.4085 42.3761 80.4276 42.3341 80.4468 42.2923C80.46 42.2636 80.4734 42.2349 80.4867 42.2063C80.5062 42.1648 80.5258 42.1233 80.5457 42.0818C80.5592 42.0536 80.5728 42.0255 80.5864 41.9974C80.6074 41.9543 80.6287 41.9113 80.6502 41.8684C80.6631 41.8424 80.676 41.8163 80.6891 41.7904C80.714 41.7412 80.7394 41.6922 80.7649 41.6431C80.7751 41.6236 80.785 41.6041 80.7952 41.5846C80.8311 41.5163 80.8675 41.4481 80.9046 41.3801C80.912 41.3665 80.9197 41.3531 80.9271 41.3395C80.957 41.2849 80.9872 41.2304 81.0178 41.1761C81.0312 41.1523 81.0449 41.1287 81.0585 41.105C81.0838 41.0607 81.1092 41.0164 81.135 40.9722C81.1502 40.9462 81.1657 40.9202 81.181 40.8942C81.2059 40.8522 81.2309 40.8103 81.2562 40.7684C81.2722 40.7419 81.2883 40.7156 81.3045 40.6891C81.3302 40.6471 81.3561 40.6052 81.3823 40.5633C81.3982 40.5378 81.4142 40.5123 81.4302 40.4868C81.4581 40.4427 81.4864 40.3986 81.5149 40.3547C81.5296 40.3319 81.5442 40.309 81.5591 40.2862C81.5937 40.2332 81.6288 40.1804 81.6641 40.1276C81.6731 40.1141 81.6819 40.1006 81.6909 40.0872C81.7361 40.0201 81.7819 39.9532 81.8283 39.8863C81.8361 39.8751 81.8442 39.864 81.852 39.8527C81.8902 39.7979 81.9288 39.7432 81.9679 39.6886C81.9827 39.6679 81.9979 39.6472 82.0128 39.6264C82.0454 39.5812 82.0782 39.536 82.1114 39.491C82.1284 39.4679 82.1457 39.4448 82.1628 39.4218C82.1948 39.3787 82.227 39.3357 82.2596 39.2929C82.2773 39.2696 82.295 39.2463 82.3129 39.223C82.346 39.1797 82.3795 39.1365 82.4132 39.0933C82.4304 39.0713 82.4476 39.0492 82.4649 39.0272C82.5017 38.9805 82.5389 38.9339 82.5763 38.8874C82.5908 38.8694 82.6051 38.8514 82.6197 38.8333C82.6685 38.773 82.7178 38.7129 82.7676 38.6529C82.7709 38.6489 82.7742 38.6449 82.7775 38.6409C82.8327 38.5745 82.8885 38.5083 82.945 38.4423C82.9513 38.4349 82.9579 38.4274 82.9643 38.42C83.0127 38.3635 83.0616 38.3071 83.1109 38.2509C83.1258 38.2339 83.1409 38.217 83.1559 38.2001C83.1974 38.1531 83.2391 38.1062 83.2812 38.0595C83.2988 38.0399 83.3165 38.0204 83.3342 38.001C83.3747 37.9564 83.4155 37.9118 83.4566 37.8673C83.4747 37.8476 83.4929 37.828 83.5112 37.8083C83.5535 37.763 83.596 37.7178 83.6388 37.6726C83.6558 37.6546 83.6727 37.6368 83.6898 37.6189C83.7376 37.5688 83.7859 37.5188 83.8345 37.4689C83.8465 37.4565 83.8584 37.4441 83.8706 37.4317C83.9959 37.3035 84.1238 37.1759 84.2541 37.0491C84.2571 37.0461 84.2601 37.0433 84.2631 37.0403C84.3237 36.9815 84.3848 36.9227 84.4464 36.8641C84.46 36.8512 84.4739 36.8383 84.4875 36.8253C84.5393 36.7763 84.5915 36.7274 84.644 36.6786C84.6606 36.6632 84.6772 36.6478 84.6939 36.6325C84.7448 36.5855 84.7959 36.5387 84.8475 36.4918C84.8644 36.4765 84.8812 36.4613 84.8981 36.446C84.9517 36.3977 85.0056 36.3495 85.0599 36.3015C85.0744 36.2886 85.0888 36.2758 85.1033 36.263C85.1656 36.208 85.2284 36.1532 85.2917 36.0984C85.298 36.0931 85.3042 36.0876 85.3105 36.0822C85.5262 35.8961 85.7477 35.7115 85.9747 35.5286C85.9847 35.5204 85.9949 35.5124 86.0049 35.5043C86.0694 35.4524 86.1344 35.4007 86.1998 35.3491C86.2135 35.3383 86.2272 35.3275 86.241 35.3167C86.3043 35.2669 86.3681 35.2173 86.4323 35.1677C86.4458 35.1573 86.4592 35.1469 86.4727 35.1365C86.5404 35.0844 86.6086 35.0325 86.6772 34.9807C86.6863 34.9738 86.6954 34.9669 86.7045 34.9601C86.9351 34.7864 87.1707 34.6142 87.4117 34.4435C52.9502 36.1314 50.7379 20.582 50.7379 20.582Z" fill="#83F3D3"/>
<path d="M84.4375 33.0884C83.6217 33.0786 82.7533 33.0586 81.8443 33.0245C80.3764 32.9695 78.8034 32.878 77.176 32.7339C72.726 32.3398 68.7456 31.6363 65.3454 30.6429C63.8417 30.2035 62.4503 29.7062 61.1743 29.1534C59.1726 28.2863 57.4558 27.2822 56.0402 26.1488C56.0328 26.143 56.0253 26.1372 56.0179 26.1313C56.0145 26.1285 56.0111 26.1257 56.0076 26.1228C55.7713 25.9327 55.5434 25.7391 55.3241 25.5418C55.0256 25.2732 54.7425 24.9977 54.4746 24.7153C53.5787 23.7707 52.8554 22.7487 52.3055 21.6541C51.714 20.477 51.323 19.2157 51.1362 17.875C51.0616 18.0171 50.9788 18.1699 50.8892 18.3304C50.6839 18.6979 50.4389 19.1099 50.148 19.5575C49.1097 21.1552 47.2756 23.5132 44.4346 25.6744C41.2452 28.1005 37.4631 29.7895 33.1935 30.6944C28.1862 31.7556 22.4917 31.7343 16.252 30.6326C16.2536 30.6344 16.2553 30.6364 16.257 30.6383C16.2882 30.6739 16.3201 30.7106 16.3526 30.7483C16.3706 30.7692 16.3889 30.7907 16.4073 30.8123C16.4241 30.832 16.4411 30.852 16.4582 30.8723C16.4795 30.8975 16.5008 30.9228 16.5226 30.9489C16.5348 30.9636 16.5473 30.9789 16.5597 30.9939C16.6013 31.0442 16.6435 31.0959 16.6865 31.1491C16.7033 31.1699 16.72 31.1907 16.737 31.2119C16.759 31.2395 16.7811 31.2673 16.8035 31.2957C16.8249 31.3228 16.8465 31.3506 16.8682 31.3784C16.8871 31.4026 16.9057 31.4263 16.9247 31.4511C16.9639 31.5019 17.0035 31.5542 17.0434 31.6072C17.0575 31.626 17.0718 31.6453 17.086 31.6643C17.1189 31.7083 17.1519 31.7531 17.1852 31.7987C17.1967 31.8144 17.2082 31.83 17.2197 31.8459C17.2655 31.9091 17.3117 31.9732 17.3582 32.0391C24.9205 33.5655 42.523 35.2667 50.7381 20.5834C50.7381 20.5834 52.9504 36.1328 87.4116 34.4447C87.5041 34.3793 87.5975 34.3141 87.6914 34.2491C87.7253 34.2257 87.7597 34.2024 87.7937 34.179C87.845 34.1438 87.8961 34.1086 87.9479 34.0735C88 34.0382 88.0527 34.0031 88.1052 33.9679C88.1409 33.944 88.1763 33.9201 88.2122 33.8962C88.2672 33.8597 88.3228 33.8234 88.3783 33.7871C88.4135 33.764 88.4484 33.7408 88.4838 33.7178C88.5297 33.688 88.5762 33.6583 88.6224 33.6286C88.6685 33.5989 88.7144 33.5691 88.7608 33.5395C88.7856 33.5238 88.8108 33.5081 88.8357 33.4924C89.087 33.3332 89.3428 33.1753 89.6037 33.019C88.4081 33.0675 86.6091 33.1143 84.4375 33.0884Z" fill="#51B4A0"/>
<path d="M82.6315 58.9615C82.4052 58.6061 82.177 58.23 81.9511 57.8344C81.8832 57.7155 81.8167 57.5966 81.7512 57.4776C81.7364 57.4508 81.7221 57.4237 81.7073 57.3969C81.6579 57.3063 81.6089 57.2158 81.5608 57.1252C81.5557 57.1156 81.5503 57.1059 81.5452 57.0963C62.3855 58.2983 47.7852 74.7412 47.7852 74.7412C41.6361 61.4389 25.3258 55.9896 16.433 53.9531C16.4218 53.9695 16.4103 53.986 16.3991 54.0024C16.3412 54.0878 16.2827 54.1731 16.2236 54.2585C16.2034 54.2875 16.1832 54.3166 16.1629 54.3456C16.1055 54.4278 16.0476 54.5101 15.9891 54.5923C15.969 54.6207 15.9489 54.6489 15.9286 54.6773C15.8653 54.7657 15.8013 54.854 15.7368 54.9424C15.7218 54.963 15.7069 54.9836 15.6918 55.0042C15.5281 55.2274 15.3603 55.4506 15.1885 55.6738C15.1812 55.6832 15.1738 55.6926 15.1666 55.702C15.0898 55.8016 15.0121 55.9011 14.9337 56.0007C14.9151 56.0242 14.8963 56.0478 14.8777 56.0714C14.809 56.1581 14.7397 56.2448 14.6698 56.3316C14.6487 56.3579 14.6275 56.3841 14.6061 56.4104C14.5358 56.4972 14.4647 56.5841 14.3931 56.671C14.374 56.6941 14.355 56.7172 14.3359 56.7403C14.2546 56.8384 14.1725 56.9366 14.0897 57.0346C14.0808 57.0452 14.0721 57.0557 14.0631 57.0662C13.7775 57.4037 13.4827 57.7411 13.1787 58.0782C13.1664 58.0918 13.154 58.1055 13.1416 58.1192C13.053 58.2171 12.9637 58.3151 12.8737 58.413C12.859 58.4289 12.8442 58.4449 12.8295 58.4609C12.7374 58.5606 12.6446 58.6604 12.551 58.7601C12.5409 58.7707 12.5309 58.7815 12.5209 58.7922C12.3088 59.0175 12.0932 59.2427 11.873 59.4677C12.3019 59.4331 12.8464 59.405 13.4959 59.405C13.6839 59.405 13.8811 59.4076 14.0864 59.4127C14.1646 59.4147 14.2437 59.417 14.3244 59.4198C14.3498 59.4207 14.3763 59.4219 14.4021 59.4229C16.4467 59.5006 19.6582 59.8877 23.4843 61.2732C23.8057 61.3896 24.1264 61.5118 24.4465 61.6385C27.7335 62.9388 30.9535 64.7789 34.0549 67.1285C34.735 67.6438 35.4095 68.1828 36.0777 68.7467C36.9528 69.4852 37.8173 70.2664 38.671 71.0882C42.5334 74.8063 46.1707 79.3682 49.5182 84.6978C49.5389 84.6405 49.5614 84.5794 49.5848 84.5165C49.8273 83.8642 50.2163 82.9131 50.7907 81.7577C51.7959 79.7366 53.5819 76.6904 56.3844 73.6564C57.1555 72.8217 57.9637 72.0298 58.807 71.2813C60.6889 69.6107 62.747 68.1575 64.964 66.9335C65.8131 66.4648 66.6851 66.0293 67.5799 65.6285C71.0192 64.0879 74.7965 63.0567 78.8651 62.5415C78.9917 62.5255 79.1185 62.5096 79.2458 62.4946C81.105 62.2747 83.024 62.1614 84.9991 62.1564C84.5992 61.6944 84.0312 60.9989 83.4029 60.1106C83.153 59.7574 82.8936 59.3735 82.6315 58.9615Z" fill="#51B4A0"/>
<path d="M91.1482 32.1779C91.0851 32.1827 84.7479 32.6423 77.2435 31.9779C70.3467 31.3671 61.0336 29.6569 55.8316 24.9772C53.2425 22.6481 51.877 19.7644 51.7729 16.4062C51.7673 16.2249 51.6339 16.0732 51.4549 16.044C51.2757 16.0149 51.1012 16.117 51.0385 16.2872C51.0342 16.2991 50.5868 17.4982 49.4914 19.1769C48.4822 20.7234 46.7 23.0058 43.9412 25.0967C39.0631 28.7936 30.1222 32.5878 15.2298 29.6699C15.0618 29.6368 14.893 29.7205 14.8172 29.8738C14.7414 30.0271 14.7776 30.2121 14.9057 30.3254C14.9173 30.3358 16.0878 31.3822 17.2765 33.2821C18.3751 35.0378 19.7034 37.891 19.7932 41.5128C19.9402 47.447 16.8335 53.5681 10.5591 59.706C10.4392 59.8234 10.4109 60.0054 10.4892 60.1538C10.5675 60.3021 10.7344 60.3813 10.8988 60.3483C10.9114 60.3458 12.1887 60.0963 14.3441 60.1757C16.3324 60.2489 19.4964 60.6251 23.2779 62.0015C29.9679 64.4366 39.9129 70.5382 49.299 85.778C49.3685 85.8909 49.4913 85.9581 49.6215 85.9581C49.6386 85.9581 49.6559 85.957 49.6732 85.9546C49.8219 85.9342 49.9445 85.8278 49.9859 85.6836C49.9901 85.669 50.4143 84.2075 51.4835 82.0626C52.4689 80.0857 54.2198 77.1068 56.9649 74.1414C61.7314 68.9923 70.4681 62.9112 85.1387 62.9112C85.3753 62.9112 85.6141 62.9128 85.8538 62.916C85.8555 62.9161 85.8572 62.9161 85.859 62.9161C86.0105 62.9161 86.1477 62.8257 86.2073 62.686C86.2677 62.5448 86.2368 62.3811 86.1292 62.2715C86.1107 62.2527 84.2628 60.3573 82.5979 57.4366C81.0732 54.7618 79.3927 50.6513 80.0448 46.258C80.816 41.0627 84.6223 36.5645 91.3579 32.8883C91.5146 32.8027 91.5903 32.6195 91.5398 32.4483C91.4893 32.2772 91.3264 32.1648 91.1482 32.1779ZM88.8363 33.4912C88.8114 33.5069 88.7863 33.5226 88.7615 33.5384C88.715 33.5679 88.6692 33.5977 88.623 33.6274C88.5768 33.6571 88.5303 33.6868 88.4844 33.7167C88.449 33.7397 88.4142 33.7628 88.379 33.7859C88.3235 33.8222 88.2679 33.8585 88.2129 33.8951C88.177 33.9189 88.1416 33.9429 88.1059 33.9668C88.0534 34.0019 88.0006 34.037 87.9486 34.0723C87.8968 34.1074 87.8457 34.1427 87.7944 34.1778C87.7603 34.2012 87.726 34.2245 87.6921 34.2479C87.3531 34.4825 87.0241 34.7199 86.7051 34.9601C86.696 34.967 86.6869 34.9739 86.6778 34.9807C86.6092 35.0326 86.541 35.0844 86.4734 35.1365C86.4598 35.147 86.4463 35.1574 86.4329 35.1678C86.3686 35.2173 86.3049 35.267 86.2416 35.3167C86.2278 35.3275 86.2141 35.3383 86.2004 35.3491C86.135 35.4007 86.07 35.4524 86.0055 35.5043C85.9955 35.5124 85.9853 35.5204 85.9753 35.5286C85.7483 35.7116 85.5268 35.8961 85.3111 36.0822C85.3048 36.0876 85.2986 36.0931 85.2923 36.0985C85.229 36.1532 85.1662 36.208 85.1039 36.263C85.0894 36.2758 85.075 36.2886 85.0605 36.3015C85.0062 36.3496 84.9523 36.3978 84.8987 36.4461C84.8818 36.4614 84.865 36.4766 84.8481 36.4919C84.7965 36.5387 84.7453 36.5856 84.6945 36.6325C84.6778 36.6479 84.6612 36.6633 84.6446 36.6786C84.5921 36.7274 84.5399 36.7763 84.4881 36.8254C84.4745 36.8383 84.4606 36.8512 84.447 36.8642C84.3854 36.9228 84.3243 36.9815 84.2637 37.0404C84.2607 37.0433 84.2577 37.0462 84.2547 37.0491C84.1243 37.1759 83.9965 37.3035 83.8712 37.4317C83.859 37.4441 83.8471 37.4565 83.8351 37.4689C83.7865 37.5189 83.7382 37.5688 83.6904 37.6189C83.6733 37.6368 83.6564 37.6547 83.6394 37.6726C83.5966 37.7178 83.5541 37.763 83.5118 37.8084C83.4935 37.8281 83.4753 37.8477 83.4572 37.8673C83.4161 37.9118 83.3753 37.9564 83.3348 38.001C83.3171 38.0205 83.2994 38.04 83.2818 38.0595C83.2397 38.1063 83.198 38.1531 83.1565 38.2001C83.1416 38.217 83.1264 38.234 83.1115 38.2509C83.0622 38.3072 83.0134 38.3636 82.9649 38.42C82.9585 38.4275 82.952 38.4349 82.9456 38.4424C82.8892 38.5084 82.8333 38.5746 82.7781 38.6409C82.7748 38.6449 82.7716 38.649 82.7682 38.6529C82.7184 38.713 82.6691 38.773 82.6203 38.8333C82.6057 38.8514 82.5914 38.8694 82.5769 38.8874C82.5395 38.934 82.5023 38.9805 82.4655 39.0272C82.4482 39.0493 82.431 39.0713 82.4138 39.0933C82.3801 39.1365 82.3466 39.1797 82.3135 39.223C82.2956 39.2463 82.2779 39.2696 82.2602 39.2929C82.2276 39.3358 82.1954 39.3788 82.1634 39.4218C82.1462 39.4449 82.1291 39.4679 82.112 39.491C82.0788 39.5361 82.046 39.5812 82.0134 39.6264C81.9985 39.6471 81.9833 39.6678 81.9685 39.6887C81.9294 39.7432 81.8908 39.7979 81.8526 39.8527C81.8448 39.864 81.8367 39.8751 81.8289 39.8864C81.7825 39.9532 81.7367 40.0202 81.6915 40.0873C81.6825 40.1007 81.6737 40.1141 81.6647 40.1276C81.6294 40.1804 81.5943 40.2332 81.5597 40.2862C81.5448 40.309 81.5302 40.3319 81.5155 40.3547C81.487 40.3987 81.4588 40.4427 81.4308 40.4869C81.4147 40.5124 81.3988 40.5379 81.3829 40.5634C81.3567 40.6052 81.3308 40.6471 81.3051 40.6891C81.2889 40.7156 81.2728 40.742 81.2568 40.7684C81.2315 40.8103 81.2065 40.8523 81.1816 40.8942C81.1662 40.9203 81.1508 40.9463 81.1356 40.9722C81.1098 41.0164 81.0844 41.0607 81.0591 41.105C81.0455 41.1287 81.0318 41.1524 81.0184 41.1761C80.9877 41.2304 80.9576 41.285 80.9277 41.3395C80.9202 41.3531 80.9126 41.3666 80.9052 41.3801C80.8681 41.4482 80.8317 41.5163 80.7958 41.5847C80.7856 41.6042 80.7757 41.6237 80.7655 41.6432C80.74 41.6922 80.7146 41.7412 80.6897 41.7905C80.6766 41.8164 80.6637 41.8425 80.6508 41.8684C80.6294 41.9114 80.608 41.9544 80.587 41.9974C80.5733 42.0256 80.5598 42.0537 80.5463 42.0819C80.5264 42.1233 80.5068 42.1648 80.4873 42.2063C80.4739 42.235 80.4606 42.2636 80.4474 42.2923C80.4282 42.3341 80.4091 42.3761 80.3903 42.4181C80.3777 42.4461 80.3651 42.4742 80.3526 42.5023C80.333 42.5466 80.3138 42.5912 80.2947 42.6357C80.2837 42.6612 80.2725 42.6867 80.2617 42.7123C80.2382 42.7679 80.2152 42.8237 80.1925 42.8794C80.1866 42.8939 80.1804 42.9084 80.1745 42.923C80.1463 42.9926 80.1188 43.0623 80.0918 43.1323C80.0828 43.1553 80.0743 43.1784 80.0655 43.2015C80.0474 43.2492 80.0293 43.2968 80.0117 43.3446C80.0013 43.3728 79.9912 43.401 79.981 43.4292C79.9655 43.4721 79.9501 43.5151 79.935 43.558C79.9245 43.5881 79.9142 43.6182 79.9038 43.6483C79.8895 43.6899 79.8755 43.7316 79.8616 43.7733C79.8515 43.8038 79.8414 43.8342 79.8315 43.8647C79.8177 43.907 79.8043 43.9492 79.791 43.9916C79.7816 44.0213 79.7723 44.051 79.7631 44.0808C79.7493 44.126 79.7357 44.1713 79.7223 44.2167C79.7143 44.2435 79.7062 44.2702 79.6985 44.2971C79.6811 44.3569 79.6643 44.4169 79.6477 44.4769C79.6443 44.4892 79.6407 44.5015 79.6374 44.5138C79.6179 44.5853 79.599 44.6571 79.5807 44.7289C79.5741 44.7544 79.5679 44.7801 79.5615 44.8057C79.5497 44.853 79.538 44.9002 79.5267 44.9476C79.5195 44.9775 79.5127 45.0075 79.5058 45.0375C79.4957 45.0809 79.4857 45.1243 79.4761 45.1679C79.4692 45.199 79.4625 45.2303 79.4558 45.2615C79.4466 45.3043 79.4376 45.3472 79.4288 45.3901C79.4224 45.4215 79.416 45.4528 79.4098 45.4842C79.4012 45.5278 79.3929 45.5716 79.3847 45.6153C79.3789 45.6458 79.3732 45.6761 79.3677 45.7066C79.3592 45.7538 79.351 45.8012 79.3429 45.8485C79.3383 45.8754 79.3335 45.9023 79.3291 45.9292C79.3179 45.9972 79.3072 46.0654 79.297 46.1337C79.2962 46.1395 79.2952 46.1454 79.2943 46.1511C79.2595 46.3863 79.2313 46.6231 79.2083 46.8611C79.2064 46.8813 79.2038 46.9013 79.2019 46.9215C79.2009 46.9329 79.2002 46.9445 79.1992 46.9559C79.0728 48.365 79.1533 49.82 79.4402 51.3022C79.4405 51.3038 79.4408 51.3054 79.4411 51.307C79.4419 51.3109 79.4427 51.3148 79.4435 51.3186C79.5221 51.7228 79.616 52.1289 79.7252 52.5367C79.733 52.5656 79.7414 52.5946 79.7494 52.6235C79.7688 52.6948 79.7884 52.7661 79.8088 52.8375C79.821 52.8804 79.8339 52.9233 79.8464 52.9661C79.8641 53.0263 79.8817 53.0864 79.9 53.1466C79.9136 53.1913 79.9275 53.236 79.9415 53.2807C79.9598 53.3396 79.9784 53.3986 79.9974 53.4576C80.0117 53.5022 80.0263 53.5469 80.041 53.5916C80.0608 53.6516 80.081 53.7116 80.1014 53.7716C80.1161 53.8149 80.1308 53.8581 80.1458 53.9014C80.1682 53.9656 80.1911 54.0299 80.2141 54.0941C80.228 54.133 80.2417 54.1719 80.2559 54.2108C80.2863 54.294 80.3175 54.3772 80.3491 54.4604C80.3566 54.4803 80.3638 54.5002 80.3714 54.5201C80.4106 54.6224 80.4508 54.7246 80.4917 54.827C80.5054 54.8612 80.5197 54.8956 80.5336 54.9299C80.5618 54.9992 80.59 55.0685 80.619 55.1378C80.6362 55.1789 80.6538 55.2199 80.6712 55.2611C80.6979 55.3238 80.7248 55.3867 80.7522 55.4494C80.771 55.4927 80.79 55.5358 80.8092 55.5791C80.8364 55.6404 80.864 55.7018 80.8918 55.7632C80.9114 55.8065 80.9311 55.8498 80.951 55.8931C80.98 55.9559 81.0095 56.0187 81.0391 56.0816C81.0586 56.1229 81.0778 56.1641 81.0975 56.2054C81.1319 56.2772 81.167 56.349 81.2022 56.4208C81.2179 56.4528 81.2332 56.4848 81.2491 56.5168C81.299 56.6173 81.3498 56.7179 81.4014 56.8184C81.4218 56.8582 81.4428 56.8979 81.4635 56.9377C81.4955 56.9992 81.5275 57.0606 81.5601 57.1221C81.6081 57.2127 81.6572 57.3032 81.7066 57.3937C81.7213 57.4206 81.7356 57.4476 81.7505 57.4745C81.816 57.5935 81.8825 57.7124 81.9504 57.8313C82.1763 58.2269 82.4046 58.6029 82.6308 58.9584C82.8929 59.3704 83.1523 59.7542 83.4021 60.1075C84.0303 60.9958 84.5984 61.6913 84.9983 62.1533L84.9984 62.1535C83.0233 62.1584 81.1043 62.2716 79.245 62.4915C79.1177 62.5065 78.9909 62.5223 78.8643 62.5384C74.7958 63.0537 71.0184 64.0851 67.579 65.6255C66.6843 66.0262 65.8123 66.4617 64.9632 66.9305C62.7462 68.1544 60.6881 69.6076 58.8062 71.2783C57.9629 72.0268 57.1548 72.8187 56.3837 73.6534C53.581 76.6874 51.7948 79.7337 50.7899 81.7549C50.2155 82.9102 49.8266 83.8613 49.584 84.5134C49.5606 84.5763 49.5381 84.6375 49.5173 84.6947C46.1698 79.365 42.5325 74.8032 38.6701 71.0851C37.8164 70.2633 36.9518 69.4821 36.0767 68.7436C35.4086 68.1797 34.7341 67.6406 34.0541 67.1254C30.9526 64.7759 27.7327 62.9357 24.4457 61.6354C24.1255 61.5087 23.8047 61.3865 23.4833 61.2701C19.6574 59.8846 16.4457 59.4977 14.4012 59.4198C14.3754 59.4188 14.3489 59.4176 14.3235 59.4167C14.2429 59.4139 14.1637 59.4116 14.0855 59.4096C13.8801 59.4044 13.6829 59.402 13.4948 59.402C12.8452 59.402 12.3005 59.4299 11.8719 59.4649C11.872 59.4648 11.872 59.4647 11.8721 59.4646C12.0923 59.2396 12.3079 59.0144 12.52 58.7891C12.53 58.7784 12.54 58.7677 12.5501 58.757C12.6437 58.6573 12.7365 58.5575 12.8286 58.4578C12.8433 58.4419 12.8581 58.4258 12.8727 58.4099C12.9629 58.312 13.0521 58.214 13.1406 58.1161C13.153 58.1024 13.1654 58.0887 13.1778 58.0751C13.4817 57.7381 13.7766 57.4006 14.0622 57.0631C14.0711 57.0526 14.0799 57.0421 14.0888 57.0315C14.1717 56.9334 14.2537 56.8353 14.335 56.7372C14.3541 56.7141 14.3731 56.691 14.3921 56.6679C14.4638 56.581 14.5348 56.4941 14.6052 56.4073C14.6265 56.381 14.6477 56.3548 14.6689 56.3285C14.7388 56.2418 14.8081 56.155 14.8767 56.0683C14.8954 56.0447 14.9142 56.0211 14.9327 55.9976C15.0112 55.898 15.0888 55.7985 15.1657 55.6989C15.1729 55.6895 15.1803 55.6801 15.1875 55.6707C15.3594 55.4475 15.5271 55.2243 15.6909 55.0011C15.706 54.9805 15.7208 54.9599 15.7359 54.9393C15.8004 54.8509 15.8645 54.7625 15.9277 54.6742C15.9479 54.6458 15.9681 54.6176 15.9882 54.5892C16.0467 54.507 16.1046 54.4247 16.162 54.3425C16.1822 54.3135 16.2025 54.2844 16.2226 54.2554C16.2818 54.1701 16.3403 54.0847 16.3982 53.9994C16.4159 53.9733 16.4337 53.9474 16.4512 53.9214C16.4838 53.8731 16.5161 53.8247 16.5484 53.7763C16.5771 53.7333 16.6056 53.6903 16.6339 53.6475C16.6644 53.6012 16.6948 53.555 16.7249 53.5088C16.7552 53.4624 16.7852 53.416 16.8151 53.3696C16.8429 53.3265 16.8709 53.2834 16.8984 53.2402C16.9346 53.1834 16.9704 53.1265 17.0061 53.0696C17.0277 53.0353 17.0495 53.0009 17.0709 52.9666C17.1239 52.8815 17.1762 52.7964 17.228 52.7114C17.2499 52.6754 17.2713 52.6395 17.293 52.6036C17.3261 52.5486 17.3592 52.4936 17.3919 52.4386C17.4151 52.3996 17.438 52.3605 17.4609 52.3214C17.4917 52.269 17.5223 52.2166 17.5526 52.1643C17.5753 52.125 17.598 52.0857 17.6204 52.0465C17.6512 51.9927 17.6816 51.939 17.7119 51.8852C17.7328 51.848 17.7539 51.8108 17.7747 51.7736C17.8111 51.7082 17.847 51.6428 17.8827 51.5774C17.9022 51.5418 17.9217 51.5062 17.941 51.4706C17.9819 51.3949 18.0224 51.3191 18.0624 51.2435C18.0834 51.2037 18.1039 51.164 18.1246 51.1243C18.1506 51.0744 18.1765 51.0246 18.2021 50.9748C18.2247 50.9308 18.2471 50.8867 18.2694 50.8427C18.2922 50.7976 18.3148 50.7525 18.3372 50.7075C18.3604 50.661 18.3835 50.6145 18.4063 50.568C18.4266 50.5266 18.4466 50.4851 18.4667 50.4437C18.4905 50.3944 18.5145 50.3451 18.5379 50.2959C18.5532 50.2639 18.568 50.2318 18.5831 50.1998C18.6078 50.147 18.633 50.0942 18.6574 50.0414C19.9828 47.1681 20.6197 44.2923 20.5503 41.4939C20.5389 41.0328 20.508 40.5838 20.4611 40.1471C20.1218 36.9922 18.9277 34.4928 17.9185 32.8802C17.9154 32.8751 17.9122 32.8702 17.9089 32.8651C17.8706 32.8038 17.8322 32.7435 17.7939 32.684C17.774 32.6531 17.7542 32.6227 17.7343 32.5922C17.7117 32.5576 17.6891 32.5232 17.6666 32.4891C17.6461 32.4582 17.6257 32.4275 17.6053 32.397C17.5807 32.3604 17.5562 32.3241 17.5317 32.2882C17.5152 32.264 17.4987 32.2396 17.4823 32.2158C17.4408 32.1554 17.3994 32.096 17.3583 32.0378C17.3117 31.9719 17.2656 31.9078 17.2197 31.8446C17.2082 31.8287 17.1967 31.8131 17.1853 31.7974C17.1519 31.7518 17.1189 31.7071 17.0861 31.663C17.0718 31.644 17.0575 31.6247 17.0434 31.6059C17.0035 31.5528 16.9639 31.5008 16.9247 31.4498C16.9057 31.4251 16.8871 31.4013 16.8682 31.3771C16.8466 31.3493 16.8249 31.3215 16.8035 31.2944C16.7812 31.2661 16.759 31.2382 16.7371 31.2106C16.7201 31.1894 16.7033 31.1686 16.6865 31.1478C16.6436 31.0946 16.6014 31.0428 16.5598 30.9926C16.5474 30.9776 16.5349 30.9623 16.5226 30.9476C16.5008 30.9215 16.4796 30.8963 16.4582 30.871C16.4412 30.8508 16.4242 30.8307 16.4074 30.811C16.389 30.7894 16.3707 30.7679 16.3526 30.747C16.3203 30.7095 16.2882 30.6724 16.257 30.637C16.2554 30.6351 16.2536 30.6331 16.252 30.6313C22.4918 31.733 28.1863 31.7543 33.1935 30.6931C37.4632 29.7882 41.2452 28.0993 44.4347 25.6731C47.2757 23.5119 49.1097 21.1539 50.1481 19.5562C50.439 19.1086 50.684 18.6966 50.8892 18.3291C50.9789 18.1686 51.0617 18.0156 51.1362 17.8734C51.1362 17.8735 51.1363 17.8736 51.1363 17.8737C51.323 19.2144 51.714 20.4757 52.3055 21.6528C52.8555 22.7474 53.5788 23.7693 54.4747 24.714C54.7425 24.9964 55.0256 25.2719 55.3241 25.5405C55.5434 25.7378 55.7714 25.9315 56.0077 26.1215C56.0111 26.1244 56.0145 26.1272 56.018 26.13C56.0253 26.1359 56.0329 26.1417 56.0402 26.1475C57.4558 27.2808 59.1726 28.2849 61.1744 29.1521C62.4504 29.7049 63.8417 30.2022 65.3454 30.6416C68.7457 31.635 72.7261 32.3385 77.1761 32.7326C78.8034 32.8767 80.3765 32.9682 81.8444 33.0232C82.7533 33.0573 83.6217 33.0773 84.4376 33.0871C86.6092 33.113 88.4081 33.0663 89.6039 33.0177H89.6041C89.3436 33.1741 89.0877 33.332 88.8363 33.4912Z" fill="#186656"/>
<path d="M54.53 20.582C54.53 20.582 56.0667 29.5091 81.9697 31.2652C81.9697 31.2652 60.2375 28.1188 54.53 20.582ZM18.3848 61.8169C28.9574 65.2669 43.8704 79.8027 43.8704 79.8027C32.2961 63.6222 18.3848 61.8169 18.3848 61.8169Z" fill="#186656"/>
</svg>
