<svg width="33" height="33" viewBox="0 0 33 33" fill="none" xmlns="http://www.w3.org/2000/svg">
<path d="M3.1688 23.0656L6.6998 24.1546C7.3928 24.3526 7.9208 24.9466 8.0528 25.6396L8.8448 29.2366C9.1418 30.5236 10.5608 31.1836 11.7158 30.5896L14.9828 28.8736C15.6098 28.5436 16.4018 28.5766 16.9958 28.9726L20.0978 30.9526C21.2198 31.6786 22.7048 31.1176 23.1008 29.8636L24.1898 26.3326C24.3878 25.6396 24.9818 25.1116 25.6748 24.9796L29.2718 24.1876C30.5588 23.8906 31.2188 22.4716 30.6248 21.3166L28.9088 18.0496C28.5788 17.4226 28.6118 16.6306 29.0078 16.0366L30.9878 12.9346C31.7138 11.8126 31.1528 10.3276 29.8988 9.93164L26.3678 8.84264C25.6748 8.64464 25.1468 8.05064 25.0148 7.35764L24.2228 3.76064C23.9258 2.47364 22.5068 1.81364 21.3518 2.40764L18.0848 4.12364C17.4578 4.45364 16.6658 4.42064 16.0718 4.02464L12.9698 2.04464C11.8478 1.31864 10.3628 1.87964 9.9668 3.13364L8.8778 6.66464C8.6798 7.35764 8.0858 7.88564 7.3928 8.01764L3.7958 8.80964C2.5088 9.10664 1.8488 10.5256 2.4428 11.6806L4.1588 14.9476C4.4888 15.5746 4.4558 16.3666 4.0598 16.9606L2.0798 20.0626C1.3538 21.2176 1.9148 22.7026 3.1688 23.0656Z" fill="white"/>
<path d="M9.82951 17.7312C9.69754 17.5793 9.55498 17.4534 9.40183 17.3536C9.24969 17.2513 9.08807 17.1777 8.91697 17.1328C8.74761 17.0871 8.57075 17.0723 8.38638 17.0885C8.20201 17.1046 8.01299 17.1536 7.81931 17.2353C7.50175 17.3694 7.2476 17.5733 7.05685 17.8471C6.86611 18.1208 6.76136 18.4498 6.7426 18.8339C6.72385 19.218 6.81244 19.6421 7.00836 20.1063C7.20429 20.5704 7.44729 20.9293 7.73738 21.1831C8.02746 21.4368 8.33973 21.5897 8.67418 21.6418C9.00863 21.6939 9.34162 21.6499 9.67314 21.51C9.98023 21.3803 10.2231 21.2007 10.4016 20.9712C10.5812 20.7391 10.6856 20.4751 10.7148 20.1791C10.745 19.8805 10.6909 19.5673 10.5524 19.2392L10.769 19.1971L9.1568 19.8777L8.91373 19.3019L10.9552 18.4402L11.1983 19.016C11.3846 19.4574 11.4524 19.881 11.4017 20.2869C11.3528 20.692 11.2013 21.054 10.9474 21.3729C10.6945 21.6894 10.3552 21.9374 9.92947 22.1172C9.45487 22.3175 8.99071 22.3819 8.53699 22.3103C8.08502 22.2379 7.67179 22.0382 7.2973 21.7111C6.92456 21.3833 6.61887 20.9368 6.38022 20.3714C6.20123 19.9474 6.097 19.5422 6.06752 19.1559C6.03905 18.767 6.07905 18.4089 6.18752 18.0814C6.296 17.754 6.46642 17.4662 6.69881 17.218C6.93119 16.9699 7.21925 16.7732 7.56299 16.6281C7.84565 16.5088 8.12717 16.4403 8.40754 16.4227C8.68892 16.4026 8.95835 16.4297 9.21584 16.504C9.47433 16.5757 9.71344 16.6917 9.93315 16.8518C10.1521 17.0102 10.3409 17.209 10.4995 17.4484L9.82951 17.7312ZM13.1145 20.6863L11.4174 16.6662L12.0142 16.4143L12.2705 17.0215L12.3124 17.0038C12.3017 16.774 12.3662 16.5566 12.5058 16.3517C12.6454 16.1468 12.8357 15.9935 13.0764 15.8918C13.1218 15.8727 13.1789 15.8496 13.2477 15.8227C13.3165 15.7957 13.369 15.7766 13.4054 15.7653L13.6706 16.3935C13.6474 16.3971 13.5961 16.4095 13.5167 16.4307C13.4382 16.4494 13.358 16.4761 13.276 16.5107C13.0806 16.5932 12.9234 16.7078 12.8045 16.8547C12.6866 16.999 12.6133 17.1615 12.5847 17.3421C12.5571 17.5203 12.5817 17.7001 12.6583 17.8816L13.7322 20.4256L13.1145 20.6863ZM17.0795 19.1235C16.8248 19.2311 16.5733 19.2807 16.3252 19.2724C16.0763 19.2623 15.8521 19.1915 15.6526 19.0598C15.4524 18.9264 15.2971 18.7288 15.1866 18.4671C15.0893 18.2368 15.0559 18.031 15.0862 17.8496C15.1158 17.6665 15.1892 17.5018 15.3064 17.3558C15.4236 17.2097 15.5653 17.0779 15.7316 16.9604C15.8989 16.8405 16.0707 16.7289 16.2471 16.6256C16.4781 16.4911 16.6662 16.3839 16.8114 16.3042C16.9575 16.2219 17.0571 16.146 17.1099 16.0764C17.1645 16.006 17.1708 15.9211 17.1288 15.8217L17.12 15.8008C17.011 15.5425 16.8556 15.3717 16.6539 15.2883C16.4539 15.2041 16.2117 15.2221 15.9273 15.3421C15.6324 15.4666 15.4285 15.6288 15.3155 15.8286C15.2025 16.0284 15.1429 16.216 15.1367 16.3913L14.462 16.4294C14.4636 16.1409 14.5229 15.8918 14.64 15.682C14.758 15.4698 14.9094 15.2928 15.0942 15.1511C15.28 15.0069 15.4741 14.892 15.6765 14.8066C15.8057 14.7521 15.9606 14.7052 16.1414 14.6659C16.3231 14.6241 16.5124 14.6172 16.7092 14.6451C16.9078 14.6723 17.0996 14.7589 17.2845 14.9049C17.4695 15.0509 17.6294 15.2835 17.7642 15.6028L18.8823 18.2515L18.2646 18.5122L18.0348 17.9678L18.0034 17.9811C17.9984 18.086 17.968 18.2088 17.9122 18.3495C17.8565 18.4902 17.7622 18.6297 17.6294 18.768C17.4966 18.9063 17.3133 19.0248 17.0795 19.1235ZM16.9395 18.5289C17.1838 18.4258 17.3694 18.2909 17.4964 18.1242C17.6252 17.9568 17.7002 17.7791 17.7216 17.5912C17.7448 17.4026 17.721 17.2245 17.6503 17.057L17.4117 16.4917C17.3988 16.5342 17.3533 16.5873 17.2754 16.651C17.1985 16.7123 17.1065 16.7768 16.9994 16.8446C16.8934 16.9099 16.7892 16.9724 16.6869 17.032C16.5856 17.0892 16.5037 17.1361 16.4411 17.1728C16.2894 17.2615 16.1537 17.3589 16.034 17.4649C15.9153 17.5685 15.8327 17.6845 15.7862 17.8131C15.7408 17.9392 15.7512 18.0807 15.8175 18.2378C15.9081 18.4524 16.056 18.5812 16.2612 18.6241C16.4674 18.6645 16.6935 18.6328 16.9395 18.5289ZM20.061 13.0174L20.2819 13.5409L18.1986 14.4203L17.9776 13.8969L20.061 13.0174ZM18.1782 12.6774L18.7959 12.4167L20.4134 16.2483C20.4871 16.4228 20.5676 16.543 20.655 16.6089C20.7435 16.6723 20.8341 16.7019 20.9269 16.6977C21.0207 16.691 21.1129 16.6685 21.2037 16.6302C21.2717 16.6014 21.3261 16.5744 21.3667 16.549C21.4067 16.5218 21.4386 16.5001 21.4626 16.4838L21.8225 16.9857C21.7872 17.019 21.7354 17.0594 21.667 17.1068C21.5993 17.1559 21.5079 17.2048 21.3928 17.2534C21.2183 17.3271 21.0314 17.3617 20.8323 17.3574C20.6348 17.3524 20.4487 17.2963 20.274 17.1891C20.101 17.0812 19.9651 16.9104 19.8664 16.6766L18.1782 12.6774ZM22.6871 16.6453L20.9901 12.6252L21.6078 12.3645L23.3048 16.3846L22.6871 16.6453ZM21.0213 11.8226C20.9009 11.8734 20.7798 11.8762 20.6579 11.8311C20.5378 11.7851 20.4535 11.7046 20.4048 11.5895C20.3562 11.4743 20.3574 11.3577 20.4082 11.2396C20.4609 11.1207 20.5474 11.0359 20.6678 10.9851C20.7882 10.9343 20.9084 10.9318 21.0285 10.9777C21.1504 11.0229 21.2356 11.1031 21.2842 11.2182C21.3329 11.3334 21.3309 11.4504 21.2782 11.5692C21.2274 11.6873 21.1417 11.7718 21.0213 11.8226ZM25.9667 11.5851L25.4782 11.9764C25.4042 11.8987 25.3148 11.8305 25.2099 11.772C25.1061 11.711 24.9844 11.676 24.8449 11.6671C24.7055 11.6581 24.5459 11.6916 24.3662 11.7674C24.1201 11.8713 23.9391 12.0145 23.8229 12.1972C23.7078 12.3774 23.6867 12.5538 23.7596 12.7266C23.8244 12.8801 23.9314 12.9778 24.0807 13.0196C24.2299 13.0615 24.4357 13.062 24.698 13.0211L25.3567 12.9158C25.7529 12.8513 26.0771 12.8717 26.3292 12.9771C26.5806 13.0806 26.7655 13.2729 26.8841 13.5538C26.9813 13.7841 27.002 14.018 26.9459 14.2554C26.8917 14.4922 26.7689 14.7126 26.5775 14.9167C26.3862 15.1208 26.1343 15.2888 25.822 15.4207C25.412 15.5937 25.035 15.648 24.6912 15.5835C24.3473 15.5189 24.0675 15.3308 23.8516 15.019L24.376 14.6249C24.5231 14.8177 24.6972 14.9354 24.8982 14.9781C25.1009 15.0199 25.3287 14.9875 25.5817 14.8807C25.8696 14.7592 26.0724 14.6016 26.1901 14.408C26.3088 14.2119 26.3317 14.0275 26.2588 13.8548C26.1998 13.7152 26.1016 13.6189 25.9641 13.566C25.8259 13.5112 25.6457 13.503 25.4234 13.5414L24.6871 13.6672C24.2821 13.7353 23.9545 13.7143 23.7045 13.604C23.4554 13.4912 23.2723 13.2961 23.1552 13.0187C23.0594 12.7919 23.0384 12.5643 23.0921 12.3361C23.1476 12.1071 23.2651 11.8961 23.4447 11.7031C23.6261 11.5094 23.8581 11.3528 24.1408 11.2335C24.5386 11.0656 24.8878 11.021 25.1882 11.0997C25.4905 11.1777 25.75 11.3395 25.9667 11.5851Z" fill="#0E1317"/>
</svg>
